<svg xmlns="http://www.w3.org/2000/svg" xmlns:xlink="http://www.w3.org/1999/xlink" width="124.482" height="54.518" viewBox="0 0 124.482 54.518">
  <defs>
    <linearGradient id="linear-gradient" x1="0.5" y1="1" x2="0.5" gradientUnits="objectBoundingBox">
      <stop offset="0" stop-color="#3c95d1"/>
      <stop offset="0.1" stop-color="#0684c3"/>
      <stop offset="0.4" stop-color="#0a74bb"/>
      <stop offset="0.6" stop-color="#0a74bb"/>
      <stop offset="0.9" stop-color="#0684c3"/>
      <stop offset="1" stop-color="#3c95d1"/>
    </linearGradient>
    <linearGradient id="linear-gradient-2" x1="0.5" x2="0.5" y2="0" xlink:href="#linear-gradient"/>
    <clipPath id="clip-path">
      <path id="Path_49" data-name="Path 49" d="M70.29,83.218v.6c0,2.624-.329,8.881-12.449,8.881-13.756,0-14.151-6.763-14.151-10.221V81.89c0,3.447.4,10.221,14.151,10.221C69.961,92.111,70.29,85.853,70.29,83.218Z" transform="translate(-43.69 -81.89)" fill="none"/>
    </clipPath>
    <linearGradient id="linear-gradient-4" x1="0.5" y1="1" x2="0.5" gradientUnits="objectBoundingBox">
      <stop offset="0" stop-color="#3c95d1"/>
      <stop offset="0.1" stop-color="#0684c3"/>
      <stop offset="0.4" stop-color="#0a74bb"/>
      <stop offset="0.6" stop-color="#0a74bb"/>
      <stop offset="0.75" stop-color="#0684c3"/>
      <stop offset="0.9" stop-color="#3c95d1"/>
    </linearGradient>
    <clipPath id="clip-path-2">
      <path id="Path_52" data-name="Path 52" d="M44.19,50.72Z" transform="translate(-44.19 -50.72)" fill="none"/>
    </clipPath>
    <clipPath id="clip-path-3">
      <path id="Path_54" data-name="Path 54" d="M68.42,51.39Z" transform="translate(-68.42 -51.39)" fill="none"/>
    </clipPath>
    <linearGradient id="linear-gradient-5" x1="0.5" y1="1" x2="0.5" gradientUnits="objectBoundingBox">
      <stop offset="0.1" stop-color="#0684c3"/>
      <stop offset="0.4" stop-color="#0a74bb"/>
      <stop offset="0.65" stop-color="#3c95d1"/>
      <stop offset="1" stop-color="#6bb3e2"/>
    </linearGradient>
    <clipPath id="clip-path-4">
      <path id="Path_64" data-name="Path 64" d="M50.07,52.285v-.593c0-1.383.077-4.622,5.983-4.622,6.159,0,6.422,3.228,6.488,5.324v.593c-.066-2.1-.329-5.324-6.488-5.324C50.147,47.663,50.07,50.9,50.07,52.285Z" transform="translate(-50.07 -47.07)" fill="none"/>
    </clipPath>
    <clipPath id="clip-path-5">
      <path id="Path_72" data-name="Path 72" d="M50.07,51.935v-.593c0-1.383.077-4.622,5.983-4.622,6.159,0,6.422,3.228,6.488,5.324v.593c-.066-2.1-.329-5.324-6.488-5.324C50.147,47.313,50.07,50.551,50.07,51.935Z" transform="translate(-50.07 -46.72)" fill="#fff"/>
    </clipPath>
    <clipPath id="clip-path-6">
      <path id="Path_84" data-name="Path 84" d="M70.29,82.868v.593c0,2.635-.329,8.892-12.449,8.892-13.756,0-14.151-6.763-14.151-10.221V81.54c0,3.447.4,10.221,14.151,10.221C69.961,91.761,70.29,85.5,70.29,82.868Z" transform="translate(-43.69 -81.54)" fill="#fff"/>
    </clipPath>
  </defs>
  <g id="ajax-seeklogo-01" transform="translate(-9.042 -39.834)">
    <g id="Layer_1" data-name="Layer 1" transform="translate(9.042 39.834)">
      <path id="Path_12" data-name="Path 12" d="M77.157,64.9,67.09,54.84,56.979,64.9,60.5,68.508,63.8,65.214V84.843c0,1.317.088,4.743-5.994,4.743s-6.422-3.228-6.477-5.335v-.626H43.64v.626c0,3.195-.439,10.8,14.151,10.8,12.812,0,12.438-6.993,12.438-9.3v-19.3h0v-1.23l3.293,3.293Z" transform="translate(-11.287 -40.832)" fill="#177bc0"/>
      <path id="Path_13" data-name="Path 13" d="M33.429,81.492v.593L29.06,71.4V70.81Z" transform="translate(-12.713 -39.27)" fill="#024774"/>
      <path id="Path_14" data-name="Path 14" d="M29.459,70.81V71.4L24.98,82.085v-.593Z" transform="translate(-13.113 -39.27)" fill="#044a79"/>
      <rect id="Rectangle_32" data-name="Rectangle 32" width="12.724" height="0.593" transform="translate(9.902 46.91)" fill="#024774"/>
      <path id="Path_15" data-name="Path 15" d="M34.677,65.15,46.918,92.31H39.069L36.8,86.733H24.072L21.723,92.31H14.17L26.51,65.15Zm-8.618,16.9h8.783L30.451,71.364,26.059,82.045" transform="translate(-14.17 -39.823)" fill="url(#linear-gradient)"/>
      <g id="Group_1" data-name="Group 1" transform="translate(0.011 25.327)">
        <path id="Path_16" data-name="Path 16" d="M34.676,65.15,46.917,92.31H39.079L36.8,86.733H24.071L21.722,92.31H14.18L26.509,65.15Zm-8.618,16.9h8.783L30.45,71.364,26.058,82.045" transform="translate(-14.18 -65.15)" fill="#0a74bb"/>
      </g>
      <rect id="Rectangle_33" data-name="Rectangle 33" width="7.553" height="0.593" transform="translate(0 52.487)" fill="#024774"/>
      <path id="Path_17" data-name="Path 17" d="M23.4,84.81V85.4L21.05,90.98v-.593Z" transform="translate(-13.497 -37.9)" fill="#044a78"/>
      <rect id="Rectangle_34" data-name="Rectangle 34" width="7.827" height="0.593" transform="translate(24.899 52.487)" fill="#024774"/>
      <path id="Path_18" data-name="Path 18" d="M37.052,90.387v.593L34.78,85.4V84.81Z" transform="translate(-12.154 -37.9)" fill="#024774"/>
      <g id="Group_2" data-name="Group 2" transform="translate(0 31.156)">
        <path id="Path_19" data-name="Path 19" d="M33.429,81.142v.593L29.06,71.053V70.46Z" transform="translate(-12.713 -70.46)" fill="#fff"/>
        <path id="Path_20" data-name="Path 20" d="M29.459,70.46v.593L24.98,81.735v-.593Z" transform="translate(-13.113 -70.46)" fill="#fff"/>
        <rect id="Rectangle_35" data-name="Rectangle 35" width="12.724" height="0.593" transform="translate(9.902 15.369)" fill="#fff"/>
        <rect id="Rectangle_36" data-name="Rectangle 36" width="7.553" height="0.593" transform="translate(0 20.946)" fill="#fff"/>
        <path id="Path_21" data-name="Path 21" d="M23.4,84.46v.593L21.05,90.63v-.593Z" transform="translate(-13.497 -69.091)" fill="#fff"/>
        <rect id="Rectangle_37" data-name="Rectangle 37" width="7.827" height="0.593" transform="translate(24.899 20.946)" fill="#fff"/>
        <path id="Path_22" data-name="Path 22" d="M37.052,90.037v.593L34.78,85.053V84.46Z" transform="translate(-12.154 -69.091)" fill="#fff"/>
      </g>
      <path id="Path_23" data-name="Path 23" d="M88.757,65.15l12.23,27.16H93.149l-2.272-5.577H78.152L75.8,92.31H68.25L80.589,65.15Zm-8.651,16.9h8.859L84.575,71.364l-4.49,10.682" transform="translate(-8.88 -39.823)" fill="url(#linear-gradient-2)"/>
      <path id="Path_24" data-name="Path 24" d="M87.5,81.492v.593L83.14,71.4V70.81Z" transform="translate(-7.423 -39.27)" fill="#024774"/>
      <path id="Path_25" data-name="Path 25" d="M83.54,70.81V71.4L79.05,82.085v-.593Z" transform="translate(-7.823 -39.27)" fill="#044a79"/>
      <rect id="Rectangle_38" data-name="Rectangle 38" width="12.724" height="0.593" transform="translate(69.273 46.91)" fill="#024774"/>
      <rect id="Rectangle_39" data-name="Rectangle 39" width="7.553" height="0.593" transform="translate(59.37 52.487)" fill="#024774"/>
      <path id="Path_26" data-name="Path 26" d="M77.479,84.81V85.4L75.13,90.98v-.593Z" transform="translate(-8.207 -37.9)" fill="#044a78"/>
      <rect id="Rectangle_40" data-name="Rectangle 40" width="7.827" height="0.593" transform="translate(84.269 52.487)" fill="#024774"/>
      <path id="Path_27" data-name="Path 27" d="M91.143,90.387v.593L88.86,85.4V84.81Z" transform="translate(-6.864 -37.9)" fill="#024774"/>
      <g id="Group_3" data-name="Group 3" transform="translate(59.37 31.156)">
        <path id="Path_28" data-name="Path 28" d="M87.5,81.142v.593L83.14,71.053V70.46Z" transform="translate(-66.793 -70.46)" fill="#fff"/>
        <path id="Path_29" data-name="Path 29" d="M83.54,70.46v.593L79.05,81.735v-.593Z" transform="translate(-67.194 -70.46)" fill="#fff"/>
        <rect id="Rectangle_41" data-name="Rectangle 41" width="12.724" height="0.593" transform="translate(9.902 15.369)" fill="#fff"/>
        <rect id="Rectangle_42" data-name="Rectangle 42" width="7.553" height="0.593" transform="translate(0 20.946)" fill="#fff"/>
        <path id="Path_30" data-name="Path 30" d="M77.479,84.46v.593L75.13,90.63v-.593Z" transform="translate(-67.577 -69.091)" fill="#fff"/>
        <rect id="Rectangle_43" data-name="Rectangle 43" width="7.827" height="0.593" transform="translate(24.899 20.946)" fill="#fff"/>
        <path id="Path_31" data-name="Path 31" d="M91.143,90.037v.593L88.86,85.053V84.46Z" transform="translate(-66.234 -69.091)" fill="#fff"/>
      </g>
      <path id="Path_32" data-name="Path 32" d="M119.061,78.258,130.292,92.31h-8.772l-6.565-9.255-6.938,9.255H99.63l11.11-13.833L100.168,65.15H108.8L114.956,74l6.334-8.848h8.343Z" transform="translate(-5.81 -39.823)" fill="url(#linear-gradient)"/>
      <path id="Path_33" data-name="Path 33" d="M127.9,65.15v.593L117.33,78.851v-.593Z" transform="translate(-4.079 -39.823)" fill="#034775"/>
      <path id="Path_34" data-name="Path 34" d="M110.692,78.478v.593L100.12,65.743V65.15Z" transform="translate(-5.762 -39.823)" fill="#024774"/>
      <path id="Path_35" data-name="Path 35" d="M120.155,90.715v.593l-6.565-9.255V81.46Z" transform="translate(-4.445 -38.228)" fill="#024774"/>
      <rect id="Rectangle_44" data-name="Rectangle 44" width="8.387" height="0.593" transform="translate(93.82 52.487)" fill="#024774"/>
      <path id="Path_36" data-name="Path 36" d="M114.208,81.46v.593l-6.938,9.255v-.593Z" transform="translate(-5.063 -38.228)" fill="#034875"/>
      <rect id="Rectangle_45" data-name="Rectangle 45" width="8.772" height="0.593" transform="translate(115.71 52.487)" fill="#024774"/>
      <g id="Group_4" data-name="Group 4" transform="translate(93.82 24.943)">
        <path id="Path_37" data-name="Path 37" d="M127.9,64.8v.593L117.33,78.5v-.6Z" transform="translate(-97.899 -64.8)" fill="#fff"/>
        <path id="Path_38" data-name="Path 38" d="M110.692,78.128v.593L100.12,65.393V64.8Z" transform="translate(-99.582 -64.8)" fill="#fff"/>
        <path id="Path_39" data-name="Path 39" d="M120.155,90.365v.593L113.59,81.7V81.11Z" transform="translate(-98.264 -63.205)" fill="#fff"/>
        <rect id="Rectangle_46" data-name="Rectangle 46" width="8.387" height="0.593" transform="translate(0 27.16)" fill="#fff"/>
        <path id="Path_40" data-name="Path 40" d="M114.208,81.11V81.7l-6.938,9.255v-.593Z" transform="translate(-98.883 -63.205)" fill="#fff"/>
        <rect id="Rectangle_47" data-name="Rectangle 47" width="8.772" height="0.593" transform="translate(21.891 27.16)" fill="#fff"/>
      </g>
      <path id="Path_41" data-name="Path 41" d="M62.333,64.02v.593L59.04,67.906v-.593Z" transform="translate(-9.781 -39.934)" fill="#024774"/>
      <path id="Path_42" data-name="Path 42" d="M59.359,67.338v.593L55.78,64.363V63.77Z" transform="translate(-10.1 -39.958)" fill="#024774"/>
      <path id="Path_43" data-name="Path 43" d="M71.192,67.322v.6L67.92,64.633V64.04Z" transform="translate(-8.912 -39.932)" fill="#024774"/>
      <path id="Path_44" data-name="Path 44" d="M74.49,63.77v.593l-3.59,3.59v-.6Z" transform="translate(-8.621 -39.958)" fill="#024774"/>
      <g id="Group_7" data-name="Group 7" transform="translate(32.408 43.704)">
        <g id="Group_6" data-name="Group 6" clip-path="url(#clip-path)">
          <g id="Group_5" data-name="Group 5" transform="translate(0 0)">
            <path id="Path_45" data-name="Path 45" d="M67.929,83.1v.6a12.821,12.821,0,0,1-.1,1.724v-.593a12.889,12.889,0,0,0,.1-1.735" transform="translate(-41.329 -81.772)" fill="#084f80"/>
            <path id="Path_46" data-name="Path 46" d="M67.856,84.68v.593a8.98,8.98,0,0,1-.3,1.317V86a8.975,8.975,0,0,0,.3-1.317" transform="translate(-41.355 -81.617)" fill="#074d7d"/>
            <path id="Path_47" data-name="Path 47" d="M67.605,85.88v.593A6.76,6.76,0,0,1,67.1,87.7V87.11a6.456,6.456,0,0,0,.505-1.23" transform="translate(-41.4 -81.5)" fill="#054b7a"/>
            <path id="Path_48" data-name="Path 48" d="M69.39,87.5v.593c-1.263,2.36-4.282,4.611-11.549,4.611-13.756,0-14.151-6.763-14.151-10.221V81.89c0,3.447.4,10.221,14.151,10.221,7.268,0,10.287-2.2,11.549-4.611" transform="translate(-43.69 -81.89)" fill="#044977"/>
          </g>
        </g>
      </g>
      <path id="Path_50" data-name="Path 50" d="M67.087,54.58l10.1,10.089-3.623,3.546L70.27,64.921V85.473c0,2.316.362,9.31-12.449,9.31-14.59,0-14.151-7.608-14.151-10.8v-.626h7.685v.626c0,2.1.318,5.335,6.477,5.335s5.961-3.436,5.961-4.754V64.921L60.5,68.215l-3.568-3.568Z" transform="translate(-11.284 -40.857)" fill="url(#linear-gradient-4)"/>
      <g id="Group_10" data-name="Group 10" transform="translate(32.957 9.485)">
        <g id="Group_9" data-name="Group 9" clip-path="url(#clip-path-2)">
          <g id="Group_8" data-name="Group 8" transform="translate(0 -0.16)">
            <path id="Path_51" data-name="Path 51" d="M44.19,50.56h0" transform="translate(-44.19 -50.56)" fill="#044977"/>
          </g>
        </g>
      </g>
      <g id="Group_13" data-name="Group 13" transform="translate(59.557 10.221)">
        <g id="Group_12" data-name="Group 12" clip-path="url(#clip-path-3)">
          <g id="Group_11" data-name="Group 11">
            <path id="Path_53" data-name="Path 53" d="M68.42,51.39h0" transform="translate(-68.42 -51.39)" fill="#084f80"/>
          </g>
        </g>
      </g>
      <path id="Path_55" data-name="Path 55" d="M57.241,42.08c14.59,0,14.162,7.608,14.162,10.8v.626H63.718v-.626c-.066-2.1-.329-5.324-6.488-5.324s-5.983,3.425-5.983,4.743V71.919l3.293-3.293,3.568,3.568L48.019,82.282,37.93,72.193l3.579-3.59L44.8,71.9V51.39C44.8,49.084,44.429,42.08,57.241,42.08Z" transform="translate(-11.846 -42.08)" fill="url(#linear-gradient-5)"/>
      <g id="Group_14" data-name="Group 14" transform="translate(59.37 25.327)">
        <path id="Path_56" data-name="Path 56" d="M88.757,65.15l12.23,27.16H93.149l-2.272-5.577H78.152L75.8,92.31H68.25L80.589,65.15Zm-8.651,16.9h8.859L84.575,71.364l-4.49,10.682" transform="translate(-68.25 -65.15)" fill="#0a74bb"/>
      </g>
      <g id="Group_15" data-name="Group 15" transform="translate(93.82 25.327)">
        <path id="Path_57" data-name="Path 57" d="M119.061,78.258,130.292,92.31h-8.772l-6.565-9.255-6.938,9.255H99.63l11.11-13.833L100.168,65.15H108.8L114.956,74l6.334-8.848h8.343Z" transform="translate(-99.63 -65.15)" fill="#0a74bb"/>
      </g>
      <g id="Group_16" data-name="Group 16" transform="translate(32.384 13.723)">
        <path id="Path_58" data-name="Path 58" d="M67.087,54.58l10.1,10.089-3.623,3.546L70.27,64.921V85.473c0,2.316.362,9.31-12.449,9.31-14.59,0-14.151-7.608-14.151-10.8v-.626h7.685v.626c0,2.1.318,5.335,6.477,5.335s5.961-3.436,5.961-4.754V64.921L60.5,68.215l-3.568-3.568Z" transform="translate(-43.669 -54.58)" fill="#0a74bb"/>
      </g>
      <g id="Group_17" data-name="Group 17" transform="translate(26.084)">
        <path id="Path_59" data-name="Path 59" d="M57.241,42.08c14.59,0,14.162,7.608,14.162,10.8v.626H63.718v-.626c-.066-2.1-.329-5.324-6.488-5.324s-5.983,3.425-5.983,4.743V71.919l3.293-3.293,3.568,3.568L48.019,82.282,37.93,72.193l3.579-3.59L44.8,71.9V51.39C44.8,49.084,44.429,42.08,57.241,42.08Z" transform="translate(-37.93 -42.08)" fill="#0a74bb"/>
      </g>
      <g id="Group_20" data-name="Group 20" transform="translate(39.412 5.478)">
        <g id="Group_19" data-name="Group 19" clip-path="url(#clip-path-4)">
          <g id="Group_18" data-name="Group 18" transform="translate(0.037)">
            <path id="Path_60" data-name="Path 60" d="M62.5,52.394v.593c-.066-2.1-.329-5.324-6.488-5.324-3.414,0-4.885,1.1-5.489,2.262v-.593c.626-1.175,2.1-2.262,5.489-2.262,6.159,0,6.422,3.228,6.488,5.324" transform="translate(-50.063 -47.07)" fill="#044977"/>
            <path id="Path_61" data-name="Path 61" d="M50.523,49.13v.593a4.39,4.39,0,0,0-.263.637v-.593a4.39,4.39,0,0,1,.263-.637" transform="translate(-50.088 -46.868)" fill="#054b7a"/>
            <path id="Path_62" data-name="Path 62" d="M50.274,49.71V50.3a4.512,4.512,0,0,0-.154.7v-.593a4.512,4.512,0,0,1,.154-.7" transform="translate(-50.102 -46.812)" fill="#074d7d"/>
            <path id="Path_63" data-name="Path 63" d="M50.122,50.35v.593a7.162,7.162,0,0,0,0,1.021v-.593a7.162,7.162,0,0,1,0-1.021" transform="translate(-50.103 -46.749)" fill="#084f80"/>
          </g>
        </g>
      </g>
      <rect id="Rectangle_48" data-name="Rectangle 48" width="7.674" height="0.593" transform="translate(51.883 11.428)" fill="#024774"/>
      <path id="Path_65" data-name="Path 65" d="M57.219,69.52v.593L47.13,80.2v-.593Z" transform="translate(-10.946 -39.396)" fill="#024774"/>
      <path id="Path_66" data-name="Path 66" d="M48.029,79.609V80.2L37.94,70.113V69.52Z" transform="translate(-11.845 -39.396)" fill="#024774"/>
      <g id="Group_24" data-name="Group 24" transform="translate(26.095 5.094)">
        <g id="Group_23" data-name="Group 23" transform="translate(13.317)">
          <path id="Path_67" data-name="Path 67" d="M50.07,51.935v-.593c0-1.383.077-4.622,5.983-4.622,6.159,0,6.422,3.228,6.488,5.324v.593c-.066-2.1-.329-5.324-6.488-5.324C50.147,47.313,50.07,50.551,50.07,51.935Z" transform="translate(-50.07 -46.72)" fill="#fff"/>
          <g id="Group_22" data-name="Group 22" clip-path="url(#clip-path-5)">
            <g id="Group_21" data-name="Group 21" transform="translate(0.037)">
              <path id="Path_68" data-name="Path 68" d="M62.5,52.044v.593c-.066-2.1-.329-5.324-6.488-5.324-3.414,0-4.885,1.1-5.489,2.262v-.593c.626-1.175,2.1-2.262,5.489-2.262,6.159,0,6.422,3.228,6.488,5.324" transform="translate(-50.063 -46.72)" fill="#fff"/>
              <path id="Path_69" data-name="Path 69" d="M50.523,48.78v.593a4.39,4.39,0,0,0-.263.637v-.593a4.39,4.39,0,0,1,.263-.637" transform="translate(-50.088 -46.518)" fill="#fff"/>
              <path id="Path_70" data-name="Path 70" d="M50.274,49.36v.593a4.513,4.513,0,0,0-.154.7v-.593a4.513,4.513,0,0,1,.154-.7" transform="translate(-50.102 -46.462)" fill="#fff"/>
              <path id="Path_71" data-name="Path 71" d="M50.122,50v.593a7.162,7.162,0,0,0,0,1.021v-.593a7.162,7.162,0,0,1,0-1.021" transform="translate(-50.103 -46.399)" fill="#fff"/>
            </g>
          </g>
        </g>
        <rect id="Rectangle_49" data-name="Rectangle 49" width="7.674" height="0.593" transform="translate(25.788 5.95)" fill="#fff"/>
        <path id="Path_73" data-name="Path 73" d="M57.219,69.17v.593L47.13,79.852v-.593Z" transform="translate(-37.041 -44.524)" fill="#fff"/>
        <path id="Path_74" data-name="Path 74" d="M48.029,79.259v.593L37.94,69.763V69.17Z" transform="translate(-37.94 -44.524)" fill="#fff"/>
      </g>
      <g id="Group_28" data-name="Group 28" transform="translate(32.408 23.428)">
        <path id="Path_75" data-name="Path 75" d="M62.333,63.67v.593L59.04,67.556v-.593Z" transform="translate(-42.188 -63.396)" fill="#fff"/>
        <path id="Path_76" data-name="Path 76" d="M59.359,66.988v.593L55.78,64.013V63.42Z" transform="translate(-42.507 -63.42)" fill="#fff"/>
        <path id="Path_77" data-name="Path 77" d="M71.192,66.972v.593L67.92,64.272V63.69Z" transform="translate(-41.32 -63.394)" fill="#fff"/>
        <path id="Path_78" data-name="Path 78" d="M74.49,63.42v.593L70.9,67.592V67Z" transform="translate(-41.028 -63.42)" fill="#fff"/>
        <g id="Group_27" data-name="Group 27" transform="translate(0 19.893)">
          <path id="Path_79" data-name="Path 79" d="M70.29,82.868v.593c0,2.635-.329,8.892-12.449,8.892-13.756,0-14.151-6.763-14.151-10.221V81.54c0,3.447.4,10.221,14.151,10.221C69.961,91.761,70.29,85.5,70.29,82.868Z" transform="translate(-43.69 -81.54)" fill="#fff"/>
          <g id="Group_26" data-name="Group 26" clip-path="url(#clip-path-6)">
            <g id="Group_25" data-name="Group 25">
              <path id="Path_80" data-name="Path 80" d="M67.929,82.75v.593a12.889,12.889,0,0,1-.1,1.735v-.593a12.889,12.889,0,0,0,.1-1.735" transform="translate(-41.329 -81.422)" fill="#fff"/>
              <path id="Path_81" data-name="Path 81" d="M67.856,84.33v.593a8.98,8.98,0,0,1-.3,1.317v-.593a8.975,8.975,0,0,0,.3-1.317" transform="translate(-41.355 -81.267)" fill="#fff"/>
              <path id="Path_82" data-name="Path 82" d="M67.605,85.53v.593a6.456,6.456,0,0,1-.505,1.23V86.76a6.762,6.762,0,0,0,.505-1.23" transform="translate(-41.4 -81.15)" fill="#fff"/>
              <path id="Path_83" data-name="Path 83" d="M69.39,87.15v.593c-1.263,2.36-4.282,4.611-11.549,4.611-13.756,0-14.151-6.763-14.151-10.221V81.54c0,3.447.4,10.221,14.151,10.221,7.268,0,10.287-2.2,11.549-4.611" transform="translate(-43.69 -81.54)" fill="#fff"/>
            </g>
          </g>
        </g>
      </g>
    </g>
  </g>
</svg>
