<svg xmlns="http://www.w3.org/2000/svg" width="50.591" height="58.343" viewBox="0 0 50.591 58.343">
  <g id="android" transform="translate(-32.164 -67.96)">
    <path id="Path_332" data-name="Path 332" d="M91.182,207.092a3.537,3.537,0,0,1,3.537,3.537V225.8a3.537,3.537,0,0,1-7.074,0V210.629a3.537,3.537,0,0,1,3.537-3.537Z" transform="translate(-41.701 -103.036)" fill="#a4c639"/>
    <path id="Path_333" data-name="Path 333" d="M69.308,133.645c-.012.134-.022.27-.022.407V157.04a4.417,4.417,0,0,0,4.386,4.464H97.05a4.417,4.417,0,0,0,4.386-4.464V134.052c0-.137,0-.273-.016-.407Z" transform="translate(-27.902 -47.831)" fill="#a4c639"/>
    <path id="Path_334" data-name="Path 334" d="M65.438,106.119a3.537,3.537,0,0,1,3.537,3.537v15.173a3.537,3.537,0,0,1-7.074,0V109.656a3.537,3.537,0,0,1,3.537-3.537ZM35.7,89.923a3.537,3.537,0,0,1,3.537,3.537v15.173a3.537,3.537,0,0,1-7.074,0V93.46A3.537,3.537,0,0,1,35.7,89.923Zm43.517,0a3.537,3.537,0,0,1,3.537,3.537v15.173a3.537,3.537,0,0,1-7.074,0V93.46a3.537,3.537,0,0,1,3.537-3.537ZM41.509,86.367c.1-7.061,6.261-12.851,14.173-13.614h3.555c7.912.763,14.074,6.553,14.173,13.614Z" transform="translate(0 -2.062)" fill="#a4c639"/>
    <path id="Path_335" data-name="Path 335" d="M74.743,70.009l3.731,6.463m25.709-6.463-3.731,6.463" transform="translate(-32.004)" fill="none" stroke="#a4c639" stroke-linecap="round" stroke-linejoin="round" stroke-width="3"/>
    <path id="Path_336" data-name="Path 336" d="M103.8,96.663a1.83,1.83,0,0,1-3.66.01v-.01a1.83,1.83,0,0,1,3.66-.01Zm13.659,0a1.83,1.83,0,0,1-3.66.01v-.01a1.83,1.83,0,0,1,3.66-.01Z" transform="translate(-51.095 -18.687)" fill="#fff"/>
  </g>
</svg>
