<svg xmlns="http://www.w3.org/2000/svg" width="51.488" height="54.543" viewBox="0 0 51.488 54.543">
  <g id="angular-icon" transform="translate(-0.849 -0.341)">
    <path id="Path_85" data-name="Path 85" d="M26.511.341.849,9.372,4.9,42.993l21.634,11.89L48.284,42.832l4.054-33.62Z" transform="translate(0 0)" fill="#b3b3b3"/>
    <path id="Path_86" data-name="Path 86" d="M150.637,22.421,127.31,14.466V63.308l19.549-10.819,3.778-30.069Z" transform="translate(-100.859 -11.265)" fill="#a6120d"/>
    <path id="Path_87" data-name="Path 87" d="M15.073,22.561,18.548,52.63,37.795,63.305V14.462l-22.722,8.1Z" transform="translate(-11.344 -11.262)" fill="#dd1b16"/>
    <path id="Path_88" data-name="Path 88" d="M71.226,47.454l-6.421,3H58.038l-3.181,7.957-5.917.109,15.866-35.3,6.421,24.228Zm-.621-1.512-5.758-11.4-4.723,11.2h4.68l5.8.2Z" transform="translate(-38.354 -18.253)" fill="#f2f2f2"/>
    <path id="Path_89" data-name="Path 89" d="M127.309,23.226l.043,11.317,5.359,11.211h-5.389l-.012,4.695,7.452.007,3.483,8.068,5.662.1Z" transform="translate(-100.858 -18.252)" fill="#b3b3b3"/>
  </g>
</svg>
