<svg id="Group_131" data-name="Group 131" xmlns="http://www.w3.org/2000/svg" xmlns:xlink="http://www.w3.org/1999/xlink" width="150.734" height="29.437" viewBox="0 0 150.734 29.437">
  <defs>
    <clipPath id="clip-path">
      <rect id="Rectangle_16" data-name="Rectangle 16" width="150.734" height="29.436" fill="none"/>
    </clipPath>
  </defs>
  <g id="Group_6" data-name="Group 6" clip-path="url(#clip-path)">
    <path id="Path_89" data-name="Path 89" d="M172.041,78.993a8.158,8.158,0,0,1-12.2,1.5c-.011.23-.028.418-.028.606,0,2.832-.007,5.663.008,8.5,0,.387-.068.559-.5.522a9.89,9.89,0,0,0-1.525,0c-.407.029-.521-.092-.518-.506.02-2.741.007-5.482.013-8.223,0-.906.026-1.812.04-2.718.635,0,1.271.012,1.906-.009a9.09,9.09,0,0,0,2.271-.109,5.525,5.525,0,0,0,7.517.116c.072.332.34.2.533.211a12.617,12.617,0,0,1,2.487.113" transform="translate(-121.503 -60.686)" fill="#fe690a"/>
    <path id="Path_90" data-name="Path 90" d="M297.878,73.259c.006,1.414,0,2.829.025,4.243,0,.3-.111.363-.38.356-.6-.016-1.2-.019-1.8,0-.3.01-.372-.105-.361-.379.018-.448,0-.9,0-1.354-.256-.018-.344.167-.472.275a8.069,8.069,0,0,1-12.583-3.417.632.632,0,0,1-.019-.161l2.715,0c.083.118.166.235.248.354a5.539,5.539,0,0,0,6.159,2.255,6.028,6.028,0,0,0,3.083-2.29,1.176,1.176,0,0,0,.627.116c.918,0,1.835,0,2.753,0" transform="translate(-218.088 -56.26)" fill="#fe6d08"/>
    <path id="Path_91" data-name="Path 91" d="M80.556,74.686q0-1.961,0-3.922l2.98,0c.235,0,.483.034.594-.254a5.187,5.187,0,0,0,2.131,1.7,5.5,5.5,0,0,0,7.51-3.182c.119.256.354.2.564.208a9.01,9.01,0,0,1,1.985.107,7.924,7.924,0,0,1-6.509,5.778c-2.685.29-3.934-.077-6.793-2.032v1.6H80.556" transform="translate(-62.233 -53.329)" fill="#fe6d08"/>
    <path id="Path_92" data-name="Path 92" d="M486.026,51.723a4.3,4.3,0,0,1,.31,1.744,1.26,1.26,0,0,1-1.369,1.412c-1.395.036-2.791.025-4.187.026q-3.671,0-7.342,0c-.654,0-.654,0-.458.633.032.1.057.209.086.313a1.182,1.182,0,0,1-.625.127c-.648,0-1.3,0-1.945.007a7.32,7.32,0,0,1-.074-4.149c.668,0,1.336,0,2,0,.192,0,.407-.05.532.17-.146.426.118.425.422.424q4.781-.007,9.562,0c.713,0,.713,0,.5-.685l2.581-.022" transform="translate(-363.223 -39.959)" fill="#fd8105"/>
    <path id="Path_93" data-name="Path 93" d="M18.469,74.826c.006,1.377,0,2.755.024,4.132,0,.3-.1.366-.377.359-.6-.017-1.2-.019-1.8,0-.292.01-.378-.094-.366-.375.019-.449.005-.9.005-1.342-.219-.1-.279.086-.376.166a8.092,8.092,0,0,1-12.42-2.681,1.489,1.489,0,0,1-.073-.256,14.448,14.448,0,0,0,2.76-.119c.119.135.238.27.358.4a5.447,5.447,0,0,0,5.11,1.921A5.806,5.806,0,0,0,15,74.716a23.9,23.9,0,0,0,3.473.109" transform="translate(-2.388 -57.718)" fill="#fe6d08"/>
    <path id="Path_94" data-name="Path 94" d="M471.644,70.01c.648,0,1.3-.01,1.945-.007a1.182,1.182,0,0,0,.625-.127,5.593,5.593,0,0,0,4.293,3.4,5.3,5.3,0,0,0,5.551-2.519.815.815,0,0,1,.816-.455c.634.035,1.272.011,1.909.009.2,0,.3.016.2.274A8.088,8.088,0,0,1,474.6,74.318a8.836,8.836,0,0,1-2.9-3.933,1.635,1.635,0,0,1-.051-.375" transform="translate(-364.371 -53.983)" fill="#fe6d08"/>
    <path id="Path_95" data-name="Path 95" d="M566.322,30.506a7.822,7.822,0,0,1,6.15-4.867,8.053,8.053,0,0,1,8.4,4.075c.138.252.233.528.348.792-.726,0-1.453,0-2.179,0-.191,0-.409-.063-.543.153-.1-.127-.2-.252-.3-.381a5.512,5.512,0,0,0-5.849-2.06,5.907,5.907,0,0,0-3.253,2.414,19.225,19.225,0,0,1-2.772-.127" transform="translate(-437.515 -19.717)" fill="#18b6f3"/>
    <path id="Path_96" data-name="Path 96" d="M586.159,82.055c.008.833.008,1.666.028,2.5.006.26-.082.346-.342.34-.616-.015-1.234-.021-1.85,0-.315.012-.353-.133-.345-.389.014-.452,0-.905,0-1.383-.221-.006-.31.173-.434.277-3.289,2.764-8.748,2.225-11.244-1.113.044-.3.276-.229.462-.23.754,0,1.508,0,2.263,0,.19,0,.417.051.453-.242a5.577,5.577,0,0,0,5.988.01,1.123,1.123,0,0,0,.855.234h4.162" transform="translate(-441.883 -63.203)" fill="#1187e6"/>
    <path id="Path_97" data-name="Path 97" d="M424.842,67.066a5.345,5.345,0,0,0,2.555,3.176,7.069,7.069,0,0,0,3.159.683c.58.014,1.161,0,1.741-.026.3-.015.431.048.419.376-.021.6-.016,1.2,0,1.795.007.261-.086.341-.343.341a19.733,19.733,0,0,1-4.6-.346,7.5,7.5,0,0,1-5.451-6h2.522" transform="translate(-326.265 -51.812)" fill="#fe6d08"/>
    <path id="Path_98" data-name="Path 98" d="M6.428,28.679a7.581,7.581,0,0,1,5.441-3.321,7.951,7.951,0,0,1,7.416,2.878,2.746,2.746,0,0,1,.18.268c-.117.228-.332.178-.524.179-.7,0-1.4,0-2.106,0-.184,0-.419-.073-.465.226a11.129,11.129,0,0,0-1.172-.668,5.389,5.389,0,0,0-5.578.683c-.126-.189-.322-.13-.495-.133a15.47,15.47,0,0,1-2.7-.117" transform="translate(-4.966 -19.532)" fill="#fca305"/>
    <path id="Path_99" data-name="Path 99" d="M478.339,28.236a7.438,7.438,0,0,1,5.129-2.879A7.8,7.8,0,0,1,490.618,28a.85.85,0,0,1,.084.137,2.855,2.855,0,0,1-.9.114c-.717-.011-1.434-.007-2.151,0-.165,0-.376-.075-.445.18a5.56,5.56,0,0,0-5.252-.025,1.35,1.35,0,0,1-.308.074c-.107-.258-.334-.231-.551-.232l-2.757-.01" transform="translate(-369.543 -19.529)" fill="#fca305"/>
    <path id="Path_100" data-name="Path 100" d="M288.975,28a7.423,7.423,0,0,1,4.994-2.67,7.991,7.991,0,0,1,7.062,2.586,1.764,1.764,0,0,1,.153.22,1.016,1.016,0,0,1-.58.1c-.781,0-1.562,0-2.343,0-.219,0-.447-.026-.554.235a5.608,5.608,0,0,0-3.414-.675,11.012,11.012,0,0,0-1.922.563c-.132-.179-.327-.119-.5-.121-.739-.005-1.478,0-2.216,0a.735.735,0,0,1-.68-.238" transform="translate(-223.249 -19.522)" fill="#fca305"/>
    <path id="Path_101" data-name="Path 101" d="M366.15,27.965a5.669,5.669,0,0,1,4.031-2.666,5.9,5.9,0,0,1,6.1,2.866,4.38,4.38,0,0,1,.186.449c-.7,0-1.4.01-2.1.011a.736.736,0,0,0-.677.239,3.668,3.668,0,0,0-4.525-.683c-.114-.27-.356-.2-.564-.207-.816-.007-1.632-.006-2.448-.008" transform="translate(-282.871 -19.472)" fill="#fca305"/>
    <path id="Path_102" data-name="Path 102" d="M167.262,27.7a7.589,7.589,0,0,1,4.667-2.35,7.771,7.771,0,0,1,6.426,1.887,4.805,4.805,0,0,1,.329.356,1.1,1.1,0,0,1-.63.1c-1.046,0-2.091,0-3.137,0-.18,0-.421-.087-.472.214a6.7,6.7,0,0,0-3.164.093c-.07-.3-.311-.192-.491-.2a27.512,27.512,0,0,1-3.528-.108" transform="translate(-129.219 -19.519)" fill="#fca305"/>
    <path id="Path_103" data-name="Path 103" d="M80.459,93.9h2.462q.012,3.86.028,7.721c0,.25-.059.355-.331.348-.617-.018-1.234-.016-1.851,0-.267.007-.338-.093-.336-.347q.023-3.86.029-7.721" transform="translate(-62.136 -72.544)" fill="#fe6107"/>
    <path id="Path_104" data-name="Path 104" d="M245.846,61.258l-.985,2.833-5.07-.017c-.44-1.187-.9-2.369-1.236-3.59a14.138,14.138,0,0,0,2.619-.114l1.155,3.192c.352-.856.533-1.687.919-2.437a12.427,12.427,0,0,1,2.6.134" transform="translate(-184.298 -46.638)" fill="#fd7c07"/>
    <path id="Path_105" data-name="Path 105" d="M96.406,34.17a5.54,5.54,0,0,1,1.386,1.644c-.172.195-.4.1-.607.114a12.184,12.184,0,0,0-2.454.112l-.6-.456a5.479,5.479,0,0,0-6.328.04,15.049,15.049,0,0,0-1.363,1.394,3.606,3.606,0,0,0-1.335-.107,3.835,3.835,0,0,1-1.389-.111,6.316,6.316,0,0,1,1.974-2.7c.145.271.4.2.629.2q4.7,0,9.408,0a1.252,1.252,0,0,0,.683-.127" transform="translate(-64.671 -26.341)" fill="#fd9906"/>
    <path id="Path_106" data-name="Path 106" d="M103.113,27.375a1.252,1.252,0,0,1-.683.127q-4.7,0-9.408,0c-.226,0-.484.073-.629-.2,2.8-2.7,8.1-2.661,10.721.074" transform="translate(-71.378 -19.546)" fill="#fca305"/>
    <path id="Path_107" data-name="Path 107" d="M431.394,29.121a7.359,7.359,0,0,1,4.408-2.246,24.038,24.038,0,0,1,3.583-.136c.265-.007.344.093.338.347-.013.561-.025,1.124,0,1.684.02.363-.106.461-.459.46a16.678,16.678,0,0,0-3.255.138c-.248.048-.5.09-.747.135a.806.806,0,0,0-.624-.242c-.9.017-1.8.01-2.706,0-.189,0-.406.069-.543-.142" transform="translate(-333.275 -20.656)" fill="#fca305"/>
    <path id="Path_108" data-name="Path 108" d="M364.39,67.079c.006,1.991.008,3.981.025,5.972,0,.281-.074.381-.364.371-.6-.02-1.2-.02-1.794,0-.29.01-.366-.091-.364-.371.017-1.991.018-3.981.025-5.972h2.473" transform="translate(-279.582 -51.822)" fill="#fe6d08"/>
    <path id="Path_109" data-name="Path 109" d="M243.987,76.655l5.07.017c-.386,1.184-.783,2.364-1.248,3.521a1.369,1.369,0,0,1-2.588-.015c-.421-1.171-.824-2.348-1.234-3.522" transform="translate(-188.493 -59.22)" fill="#fe6d08"/>
    <path id="Path_110" data-name="Path 110" d="M617.29,70.669h-4.162a1.123,1.123,0,0,1-.855-.234,6.261,6.261,0,0,0,2.405-3.362h2.612q0,1.8,0,3.6" transform="translate(-473.014 -51.818)" fill="#1293e9"/>
    <path id="Path_111" data-name="Path 111" d="M161.5,65.587a9.079,9.079,0,0,1-2.271.109c-.635.021-1.27.007-1.906.009a36.678,36.678,0,0,1,0-3.935l2.488.008a5.8,5.8,0,0,0,1.689,3.809" transform="translate(-121.503 -47.721)" fill="#fd7c07"/>
    <path id="Path_112" data-name="Path 112" d="M58.907,60.046a23.9,23.9,0,0,1-3.473-.109,5.976,5.976,0,0,0,.839-4.35l2.518-.007a32.01,32.01,0,0,1,.116,4.467" transform="translate(-42.826 -42.938)" fill="#fd7c07"/>
    <path id="Path_113" data-name="Path 113" d="M651.993,43.125a41.208,41.208,0,0,1,0,4.351l-2.738,0v-4.36l2.739.007" transform="translate(-501.584 -33.311)" fill="#14a3ee"/>
    <path id="Path_114" data-name="Path 114" d="M339.334,59.567c-.918,0-1.835,0-2.753,0a1.176,1.176,0,0,1-.627-.116,6,6,0,0,0,.741-4.344l2.523-.009a29.889,29.889,0,0,1,.116,4.467" transform="translate(-259.543 -42.568)" fill="#fd7c07"/>
    <path id="Path_115" data-name="Path 115" d="M649.249,62.282l2.738,0a40.344,40.344,0,0,1,0,4.248l-2.741,0q0-2.124,0-4.249" transform="translate(-501.58 -48.115)" fill="#1293e9"/>
    <path id="Path_116" data-name="Path 116" d="M283.326,57.284l-2.715,0a7.9,7.9,0,0,1-.292-4.575h2.588a6.232,6.232,0,0,0,.418,4.578" transform="translate(-216.405 -40.718)" fill="#fd8105"/>
    <path id="Path_117" data-name="Path 117" d="M211.941,65.64a12.616,12.616,0,0,0-2.487-.113c-.192-.014-.461.121-.533-.211a5.967,5.967,0,0,0,1.858-4.034,11.709,11.709,0,0,1,2.474.109,7.265,7.265,0,0,1-1.313,4.249" transform="translate(-161.403 -47.333)" fill="#fd7c07"/>
    <path id="Path_118" data-name="Path 118" d="M564.305,47.436a19.225,19.225,0,0,0,2.772.127c-.131.255-.276.5-.391.765a6.253,6.253,0,0,0-.3,3.675l-2.525.008a7.885,7.885,0,0,1,.443-4.576" transform="translate(-435.498 -36.647)" fill="#14a3ee"/>
    <path id="Path_119" data-name="Path 119" d="M623.151,51.88h-2.612a6.5,6.5,0,0,0-.68-4.312c.134-.216.352-.151.543-.153.726-.006,1.453,0,2.179,0a10.282,10.282,0,0,1,.569,4.467" transform="translate(-478.875 -36.624)" fill="#14a3ee"/>
    <path id="Path_120" data-name="Path 120" d="M332.579,41.8l-2.523.009a5.747,5.747,0,0,0-2.695-3.589c.107-.261.336-.235.554-.235.781,0,1.562,0,2.343,0a1.016,1.016,0,0,0,.58-.1,6.909,6.909,0,0,1,1.74,3.916" transform="translate(-252.905 -29.267)" fill="#fd9206"/>
    <path id="Path_121" data-name="Path 121" d="M3.462,60.3a14.466,14.466,0,0,1-2.76.119,7.505,7.505,0,0,1-.626-4.362l2.505,0a6.207,6.207,0,0,0,.88,4.241" transform="translate(0 -43.307)" fill="#fd7c07"/>
    <path id="Path_122" data-name="Path 122" d="M140.786,55.25a9.006,9.006,0,0,0-1.985-.107c-.21,0-.446.048-.564-.208a5.866,5.866,0,0,0-.124-4.149h2.662a7.967,7.967,0,0,1,.012,4.464" transform="translate(-106.7 -39.234)" fill="#fd8105"/>
    <path id="Path_123" data-name="Path 123" d="M236.407,47.042a14.157,14.157,0,0,1-2.619.114c-.519-1.327-1-2.668-1.4-4.036l2.621,0,1.4,3.923" transform="translate(-179.53 -33.312)" fill="#fd8907"/>
    <path id="Path_124" data-name="Path 124" d="M405.588,75.7c.006,1.339.009,2.679.021,4.018,0,.23-.024.372-.314.364q-.951-.027-1.9,0c-.289.008-.32-.132-.318-.365.014-1.339.019-2.678.027-4.018h2.487" transform="translate(-311.397 -58.479)" fill="#fe6d08"/>
    <path id="Path_125" data-name="Path 125" d="M651.857,30.534l-2.739-.007c-.012-1.137-.019-2.275-.04-3.412,0-.252.11-.3.328-.295q1.086.013,2.172,0c.224,0,.335.061.328.3-.034,1.137.062,2.275-.049,3.41" transform="translate(-501.449 -20.72)" fill="#18b6f3"/>
    <path id="Path_126" data-name="Path 126" d="M364.373,52.645H361.9a26.928,26.928,0,0,1,.109-4.25l2.518.006a42.29,42.29,0,0,0-.154,4.244" transform="translate(-279.564 -37.388)" fill="#fd8105"/>
    <path id="Path_127" data-name="Path 127" d="M399.289,40.444a.736.736,0,0,1,.677-.239c.7,0,1.4-.007,2.1-.011a9.272,9.272,0,0,1,.6,4.044h-2.487c-.011-.358-.03-.717-.032-1.076a4.925,4.925,0,0,0-.855-2.718" transform="translate(-308.473 -31.053)" fill="#fd8907"/>
    <path id="Path_128" data-name="Path 128" d="M424.3,52.491h-2.522A7.016,7.016,0,0,1,422.2,48.2a.7.7,0,0,0,.666.262c.63,0,1.259,0,1.889.006a6.443,6.443,0,0,0-.452,4.023" transform="translate(-325.724 -37.237)" fill="#fd8907"/>
    <path id="Path_129" data-name="Path 129" d="M564.377,67.525l2.525-.008c.162.237.131.529.264.791a7.382,7.382,0,0,0,2.118,2.46c-.037.294-.263.242-.453.242-.754,0-1.509,0-2.263,0-.186,0-.418-.065-.461.23a6.914,6.914,0,0,1-1.729-3.719" transform="translate(-436.012 -52.161)" fill="#1293e9"/>
    <path id="Path_130" data-name="Path 130" d="M283.6,40.792h-2.588a6.785,6.785,0,0,1,1.811-3.508.735.735,0,0,0,.68.238c.739,0,1.478,0,2.216,0,.172,0,.367-.059.5.121a7.042,7.042,0,0,0-2.619,3.147" transform="translate(-217.097 -28.805)" fill="#fd9206"/>
    <path id="Path_131" data-name="Path 131" d="M2.845,43.822l-2.505,0a6.659,6.659,0,0,1,1.385-3.6,15.447,15.447,0,0,0,2.7.117c.173,0,.369-.056.495.133-.113.209-.346.282-.506.453a6.52,6.52,0,0,0-1.566,2.9" transform="translate(-0.263 -31.07)" fill="#fd9206"/>
    <path id="Path_132" data-name="Path 132" d="M54.7,43.119l-2.518.007A5.9,5.9,0,0,0,50.14,39.86c.045-.3.281-.224.465-.226.7-.006,1.4,0,2.106,0,.192,0,.407.049.524-.179A6.9,6.9,0,0,1,54.7,43.119" transform="translate(-38.736 -30.478)" fill="#fd9206"/>
    <path id="Path_133" data-name="Path 133" d="M403.192,57.972h2.486q0,2.016,0,4.031h-2.487q0-2.016,0-4.031" transform="translate(-311.488 -44.787)" fill="#fd7c07"/>
    <path id="Path_134" data-name="Path 134" d="M230.42,30.475l-2.621,0-1.35-3.723c.877,0,1.671,0,2.465,0a.294.294,0,0,1,.313.237c.394,1.163.795,2.324,1.194,3.486" transform="translate(-174.944 -20.668)" fill="#fca305"/>
    <path id="Path_135" data-name="Path 135" d="M84.128,65.3c-.111.288-.359.254-.594.254l-2.981,0q0-1.635,0-3.269h2.521A6.225,6.225,0,0,0,84.128,65.3" transform="translate(-62.232 -48.119)" fill="#fd7c07"/>
    <path id="Path_136" data-name="Path 136" d="M472.916,38.283l2.757.01c.217,0,.443-.026.551.232a7.2,7.2,0,0,0-2.368,3.1c-.125-.22-.34-.169-.532-.17-.668,0-1.336,0-2,0a6.925,6.925,0,0,1,1.6-3.171" transform="translate(-364.12 -29.576)" fill="#fd9206"/>
    <path id="Path_137" data-name="Path 137" d="M83.075,49.694H80.554a8.048,8.048,0,0,1,.718-3.708,3.835,3.835,0,0,0,1.389.111A3.606,3.606,0,0,1,84,46.2a5.76,5.76,0,0,0-.922,3.489" transform="translate(-62.232 -35.527)" fill="#fd8907"/>
    <path id="Path_138" data-name="Path 138" d="M651.179,1.756a1.691,1.691,0,0,1-1.7,1.692,1.719,1.719,0,0,1-1.7-1.807A1.663,1.663,0,0,1,649.57,0a1.634,1.634,0,0,1,1.609,1.755" transform="translate(-500.446 0)" fill="#1ed4fb"/>
    <path id="Path_139" data-name="Path 139" d="M517.331,38.137c.068-.254.28-.178.444-.18.717-.006,1.434-.01,2.151,0a2.862,2.862,0,0,0,.9-.114A7.064,7.064,0,0,1,522.469,41l-2.581.022a6.027,6.027,0,0,0-2.558-2.886" transform="translate(-399.666 -29.237)" fill="#fd9206"/>
    <path id="Path_140" data-name="Path 140" d="M649.16,80.961l2.741,0c.1.995.016,1.993.046,2.989.006.209-.078.288-.289.285-.745-.008-1.49-.011-2.235,0-.261,0-.292-.126-.29-.335.013-.979.018-1.959.026-2.938" transform="translate(-501.491 -62.545)" fill="#1187e6"/>
    <path id="Path_141" data-name="Path 141" d="M216.055,49.583a11.708,11.708,0,0,0-2.474-.109,6.2,6.2,0,0,0-1.034-3.361c.377-.005.755,0,1.13-.02a4.89,4.89,0,0,0,1.649-.107,6.7,6.7,0,0,1,.728,3.6" transform="translate(-164.204 -35.526)" fill="#fd8907"/>
    <path id="Path_142" data-name="Path 142" d="M161.717,35.952a27.513,27.513,0,0,0,3.528.108c.18.006.421-.1.491.2a6.573,6.573,0,0,0-2.9,2.32,17.1,17.1,0,0,1-2.75-.123,6.542,6.542,0,0,1,1.632-2.5" transform="translate(-123.674 -27.775)" fill="#fd9906"/>
    <path id="Path_143" data-name="Path 143" d="M204.74,37.87a4.878,4.878,0,0,1-1.649.107c-.376.025-.753.015-1.13.02a6.549,6.549,0,0,0-3.116-2.2c.052-.3.292-.214.473-.214,1.046-.006,2.091,0,3.137,0a1.1,1.1,0,0,0,.63-.1,5.875,5.875,0,0,1,1.656,2.389" transform="translate(-153.618 -27.411)" fill="#fd9906"/>
    <path id="Path_144" data-name="Path 144" d="M426.718,39.98c-.63,0-1.259-.007-1.889-.006a.7.7,0,0,1-.666-.262,6.04,6.04,0,0,1,1.645-2.5c.138.211.355.141.543.142.9.006,1.8.013,2.707,0a.8.8,0,0,1,.623.243,5.769,5.769,0,0,0-2.963,2.386" transform="translate(-327.689 -28.75)" fill="#fd9206"/>
    <path id="Path_145" data-name="Path 145" d="M158.092,46.955a17.1,17.1,0,0,0,2.75.123,5.863,5.863,0,0,0-.848,3.255l-2.488-.008a7.935,7.935,0,0,1,.586-3.37" transform="translate(-121.681 -36.275)" fill="#fd8907"/>
    <path id="Path_146" data-name="Path 146" d="M267.444,29.824c.321-.939.646-1.876.96-2.817.052-.156.116-.253.3-.252.795,0,1.59,0,2.461,0l-1.106,3.065-2.609,0" transform="translate(-206.615 -20.67)" fill="#fca305"/>
    <path id="Path_147" data-name="Path 147" d="M264.052,40.239l2.609,0-1.02,2.961a15.649,15.649,0,0,1-2.588-.127,26.1,26.1,0,0,1,1-2.831" transform="translate(-203.223 -31.084)" fill="#fd9206"/>
    <path id="Path_148" data-name="Path 148" d="M365,39.861l-2.518-.005a5.315,5.315,0,0,1,.835-2.514c.816,0,1.632,0,2.448.009.208,0,.45-.063.564.207a5.623,5.623,0,0,0-1.328,2.3" transform="translate(-280.035 -28.849)" fill="#fd9906"/>
    <path id="Path_149" data-name="Path 149" d="M260.066,52.7a15.65,15.65,0,0,0,2.588.127l-.87,2.507a12.407,12.407,0,0,0-2.6-.134,20.467,20.467,0,0,1,.879-2.5" transform="translate(-200.236 -40.711)" fill="#fd8105"/>
    <path id="Path_150" data-name="Path 150" d="M136.179,43.729h-2.662a7.211,7.211,0,0,0-1.353-1.852,12.2,12.2,0,0,1,2.454-.112c.205-.013.435.081.607-.114a5.549,5.549,0,0,1,.954,2.079" transform="translate(-102.105 -32.177)" fill="#fd9206"/>
    <path id="Path_151" data-name="Path 151" d="M546.794,89.61a1.763,1.763,0,0,1-1.5,1.5,1.893,1.893,0,0,1-2-.895,1.051,1.051,0,0,1-.184-.608h3.69" transform="translate(-419.577 -69.229)" fill="#1293e9"/>
    <path id="Path_152" data-name="Path 152" d="M546.543,86.174h-3.69a1.314,1.314,0,0,1,.073-1.012l3.537.025a1.44,1.44,0,0,1,.08.986" transform="translate(-419.326 -65.793)" fill="#18b6f3"/>
    <path id="Path_153" data-name="Path 153" d="M546.962,81.057l-3.537-.025a1.887,1.887,0,0,1,3.537.025" transform="translate(-419.825 -61.662)" fill="#1ed4fb"/>
  </g>
</svg>
