<svg xmlns="http://www.w3.org/2000/svg" width="89.967" height="53.8" viewBox="0 0 89.967 53.8">
  <g id="aws-2" transform="translate(-1.668 -1.1)">
    <path id="Path_423" data-name="Path 423" d="M35.734,20.639a9.053,9.053,0,0,0,.329,2.663,16.017,16.017,0,0,0,.958,2.154,1.3,1.3,0,0,1,.209.688,1.185,1.185,0,0,1-.569.9L34.776,28.3a1.435,1.435,0,0,1-.778.269,1.377,1.377,0,0,1-.9-.419,9.257,9.257,0,0,1-1.077-1.406c-.3-.509-.6-1.077-.928-1.765a11.054,11.054,0,0,1-8.8,4.129,8.2,8.2,0,0,1-5.984-2.154A7.687,7.687,0,0,1,14.1,21.208a7.7,7.7,0,0,1,2.723-6.164,10.885,10.885,0,0,1,7.331-2.334,23.691,23.691,0,0,1,3.172.239c1.107.15,2.244.389,3.441.658V11.423c0-2.274-.479-3.86-1.406-4.788-.958-.928-2.573-1.376-4.877-1.376a13.614,13.614,0,0,0-3.232.389A23.842,23.842,0,0,0,18.02,6.665a8.586,8.586,0,0,1-1.047.389,1.835,1.835,0,0,1-.479.09c-.419,0-.628-.3-.628-.928V4.75A1.893,1.893,0,0,1,16.075,3.7a2.241,2.241,0,0,1,.838-.628,17.226,17.226,0,0,1,3.77-1.346,18.141,18.141,0,0,1,4.668-.569c3.561,0,6.164.808,7.84,2.424,1.646,1.616,2.484,4.069,2.484,7.361v9.695ZM23.585,25.187a9.7,9.7,0,0,0,3.082-.539,6.668,6.668,0,0,0,2.843-1.915,4.749,4.749,0,0,0,1.017-1.915,10.742,10.742,0,0,0,.3-2.6V16.959a24.988,24.988,0,0,0-2.753-.509,22.546,22.546,0,0,0-2.813-.18,6.9,6.9,0,0,0-4.458,1.2,4.171,4.171,0,0,0-1.466,3.441,3.861,3.861,0,0,0,4.249,4.279Zm24.027,3.232a1.67,1.67,0,0,1-1.137-.3,2.439,2.439,0,0,1-.628-1.167L38.816,3.823a5.241,5.241,0,0,1-.269-1.2.656.656,0,0,1,.718-.748H42.2a1.659,1.659,0,0,1,1.167.3,2.448,2.448,0,0,1,.6,1.167l5.027,19.808L53.657,3.344a2.1,2.1,0,0,1,.569-1.167,2.058,2.058,0,0,1,1.2-.3h2.394a1.8,1.8,0,0,1,1.2.3,2.016,2.016,0,0,1,.569,1.167l4.728,20.048L69.486,3.344a2.566,2.566,0,0,1,.6-1.167,1.952,1.952,0,0,1,1.167-.3h2.783a.665.665,0,0,1,.748.748,2.984,2.984,0,0,1-.06.479,4.258,4.258,0,0,1-.209.748L67.3,26.983a2.294,2.294,0,0,1-.628,1.167,1.914,1.914,0,0,1-1.137.3H62.963a1.8,1.8,0,0,1-1.2-.3,2.121,2.121,0,0,1-.569-1.2l-4.638-19.3-4.608,19.27a2.336,2.336,0,0,1-.569,1.2,1.855,1.855,0,0,1-1.2.3Zm38.45.808a19.8,19.8,0,0,1-4.608-.539,13.612,13.612,0,0,1-3.441-1.2,2.156,2.156,0,0,1-.928-.838,2.112,2.112,0,0,1-.18-.838V24.29c0-.628.239-.928.688-.928a1.694,1.694,0,0,1,.539.09c.18.06.449.18.748.3A16.276,16.276,0,0,0,82.173,24.8a17.969,17.969,0,0,0,3.561.359A8.073,8.073,0,0,0,90.1,24.17a3.222,3.222,0,0,0,1.556-2.843,2.914,2.914,0,0,0-.808-2.095,7.508,7.508,0,0,0-3.022-1.556L83.489,16.33A9.126,9.126,0,0,1,78.7,13.278a7.129,7.129,0,0,1-1.5-4.339,6.659,6.659,0,0,1,.808-3.321,7.693,7.693,0,0,1,2.154-2.454A9.5,9.5,0,0,1,83.28,1.609,13.041,13.041,0,0,1,87.05,1.1a15.021,15.021,0,0,1,2,.12c.688.09,1.317.209,1.945.329.6.15,1.167.3,1.706.479a6.53,6.53,0,0,1,1.257.539,2.588,2.588,0,0,1,.9.748,1.612,1.612,0,0,1,.269.987V5.708c0,.628-.239.958-.688.958A3.112,3.112,0,0,1,93.3,6.306a13.689,13.689,0,0,0-5.745-1.167,7.723,7.723,0,0,0-3.98.838A2.889,2.889,0,0,0,82.173,8.64a2.826,2.826,0,0,0,.9,2.124,8.938,8.938,0,0,0,3.291,1.646l4.249,1.346a9.1,9.1,0,0,1,4.638,2.873,6.771,6.771,0,0,1,1.376,4.189,7.692,7.692,0,0,1-.778,3.471,8.047,8.047,0,0,1-2.184,2.633A9.645,9.645,0,0,1,90.341,28.6a14.228,14.228,0,0,1-4.279.628Z" transform="translate(-8.712)" fill="#252f3e"/>
    <g id="Group_124" data-name="Group 124" transform="translate(1.668 34.64)">
      <path id="Path_424" data-name="Path 424" d="M83.006,126.491c-9.844,7.271-24.147,11.131-36.445,11.131A65.933,65.933,0,0,1,2.067,120.656c-.928-.838-.09-1.975,1.017-1.317a89.732,89.732,0,0,0,44.524,11.819,88.849,88.849,0,0,0,33.962-6.942C83.215,123.469,84.621,125.294,83.006,126.491Z" transform="translate(-1.668 -117.362)" fill="#f90"/>
      <path id="Path_425" data-name="Path 425" d="M258.318,117.653c-1.257-1.616-8.318-.778-11.52-.389-.958.12-1.107-.718-.239-1.346,5.625-3.95,14.871-2.813,15.948-1.5,1.077,1.346-.3,10.592-5.565,15.021-.808.688-1.586.329-1.227-.569C256.912,125.911,259.575,119.239,258.318,117.653Z" transform="translate(-172.882 -113.192)" fill="#f90"/>
    </g>
  </g>
</svg>
