<svg xmlns="http://www.w3.org/2000/svg" width="139.491" height="27.898" viewBox="0 0 139.491 27.898">
  <g id="binance" transform="translate(0.005)">
    <path id="Path_506" data-name="Path 506" d="M27.563,11.722l5.418-5.416L38.4,11.727l3.151-3.153L32.981,0,24.41,8.571Z" transform="translate(-19.035)" fill="#f3ba2f"/>
    <path id="Path_507" data-name="Path 507" d="M0,0H4.458V4.458H0Z" transform="translate(-0.005 13.95) rotate(-45)" fill="#f3ba2f"/>
    <path id="Path_508" data-name="Path 508" d="M27.548,73.4l5.418,5.418L38.386,73.4l3.153,3.149,0,0-8.571,8.574-8.571-8.569,0,0Z" transform="translate(-19.02 -57.227)" fill="#f3ba2f"/>
    <path id="Path_509" data-name="Path 509" d="M0,0H4.458V4.458H0Z" transform="translate(21.588 13.95) rotate(-45)" fill="#f3ba2f"/>
    <path id="Path_510" data-name="Path 510" d="M55.179,51.979l-3.2-3.2-2.364,2.364-.273.271-.56.56,0,0,0,.007,3.2,3.2,3.2-3.2,0,0Z" transform="translate(-38.035 -38.032)" fill="#f3ba2f"/>
    <g id="Group_136" data-name="Group 136" transform="translate(32.81 6.513)">
      <path id="Path_511" data-name="Path 511" d="M148.37,30.68h6.857A5.2,5.2,0,0,1,159.088,32,3.415,3.415,0,0,1,160.1,34.5v.042a3.673,3.673,0,0,1-.156,1.119,3.436,3.436,0,0,1-.421.881,3.253,3.253,0,0,1-.608.687,3.948,3.948,0,0,1-.747.507,4.993,4.993,0,0,1,2.021,1.322,3.385,3.385,0,0,1,.736,2.314v.042a3.843,3.843,0,0,1-.39,1.776,3.464,3.464,0,0,1-1.117,1.269,5.3,5.3,0,0,1-1.752.76,9.409,9.409,0,0,1-2.267.253H148.37Zm6.17,5.98a3.391,3.391,0,0,0,1.712-.37,1.278,1.278,0,0,0,.63-1.194v-.042a1.307,1.307,0,0,0-.549-1.13,2.716,2.716,0,0,0-1.584-.39h-3.208V36.66Zm.866,5.96a3.129,3.129,0,0,0,1.7-.39,1.34,1.34,0,0,0,.613-1.216v-.042a1.39,1.39,0,0,0-.571-1.172,3.024,3.024,0,0,0-1.838-.441h-3.766v3.261Z" transform="translate(-148.37 -30.433)" fill="#f3ba2f"/>
      <path id="Path_512" data-name="Path 512" d="M223.88,30.68h3.255V45.474H223.88Z" transform="translate(-207.242 -30.433)" fill="#f3ba2f"/>
      <path id="Path_513" data-name="Path 513" d="M261,30.68h3l6.936,9.1v-9.1h3.213V45.474h-2.77l-7.163-9.4v9.4H261Z" transform="translate(-236.182 -30.433)" fill="#f3ba2f"/>
      <path id="Path_514" data-name="Path 514" d="M342.962,30.2h3L352.3,45.1h-3.4l-1.353-3.318h-6.256L339.938,45.1H336.62Zm3.424,8.708-1.97-4.8-1.961,4.8Z" transform="translate(-295.14 -30.058)" fill="#f3ba2f"/>
      <path id="Path_515" data-name="Path 515" d="M423.74,30.68h3l6.932,9.1v-9.1h3.213V45.474h-2.77l-7.163-9.4v9.4H423.74Z" transform="translate(-363.063 -30.433)" fill="#f3ba2f"/>
      <path id="Path_516" data-name="Path 516" d="M509.708,44.859a7.7,7.7,0,0,1-3.023-.591,7.309,7.309,0,0,1-3.995-4.037,7.83,7.83,0,0,1-.571-2.981v-.042a7.676,7.676,0,0,1,2.157-5.4,7.322,7.322,0,0,1,2.424-1.648,7.911,7.911,0,0,1,3.127-.6,9.8,9.8,0,0,1,1.891.17,7.856,7.856,0,0,1,1.556.465,6.722,6.722,0,0,1,1.289.718,8.7,8.7,0,0,1,1.1.93l-2.069,2.389A7.867,7.867,0,0,0,511.832,33a4.511,4.511,0,0,0-2.018-.441,4.094,4.094,0,0,0-3.085,1.353,4.647,4.647,0,0,0-.89,1.47,5.04,5.04,0,0,0-.315,1.787v.042A5.114,5.114,0,0,0,505.839,39a4.7,4.7,0,0,0,.881,1.479,4.068,4.068,0,0,0,3.085,1.375,4.522,4.522,0,0,0,2.144-.465,8.29,8.29,0,0,0,1.743-1.269l2.071,2.093a10.569,10.569,0,0,1-1.183,1.1,7.053,7.053,0,0,1-1.342.835,6.954,6.954,0,0,1-1.6.527,9.5,9.5,0,0,1-1.935.185Z" transform="translate(-424.172 -29.557)" fill="#f3ba2f"/>
      <path id="Path_517" data-name="Path 517" d="M581.47,30.68H592.6v2.9h-7.932v3h6.985v2.9h-6.974v3.107h8.032v2.9H581.477Z" transform="translate(-486.038 -30.433)" fill="#f3ba2f"/>
    </g>
  </g>
</svg>
