<svg id="bootstrap-4" xmlns="http://www.w3.org/2000/svg" width="54.854" height="54.854" viewBox="0 0 54.854 54.854">
  <path id="Path_90" data-name="Path 90" d="M0,47.781a7.073,7.073,0,0,0,7.073,7.073H47.781a7.073,7.073,0,0,0,7.073-7.073V7.073A7.073,7.073,0,0,0,47.781,0H7.073A7.073,7.073,0,0,0,0,7.073V47.781Z" transform="translate(0 0)" fill="#563d7c"/>
  <path id="Path_91" data-name="Path 91" d="M79.378,63.943V56.175h6.838a10.635,10.635,0,0,1,1.884.163,4.7,4.7,0,0,1,1.6.581,3.1,3.1,0,0,1,1.116,1.163,3.862,3.862,0,0,1,.419,1.907,3.514,3.514,0,0,1-1.256,3.024,5.249,5.249,0,0,1-3.21.93ZM72.075,50.5V83.713H88.17a16.98,16.98,0,0,0,4.349-.558,11.632,11.632,0,0,0,3.768-1.721,8.478,8.478,0,0,0,2.628-3,10.153,10.153,0,0,0-.535-9.675A7.983,7.983,0,0,0,93.8,65.664a8.278,8.278,0,0,0,3.373-2.744,7.276,7.276,0,0,0,1.14-4.187,8.909,8.909,0,0,0-.768-3.907,6.383,6.383,0,0,0-2.163-2.535,9.336,9.336,0,0,0-3.349-1.372A20.677,20.677,0,0,0,87.7,50.5Zm7.3,27.538V68.92h7.954a6.153,6.153,0,0,1,3.815,1.093,4.294,4.294,0,0,1,1.442,3.651,4.565,4.565,0,0,1-.442,2.14,3.51,3.51,0,0,1-1.186,1.326,5.023,5.023,0,0,1-1.721.7,9.764,9.764,0,0,1-2.047.209Z" transform="translate(-56.631 -39.679)" fill="#fff"/>
</svg>
