<svg xmlns="http://www.w3.org/2000/svg" xmlns:xlink="http://www.w3.org/1999/xlink" width="141.841" height="39.479" viewBox="0 0 141.841 39.479">
  <defs>
    <radialGradient id="radial-gradient" cx="0.501" cy="0.507" r="0.504" gradientUnits="objectBoundingBox">
      <stop offset="0" stop-color="#797979"/>
      <stop offset="1" stop-color="#4c4c4c"/>
    </radialGradient>
  </defs>
  <g id="browserstack-ar21" transform="translate(-4.311 -14.67)">
    <g id="Group_125" data-name="Group 125" transform="translate(4.311 14.67)">
      <circle id="Ellipse_6" data-name="Ellipse 6" cx="19.694" cy="19.694" r="19.694" transform="translate(0.092 0.092)" fill="#f4b960"/>
      <circle id="Ellipse_7" data-name="Ellipse 7" cx="17.788" cy="17.788" r="17.788" fill="#e66f32"/>
      <circle id="Ellipse_8" data-name="Ellipse 8" cx="15.428" cy="15.428" r="15.428" transform="translate(4.81 0.092)" fill="#e43c41"/>
      <circle id="Ellipse_9" data-name="Ellipse 9" cx="14.157" cy="14.157" r="14.157" transform="translate(7.26 2.542)" fill="#bdd041"/>
      <circle id="Ellipse_10" data-name="Ellipse 10" cx="13.16" cy="13.16" r="13.16" transform="translate(7.26 4.629)" fill="#6db54c"/>
      <circle id="Ellipse_11" data-name="Ellipse 11" cx="10.981" cy="10.981" r="10.981" transform="translate(7.352 4.629)" fill="#aedae6"/>
      <circle id="Ellipse_12" data-name="Ellipse 12" cx="9.257" cy="9.257" r="9.257" transform="translate(10.8 4.537)" fill="#56b8de"/>
      <circle id="Ellipse_13" data-name="Ellipse 13" cx="8.078" cy="8.078" r="8.078" transform="translate(13.158 6.987)" fill="#00b1d5"/>
      <circle id="Ellipse_14" data-name="Ellipse 14" cx="6.897" cy="6.897" r="6.897" transform="translate(13.16 9.257)" fill="url(#radial-gradient)"/>
      <circle id="Ellipse_15" data-name="Ellipse 15" cx="6.897" cy="6.897" r="6.897" transform="translate(13.16 9.257)" fill="#221f1f"/>
      <ellipse id="Ellipse_16" data-name="Ellipse 16" cx="2.179" cy="1.361" rx="2.179" ry="1.361" transform="translate(20.686 15.092) rotate(-65.834)" fill="#fff"/>
    </g>
    <path id="Path_465" data-name="Path 465" d="M39.533,26.07a.2.2,0,0,1,.191-.191h4.4c2.485,0,3.631,1.159,3.631,2.868a2.325,2.325,0,0,1-1.416,2.295v.064a2.669,2.669,0,0,1,1.593,2.485c0,2.167-1.465,3.186-4.015,3.186H39.723a.2.2,0,0,1-.191-.191ZM44.058,30.4c1.02,0,1.657-.573,1.657-1.416a1.463,1.463,0,0,0-1.657-1.465H41.7a.063.063,0,0,0-.064.064v2.678a.063.063,0,0,0,.064.064c-.064.064,2.356.064,2.356.064ZM41.637,34.99h2.485c1.159,0,1.785-.573,1.785-1.53s-.637-1.53-1.785-1.53H41.637a.063.063,0,0,0-.064.064v2.8C41.509,34.99,41.637,34.99,41.637,34.99Zm7.71,1.657a.2.2,0,0,1-.191-.191V29.066a.2.2,0,0,1,.191-.191H50.94a.2.2,0,0,1,.191.191V29.7H51.2a2.737,2.737,0,0,1,3.887-.382.312.312,0,0,1,.064.191l-.892,1.082a.38.38,0,0,1-.255.064,2.738,2.738,0,0,0-1.288-.382c-1.082,0-1.593.7-1.593,1.975v4.142a.2.2,0,0,1-.191.191ZM55.4,34.735a4.954,4.954,0,0,1-.318-1.912,3.961,3.961,0,0,1,.318-1.912,3.284,3.284,0,0,1,3.441-2.1,3.38,3.38,0,0,1,3.441,2.1,4.955,4.955,0,0,1,.318,1.912,3.961,3.961,0,0,1-.318,1.912,3.284,3.284,0,0,1-3.441,2.1C57.12,36.838,55.845,36.138,55.4,34.735Zm5.022-.446a3.024,3.024,0,0,0,.191-1.416,4.246,4.246,0,0,0-.191-1.416,1.565,1.565,0,0,0-1.593-1.02,1.619,1.619,0,0,0-1.593,1.02,3.161,3.161,0,0,0-.191,1.416,4.246,4.246,0,0,0,.191,1.416,1.565,1.565,0,0,0,1.593,1.02A1.661,1.661,0,0,0,60.421,34.29Zm10.45,2.356a.2.2,0,0,1-.191-.191l-1.593-4.97h-.064l-1.593,4.893c-.064.064-.064.191-.191.191H65.824a.2.2,0,0,1-.191-.191L63.02,28.987c-.064-.064.064-.191.129-.191h1.657a.168.168,0,0,1,.191.191l1.593,5.1h.064l1.593-5.1c.064-.064.129-.191.191-.191h1.288a.2.2,0,0,1,.191.191l1.657,5.1h.064l1.53-5.1c.064-.129.064-.191.191-.191h1.657c.064,0,.191.064.129.191l-2.55,7.391c-.064.064-.064.191-.191.191Zm4.588-1.02c-.064-.064-.064-.191,0-.191l1.02-.955a.193.193,0,0,1,.255,0,4.059,4.059,0,0,0,2.485.892c1.02,0,1.53-.382,1.53-.892,0-.446-.318-.765-1.416-.828l-.892-.064c-1.657-.191-2.55-.955-2.55-2.23,0-1.465,1.159-2.485,3.186-2.485a5.63,5.63,0,0,1,3.123.892.312.312,0,0,1,.064.191l-.828.892a.38.38,0,0,1-.255.064,4.619,4.619,0,0,0-2.167-.637c-.828,0-1.288.318-1.288.828,0,.446.318.7,1.416.828l.892.064c1.72.191,2.55,1.02,2.55,2.23,0,1.53-1.21,2.614-3.5,2.614a5.029,5.029,0,0,1-3.631-1.21Zm8.412-.892a5.189,5.189,0,0,1-.318-1.912,4.112,4.112,0,0,1,.318-1.912,3.284,3.284,0,0,1,3.441-2.1,3.463,3.463,0,0,1,3.441,2.1,6.188,6.188,0,0,1,.318,2.356.2.2,0,0,1-.191.191H85.655a.063.063,0,0,0-.064.064,1.509,1.509,0,0,0,.129.573,1.79,1.79,0,0,0,1.848,1.159,2.817,2.817,0,0,0,1.975-.7.473.473,0,0,1,.318-.064l1.02.828a.312.312,0,0,1,.064.191A4.633,4.633,0,0,1,87.5,36.846c-1.912.064-3.186-.7-3.631-2.1Zm5.022-3.441a1.564,1.564,0,0,0-1.593-1.02,1.7,1.7,0,0,0-1.657,1.02,1.944,1.944,0,0,0-.064.637.063.063,0,0,0,.064.064h3.313a.063.063,0,0,0,.064-.064c-.064-.191-.064-.446-.129-.637Zm3.441,5.353a.2.2,0,0,1-.191-.191V29.065a.2.2,0,0,1,.191-.191h1.593a.2.2,0,0,1,.191.191V29.7h.064a2.737,2.737,0,0,1,3.887-.382.312.312,0,0,1,.064.191l-.892,1.082a.38.38,0,0,1-.255.064,2.738,2.738,0,0,0-1.288-.382c-1.082,0-1.593.7-1.593,1.975v4.142a.2.2,0,0,1-.191.191Zm6.052-1.159a.38.38,0,0,1-.064-.255L99.4,34.074a.38.38,0,0,1,.255-.064,5.491,5.491,0,0,0,3.186,1.159c1.416,0,2.23-.637,2.23-1.593,0-.765-.51-1.288-2.1-1.53l-.637-.064c-2.23-.318-3.5-1.288-3.5-3.058,0-1.975,1.593-3.313,3.95-3.313a6.74,6.74,0,0,1,3.76,1.082.234.234,0,0,1,.064.191l-.8,1.161a.38.38,0,0,1-.255.064,5.278,5.278,0,0,0-2.8-.828c-1.21,0-1.848.573-1.848,1.465,0,.765.573,1.288,2.167,1.465l.637.064c2.23.318,3.5,1.288,3.5,3.186s-1.531,3.377-4.4,3.377a6.692,6.692,0,0,1-4.4-1.339Zm12.3,1.339c-1.657,0-2.356-.765-2.356-2.23V30.515a.063.063,0,0,0-.064-.064h-.51a.2.2,0,0,1-.191-.191V29.178a.2.2,0,0,1,.191-.191h.51a.063.063,0,0,0,.064-.064v-2.09a.2.2,0,0,1,.191-.191h1.593a.2.2,0,0,1,.191.191v2.1a.063.063,0,0,0,.064.064h1.159a.2.2,0,0,1,.191.191v1.082a.2.2,0,0,1-.191.191h-1.159a.063.063,0,0,0-.064.064v4.015c0,.51.255.7.765.7h.446a.2.2,0,0,1,.191.191v1.288a.2.2,0,0,1-.191.191Zm7.339-.191a.2.2,0,0,1-.191-.191V35.9a2.834,2.834,0,0,1-2.356.892c-1.53,0-2.8-.7-2.8-2.356s1.288-2.485,3.313-2.485h1.657a.063.063,0,0,0,.064-.064V31.5c0-.892-.446-1.288-1.848-1.288a3.44,3.44,0,0,0-1.912.51.157.157,0,0,1-.255-.064l-.637-1.02c-.064-.064-.064-.191.064-.191a5.05,5.05,0,0,1,2.931-.765c2.55,0,3.441.828,3.441,2.678v4.97a.2.2,0,0,1-.191.191Zm-.191-2.55v-.573a.063.063,0,0,0-.064-.064h-1.416c-1.288,0-1.785.318-1.785,1.02,0,.637.51.955,1.465.955,1.082-.064,1.785-.446,1.785-1.339Zm3.313.637a5.189,5.189,0,0,1-.318-1.912,4.112,4.112,0,0,1,.318-1.912,3.335,3.335,0,0,1,3.441-2.1,3.536,3.536,0,0,1,2.868,1.21c.064.064.064.191-.064.191l-1.082.892a.157.157,0,0,1-.255-.064,1.89,1.89,0,0,0-1.53-.637,1.538,1.538,0,0,0-1.593,1.02,3.161,3.161,0,0,0-.191,1.416,5.137,5.137,0,0,0,.191,1.465,1.62,1.62,0,0,0,1.593,1.02,2.009,2.009,0,0,0,1.53-.637.38.38,0,0,1,.255-.064l1.082.892a.312.312,0,0,1,.064.191,3.823,3.823,0,0,1-2.868,1.147,3.273,3.273,0,0,1-3.441-2.1Zm13.063,1.912c-.129,0-.191-.064-.318-.191l-2.1-3.186-1.159,1.21v1.975a.2.2,0,0,1-.191.191h-1.593a.2.2,0,0,1-.191-.191v-10.5a.2.2,0,0,1,.191-.191h1.593a.2.2,0,0,1,.191.191V32.19l2.868-3.058a.348.348,0,0,1,.318-.191H135.6c.064,0,.191.064.064.191l-2.678,2.8,3,4.588c.064.064.064.191-.064.191Z" transform="translate(10.131 3.147)" fill="#202020"/>
  </g>
</svg>
