<svg id="cakephp-svgrepo-com" xmlns="http://www.w3.org/2000/svg" width="143.996" height="28.839" viewBox="0 0 143.996 28.839">
  <g id="Group_31" data-name="Group 31">
    <path id="Path_150" data-name="Path 150" d="M0,17.305c0,3.184,8.27,5.768,18.474,5.768h0v5.766C8.27,28.839,0,26.257,0,23.073H0Zm36.954,0v5.767c0,1.359-1.511,2.606-4.028,3.593h0L18.473,23.072V17.305L32.926,20.9c2.517-.985,4.029-2.232,4.028-3.592ZM18.474,0c10.2,0,18.48,2.587,18.48,5.768h0V11.54c0,1.355-1.511,2.606-4.027,3.588h0L18.474,11.54v5.766C8.27,17.305,0,14.722,0,11.54H0V5.768C0,2.587,8.27,0,18.474,0Z" fill="#d33c44"/>
    <path id="Path_151" data-name="Path 151" d="M167.817,22.771a7.915,7.915,0,0,1,6.045,2.366l-2.146,2.474a5.66,5.66,0,0,0-3.92-1.73,4.54,4.54,0,0,0-4.445,4.773V30.7a4.552,4.552,0,0,0,4.445,4.818,5.523,5.523,0,0,0,4.028-1.8l2.146,2.167a7.823,7.823,0,0,1-6.282,2.74,7.739,7.739,0,0,1-7.863-7.886V30.7A7.792,7.792,0,0,1,167.817,22.771Zm39.108,3.635c3.92,0,5.717,3.045,5.717,6.375v.043c0,.328-.021.526-.043.833H204.43a2.721,2.721,0,0,0,2.87,2.3,3.848,3.848,0,0,0,2.846-1.205l1.907,1.688a6.2,6.2,0,0,1-10.933-3.876v-.046A5.846,5.846,0,0,1,206.926,26.406Zm-25.75.088c3.636,0,5.236,1.883,5.236,5.061v6.809h-3.222V37.095a4.508,4.508,0,0,1-3.547,1.489c-2.21,0-4.029-1.27-4.029-3.592v-.046c0-2.563,1.948-3.746,4.729-3.746a8.373,8.373,0,0,1,2.872.482v-.2c0-1.378-.854-2.146-2.52-2.146a8.66,8.66,0,0,0-3.24.635l-.833-2.54A10.33,10.33,0,0,1,181.176,26.494Zm11.431-4.119V30.9l3.9-4.272h3.985l-4.467,4.619,4.62,7.119h-3.809l-3.067-4.8-1.162,1.226v3.57H189.28V22.375Zm29.125.658c3.656,0,5.868,2.168,5.868,5.3v.042c0,3.547-2.761,5.387-6.2,5.387h-2.56v4.6h-3.373V23.033Zm11.736,0V29.1h6.22V23.033h3.372V38.364h-3.372V32.207h-6.22v6.157H230.1V23.033Zm19.534,0c3.656,0,5.87,2.168,5.87,5.3v.042c0,3.547-2.758,5.387-6.2,5.387h-2.564v4.6h-3.373V23.033ZM181.134,33.2c-1.424,0-2.3.569-2.3,1.621v.043c0,.9.746,1.422,1.817,1.422,1.554,0,2.608-.851,2.608-2.058v-.59A5.119,5.119,0,0,0,181.134,33.2Zm25.793-4.117a2.616,2.616,0,0,0-2.541,2.5H209.4A2.518,2.518,0,0,0,206.927,29.079Zm14.519-3H218.84v4.689h2.672a2.375,2.375,0,0,0,2.671-2.322V28.4C224.183,26.889,223.133,26.079,221.445,26.079Zm31.272,0h-2.606v4.689h2.671a2.376,2.376,0,0,0,2.673-2.322V28.4C255.455,26.889,254.4,26.079,252.718,26.079Z" transform="translate(-114.875 -16.082)" fill="#d33c44"/>
  </g>
</svg>
