<svg xmlns="http://www.w3.org/2000/svg" width="80.822" height="53.219" viewBox="0 0 80.822 53.219">
  <g id="cassandra" transform="translate(-0.9 -0.2)">
    <g id="Group_120" data-name="Group 120" transform="translate(5.411 40.958)">
      <path id="Path_364" data-name="Path 364" d="M20.153,133.438a2.576,2.576,0,0,1,1.672.473c.063.5-.41,1.325-.694,1.325a2.948,2.948,0,0,0-1.073-.189c-1.64,0-2.461,1.7-2.461,3.375,0,1.041.347,1.672,1.2,1.672a3.818,3.818,0,0,0,2.271-1.041.952.952,0,0,1,.284.694,1.384,1.384,0,0,1-.442,1.041,4.1,4.1,0,0,1-2.965,1.073c-1.609,0-2.745-.915-2.745-3.06C15.263,135.962,17.093,133.438,20.153,133.438Zm5.3,6.562c.883,0,2.492-1.546,2.934-4.511.032-.189.032-.221.063-.41a2.485,2.485,0,0,0-.726-.126,2.216,2.216,0,0,0-1.956,1.041,5.136,5.136,0,0,0-.915,2.871c0,.726.221,1.136.6,1.136Zm-2.9-.82a6.2,6.2,0,0,1,1.7-4.259,5.075,5.075,0,0,1,3.849-1.483,17.488,17.488,0,0,1,2.713.41c-.189.789-.6,3.786-.82,5.521a13.686,13.686,0,0,0-.095,2.145,6.719,6.719,0,0,1-2.019.315c-.158,0-.189-.726-.158-1.451a6.785,6.785,0,0,0,.063-.726,4.356,4.356,0,0,1-3.533,2.145c-1.041.032-1.7-.852-1.7-2.618ZM35.3,133.438a2.742,2.742,0,0,1,1.767.6c-.032.5-.41,1.357-1.041,1.1a2.637,2.637,0,0,0-.915-.158c-.473,0-.915.221-.915.662,0,.347.252.6,1.451,1.451a2.348,2.348,0,0,1,1.2,1.987c0,1.325-1.23,2.745-3.407,2.745a2.472,2.472,0,0,1-1.893-.694c-.315-.536-.063-1.609.284-1.42a4.9,4.9,0,0,0,1.861.473c.6,0,.978-.284.978-.631,0-.315-.284-.568-1.357-1.357a2.438,2.438,0,0,1-1.2-2.019,2.91,2.91,0,0,1,3.186-2.745Zm6.215,0a2.742,2.742,0,0,1,1.767.6c-.032.5-.41,1.357-1.041,1.1a2.637,2.637,0,0,0-.915-.158c-.473,0-.915.221-.915.662,0,.347.252.6,1.451,1.451a2.348,2.348,0,0,1,1.2,1.987c0,1.325-1.23,2.745-3.407,2.745a2.526,2.526,0,0,1-1.893-.694c-.315-.536-.063-1.609.284-1.42a4.9,4.9,0,0,0,1.861.473c.6,0,.978-.284.978-.631,0-.315-.284-.568-1.356-1.357a2.438,2.438,0,0,1-1.2-2.019A2.91,2.91,0,0,1,41.51,133.438ZM47.157,140c.883,0,2.492-1.546,2.934-4.511.032-.189.032-.221.063-.41a2.485,2.485,0,0,0-.726-.126,2.216,2.216,0,0,0-1.956,1.041,5.136,5.136,0,0,0-.915,2.871c.032.726.221,1.136.6,1.136Zm-2.9-.82a6.2,6.2,0,0,1,1.7-4.259,5.075,5.075,0,0,1,3.849-1.483,17.488,17.488,0,0,1,2.713.41c-.189.789-.6,3.786-.82,5.521a13.686,13.686,0,0,0-.095,2.145,6.719,6.719,0,0,1-2.019.315c-.158,0-.189-.726-.158-1.451a6.786,6.786,0,0,0,.063-.726,4.356,4.356,0,0,1-3.533,2.145c-1.009.032-1.7-.852-1.7-2.618Zm12.335-3.407A4.1,4.1,0,0,1,60,133.438c1.293,0,1.7,1.2,1.451,2.871-.126.789-.347,1.924-.473,2.965a12.676,12.676,0,0,0-.189,2.208,8.017,8.017,0,0,1-2.145.315,3.933,3.933,0,0,1,.032-2.019c.158-.852.442-2.429.6-3.344.095-.536.063-1.167-.442-1.167-.662,0-2.24,1.073-3.028,5.426a.911.911,0,0,1-.41.694,4.368,4.368,0,0,1-2.019.315c.221-1.1.568-3.344.82-5.016a18.14,18.14,0,0,0,.284-2.871c.315-.095,1.924-.442,2.082-.442.189,0,.221.568.063,1.893-.032.126-.032.315-.063.442h.032v.063Zm9.148,4.2c.789,0,2.4-1.483,2.839-4.1.032-.158.063-.41.095-.568a1.374,1.374,0,0,0-1.041-.347c-1.83,0-2.618,2.177-2.618,3.754C65.043,139.526,65.327,139.968,65.737,139.968Zm-1.167,1.861c-1.167,0-1.861-1.041-1.861-2.776,0-2.9,1.83-5.584,4.89-5.584a2.92,2.92,0,0,1,1.325.315c.158-.82.536-3.375.568-4.133a15.624,15.624,0,0,1,2.082-.252c.189,0,.252.189.189.662-.442,2.713-1.2,7.887-1.356,9.022a18.2,18.2,0,0,0-.095,2.461,6.765,6.765,0,0,1-2.051.315c-.126,0-.189-.82-.158-1.577.032-.221.063-.568.063-.631a4.306,4.306,0,0,1-3.6,2.177Zm10.537-5.8c.946-2.114,2.082-2.587,2.839-2.587a1.352,1.352,0,0,1,.757.315,3.979,3.979,0,0,1-.82,2.24,1.932,1.932,0,0,0-.789-.221c-.6,0-1.83.946-2.587,5.047-.063.347-.158.473-.347.568a7.526,7.526,0,0,1-2.082.347c.284-1.483.726-4.48.915-6.246a9.352,9.352,0,0,0,.032-1.609,10.036,10.036,0,0,1,1.987-.473c.158,0,.284.978.032,2.587h.063v.032ZM81.448,140c.883,0,2.492-1.546,2.934-4.511.032-.189.032-.221.063-.41a2.485,2.485,0,0,0-.726-.126,2.216,2.216,0,0,0-1.956,1.041,5.136,5.136,0,0,0-.915,2.871c.032.726.221,1.136.6,1.136Zm-2.9-.82a6.2,6.2,0,0,1,1.7-4.259,5.075,5.075,0,0,1,3.849-1.483,17.488,17.488,0,0,1,2.713.41c-.189.789-.6,3.786-.82,5.521a13.685,13.685,0,0,0-.095,2.145,6.719,6.719,0,0,1-2.019.315c-.158,0-.189-.726-.158-1.451a6.785,6.785,0,0,0,.063-.726,4.356,4.356,0,0,1-3.533,2.145C79.239,141.829,78.545,140.946,78.545,139.179Z" transform="translate(-15.2 -129.4)" fill="#373535"/>
    </g>
    <path id="Path_365" data-name="Path 365" d="M95.239,22.636c.6,6.909-10.284,13.5-24.322,14.7S45.048,33.9,44.449,26.989s10.284-13.5,24.322-14.7c14.007-1.2,25.868,3.407,26.467,10.347" transform="translate(-29.794 -8.145)" fill="#bbe6fb"/>
    <path id="Path_366" data-name="Path 366" d="M85.835,15.193c-5.363-.095-11.609,2.051-16.278,4.038a13.665,13.665,0,0,0-.757,4.417c0,8.2,7.413,14.858,16.562,14.858s16.593-6.625,16.593-14.858A13.72,13.72,0,0,0,99.9,16.487a109.118,109.118,0,0,0-14.07-1.293" transform="translate(-46.48 -10.261)" fill="#fff"/>
    <path id="Path_367" data-name="Path 367" d="M92.444,15.166c-2.965-.189-8.076,1.356-12.335,2.9A12.3,12.3,0,0,0,79.1,23.021c0,7.193,6.53,13.029,13.407,13.029,6.846,0,12.9-5.836,13.407-13.029a11.137,11.137,0,0,0-1.767-6.435c-4.385-.757-9.054-1.23-11.7-1.42" transform="translate(-53.531 -10.234)" fill="#fff"/>
    <path id="Path_368" data-name="Path 368" d="M92.577,22.3a8.428,8.428,0,0,1,1.451-1.861,4.131,4.131,0,0,1-.189-.852,1.447,1.447,0,0,1,1.451-1.451,1.474,1.474,0,0,1,.536.095,10.609,10.609,0,0,1,8.833-1.924c.284.063.568.158.852.221a12.619,12.619,0,0,0-9.18,2.65,4.128,4.128,0,0,1,.284.883c0,.82-.536,1.009-1.325,1.009a1.6,1.6,0,0,1-.536-.095A14.408,14.408,0,0,0,93.208,24a11.766,11.766,0,0,0,4.133,2.24c0-.063.063-.158.063-.221a4.567,4.567,0,0,1,4.574-4.417,4.41,4.41,0,0,1,4.353,3.659,10.352,10.352,0,0,0,2.934-2.24,2.559,2.559,0,0,1-.379-1.2,1.333,1.333,0,0,1,1.325-1.325,1.183,1.183,0,0,1,.315.032,11.465,11.465,0,0,0,.915-2.65c-3.817-2.839-11.2-2.429-11.2-2.429S94.375,15.14,90.4,17.1A12.018,12.018,0,0,0,92.577,22.3" transform="translate(-61.266 -10.429)" fill="#373535"/>
    <path id="Path_369" data-name="Path 369" d="M116.13,26.718a2.349,2.349,0,0,1,.536.662c.347.631-.347,1.23-1.1,1.23a.537.537,0,0,1-.221-.032,14.045,14.045,0,0,1-3.565,3.786,10.807,10.807,0,0,1,5.3,2.334,15.851,15.851,0,0,0,1.893-7.1,5.083,5.083,0,0,0-1.987-4.1,13.821,13.821,0,0,1-.852,3.218M100.1,38.958c.662-1.83,2.271-3.218,3.817-4.448a8.436,8.436,0,0,1-.694-1.42,10.944,10.944,0,0,1-4.8-3.028c0,.032-.032.095-.032.126a9.257,9.257,0,0,0-.158,3.218A1.932,1.932,0,0,1,99.821,35.3a3.065,3.065,0,0,1-.883,1.735,8.932,8.932,0,0,0,1.167,1.924" transform="translate(-66.586 -15.95)" fill="#373535"/>
    <path id="Path_370" data-name="Path 370" d="M86.924,38.487a14.1,14.1,0,0,1-1.83-3.312c-.095,0-.189.032-.284.032-1.073,0-2.177-.883-1.924-1.924a1.911,1.911,0,0,1,1.167-1.262,12.807,12.807,0,0,1,.095-4.1c.063-.347.252-.5.347-.852a11.312,11.312,0,0,1-1.924-6.215V20.6c-1.987,1.009-3.47,2.555-3.47,5.016,0,5.458,3.155,10.82,7.824,12.9v-.032m11.514-7.54a4.444,4.444,0,0,1-4.164,2.965,4.231,4.231,0,0,1-2.713-.946A12.62,12.62,0,0,0,87.9,38.14a8.594,8.594,0,0,0,.915.946,16.593,16.593,0,0,0,3.754,0,13.179,13.179,0,0,0,11.294-5.773,11.894,11.894,0,0,0-5.426-2.366" transform="translate(-53.531 -13.965)" fill="#373535"/>
    <path id="Path_371" data-name="Path 371" d="M92.314,24.1a11.448,11.448,0,0,1,1.357-2.24,1.429,1.429,0,0,1-.095-.5A1.447,1.447,0,0,1,95.027,19.9a1.474,1.474,0,0,1,.536.095A10.609,10.609,0,0,1,104.4,18.07c.284.063.568.158.852.221a11.755,11.755,0,0,0-8.865,2.492,1.842,1.842,0,0,1,.126.568A1.447,1.447,0,0,1,95.058,22.8a1.6,1.6,0,0,1-.536-.095A9.523,9.523,0,0,0,93.2,25.137a10.945,10.945,0,0,0,4.164,2.808v-.221a4.418,4.418,0,0,1,8.77-.757A11.324,11.324,0,0,0,109,24.348a1.261,1.261,0,0,1-.315-.82,1.333,1.333,0,0,1,1.325-1.325,1.184,1.184,0,0,1,.315.032,11.467,11.467,0,0,0,.915-2.65c-3.817-2.839-11.2-2.429-11.2-2.429S94.175,16.84,90.2,18.8a11.147,11.147,0,0,0,2.114,5.3" transform="translate(-61.129 -11.592)" fill="#1287b1"/>
    <path id="Path_372" data-name="Path 372" d="M116.046,28.308a1.294,1.294,0,0,1,.442.978,1.333,1.333,0,0,1-1.325,1.325.537.537,0,0,1-.221-.032,10.44,10.44,0,0,1-3.218,3.218,10.606,10.606,0,0,1,5.174,2.334,13.421,13.421,0,0,0,1.7-6.53,5.083,5.083,0,0,0-1.987-4.1,10.327,10.327,0,0,1-.568,2.808M100.02,40.737a10.5,10.5,0,0,1,3.344-4.669,3.869,3.869,0,0,1-.536-1.009,10.943,10.943,0,0,1-4.8-3.028c0,.032-.032.095-.032.126a9.257,9.257,0,0,0-.158,3.218,1.92,1.92,0,0,1,.946,3.312,10.4,10.4,0,0,0,1.23,2.051" transform="translate(-66.312 -17.319)" fill="#1287b1"/>
    <path id="Path_373" data-name="Path 373" d="M86.65,39.824a10.673,10.673,0,0,1-1.956-2.65c-.095,0-.189.032-.284.032a1.912,1.912,0,0,1-1.924-1.924,1.948,1.948,0,0,1,1.073-1.735,10.092,10.092,0,0,1,.189-3.628c.063-.347.189-.694.284-1.041a10.644,10.644,0,0,1-1.861-6.025V22.6c-1.987,1.009-3.47,2.555-3.47,5.016a13.389,13.389,0,0,0,7.918,12.24c.032,0,.032,0,.032-.032m11.388-6.877a4.444,4.444,0,0,1-4.164,2.965,4.231,4.231,0,0,1-2.713-.946,10.933,10.933,0,0,0-3.439,4.7c.315.347.662.662,1.009.978a13.2,13.2,0,0,0,3.375.442,13.422,13.422,0,0,0,11.262-6.12,10.748,10.748,0,0,0-5.331-2.019" transform="translate(-53.257 -15.334)" fill="#1287b1"/>
    <path id="Path_374" data-name="Path 374" d="M111.886,32.975l4.07-.978-4.1-.221,3.344-2.524-3.786,1.356,2.555-3.565L110.4,29.411l1.23-4.164L109.2,28.685l-.063-4.353-1.609,3.88L106.208,24.3l.063,4.606-2.3-4.133,1.262,4.385-3.754-2.713,2.934,3.691-4.669-1.7,3.659,2.713-4.7.158,4.827,1.23L98.7,33.575l4.764.347-4.006,2.555,4.133-1.483-2.871,3.628,3.628-2.934-1.293,4.858,2.808-3.975-.379,4.669,1.577-4.259,1.356,4.448.315-4.48,2.019,3.817-1.2-4.353,3.659,2.839-2.366-3.628,4.038,1.577-3.092-3.028,4.133.315Z" transform="translate(-66.948 -16.497)" fill="#fff"/>
    <path id="Path_375" data-name="Path 375" d="M2.8,26.187C15.45,13.537,25.545,9.625,34.725,7.858c1.2-.221,1.451-2.9,1.451-2.9s.158,1.956,1.009,2.208S39.142,4.1,39.142,4.1s-1.009,2.965,0,3.155c1.009.158,2.9-2.9,2.9-2.9s-.757,2.618-.252,2.808c.5.158,3.06-3.817,3.06-3.817s-1.514,2.618-.095,2.9c1.451.252,3.565-1.8,3.565-1.8s-1.64,1.861-.915,2.145c3.155,1.1,5.678-2.965,5.678-2.965a14.167,14.167,0,0,1-2.114,3.754c3.312.852,5.773-4.133,5.773-4.133L54.284,8.237C55.546,8.868,60.625,3,60.625,3s-2.618,4.574-4.164,5.521c.852.694,3.912-2.051,3.912-2.051s-2.461,3.06-1.514,3.218c1.356,1.1,6.372-5.678,6.372-5.678a34.331,34.331,0,0,1-4.827,7.13c2.4,1.23,8.391-6.5,8.391-6.5s-.158,2.461-4.511,6.372c3.218-.41,7.382-6.53,7.382-6.53a20.259,20.259,0,0,1-5.174,7.824c3.155-.315,8.234-8.139,8.234-8.139S72.77,9.593,68.8,12.748c4.417.978,10.789-5.615,10.789-5.615s-2.492,4.669-5.773,6.593c3.659,1.388,8.675-4.385,8.675-4.385s-5.016,7.729-13,7.382C66.871,16.6,58.953,8.773,41.981,9.4,19.52,10.224,14.788,19.751,2.8,26.187" transform="translate(-1.301 -1.917)" fill="rgba(55,53,53,0.35)"/>
    <path id="Path_376" data-name="Path 376" d="M4.4,23.324C17.05,10.673,27.145,6.762,36.325,5c1.2-.221,1.451-2.9,1.451-2.9s.158,1.956,1.009,2.208,1.956-3.06,1.956-3.06-1.009,2.965,0,3.155c1.009.158,2.9-2.9,2.9-2.9s-.757,2.618-.252,2.808c.5.158,3.06-3.817,3.06-3.817s-1.514,2.618-.095,2.9c1.451.252,3.565-1.8,3.565-1.8s-1.64,1.861-.915,2.145c3.155,1.1,5.678-2.965,5.678-2.965a14.167,14.167,0,0,1-2.114,3.754c3.312.852,5.773-4.133,5.773-4.133L55.884,5.374C57.146,6.068,62.256.2,62.256.2s-2.618,4.574-4.164,5.521C58.944,6.32,62,3.607,62,3.607s-2.461,3.06-1.514,3.218c1.356,1.1,6.372-5.678,6.372-5.678A35.2,35.2,0,0,1,62,8.276c2.4,1.2,8.423-6.53,8.423-6.53s-.158,2.461-4.511,6.372c3.218-.41,7.382-6.53,7.382-6.53a20.259,20.259,0,0,1-5.174,7.824c3.155-.315,8.234-8.139,8.234-8.139S74.4,6.7,70.427,9.853c4.417.978,10.789-5.615,10.789-5.615s-2.492,4.669-5.773,6.593c3.659,1.388,8.675-4.385,8.675-4.385s-5.016,7.729-13,7.382C68.5,13.7,60.584,5.878,43.612,6.509,21.151,7.361,16.388,16.857,4.4,23.324" transform="translate(-2.396)" fill="#373535"/>
    <path id="Path_377" data-name="Path 377" d="M1.8,58.132c6.688,3.344,12.808-.5,20.505,1.672,5.868,1.64,13,3.691,22.682,2.271,9.685-1.388,17.95-5.615,21.925-13.123,1.23-3.344,6.246.757,6.246.757s-3.659-1.514-3.565-.82c.095.726,5.489,3.218,5.489,3.218s-4.89-1.514-4.574-.379c.284,1.136,6.12,5.741,6.12,5.741s-6.656-4.984-7.193-4.29c-.568.694,2.808,3.439,2.808,3.439s-5.552-3.439-7.508-2.429c-1.42.726,5.773,5.426,5.773,5.426S65.839,56.05,64.735,57,70,65.577,70,65.577s-7.256-7.824-7.981-7.445,1.987,4.133,1.987,4.133-3.533-3.912-4.511-3.249c-.978.694,5.111,10.82,5.111,10.82s-6.593-10.379-9.338-8.644c4.259,9.369,2.681,10.694,2.681,10.694s-.536-9.559-5.868-9.306c-2.681.126,1.262,7.129,1.262,7.129s-3.628-6.4-6.057-6.278c4.448,8.454,2.871,11.861,2.871,11.861s.726-7.224-5.3-11.231c2.3,2.051-1.451,11.231-1.451,11.231s3.281-13.533-2.429-10.947c-.915.41-.063,6.751-.063,6.751s-1.136-7.256-2.871-6.877c-1.009.221-6.372,10.063-6.372,10.063s4.385-10.631,3.06-10.19c-.978.315-2.808,4.7-2.808,4.7s.883-4.322,0-4.574-5.868,4.574-5.868,4.574,3.691-4.322,3.06-5.237a2.54,2.54,0,0,0-3.439-.883C23.725,63.432,21.106,67,21.106,67s2.618-3.628,2.177-4.953c-.726-2.177-8.265,4.2-8.265,4.2s4.448-4.2,3.439-5.111c-1.009-.883-6.562-.631-8.265-.631-5.079.063-6.846-1.136-8.391-2.366" transform="translate(-0.616 -32.474)" fill="rgba(55,53,53,0.35)"/>
    <path id="Path_378" data-name="Path 378" d="M.9,55.732c6.688,3.344,12.808-.5,20.505,1.672,5.868,1.64,13,3.691,22.682,2.271,9.685-1.388,17.95-5.615,21.925-13.123,1.23-3.344,6.246.757,6.246.757s-3.659-1.514-3.565-.82c.095.726,5.489,3.218,5.489,3.218s-4.89-1.514-4.574-.379c.284,1.136,6.12,5.741,6.12,5.741s-6.593-5.016-7.13-4.322,2.808,3.439,2.808,3.439-5.552-3.439-7.508-2.429c-1.42.726,5.773,5.426,5.773,5.426S65,53.619,63.9,54.565s5.268,8.581,5.268,8.581-7.224-7.824-7.95-7.445S63.2,59.833,63.2,59.833s-3.6-3.88-4.574-3.218c-.978.694,5.079,10.82,5.079,10.82s-6.593-10.41-9.306-8.675c4.29,9.4,2.681,10.726,2.681,10.726s-.536-9.559-5.868-9.306c-2.681.126,1.262,7.13,1.262,7.13s-3.6-6.372-6.025-6.246c4.448,8.454,2.871,11.861,2.871,11.861s.726-7.224-5.3-11.231c2.3,2.051-1.451,11.231-1.451,11.231s3.281-13.533-2.429-10.947c-.915.41-.063,6.751-.063,6.751s-1.136-7.256-2.871-6.877c-1.009.221-6.372,10.063-6.372,10.063s4.385-10.631,3.06-10.19c-.978.315-2.808,4.7-2.808,4.7s.883-4.322,0-4.574-5.868,4.574-5.868,4.574,3.691-4.322,3.06-5.237a2.54,2.54,0,0,0-3.439-.883c-1.956.757-4.574,4.322-4.574,4.322S22.888,61,22.446,59.675c-.726-2.177-8.265,4.2-8.265,4.2s4.448-4.2,3.439-5.111c-1.009-.883-6.562-.631-8.265-.631-5.142.032-6.909-1.167-8.454-2.4" transform="translate(0 -30.831)" fill="#373535"/>
  </g>
</svg>
