<svg xmlns="http://www.w3.org/2000/svg" width="51.124" height="56.115" viewBox="0 0 51.124 56.115">
  <path id="Codecov-01_Converted_-01" data-name="Codecov-01 [Converted]-01" d="M127.39,74.974A25.367,25.367,0,0,0,109.321,67.5,25.644,25.644,0,0,0,83.74,93.1v4.334l3.367-2.3a13.552,13.552,0,0,1,10.119-2.165,13.12,13.12,0,0,1,6.675,3.347,17.989,17.989,0,0,1,1.51-2.7c.241-.355.5-.7.759-1.03A17.468,17.468,0,0,0,98,88.742a18.031,18.031,0,0,0-3.221-.292,17.665,17.665,0,0,0-6.449,1.213,21.264,21.264,0,0,1,41.974-.042,17.912,17.912,0,0,0-6.472-1.228h-.307c-.229,0-.461.009-.68.023-.391.02-.778.055-1.162.1-.115.012-.228.029-.341.046-.275.037-.549.078-.821.128-.12.022-.24.046-.358.069-.277.057-.552.118-.823.188l-.294.075c-.343.092-.683.2-1.016.307l-.061.02a17.651,17.651,0,0,0-2.209.922l-.058.031c-.332.168-.66.349-.981.54l-.08.048a17.183,17.183,0,0,0-4.458,3.844l-.154.192c-.275.344-.543.7-.795,1.065-.214.307-.412.633-.6.958l-.129.223c-.175.308-.343.615-.5.922l-.026.052a17.654,17.654,0,0,0-.922,2.252h0a17.573,17.573,0,0,0-.9,5.856v.238c0,.154.012.307.022.461,0,.125.015.248.023.371s.022.263.034.4c.017.154.035.321.055.481.012.1.025.2.038.307.038.268.081.535.132.8a17.665,17.665,0,0,0,7.269,11.251l.489.307v-.009a17.68,17.68,0,0,0,7.237,2.709l.349.048,2.592-4.159-.932-.026a13.373,13.373,0,0,1-.446-26.717l.446-.017a13.694,13.694,0,0,1,8.054,2.4l3.353,2.282v-4.3a25.38,25.38,0,0,0-7.479-18.089" transform="translate(-83.74 -67.499)" fill="#e0225c"/>
</svg>
