<svg xmlns="http://www.w3.org/2000/svg" width="46.013" height="54.506" viewBox="0 0 46.013 54.506">
  <path id="codeigniter-1" d="M2.355,51.639c-.935,0-1.207-.545-1.207-1.361a7.256,7.256,0,0,1,.076-.9c.2-1.411.705-2.218,1.912-2.218.817,0,1.215.365,1.215,1.028v.323h.81c.009,0,.009-.3.009-.365a1.821,1.821,0,0,0-2.032-1.888c-1.964,0-2.772,1.067-3.07,3.159A5.367,5.367,0,0,0,0,50.238c0,1.233.485,2.355,2.22,2.355a2.774,2.774,0,0,0,2.559-1.433l-.774-.521a1.817,1.817,0,0,1-1.65,1ZM7.67,47.745c-1.573,0-2.253.807-2.483,2.414a4.192,4.192,0,0,0-.043.561,1.66,1.66,0,0,0,1.828,1.862c1.573,0,2.262-.842,2.492-2.424a4.624,4.624,0,0,0,.043-.578A1.645,1.645,0,0,0,7.67,47.745Zm.655,2.415c-.17,1.165-.535,1.522-1.225,1.522-.552,0-.824-.23-.824-.918a4.254,4.254,0,0,1,.051-.6c.17-1.156.51-1.513,1.207-1.513.561,0,.842.23.842.927a3.939,3.939,0,0,1-.051.587Zm5.137-3.819L13.2,47.9c-.017.136-.008.091.043.218a1.879,1.879,0,0,0-.987-.311c-1.412,0-2.2.639-2.457,2.425a3.489,3.489,0,0,0-.043.57,1.6,1.6,0,0,0,1.794,1.787,1.733,1.733,0,0,0,1.19-.271l.085.529h.817l.952-6.508Zm-.808,5.094a1.952,1.952,0,0,1-.986.281c-.621,0-.791-.323-.791-.842a5.11,5.11,0,0,1,.06-.672c.2-1.352.629-1.59,1.19-1.59a1.8,1.8,0,0,1,.91.2Zm4.422-3.69c-1.557,0-2.287.739-2.534,2.414a4.708,4.708,0,0,0-.043.587,1.657,1.657,0,0,0,1.879,1.837A2.266,2.266,0,0,0,18.53,51.4l-.859-.349a1.277,1.277,0,0,1-1.165.629c-.629,0-.884-.169-.884-.731a.83.83,0,0,1,.026-.272h3.069c.043-.434.093-.741.093-.995,0-.85-.323-1.939-1.734-1.939Zm.586,2.067H15.792c.187-.434.5-1.105,1.148-1.105a.693.693,0,0,1,.748.795,1.308,1.308,0,0,1-.026.311Zm4.42-2.169.1-.868h-2.4l-.1.868h.629l-.68,4.338H19l-.1.868h2.4l.1-.868h-.63l.68-4.338Zm4.873,1.3.306-.868h-.825l-.595.123a2.354,2.354,0,0,0-1.207-.371c-1.216,0-2.253.587-2.253,1.923a1.42,1.42,0,0,0,.3.881.791.791,0,0,0-.476.67.642.642,0,0,0,.153.4,1.626,1.626,0,0,0-.824,1.409c0,1.149,1.2,1.393,2.117,1.393,1.156,0,2.534-.264,2.534-1.735,0-.5-.315-.893-1.224-1.063L23.317,51.4c-.187-.034-.23-.094-.23-.179a.182.182,0,0,1,.2-.2l.111.017a3.36,3.36,0,0,0,.74.077c1.182,0,2.236-.51,2.236-1.837a1.2,1.2,0,0,0-.119-.518,1.849,1.849,0,0,0,.408.179h.288Zm-2.338,3.52c.323.06.433.179.433.391,0,.689-.74.774-1.275.774-.816,0-1.122-.2-1.122-.629a1.044,1.044,0,0,1,.366-.833Zm-.349-2.227c-.493,0-.765-.178-.765-.6a.911.911,0,0,1,1-.995c.51,0,.757.213.757.629A.887.887,0,0,1,24.268,50.236Zm5.708-2.492a2.339,2.339,0,0,0-1.429.65l-.076-.318h-.936l-.655,4.772h1.131l.493-3.619a2.517,2.517,0,0,1,1.088-.5c.425,0,.578.205.578.6a4.507,4.507,0,0,1-.026.473l-.416,3.05h1.131l.416-3.075c.017-.144.034-.381.034-.517,0-.809-.383-1.512-1.335-1.512Zm3.483,3.908.009-.117.493-3.46H32.081l-.118.868h.824c-.068,0-.111.076-.119.145l-.34,2.3a3.99,3.99,0,0,0-.025.435.921.921,0,0,0,.986,1.021h.578l.128-.868h-.365C33.5,51.981,33.459,51.755,33.459,51.653Zm.731-5.312H33.085c-.068,0-.068-.25-.076-.165L32.855,47.4c-.009.077-.009.244.059.244H34.02c.068,0,.068-.3.076-.375l.153-.944c.009-.085.009.017-.06.017ZM36.5,51.682c-.28,0-.416-.119-.416-.374l.009-.017.357-2.347h1.292l.391-.868H36.565l.263-1.909-1.19.381-.213,1.529h-.689l-.119.868h.8c-.076.434-.153.152-.161.238l-.306,2.058a1.255,1.255,0,0,0-.017.246c0,.808.6,1.11,1.31,1.11a2.436,2.436,0,0,0,1.616-.543L37.33,51.4a1.365,1.365,0,0,1-.834.278Zm4.15-3.937c-1.556,0-2.287.739-2.534,2.414a4.774,4.774,0,0,0-.043.587,1.657,1.657,0,0,0,1.879,1.837A2.265,2.265,0,0,0,42.1,51.4l-.859-.349a1.278,1.278,0,0,1-1.165.629c-.629,0-.884-.169-.884-.731a.824.824,0,0,1,.026-.272h3.069c.042-.434.093-.741.093-.995,0-.85-.323-1.939-1.735-1.939Zm.587,2.067H39.362c.187-.434.5-1.105,1.148-1.105a.693.693,0,0,1,.748.795,1.337,1.337,0,0,1-.026.311Zm4.277-2.067a1.772,1.772,0,0,0-1.174.6l-.068-.267h-.935l-.655,4.772h1.14l.5-3.7a1.98,1.98,0,0,1,.961-.33,4.566,4.566,0,0,1,.586-.007l.145-.986a2.715,2.715,0,0,0-.5-.085ZM16.633,42.923c-2.574-1.113-4.982-3.94-4.988-6.833-.007-3.154,1.992-5.832,4.478-7.592a3.428,3.428,0,0,0,.279,3.172,3,3,0,0,0,3.033,1.148c2.66-.582,2.782-3.507,1.205-5.21-1.559-1.687-3.068-3.593-2.474-6.04a6.292,6.292,0,0,1,2-3.2c-.733,1.927,1.351,3.828,2.724,4.774,2.382,1.642,4.995,2.884,7.185,4.809,2.3,2.023,4,4.759,3.661,7.933-.372,3.439-3.105,5.832-6.171,7.039,6.478-1.43,13.172-6.458,13.309-13.642.114-5.911-3.941-10.459-8.964-13.064l-.262-.143a2.138,2.138,0,0,1,.178.874,3.055,3.055,0,0,0,.084-.58,2.827,2.827,0,0,1-.092.7l.008-.121a2.945,2.945,0,0,1-.372.886l.074-.079a3.153,3.153,0,0,1-5.055.3c-2.154-2.768.045-5.753.353-8.685C27.213,5.7,24.909,2.134,22.052,0c1.573,2.545-.5,5.913-2.158,7.8-1.608,1.825-3.564,3.348-5.339,5.007a44.5,44.5,0,0,0-5.308,5.747C6.113,22.732,4.193,27.994,5.6,33.213s5.927,8.536,11.029,9.71Z" transform="translate(0 0)" fill="#ee4323"/>
</svg>
