<svg xmlns="http://www.w3.org/2000/svg" width="40.707" height="54.635" viewBox="0 0 40.707 54.635">
  <g id="css-3-logo-svgrepo-com" transform="translate(-0.445)">
    <path id="Path_92" data-name="Path 92" d="M20.774,114.664,4.15,110.276l-3.7-39.51H41.152l-3.709,39.5-16.67,4.394Z" transform="translate(0 -60.029)" fill="#264de4"/>
    <path id="Path_93" data-name="Path 93" d="M140.808,125.815l3.013-33.758H128v37.309Z" transform="translate(-106.201 -78.089)" fill="#2965f1"/>
    <path id="Path_94" data-name="Path 94" d="M48.79,133.8l.434,4.846H60.068V133.8Zm-.873-9.808.44,4.846h11.71v-4.846Zm12.151,22.393-.021.006-5.4-1.457-.345-3.865H49.44l.679,7.608,9.926,2.755.022-.006Z" transform="translate(-39.727 -105.182)" fill="#ebebeb"/>
    <path id="Path_95" data-name="Path 95" d="M60.484,0h6.457V2.454H63.184V4.909h3.757V7.363H60.484Zm7.749,0H74.69V2.134H70.933v.427H74.69V7.47H68.233V5.229H71.99V4.8H68.232V0Zm7.749,0h6.457V2.134H78.682v.427h3.757V7.47H75.981V5.229h3.757V4.8H75.982V0Z" transform="translate(-50.929)"/>
    <path id="Path_96" data-name="Path 96" d="M139.153,133.8l.875-9.808H127.889v4.846h6.828l-.441,4.962h-6.387v4.846h5.967l-.563,6.285-5.4,1.459v5.041l9.934-2.753.073-.819,1.139-12.757Z" transform="translate(-106.652 -105.182)" fill="#fff"/>
  </g>
</svg>
