<svg id="cucumber" xmlns="http://www.w3.org/2000/svg" width="48.118" height="55.274" viewBox="0 0 48.118 55.274">
  <path id="Path_466" data-name="Path 466" d="M24.313,0a24.377,24.377,0,0,0-4.64,48.295v6.979c14.551-2.2,27.435-13.782,28.4-28.986C48.648,17.136,44.1,7.793,36.423,3.257c-.439-.26-.886-.517-1.346-.744s-.949-.456-1.438-.651c-.155-.065-.307-.124-.464-.186-.427-.158-.858-.336-1.3-.465A24.064,24.064,0,0,0,24.313,0Z" transform="translate(0 0)" fill="#00a818"/>
  <path id="Path_467" data-name="Path 467" d="M66.988,47.864a2.655,2.655,0,0,0-2.325.932,10.846,10.846,0,0,0-1.023,1.772,5.735,5.735,0,0,0,.744,5.968,6.549,6.549,0,0,0,4.742-3.87,4.715,4.715,0,0,0,.465-1.958A2.785,2.785,0,0,0,66.988,47.864ZM56.155,48a2.845,2.845,0,0,0-2.65,2.7,4.712,4.712,0,0,0,.465,1.958,6.765,6.765,0,0,0,4.882,3.87,6.2,6.2,0,0,0-.419-7.6A2.609,2.609,0,0,0,56.155,48Zm-7.3,7.18A2.571,2.571,0,0,0,47.415,59.8a11.2,11.2,0,0,0,1.767,1.072,6.683,6.683,0,0,0,6.276-.606,6.9,6.9,0,0,0-4.045-4.616,5.312,5.312,0,0,0-2.092-.466A2.686,2.686,0,0,0,48.856,55.184Zm22.921,9.045a6.792,6.792,0,0,0-3.859,1.119,6.894,6.894,0,0,0,4.045,4.616,5.311,5.311,0,0,0,2.092.466c2.678.149,3.989-3.17,1.906-4.662a10.789,10.789,0,0,0-1.767-1.026,6.411,6.411,0,0,0-2.418-.513Zm-20.318.14a6.411,6.411,0,0,0-2.418.513,5.082,5.082,0,0,0-1.767,1.072,2.645,2.645,0,0,0,2.046,4.615,4.788,4.788,0,0,0,2.092-.466,6.288,6.288,0,0,0,3.859-4.616A6.644,6.644,0,0,0,51.46,64.368Zm7.532,4.569a6.548,6.548,0,0,0-4.742,3.87,4.513,4.513,0,0,0-.465,1.912c-.149,2.536,3.3,3.9,4.789,1.958A10.847,10.847,0,0,0,59.6,74.9,6.136,6.136,0,0,0,58.992,68.937Zm5.533.14a6.2,6.2,0,0,0,.418,7.6c1.637,1.79,5.077.466,4.928-1.772a4.716,4.716,0,0,0-.465-1.958A6.766,6.766,0,0,0,64.525,69.077Z" transform="translate(-37.639 -38.856)" fill="#fff"/>
</svg>
