<svg xmlns="http://www.w3.org/2000/svg" width="52.319" height="56" viewBox="0 0 52.319 56">
  <path id="datadog-1" d="M44.094,40.032l-4.659-3.073-3.887,6.492-4.52-1.322L27.048,48.2l.2,1.912,21.64-3.987L47.635,32.608ZM23.913,34.2l3.472-.477a8.743,8.743,0,0,0,1.626.52,5.1,5.1,0,0,0,4.062-.371,7.069,7.069,0,0,0,1.643-1.459l14.225-2.581L50.392,47.4,26.022,51.79Zm26.425-6.329-1.4.267L46.235.27.27,5.6,5.933,51.554l5.38-.781a12.153,12.153,0,0,0-2.241-2.306c-1.585-1.316-1.024-3.552-.09-4.964,1.237-2.386,7.608-5.418,7.247-9.231a6.733,6.733,0,0,0-1.637-4.428,4.282,4.282,0,0,0,.039,1.008,5.183,5.183,0,0,1-.792-1.594,7.807,7.807,0,0,1-.745-.936,3.532,3.532,0,0,0-.172,1.177,7.356,7.356,0,0,1-.5-1.883,3,3,0,0,0-.321,1.119,7.233,7.233,0,0,1-.434-2.477,11.71,11.71,0,0,1-.8-5.656c1.4.983,4.491.749,5.694-1.024.4-.587.673-2.191-.2-5.35A47.349,47.349,0,0,0,13.87,8.039l-.065.046c.285.922.873,2.855,1.1,3.792.683,2.843.866,3.832.545,5.143-.273,1.139-.927,1.885-2.585,2.718s-3.858-1.2-4-1.311a8.859,8.859,0,0,1-3-4.393c-.145-1.113.642-1.781,1.038-2.692a10.206,10.206,0,0,0-1.2.45A14.484,14.484,0,0,1,7.4,10.336a9.955,9.955,0,0,0,1.018-.755c-.588-.01-1.065.007-1.065.007a19.056,19.056,0,0,1,2-.916C8.6,8.64,7.889,8.668,7.889,8.668s2.188-.978,3.915-1.7a2.348,2.348,0,0,1,3,.6,5.2,5.2,0,0,0,3.661,2.322,15.686,15.686,0,0,1,3-1.186A4.752,4.752,0,0,1,23.773,7.1a2.341,2.341,0,0,0-.639,1.189,16.877,16.877,0,0,1,1.538-1.061,5.442,5.442,0,0,0-.6,1l.067.1A15.3,15.3,0,0,1,26,7.406s-.288.364-.625.834c.645-.005,1.955.027,2.463.085,3,.066,3.622-3.2,4.773-3.614C34.053,4.2,34.7,3.885,37.154,6.3c2.108,2.071,3.754,5.779,2.937,6.609-.685.689-2.038-.269-3.537-2.137a8.087,8.087,0,0,1-1.672-3.645,3.577,3.577,0,0,0-1.158-1.982,6.5,6.5,0,0,1,.535,2.239,7.365,7.365,0,0,0,.991,3.921c-.091.176-.133.87-.234,1-1.07-1.293-3.367-2.218-3.742-2.491,1.268,1.039,4.183,3.426,5.3,5.714,1.059,2.163.435,4.146.971,4.66a18.277,18.277,0,0,1,2.686,4.125,7.954,7.954,0,0,1-.891,6.266l-2.606.406a3.644,3.644,0,0,1-.98-.357,6.536,6.536,0,0,0,.567-1.337l-.147-.258a11,11,0,0,1-3.3,2.906,5.576,5.576,0,0,1-4.289.365,24.5,24.5,0,0,1-6.839-3.655s-.022.446.113.546a24.375,24.375,0,0,0,4.367,3.641l-3.745.412,1.77,13.785c-.785.112-.907.167-1.766.29a9.233,9.233,0,0,0-3.789-5.44,7.151,7.151,0,0,0-5.166-.734l-.118.137a6.653,6.653,0,0,1,4.35,1.037c1.526.965,2.755,3.456,3.208,4.956.579,1.917.98,3.968-.579,6.142-1.11,1.545-4.35,2.4-6.967.552a4.257,4.257,0,0,0,2.916,2.217,5.572,5.572,0,0,0,4.915-1.338c1.054-1.083,1.612-3.348,1.465-5.733l1.667-.242.6,4.281,27.6-3.323ZM33.548,16.248c-.077.176-.2.291-.016.863l.011.033.029.074.076.171a3.407,3.407,0,0,0,1.288,1.624,4.2,4.2,0,0,1,.483-.052,2.214,2.214,0,0,1,1.147.186,2.438,2.438,0,0,0,.012-.52c-.044-.848.168-2.291-1.462-3.05a1.675,1.675,0,0,0-1.766.159.706.706,0,0,1,.136.03c.435.152.14.3.062.482m4.569,7.914a5.982,5.982,0,0,0-1.915.012,9.136,9.136,0,0,0-3.1.869.976.976,0,0,0,.111,1.539c1.192.891,2.237,1.488,3.341,1.343.678-.089,1.275-1.161,1.7-2.135.29-.67.29-1.394-.135-1.628M26.271,17.3c.377-.358-1.88-.829-3.631.365a2.417,2.417,0,0,0-.1,3.84,2.893,2.893,0,0,0,.321.243,10.534,10.534,0,0,1,1.246-.5,11.132,11.132,0,0,1,2.012-.465,2.183,2.183,0,0,0,.49-1.739c-.1-1.264-1.061-1.063-.341-1.748" transform="translate(-0.27 -0.27)" fill="#632ca6"/>
</svg>
