<svg xmlns="http://www.w3.org/2000/svg" width="86.123" height="55.084" viewBox="0 0 86.123 55.084">
  <g id="defi-1" transform="translate(-8.504 -40.173)">
    <path id="Path_519" data-name="Path 519" d="M94.627,71.488v39.565H8.5v-27.8A107.871,107.871,0,0,1,33.48,75.195C51.2,71.859,73.365,71.147,80.13,71.147,92.24,71.147,94.627,71.488,94.627,71.488Z" transform="translate(0 -15.796)" fill="#005981"/>
    <path id="Path_520" data-name="Path 520" d="M8.5,52.282V40.173H94.627V53.817S79.79,48.785,47.984,48.785c-29.333,0-39.48,3.5-39.48,3.5Z" transform="translate(0 0)" fill="#8fcdf4"/>
    <path id="Path_521" data-name="Path 521" d="M18.841,105.761h7.387c6.769-.058,10.258,3.189,8.656,10.466S28.364,126.75,21.62,126.693H14.233l4.608-20.931Zm.812,17.453h2.4c5.512.057,7.14-3.653,7.874-6.987s.74-7.045-4.8-6.987h-2.4Zm25.593-17.453H60.927L60.1,109.24H49.442l-1.164,4.9h9.978l-.826,3.479H47.451l-1.329,5.6H57.138l-.826,3.479H40.274Zm19.215,20.932,4.753-20.932h14.43l-.789,3.479H73.223l-1.145,5.044H81.06l-.79,3.479h-8.98l-2.028,8.93h-4.8Zm26.266,0H86.258l4.425-20.932h4.468Z" transform="translate(-2.922 -33.447)" fill="#fff"/>
  </g>
</svg>
