<svg xmlns="http://www.w3.org/2000/svg" width="57.053" height="56.999" viewBox="0 0 57.053 56.999">
  <g id="dex-1" transform="translate(0 0.001)">
    <path id="Path_522" data-name="Path 522" d="M2.908,57H7.323a.731.731,0,0,0,.451-.2L22.842,41.728a.733.733,0,0,0,0-1.027l-9.408-9.448-2.24-2.24a.733.733,0,0,1,0-1.027L37.629,1.554A29.127,29.127,0,0,0,28.112,0H2.908A2.908,2.908,0,0,0,0,2.891V54.109A2.908,2.908,0,0,0,2.908,57Z" fill="#00d3c6"/>
    <path id="Path_523" data-name="Path 523" d="M93.179,17.022,81.526,28.669a.731.731,0,0,0,0,1.025l9.438,9.466,2.256,2.215a.731.731,0,0,1,0,1.025l-2.256,2.268L65.23,70.413H80.609A28.425,28.425,0,0,0,94.073,16.9a.731.731,0,0,0-.894.125Z" transform="translate(-52.092 -13.416)" fill="#00d3c6"/>
    <rect id="Rectangle_129" data-name="Rectangle 129" width="14.086" height="14.102" rx="3.63" transform="translate(16.195 28.486) rotate(-45)" fill="#00d3c6"/>
  </g>
</svg>
