<svg xmlns="http://www.w3.org/2000/svg" width="65.502" height="65.501" viewBox="0 0 65.502 65.501">
  <g id="digital-ocean-svgrepo-com" transform="translate(-32.702 -0.236)">
    <path id="Path_595" data-name="Path 595" d="M96.606,53.085V65.737a32.862,32.862,0,0,0,31.127-43.189A31.663,31.663,0,0,0,107.044,1.86,32.863,32.863,0,0,0,63.855,32.987H76.536s0,0,0,0a20.16,20.16,0,0,1,27.47-18.729,19,19,0,0,1,11.327,11.324,20.16,20.16,0,0,1-18.7,27.474V40.442H83.991l0,0V53.085ZM83.986,62.8H74.273l0,0V53.085h9.718V62.8S83.987,62.8,83.986,62.8Zm-9.709-9.717H66.134a.01.01,0,0,1-.006,0V44.944s0-.006.006-.006h8.137a.01.01,0,0,1,.006,0Z" transform="translate(-31.153 0)" fill="#0080ff"/>
  </g>
</svg>
