<svg id="django-community" xmlns="http://www.w3.org/2000/svg" width="119.381" height="41.709" viewBox="0 0 119.381 41.709">
  <path id="Path_152" data-name="Path 152" d="M14.075,0H20.6V30.22a43.065,43.065,0,0,1-8.479.89C4.155,31.11,0,27.507,0,20.6,0,13.94,4.409,9.616,11.235,9.616a10.439,10.439,0,0,1,2.841.339Zm0,15.212a6.486,6.486,0,0,0-2.2-.339c-3.307,0-5.215,2.035-5.215,5.6,0,3.477,1.823,5.384,5.172,5.384a15.2,15.2,0,0,0,2.247-.169Z" transform="translate(0)" fill="#092e20"/>
  <path id="Path_153" data-name="Path 153" d="M78.963,10.175V25.309c0,5.215-.382,7.716-1.526,9.878-1.06,2.078-2.459,3.392-5.342,4.833l-6.063-2.883c2.883-1.357,4.282-2.543,5.172-4.367.933-1.865,1.23-4.027,1.23-9.708V10.175ZM72.435.127h6.529v6.7H72.435ZM82.907,11.658a19.643,19.643,0,0,1,8.649-1.95c3.349,0,5.554.89,6.529,2.628.551.975.72,2.247.72,4.96V30.566a71.845,71.845,0,0,1-9.327.721c-5.469,0-7.928-1.908-7.928-6.148,0-4.579,3.264-6.7,11.277-7.377V16.321c0-1.187-.593-1.611-2.247-1.611A17.1,17.1,0,0,0,82.906,16.7V11.658ZM93.124,22.045c-4.324.424-5.724,1.1-5.724,2.8,0,1.271.806,1.865,2.586,1.865a18.011,18.011,0,0,0,3.137-.3Zm8.86-10.853a39.154,39.154,0,0,1,10.259-1.483c3.349,0,5.766.763,7.208,2.247,1.357,1.4,1.78,2.925,1.78,6.19v12.8H114.7V18.4c0-2.5-.848-3.434-3.179-3.434a9.835,9.835,0,0,0-3.01.466V30.948h-6.529ZM123.77,34.509a14.859,14.859,0,0,0,7,1.738c4.281,0,6.1-1.738,6.1-5.893v-.127a8.932,8.932,0,0,1-4.239.89c-5.723,0-9.37-3.773-9.37-9.75,0-7.42,5.385-11.616,14.923-11.616a41.211,41.211,0,0,1,8.521.932l-2.236,4.709c-1.738-.339-.139-.045-1.453-.173V15.9l.085,2.755.042,3.561c.042.89.042,1.78.085,2.671v1.781c0,5.6-.466,8.224-1.865,10.386-2.035,3.18-5.554,4.748-10.557,4.748a18.676,18.676,0,0,1-7.037-1.272v-6.02Zm12.973-19.5h-.678a7.134,7.134,0,0,0-3.773.932c-1.568.89-2.374,2.5-2.374,4.791,0,3.265,1.612,5.13,4.494,5.13a8.1,8.1,0,0,0,2.458-.424V23.19c0-.763-.042-1.612-.042-2.5l-.042-3.01-.043-2.162v-.509Zm20.1-5.384c6.529,0,10.514,4.113,10.514,10.768,0,6.826-4.154,11.108-10.768,11.108-6.529,0-10.557-4.113-10.557-10.726C146.03,13.905,150.185,9.624,156.841,9.624Zm-.128,16.619c2.5,0,3.985-2.077,3.985-5.681,0-3.561-1.442-5.681-3.942-5.681-2.586,0-4.071,2.078-4.071,5.681S154.17,26.242,156.713,26.242Z" transform="translate(-47.973 -0.092)" fill="#092e20"/>
</svg>
