<svg xmlns="http://www.w3.org/2000/svg" width="100.981" height="57.336" viewBox="0 0 100.981 57.336">
  <g id="Group_129" data-name="Group 129" transform="translate(-1222.783 -541.293)">
    <path id="Path_29" data-name="Path 29" d="M54.513,18.106h9.053V27.36h4.577a19.851,19.851,0,0,0,6.29-1.055,16.108,16.108,0,0,0,3.058-1.382,11.346,11.346,0,0,1-2.122-5.852c-.261-2.825.309-6.5,2.22-8.712l.952-1.1,1.134.912c2.855,2.294,5.256,5.5,5.679,9.153a13.837,13.837,0,0,1,10.5.977l1.243.717L96.447,22.3c-2.563,5-7.921,6.551-13.159,6.276C75.451,48.094,58.387,57.336,37.7,57.336c-10.69,0-20.5-4-26.081-13.48l-.091-.154-.814-1.656a26.257,26.257,0,0,1-2.09-13.317l.128-1.369H16.49V18.106h9.053V9.053H43.649V0H54.513V18.106" transform="translate(1226.663 541.293)" fill="#364548"/>
    <path id="Path_30" data-name="Path 30" d="M108.9,38.844c.607-4.718-2.923-8.423-5.113-10.183-2.523,2.917-2.915,10.562,1.043,13.781-2.209,1.962-6.864,3.741-11.63,3.741H35.185A24.45,24.45,0,0,0,37.59,59.661l.66,1.208a22.381,22.381,0,0,0,1.368,2.052q3.578.23,6.6.162h0a32.342,32.342,0,0,0,9.625-1.4A.7.7,0,0,1,56.3,63c-.325.113-.664.219-1.014.319h0A30.266,30.266,0,0,1,48.628,64.4c.158,0-.165.024-.165.024-.091.006-.2.019-.3.024-1.048.059-2.18.071-3.337.071-1.265,0-2.511-.024-3.9-.1l-.036.024c4.834,5.434,12.393,8.692,21.868,8.692,20.052,0,37.061-8.889,44.593-28.845,5.343.548,10.479-.814,12.815-5.375-3.721-2.147-8.506-1.463-11.261-.078" transform="translate(1201.602 523.979)" fill="#22a0c8"/>
    <path id="Path_31" data-name="Path 31" d="M114.311,38.844c.607-4.718-2.923-8.423-5.113-10.183-2.523,2.917-2.915,10.562,1.043,13.781-2.209,1.962-6.864,3.741-11.63,3.741H44.027c-.237,7.62,2.591,13.4,7.594,16.9h0a32.342,32.342,0,0,0,9.625-1.4A.7.7,0,0,1,61.7,63c-.325.113-.664.219-1.014.319h0a31.823,31.823,0,0,1-6.831,1.132l-.065-.061c6.824,3.5,16.719,3.488,28.064-.87,12.721-4.887,24.558-14.2,32.817-24.846q-.186.084-.363.173" transform="translate(1196.196 523.979)" fill="#37b1d9"/>
    <path id="Path_32" data-name="Path 32" d="M35.645,88.186a23.19,23.19,0,0,0,2.3,7.434l.66,1.208a22.341,22.341,0,0,0,1.368,2.052q3.579.23,6.6.162a32.342,32.342,0,0,0,9.625-1.4.7.7,0,0,1,.456,1.317c-.325.113-.664.219-1.014.319h0a31.833,31.833,0,0,1-6.819,1.108c-.091.006-.251.007-.343.012-1.048.059-2.168.095-3.325.095-1.265,0-2.559-.024-3.951-.1,4.834,5.434,12.44,8.7,21.915,8.7,17.167,0,32.1-6.516,40.771-20.913H35.645" transform="translate(1201.251 488.021)" fill="#1b81a5"/>
    <path id="Path_33" data-name="Path 33" d="M45.367,88.186A17.423,17.423,0,0,0,52.44,99.041a32.342,32.342,0,0,0,9.625-1.4.7.7,0,0,1,.456,1.317c-.325.113-.664.219-1.014.319h0a32.31,32.31,0,0,1-6.867,1.108c6.824,3.5,16.691,3.45,28.035-.908a74.093,74.093,0,0,0,19.393-11.289h-56.7" transform="translate(1195.378 488.021)" fill="#1d91b4"/>
    <path id="Path_34" data-name="Path 34" d="M55.26,35.73h7.846v7.846H55.26Zm.654.654h.619v6.539h-.619Zm1.164,0h.644v6.539h-.644V36.384Zm1.189,0h.644v6.539h-.644Zm1.189,0H60.1v6.539h-.644Zm1.189,0h.644v6.539h-.644V36.384Zm1.189,0h.62v6.539h-.62Zm2.48-9.707H72.16v7.846H64.313V26.677Zm.654.654h.619v6.538h-.619Zm1.164,0h.644v6.538h-.643V27.331Zm1.189,0h.644v6.538H67.32Zm1.189,0h.644v6.538h-.644Zm1.189,0h.644v6.538H69.7Zm1.189,0h.62v6.538h-.62Z" transform="translate(1189.402 525.178)" fill="#23a3c2"/>
    <path id="Path_35" data-name="Path 35" d="M78.125,49.543h7.847v7.846H78.125V49.543Zm.654.654H79.4v6.539h-.619Zm1.164,0h.644v6.539h-.643V50.2Zm1.189,0h.644v6.539h-.644Zm1.189,0h.644v6.539h-.644Zm1.189,0h.644v6.539H83.51Zm1.189,0h.62v6.539H84.7Z" transform="translate(1175.589 511.365)" fill="#34bbde"/>
    <path id="Path_36" data-name="Path 36" d="M100.993,49.543h7.846v7.846h-7.846Zm.654.654h.619v6.539h-.619Zm1.164,0h.644v6.539h-.644Zm1.189,0h.644v6.539H104Zm1.189,0h.644v6.539h-.644Zm1.189,0h.645v6.539h-.645Zm1.189,0h.619v6.539h-.619Z" transform="translate(1161.775 511.365)" fill="#23a3c2"/>
    <path id="Path_37" data-name="Path 37" d="M100.993,26.677h7.846v7.846h-7.846Zm.654.654h.619v6.538h-.619Zm1.164,0h.644v6.538h-.644Zm1.189,0h.644v6.538H104Zm1.189,0h.644v6.538h-.644Zm1.189,0h.645v6.538h-.645Zm1.189,0h.619v6.538h-.619Zm2.48,8.4h7.846v7.846h-7.846Zm.654.654h.619v6.539H110.7Zm1.164,0h.644v6.539h-.644Zm1.189,0h.644v6.539h-.644Zm1.189,0h.644v6.539h-.644Zm1.189,0h.644v6.539h-.644Zm1.189,0h.619v6.539h-.619Z" transform="translate(1161.775 525.178)" fill="#34bbde"/>
    <path id="Path_38" data-name="Path 38" d="M123.859,26.677h7.846v7.846h-7.846Zm.654.654h.619v6.538h-.619Zm1.164,0h.644v6.538h-.644Zm1.189,0h.644v6.538h-.644Zm1.189,0h.644v6.538h-.644Zm1.189,0h.644v6.538h-.644Zm1.189,0h.619v6.538h-.619Z" transform="translate(1147.962 525.178)" fill="#23a3c2"/>
    <path id="Path_39" data-name="Path 39" d="M123.859,3.81h7.846v7.847h-7.846Zm.654.654h.619V11h-.619V4.463Zm1.164,0h.644V11h-.644V4.463Zm1.189,0h.644V11h-.644V4.463Zm1.189,0h.644V11h-.644V4.463Zm1.189,0h.644V11h-.644V4.463Zm1.189,0h.619V11h-.619V4.463Z" transform="translate(1147.962 538.991)" fill="#34bbde"/>
    <path id="Path_40" data-name="Path 40" d="M146.725,49.543h7.846v7.846h-7.846Zm.653.654H148v6.539h-.619V50.2Zm1.164,0h.644v6.539h-.644V50.2Zm1.189,0h.644v6.539h-.644Zm1.189,0h.644v6.539h-.644Zm1.189,0h.644v6.539h-.644Zm1.189,0h.619v6.539H153.3Z" transform="translate(1134.149 511.365)" fill="#23a3c2"/>
    <path id="Path_41" data-name="Path 41" d="M93.4,101.492a2.165,2.165,0,1,1-2.165,2.165,2.164,2.164,0,0,1,2.165-2.165" transform="translate(1167.669 479.983)" fill="#d3ecec"/>
    <path id="Path_42" data-name="Path 42" d="M38.286,88.883a1.544,1.544,0,0,1,.561.1.632.632,0,1,0,.871.851,1.55,1.55,0,1,1-1.432-.956M0,83.783H100.692c-2.192-.556-6.936-1.307-6.154-4.181-3.987,4.613-13.6,3.237-16.027.962-2.7,3.919-18.431,2.429-19.528-.624-3.387,3.975-13.884,3.975-17.271,0-1.1,3.053-16.827,4.543-19.529.624-2.426,2.275-12.04,3.652-16.027-.961C6.937,82.476,2.193,83.227,0,83.783" transform="translate(1222.783 493.207)" fill="#364548"/>
    <path id="Path_43" data-name="Path 43" d="M73.663,125.973c-5.361-2.544-8.3-6-9.94-9.777a33.207,33.207,0,0,1-7.166,1.088q-1.571.088-3.306.089-2,0-4.214-.118c4.916,4.913,10.964,8.7,22.162,8.765q1.24,0,2.464-.047" transform="translate(1193.16 471.101)" fill="#bdd9d7"/>
    <path id="Path_44" data-name="Path 44" d="M77.188,119.678a18.791,18.791,0,0,1-1.99-3.484,33.186,33.186,0,0,1-7.167,1.089,22.819,22.819,0,0,0,9.158,2.4" transform="translate(1181.687 471.102)" fill="#d3ecec"/>
  </g>
</svg>
