<svg xmlns="http://www.w3.org/2000/svg" width="81.501" height="50.86" viewBox="0 0 81.501 50.86">
  <g id="dot-net-core-7" transform="translate(0.001)">
    <path id="Path_154" data-name="Path 154" d="M3.925,26.243a2.289,2.289,0,0,0-.743-.522,2.182,2.182,0,0,0-.887-.183,2.176,2.176,0,0,0-.887.176,2.289,2.289,0,0,0-.743.522,2.212,2.212,0,0,0-.5.75,2.461,2.461,0,0,0-.17.887,2.17,2.17,0,0,0,.17.887,2.331,2.331,0,0,0,.5.75,2.177,2.177,0,0,0,1.63.685,2.253,2.253,0,0,0,1.63-.685,2.159,2.159,0,0,0,.509-.743,2.321,2.321,0,0,0,0-1.773,2.232,2.232,0,0,0-.515-.75Zm27.287-5.294a31.756,31.756,0,0,0,.209,4.381h-.078c-.183-.359-.587-1.024-1.206-2L15.27,0H10.758V29.79h3.469V8.254a30.622,30.622,0,0,0-.163-4.088h.13a10.021,10.021,0,0,0,.945,1.865L30.409,29.79H34.68V0H31.211ZM58.2,26.517H45.94V16.2H56.666V13.053H45.94v-9.9H57.448V0H42.387V29.79H58.178ZM60.852,0V3.156h8.541V29.79h3.469V3.156H81.5V0Zm-34,37.2a6.546,6.546,0,0,0-2.3,1.545,7.309,7.309,0,0,0-1.526,2.465,7.4,7.4,0,0,0-.45,2.862,6.98,6.98,0,0,0,1.76,4.9,6.085,6.085,0,0,0,4.681,1.878,8,8,0,0,0,3.782-.8l.013-1.519a6.711,6.711,0,0,1-3.566.913,4.7,4.7,0,0,1-1.963-.346,4.612,4.612,0,0,1-1.637-1.141,5.686,5.686,0,0,1-1.369-4,5.945,5.945,0,0,1,1.467-4.218A4.966,4.966,0,0,1,29.581,38.1a6.475,6.475,0,0,1,3.26.815V37.275a7.974,7.974,0,0,0-3.26-.574,7.064,7.064,0,0,0-2.725.5Zm16.255,4.668a4.381,4.381,0,0,0-3.4-1.356,4.8,4.8,0,0,0-1.963.319A5.038,5.038,0,0,0,36.069,41.9a5.316,5.316,0,0,0-1.063,1.793,5.18,5.18,0,0,0-.287,2.067A5.116,5.116,0,0,0,36,49.4a4.618,4.618,0,0,0,1.578,1.108,4.488,4.488,0,0,0,1.891.346A4.679,4.679,0,0,0,41.4,50.5a4.563,4.563,0,0,0,1.61-1.128,5.255,5.255,0,0,0,1.317-3.756A5.4,5.4,0,0,0,43.111,41.865Zm-1.193,6.7a2.865,2.865,0,0,1-2.328.985,3.068,3.068,0,0,1-1.3-.235,3.013,3.013,0,0,1-1.076-.776,3.994,3.994,0,0,1-.88-2.745,4.248,4.248,0,0,1,.88-2.843,3.046,3.046,0,0,1,1.069-.789,2.994,2.994,0,0,1,1.3-.241,2.8,2.8,0,0,1,1.284.235,2.883,2.883,0,0,1,1.05.782,4.348,4.348,0,0,1,.815,2.83A4.269,4.269,0,0,1,41.917,48.562Zm7.557-7.335a3.435,3.435,0,0,0-1.024,1.637V40.816H46.82v9.806h1.63v-5a4.4,4.4,0,0,1,.665-2.582,1.995,1.995,0,0,1,1.63-.945,1.876,1.876,0,0,1,1.187.313V40.79a2.632,2.632,0,0,0-.926-.13A2.3,2.3,0,0,0,49.474,41.226Zm12,4.049a5.194,5.194,0,0,0-1.043-3.462,3.725,3.725,0,0,0-1.343-.965,3.655,3.655,0,0,0-1.624-.28,4.143,4.143,0,0,0-3.26,1.441,5.358,5.358,0,0,0-1.284,3.723A5.463,5.463,0,0,0,54.1,49.487a4.2,4.2,0,0,0,1.48,1.037,4.157,4.157,0,0,0,1.78.306,5.665,5.665,0,0,0,3.4-.932V48.425a4.894,4.894,0,0,1-3.032,1.1,2.937,2.937,0,0,1-1.252-.2,3.026,3.026,0,0,1-1.063-.691,3.638,3.638,0,0,1-.828-2.517h6.892Zm-6.892-.456a3.6,3.6,0,0,1,.958-2.073,2.517,2.517,0,0,1,1.878-.8,2.214,2.214,0,0,1,.985.17,2.174,2.174,0,0,1,.808.58,3.263,3.263,0,0,1,.652,2.106Z" transform="translate(0)" fill="#621ee5"/>
  </g>
</svg>
