<svg xmlns="http://www.w3.org/2000/svg" width="137.996" height="35.354" viewBox="0 0 137.996 35.354">
  <g id="drupal-2" transform="translate(-55.36 -226.06)">
    <path id="Path_408" data-name="Path 408" d="M220.938,232.733h-5.8l.01,10.851c0,3.171-1.36,5.737-4.528,5.737s-4.544-2.559-4.544-5.737V232.742h-5.79v10.841c0,6.266,4.03,11.345,10.3,11.345s10.355-5.079,10.355-11.345Zm52.294-6.613H279v28.248h-5.772Zm10.032,1.041v-1.014h4.5v1.014h-1.646v4.473h-1.207v-4.473Zm6.825-1.014,1.286,3.774h.014l1.215-3.774h1.7v5.487h-1.13v-3.888h-.016l-1.345,3.888h-.923l-1.345-3.851h-.016v3.851H288.4v-5.487ZM195.571,232.5c-4.975-1.148-8.113,3.794-8.243,4.059-.065.13-.067.2-.287.2-.181,0-.2-.2-.2-.2l-.616-3.78H181.05V254.35h5.8V242.672a6.316,6.316,0,0,1,7.55-4.353,7.8,7.8,0,0,1,3.585,1.664v-6.571a9.2,9.2,0,0,0-2.41-.915Zm33.232,28.96v-10.67s.01-.232.218-.234.228.122.274.234a6.874,6.874,0,0,0,8.219,3.953,11.418,11.418,0,1,0-14.524-10.995v17.718Zm5.616-23.494a5.784,5.784,0,1,1-5.782,5.783,5.784,5.784,0,0,1,5.782-5.783Z" transform="translate(-100.946 -0.048)" fill="#2aa9e0"/>
    <path id="Path_409" data-name="Path 409" d="M164.134,254.312h5.809V243.7a11.418,11.418,0,1,0-14.525,10.995,6.874,6.874,0,0,0,8.219-3.953c.045-.112.087-.236.274-.234s.219.234.219.234m.167-7.042a5.782,5.782,0,1,1-5.782-5.782A5.782,5.782,0,0,1,164.3,243.7ZM61.951,254.266H55.36V226.06h7.071c8.565,0,15.062,1.575,15.062,14.1,0,12.412-6.88,14.1-15.542,14.1Zm1.575-23.316H61.195v18.422l2.392.061c4.908,0,8.071-.445,8.071-9.27,0-8.461-2.786-9.213-8.134-9.213Z" transform="translate(0 0)" fill="#2aa9e0"/>
  </g>
</svg>
