<svg xmlns="http://www.w3.org/2000/svg" xmlns:xlink="http://www.w3.org/1999/xlink" width="87.162" height="59.798" viewBox="0 0 87.162 59.798">
  <defs>
    <clipPath id="clip-path">
      <path id="Path_526" data-name="Path 526" d="M720.6,306.4h22.738v11.89H720.6Z" transform="translate(-720.6 -306.4)"/>
    </clipPath>
    <clipPath id="clip-path-2">
      <path id="Path_528" data-name="Path 528" d="M720.6,0h11.371V25.586H720.6Z" transform="translate(-720.6)"/>
    </clipPath>
    <clipPath id="clip-path-3">
      <path id="Path_530" data-name="Path 530" d="M975,0h11.371V25.586H975Z" transform="translate(-975)"/>
    </clipPath>
    <clipPath id="clip-path-4">
      <path id="Path_532" data-name="Path 532" d="M720.6,470.3h11.371v16.02H720.6Z" transform="translate(-720.6 -470.3)"/>
    </clipPath>
    <clipPath id="clip-path-5">
      <path id="Path_534" data-name="Path 534" d="M975,470.3h11.376v16.02H975Z" transform="translate(-975 -470.3)"/>
    </clipPath>
  </defs>
  <g id="ethereum" transform="translate(0.1)">
    <path id="Path_524" data-name="Path 524" d="M7.767,1010.048a.353.353,0,0,1-.353.349H.611a3.4,3.4,0,0,0,3.214,3.214,3.183,3.183,0,0,0,2.8-1.435.341.341,0,0,1,.434-.139.328.328,0,0,1,.192.246.343.343,0,0,1-.045.237A3.837,3.837,0,0,1,3.82,1014.3a4.25,4.25,0,0,1,0-8.475,4.114,4.114,0,0,1,3.947,4.224m-.729-.331a3.379,3.379,0,0,0-3.214-3.214,3.4,3.4,0,0,0-3.214,3.214Zm8.984-3.728a.345.345,0,0,1,.34.34.331.331,0,0,1-.34.34H14.2v7.156a.34.34,0,1,1-.679,0v-7.156H11.768a.331.331,0,0,1-.34-.34.348.348,0,0,1,.34-.34H13.52v-2.619a.343.343,0,0,1,.273-.344.337.337,0,0,1,.407.335v2.628Zm11.125,3.46v4.336a.345.345,0,0,1-.34.34.331.331,0,0,1-.34-.34v-4.336c0-1.462-.827-2.923-2.458-2.923-2.092,0-2.995,1.828-2.874,3.7,0,.049.022.268.022.291v3.254a.343.343,0,0,1-.273.344.337.337,0,0,1-.407-.335V999.54a.34.34,0,0,1,.679,0v8.059a3.28,3.28,0,0,1,2.847-1.752c2,0,3.142,1.752,3.142,3.6m12.2.6a.353.353,0,0,1-.353.349H32.186a3.4,3.4,0,0,0,3.214,3.214,3.183,3.183,0,0,0,2.8-1.435.341.341,0,0,1,.434-.139.328.328,0,0,1,.192.246.343.343,0,0,1-.045.237A3.837,3.837,0,0,1,35.4,1014.3a4.248,4.248,0,1,1,3.951-4.251m-.733-.331a3.214,3.214,0,1,0-6.428,0Zm9.083-3.411a.337.337,0,0,1-.317.367c-2,.29-2.9,1.922-2.9,3.822v3.254a.343.343,0,0,1-.273.344.337.337,0,0,1-.407-.335v-7.416a.343.343,0,0,1,.273-.344.337.337,0,0,1,.407.335v1.511a3.625,3.625,0,0,1,2.847-1.851.347.347,0,0,1,.367.313m11.175,3.741a.353.353,0,0,1-.353.349h-6.8a3.4,3.4,0,0,0,3.214,3.214,3.183,3.183,0,0,0,2.8-1.435.341.341,0,0,1,.434-.139.328.328,0,0,1,.192.246.343.343,0,0,1-.045.237,3.837,3.837,0,0,1-3.384,1.779,4.248,4.248,0,1,1,3.947-4.251m-.729-.331a3.214,3.214,0,1,0-6.428,0Zm11.711-3.326v7.433a.345.345,0,0,1-.34.34.331.331,0,0,1-.34-.34v-1.412a3.185,3.185,0,0,1-2.825,1.922c-2.02,0-3.142-1.752-3.142-3.6v-4.358a.34.34,0,1,1,.679,0v4.358c0,1.462.827,2.923,2.458,2.923,2.289,0,2.825-2.141,2.825-4.506v-2.776a.344.344,0,0,1,.438-.326.365.365,0,0,1,.246.344m17.209,3.031v4.358a.345.345,0,0,1-.34.34.331.331,0,0,1-.34-.34v-4.358c0-1.462-.827-2.9-2.458-2.9-2.047,0-2.825,2.19-2.825,3.893v3.361a.345.345,0,0,1-.34.34.331.331,0,0,1-.34-.34v-4.358c0-1.462-.827-2.9-2.458-2.9-2.07,0-2.923,1.632-2.847,3.8,0,.049.022.148,0,.17v3.276a.342.342,0,0,1-.277.344.337.337,0,0,1-.407-.335v-7.438A.343.343,0,0,1,74.7,1006a.337.337,0,0,1,.407.335v1.243a3.259,3.259,0,0,1,2.847-1.73,3.024,3.024,0,0,1,2.9,2.168,3.367,3.367,0,0,1,3.066-2.168c2,0,3.142,1.725,3.142,3.576" transform="translate(0 -954.537)" fill="#3c3c3b"/>
    <g id="Group_138" data-name="Group 138" transform="translate(32.114 13.696)" opacity="0.6">
      <g id="Group_137" data-name="Group 137" clip-path="url(#clip-path)">
        <path id="Path_525" data-name="Path 525" d="M731.971,306.4,720.6,311.572l11.371,6.718,11.367-6.718Z" transform="translate(-720.6 -306.4)" fill="#010101"/>
      </g>
    </g>
    <g id="Group_140" data-name="Group 140" transform="translate(32.114)" opacity="0.45">
      <g id="Group_139" data-name="Group 139" clip-path="url(#clip-path-2)">
        <path id="Path_527" data-name="Path 527" d="M720.6,18.867l11.371,6.718V0Z" transform="translate(-720.6)" fill="#010101"/>
      </g>
    </g>
    <g id="Group_142" data-name="Group 142" transform="translate(43.486)" opacity="0.8">
      <g id="Group_141" data-name="Group 141" clip-path="url(#clip-path-3)">
        <path id="Path_529" data-name="Path 529" d="M975,0V25.586l11.367-6.718Z" transform="translate(-975)" fill="#010101"/>
      </g>
    </g>
    <g id="Group_144" data-name="Group 144" transform="translate(32.114 21.022)" opacity="0.45">
      <g id="Group_143" data-name="Group 143" clip-path="url(#clip-path-4)">
        <path id="Path_531" data-name="Path 531" d="M720.6,470.3l11.371,16.02v-9.3Z" transform="translate(-720.6 -470.3)" fill="#010101"/>
      </g>
    </g>
    <g id="Group_146" data-name="Group 146" transform="translate(43.486 21.022)" opacity="0.8">
      <g id="Group_145" data-name="Group 145" clip-path="url(#clip-path-5)">
        <path id="Path_533" data-name="Path 533" d="M975,477.018v9.3l11.376-16.02Z" transform="translate(-975 -470.3)" fill="#010101"/>
      </g>
    </g>
  </g>
</svg>
