<svg xmlns="http://www.w3.org/2000/svg" width="121.707" height="19.919" viewBox="0 0 121.707 19.919">
  <g id="express-inc-logo-vector" transform="translate(-20.6 -272.6)">
    <path id="Path_325" data-name="Path 325" d="M20.6,274.7v18.946H36.767v-3.53h-11.1v-4.463h7.12v-3.469H25.61v-4.037H36.057V274.7Z" transform="translate(0 -1.674)"/>
    <g id="Group_119" data-name="Group 119" transform="translate(36.99 272.6)">
      <path id="Path_326" data-name="Path 326" d="M108.074,283.728l-6.552-9.108h5.4l2.759,4c.223.3,1.014,1.663,1.2,1.927h.183c.568-.893.629-.974,1.258-1.968l2.6-3.976h5.477l-6.43,9.047,6.876,9.919h-5.457l-3.063-4.807c-.73-1.116-.791-1.237-1.136-1.826h-.183c-.467.73-.527.852-1.2,1.886l-2.941,4.747H101.4Z" transform="translate(-101.4 -274.194)"/>
      <path id="Path_327" data-name="Path 327" d="M203.1,274.7h7.586c3.388,0,5.213.588,6.43,1.5a5.572,5.572,0,0,1-.893,9.311,12.116,12.116,0,0,1-5.274.953l-2.759.081v7.1H203.12V274.7Zm5.071,8.682a15.24,15.24,0,0,0,3.915-.2,2.589,2.589,0,0,0,1.846-2.637c0-1.826-.852-2.211-1.542-2.454-.811-.264-1.2-.264-4.239-.264v5.558Z" transform="translate(-182.471 -274.274)"/>
      <path id="Path_328" data-name="Path 328" d="M294.29,293.646H289.3V274.7h7.444c3.732,0,8.459.406,8.459,5.5,0,2.394-1.156,4.24-4.381,5.031l5.01,8.418h-5.477l-4.361-7.749H294.31v7.749Zm0-10.771c2.86,0,3.286,0,4.016-.2a2.2,2.2,0,0,0,1.724-2.536,2.032,2.032,0,0,0-1.5-2.272c-.791-.223-1.42-.223-4.239-.223Z" transform="translate(-251.185 -274.274)"/>
      <path id="Path_329" data-name="Path 329" d="M377.3,274.7h15.457v3.448H382.31v4.037h7.181v3.469h-7.12v4.463h11.1v3.53H377.3Z" transform="translate(-321.335 -274.274)"/>
      <path id="Path_330" data-name="Path 330" d="M470.526,278.117a4.772,4.772,0,0,0-3.976-2.11c-2.637,0-2.7,1.623-2.7,1.826,0,1.339,1.5,1.886,2.921,2.292l2.921.872a8.851,8.851,0,0,1,3.915,2.231,5.1,5.1,0,0,1,1.278,3.327,5.187,5.187,0,0,1-3.266,5.01,11.161,11.161,0,0,1-4.422.953c-4.037,0-6.43-.811-8.5-3.854l3.915-2.15a4.755,4.755,0,0,0,4.361,2.576c1.1,0,3.063-.406,3.063-2.15,0-1.42-.933-1.724-4.381-2.84-3.469-1.116-6.491-2.373-6.491-6.126,0-3.124,2.759-5.375,7.485-5.375a9.189,9.189,0,0,1,7.647,3.408Z" transform="translate(-386.224 -272.6)"/>
      <path id="Path_331" data-name="Path 331" d="M552.626,278.117a4.772,4.772,0,0,0-3.976-2.11c-2.637,0-2.7,1.623-2.7,1.826,0,1.339,1.5,1.886,2.921,2.292l2.921.872a8.85,8.85,0,0,1,3.915,2.231,5.1,5.1,0,0,1,1.278,3.327,5.187,5.187,0,0,1-3.266,5.01,11.16,11.16,0,0,1-4.422.953c-4.037,0-6.43-.811-8.5-3.854l3.915-2.15a4.734,4.734,0,0,0,4.361,2.576c1.1,0,3.063-.406,3.063-2.15,0-1.42-.933-1.724-4.381-2.84-3.489-1.116-6.491-2.373-6.491-6.126,0-3.124,2.759-5.375,7.485-5.375a9.19,9.19,0,0,1,7.647,3.408Z" transform="translate(-451.67 -272.6)"/>
    </g>
  </g>
</svg>
