<svg xmlns="http://www.w3.org/2000/svg" width="58" height="58" viewBox="0 0 58 58">
  <g id="fantom-logo_logotyp.us" data-name="fantom-logo@logotyp.us" transform="translate(-130.556 -50.556)">
    <circle id="Ellipse_17" data-name="Ellipse 17" cx="29" cy="29" r="29" transform="translate(130.556 50.556)" fill="#13b5ec"/>
    <path id="Path_535" data-name="Path 535" d="M107.037,68.984l6.644-3.875v7.751Zm6.644,16.609-8.858,5.167-8.858-5.167V76.55l8.858,5.167,8.858-5.167ZM95.965,65.108l6.644,3.875-6.644,3.875Zm9.965,5.721,6.644,3.875L105.93,78.58Zm-2.215,7.751L97.072,74.7l6.644-3.875Zm8.858-15.317-7.751,4.429-7.751-4.429,7.751-4.614ZM93.75,62.524V86.7l11.073,6.274L115.9,86.7V62.524L104.823,56.25Z" transform="translate(54.733 4.851)" fill="#fff"/>
  </g>
</svg>
