<svg xmlns="http://www.w3.org/2000/svg" xmlns:xlink="http://www.w3.org/1999/xlink" width="41.967" height="57.612" viewBox="0 0 41.967 57.612">
  <defs>
    <filter id="Path_381">
      <feOffset input="SourceAlpha"/>
      <feGaussianBlur stdDeviation="17.5" result="blur"/>
      <feFlood flood-opacity="0.059" result="color"/>
      <feComposite operator="out" in="SourceGraphic" in2="blur"/>
      <feComposite operator="in" in="color"/>
      <feComposite operator="in" in2="SourceGraphic"/>
    </filter>
    <filter id="Path_384">
      <feOffset dx="1" dy="-9" input="SourceAlpha"/>
      <feGaussianBlur stdDeviation="3.5" result="blur-2"/>
      <feFlood flood-opacity="0.09" result="color-2"/>
      <feComposite operator="out" in="SourceGraphic" in2="blur-2"/>
      <feComposite operator="in" in="color-2"/>
      <feComposite operator="in" in2="SourceGraphic"/>
    </filter>
  </defs>
  <g id="firebase-1" transform="translate(0 0)">
    <path id="Path_379" data-name="Path 379" d="M0,46.5l.349-.488,16.5-31.305.035-.331L9.609.716a1.35,1.35,0,0,0-2.525.426Z" transform="translate(0 0)" fill="#ffc24a"/>
    <path id="Path_380" data-name="Path 380" d="M1.253,47.217l.264-.514L17.842,15.726,10.588,2.009a1.226,1.226,0,0,0-2.332.424Z" transform="translate(-1.047 -1.087)" fill="#ffa712"/>
    <g transform="matrix(1, 0, 0, 1, 0, 0)" filter="url(#Path_381)">
      <path id="Path_381-2" data-name="Path 381" d="M1.253,47.217l.264-.514L17.842,15.726,10.588,2.009a1.226,1.226,0,0,0-2.332.424Z" transform="translate(-1.05 -1.09)" fill="#fff"/>
    </g>
    <path id="Path_382" data-name="Path 382" d="M107.774,65.847,113.19,60.3l-5.417-10.341a1.4,1.4,0,0,0-2.459,0L102.42,55.48v.47l5.354,9.9Z" transform="translate(-85.59 -41.137)" fill="#f4bd62"/>
    <path id="Path_383" data-name="Path 383" d="M107.944,66.68l5.265-5.392-5.265-10.025a1.213,1.213,0,0,0-2.209-.1l-2.909,5.6-.087.287Z" transform="translate(-85.857 -42.201)" fill="#ffa50e"/>
    <g transform="matrix(1, 0, 0, 1, 0, 0)" filter="url(#Path_384)">
      <path id="Path_384-2" data-name="Path 384" d="M107.944,66.68l5.265-5.392-5.265-10.025a1.213,1.213,0,0,0-2.209-.1l-2.909,5.6-.087.287Z" transform="translate(-85.86 -42.2)" fill="#fff"/>
    </g>
    <path id="Path_385" data-name="Path 385" d="M0,119.294l.158-.159.574-.233L21.844,97.869l.268-.728L16.845,87.1Z" transform="translate(0 -72.792)" fill="#f6820c"/>
    <path id="Path_386" data-name="Path 386" d="M22.86,116.884l19.106-10.656-5.456-33.6a1.306,1.306,0,0,0-2.213-.713L0,106.277l19,10.606a3.964,3.964,0,0,0,3.864,0" transform="translate(0 -59.775)" fill="#fde068"/>
    <path id="Path_387" data-name="Path 387" d="M42.873,106.954,37.459,73.607a1.147,1.147,0,0,0-1.989-.727L1.29,107.026l18.788,10.5a3.934,3.934,0,0,0,3.834,0l18.961-10.575Z" transform="translate(-1.078 -60.59)" fill="#fcca3f"/>
    <path id="Path_388" data-name="Path 388" d="M22.861,291.582a3.964,3.964,0,0,1-3.863,0L.154,281.127,0,281.288l19,10.606a3.964,3.964,0,0,0,3.864,0L41.967,281.24l-.047-.288-19.059,10.63Z" transform="translate(-0.001 -234.786)" fill="#eeab37"/>
  </g>
</svg>
