<svg xmlns="http://www.w3.org/2000/svg" width="59.43" height="57.963" viewBox="0 0 59.43 57.963">
  <g id="github-icon-1" transform="translate(-7 8)">
    <path id="Path_15" data-name="Path 15" d="M29.715,0a29.718,29.718,0,0,0-9.394,57.912c1.485.275,2.03-.645,2.03-1.43,0-.708-.028-3.049-.04-5.532-8.267,1.8-10.011-3.506-10.011-3.506C10.948,44.009,9,43.1,9,43.1c-2.7-1.844.2-1.807.2-1.807a6.246,6.246,0,0,1,4.555,3.062c2.65,4.543,6.951,3.229,8.647,2.47a6.328,6.328,0,0,1,1.887-3.974c-6.6-.752-13.538-3.3-13.538-14.685a11.5,11.5,0,0,1,3.062-7.976,10.678,10.678,0,0,1,.288-7.864s2.5-.8,8.174,3.046a28.189,28.189,0,0,1,14.882,0c5.672-3.845,8.164-3.046,8.164-3.046a10.664,10.664,0,0,1,.291,7.864,11.477,11.477,0,0,1,3.058,7.976c0,11.413-6.951,13.926-13.568,14.662,1.066.922,2.015,2.731,2.015,5.5,0,3.976-.034,7.176-.034,8.155,0,.791.535,1.717,2.041,1.426A29.719,29.719,0,0,0,29.715,0" transform="translate(7 -8)" fill="#3e75c3"/>
    <path id="Path_16" data-name="Path 16" d="M45.136,179.976c-.065.148-.3.192-.509.091s-.337-.3-.267-.447.3-.194.512-.092.339.3.264.448m1.462,1.3c-.142.131-.419.07-.607-.137a.454.454,0,0,1-.087-.618c.146-.131.415-.07.61.137s.232.485.084.618m1,1.668c-.182.127-.48.008-.664-.256s-.182-.581,0-.708.478-.013.664.249.182.586,0,.715m1.7,1.932c-.163.179-.51.131-.764-.114a.571.571,0,0,1-.169-.759c.165-.18.514-.129.77.114s.337.582.163.759m2.191.653c-.072.233-.406.338-.742.24s-.556-.375-.488-.61.406-.344.745-.239.556.372.486.609m2.494.277c.008.245-.277.448-.63.453s-.643-.191-.646-.432.279-.449.634-.455.643.19.643.433m2.45-.094c.042.239-.2.485-.554.55s-.664-.085-.708-.322.207-.491.552-.554.666.083.711.326" transform="translate(-33.256 -138.504)" fill="#3e75c3"/>
  </g>
</svg>
