<svg xmlns="http://www.w3.org/2000/svg" width="71.163" height="65.553" viewBox="0 0 71.163 65.553">
  <g id="gitlab" transform="translate(-0.164 -0.421)">
    <path id="Path_22" data-name="Path 22" d="M94.073,131.432l13.1-40.327H80.97l13.1,40.327Z" transform="translate(-58.328 -65.458)" fill="#e24329"/>
    <path id="Path_23" data-name="Path 23" d="M46.423,131.431,33.319,91.1H14.956Z" transform="translate(-10.677 -65.457)" fill="#fc6d26"/>
    <path id="Path_24" data-name="Path 24" d="M4.279,91.1.3,103.359a2.713,2.713,0,0,0,.985,3.033l34.463,25.039L4.278,91.1Z" transform="translate(0 -65.457)" fill="#fca326"/>
    <path id="Path_25" data-name="Path 25" d="M14.956,25.647H33.319L25.428,1.358a1.356,1.356,0,0,0-2.58,0Z" transform="translate(-10.677 0)" fill="#e24329"/>
    <path id="Path_26" data-name="Path 26" d="M128.074,131.431l13.1-40.327h18.364l-31.467,40.327Z" transform="translate(-92.329 -65.457)" fill="#fc6d26"/>
    <path id="Path_27" data-name="Path 27" d="M159.542,91.1l3.982,12.255a2.713,2.713,0,0,1-.986,3.033l-34.463,25.039L159.542,91.1Z" transform="translate(-92.329 -65.457)" fill="#fca326"/>
    <path id="Path_28" data-name="Path 28" d="M193.543,25.647H175.179l7.892-24.289a1.356,1.356,0,0,1,2.58,0Z" transform="translate(-126.33 0)" fill="#e24329"/>
  </g>
</svg>
