<svg xmlns="http://www.w3.org/2000/svg" width="43.236" height="58.702" viewBox="0 0 43.236 58.702">
  <g id="golang-gopher" transform="translate(0.01 -0.048)">
    <path id="Path_256" data-name="Path 256" d="M.583,34.384c.083,1.735,1.836.918,2.6.385s.918-.083,1.028-1.1a16.639,16.639,0,0,0,.083-2,4.91,4.91,0,0,0-3.276.835c-.477.349-1.367,1.45-.441,1.836" transform="translate(-0.015 -2.598)" fill="#f6d2a2"/>
    <path id="Path_257" data-name="Path 257" d="M1.468,35.63a1.1,1.1,0,0,1-.5-.11A1.138,1.138,0,0,1,.4,34.51a.753.753,0,0,1-.413-.6A2.111,2.111,0,0,1,.908,32.39a5.048,5.048,0,0,1,3.387-.863h.138v.138a11.931,11.931,0,0,1-.046,1.569v.459c-.046.716-.184.826-.551.918a2.047,2.047,0,0,0-.551.266,3.754,3.754,0,0,1-1.817.753ZM3.8,31.84a4.589,4.589,0,0,0-2.7.826A1.836,1.836,0,0,0,.33,33.9a.459.459,0,0,0,.312.376H.733v.1a.918.918,0,0,0,.385.826,2.4,2.4,0,0,0,1.955-.569,2.368,2.368,0,0,1,.624-.312c.239-.083.294-.1.33-.67v-.459a12.848,12.848,0,0,0,.055-1.377H3.8Z" transform="translate(0 -2.587)" fill="#010101"/>
    <path id="Path_258" data-name="Path 258" d="M.62,34.6a1.368,1.368,0,0,0,.688-.385" transform="translate(-0.052 -2.809)" fill="#c7b199"/>
    <path id="Path_259" data-name="Path 259" d="M.6,34.749a.168.168,0,1,1-.1-.321H.61a.991.991,0,0,0,.5-.294.167.167,0,0,1,.266.2,1.285,1.285,0,0,1-.661.4H.6Z" transform="translate(-0.032 -2.798)" fill="#010101"/>
    <path id="Path_260" data-name="Path 260" d="M4.694,11.453C-1.942,9.618,3,1.147,8.365,4.616Z" transform="translate(-0.124 -0.308)" fill="#74cddd"/>
    <path id="Path_261" data-name="Path 261" d="M4.763,11.635H4.635C2.744,11.1,1.578,9.983,1.358,8.487A4.4,4.4,0,0,1,3.4,4.338,4.442,4.442,0,0,1,8.4,4.5l.128.083Zm.918-7.691a3.882,3.882,0,0,0-2.12.633A4.057,4.057,0,0,0,1.661,8.4,3.682,3.682,0,0,0,4.57,11.249l3.487-6.58a4.589,4.589,0,0,0-2.349-.7Z" transform="translate(-0.111 -0.296)" fill="#010101"/>
    <path id="Path_262" data-name="Path 262" d="M37.1,3.917c5.25-3.671,9.994,4.589,3.891,6.727Z" transform="translate(-3.052 -0.242)" fill="#74cddd"/>
    <path id="Path_263" data-name="Path 263" d="M40.9,10.832,36.86,3.857l.119-.083a4.332,4.332,0,0,1,4.818-.4,4.451,4.451,0,0,1,2.193,4.112,3.861,3.861,0,0,1-2.964,3.3ZM37.3,3.949l3.744,6.479a3.588,3.588,0,0,0,2.616-2.974,4.112,4.112,0,0,0-2.028-3.809,3.9,3.9,0,0,0-4.332.3Z" transform="translate(-3.032 -0.228)" fill="#010101"/>
    <path id="Path_264" data-name="Path 264" d="M38.068,57.87C39.4,58.7,41.84,61.192,39.84,62.4c-1.918,1.762-3-1.936-4.69-2.441a4.671,4.671,0,0,1,2.918-2.093Z" transform="translate(-2.891 -4.755)" fill="#f6d2a2"/>
    <path id="Path_265" data-name="Path 265" d="M38.8,63.019h-.073c-.762-.046-1.386-.789-1.992-1.5A4.277,4.277,0,0,0,35.08,60.1l-.22-.064L35,59.807a4.873,4.873,0,0,1,3.019-2.157h.119c.854.532,2.616,2.074,2.606,3.469a1.533,1.533,0,0,1-.826,1.331,1.661,1.661,0,0,1-1.12.569Zm-3.414-3.157A5.259,5.259,0,0,1,36.971,61.3a3.2,3.2,0,0,0,1.762,1.386,1.312,1.312,0,0,0,.918-.431,1.211,1.211,0,0,0,.679-1.065c0-1.12-1.413-2.524-2.4-3.157a4.313,4.313,0,0,0-2.542,1.826Z" transform="translate(-2.868 -4.737)" fill="#010101"/>
    <path id="Path_266" data-name="Path 266" d="M40.165,62.81a.165.165,0,0,1-.147-.092,6.12,6.12,0,0,1-.257-.624,2.753,2.753,0,0,0-.606-1.12.166.166,0,1,1,.229-.239,3.038,3.038,0,0,1,.679,1.211,5.882,5.882,0,0,0,.248.587.165.165,0,0,1-.073.22Z" transform="translate(-3.217 -4.987)" fill="#010101"/>
    <path id="Path_267" data-name="Path 267" d="M11.789,60.73c-1.569.239-2.45,1.652-3.754,2.368A1.138,1.138,0,0,1,6.2,62.667a.6.6,0,0,1-.477-.22c-1.138-1.836,1.184-3.111,2.4-4.011,1.716-.33,2.772,1.129,3.662,2.294Z" transform="translate(-0.446 -4.798)" fill="#f6d2a2"/>
    <path id="Path_268" data-name="Path 268" d="M7.2,63.533a1.12,1.12,0,0,1-.294,0,1.358,1.358,0,0,1-.8-.688.551.551,0,0,1-.45-.239c-1.1-1.735.771-3.047,2.01-3.919l.431-.312c1.735-.349,2.836,1.083,3.717,2.239l.248.33h-.275a4.745,4.745,0,0,0-2.322,1.331A8.435,8.435,0,0,1,8.092,63.3,1.835,1.835,0,0,1,7.2,63.533ZM6.1,62.468a.45.45,0,0,1,.193,0h.046l.073.147a1.065,1.065,0,0,0,.615.56,1.257,1.257,0,0,0,.918-.22,8.2,8.2,0,0,0,1.331-.991,5.507,5.507,0,0,1,2.212-1.349c-.844-1.1-1.836-2.294-3.276-2.019l-.413.294c-1.267.918-2.836,2-1.927,3.46a.266.266,0,0,0,.193.128Z" transform="translate(-0.439 -4.792)" fill="#010101"/>
    <path id="Path_269" data-name="Path 269" d="M6.11,58.5a.165.165,0,0,1-.165-.22,2.515,2.515,0,0,1,.532-1.2,3.873,3.873,0,0,0,.349-.578.166.166,0,1,1,.3.138,4.185,4.185,0,0,1-.376.633,2.23,2.23,0,0,0-.45,1.074.165.165,0,0,1-.193.156ZM5.174,9.266c-.918-.459-1.514-1.092-.982-2.1s1.413-.835,2.294-.376Zm31.709-.881c.918-.459,1.514-1.092.982-2.1s-1.413-.835-2.294-.376Z" transform="translate(-0.329 -0.452)" fill="#010101"/>
    <path id="Path_270" data-name="Path 270" d="M46.067,34.144c-.083,1.735-1.836.918-2.6.385s-.918-.083-1.028-1.1a16.639,16.639,0,0,1-.083-2,4.91,4.91,0,0,1,3.276.835c.477.349,1.367,1.45.441,1.836" transform="translate(-3.484 -2.578)" fill="#f6d2a2"/>
    <path id="Path_271" data-name="Path 271" d="M45.159,35.351a3.754,3.754,0,0,1-1.753-.661,2.047,2.047,0,0,0-.551-.266c-.367-.128-.5-.239-.551-.918v-.459a11.929,11.929,0,0,1-.046-1.569v-.22H42.4a5.048,5.048,0,0,1,3.387.863,2.111,2.111,0,0,1,.918,1.523.753.753,0,0,1-.413.6,1.138,1.138,0,0,1-.569,1.01,1.111,1.111,0,0,1-.56.1ZM42.489,31.57a12.9,12.9,0,0,0,.055,1.377v.459c0,.56.083.578.33.67a2.368,2.368,0,0,1,.624.312,2.4,2.4,0,0,0,1.955.569.918.918,0,0,0,.385-.826v-.11h.092a.459.459,0,0,0,.312-.376,1.835,1.835,0,0,0-.771-1.23,4.681,4.681,0,0,0-2.983-.844Z" transform="translate(-3.475 -2.564)" fill="#010101"/>
    <path id="Path_272" data-name="Path 272" d="M46.338,34.358A1.367,1.367,0,0,1,45.65,34" transform="translate(-3.755 -2.792)" fill="#c7b199"/>
    <path id="Path_273" data-name="Path 273" d="M46.324,34.5h-.174a1.285,1.285,0,0,1-.642-.459.167.167,0,1,1,.266-.2.991.991,0,0,0,.5.294h.11a.186.186,0,0,1-.064.367Z" transform="translate(-3.74 -2.774)" fill="#010101"/>
    <path id="Path_274" data-name="Path 274" d="M21.232.18c6.645,0,12.849.918,16.116,7.342,2.909,7.149,1.836,14.868,2.322,22.421.385,6.489,1.23,13.987-1.78,20.007-3.148,6.314-11.1,7.884-17.612,7.673-5.121-.184-11.307-1.836-14.2-6.534-3.4-5.507-1.79-13.656-1.542-19.759.294-7.232-1.964-14.491.413-21.577C7.42,2.41,14.065.749,21.223.18" transform="translate(-0.317 -0.011)" fill="#74cddd"/>
    <path id="Path_275" data-name="Path 275" d="M21.391,57.823H20.253a24.22,24.22,0,0,1-7.994-1.6,12.784,12.784,0,0,1-6.342-5.02C3.164,46.764,3.66,40.633,4.082,35.219c.11-1.358.211-2.652.257-3.864a62.254,62.254,0,0,0-.33-7.691c-.385-4.589-.789-9.334.753-13.932a12.188,12.188,0,0,1,6.424-7.425C13.663,1.1,16.692.4,21.143.05,27.7,0,34.157.922,37.479,7.429c2.129,5.231,2.157,10.848,2.193,16.281,0,2.037,0,4.139.147,6.195,0,.624.073,1.257.119,1.891.385,5.956.826,12.72-1.918,18.19C34.588,56.832,25.961,57.823,21.391,57.823ZM21.216.334C14.306.922,7.569,2.409,5.091,9.8c-1.523,4.534-1.12,9.242-.743,13.766a62.489,62.489,0,0,1,.33,7.728c-.046,1.221-.156,2.515-.257,3.882C4,40.532,3.5,46.617,6.193,50.958c1.129,1.836,4.763,6.121,14.069,6.424,4.029.147,13.766-.312,17.437-7.6,2.7-5.4,2.267-12.105,1.881-18.025,0-.642-.083-1.276-.119-1.891-.1-2-.147-4.112-.147-6.149,0-5.4-.055-11.013-2.166-16.153a11.812,11.812,0,0,0-6.69-5.975A27.441,27.441,0,0,0,21.216.334Z" transform="translate(-0.301 0)" fill="#010101"/>
    <path id="Path_276" data-name="Path 276" d="M24.059,9.37c1.193,6.929,12.518,5.1,10.894-1.891C33.494,1.211,23.664,2.946,24.059,9.37" transform="translate(-1.978 -0.29)" fill="#fff"/>
    <path id="Path_277" data-name="Path 277" d="M29.432,13.881a6.342,6.342,0,0,1-2.074-.34,5.13,5.13,0,0,1-3.469-4.157A5.286,5.286,0,0,1,25.32,5.309a6.25,6.25,0,0,1,3.671-1.836,5.874,5.874,0,0,1,3.726.642,5,5,0,0,1,2.377,3.313,4.846,4.846,0,0,1-1.413,4.919,6.424,6.424,0,0,1-4.249,1.533ZM24.21,9.338a4.818,4.818,0,0,0,3.258,3.9A6.268,6.268,0,0,0,33.479,12.1a4.589,4.589,0,0,0,1.312-4.589,4.9,4.9,0,0,0-5.745-3.726A5.3,5.3,0,0,0,24.21,9.338Z" transform="translate(-1.964 -0.276)" fill="#010101"/>
    <path id="Path_278" data-name="Path 278" d="M9.3,10.551c1.542,6.03,11.2,4.479,10.839-1.569C19.706,1.731,7.821,3.1,9.3,10.551" transform="translate(-0.755 -0.341)" fill="#fff"/>
    <path id="Path_279" data-name="Path 279" d="M14.441,14.512a5.929,5.929,0,0,1-2.818-.688,5,5,0,0,1-2.487-3.258A5.057,5.057,0,0,1,10.861,5.38a6.516,6.516,0,0,1,6.479-.826A4.9,4.9,0,0,1,20.278,8.96c.193,3.212-2.359,5.084-4.8,5.507a6.709,6.709,0,0,1-1.037.046ZM9.466,10.5a5.011,5.011,0,0,0,5.993,3.671c2.313-.367,4.726-2.129,4.543-5.149a4.589,4.589,0,0,0-2.753-4.148,6.2,6.2,0,0,0-6.158.789A4.763,4.763,0,0,0,9.466,10.5Z" transform="translate(-0.739 -0.329)" fill="#010101"/>
    <path id="Path_280" data-name="Path 280" d="M25.3,18.943a15.6,15.6,0,0,1,0,2.873,1.836,1.836,0,0,1-1.074.661,1.579,1.579,0,0,1-1.2-.918,20.392,20.392,0,0,1,.083-3.249Z" transform="translate(-1.892 -1.502)" fill="#fff"/>
    <path id="Path_281" data-name="Path 281" d="M24.322,22.589h-.046a1.735,1.735,0,0,1-1.331-1.037,10.9,10.9,0,0,1,0-2.23c0-.34.055-.7.064-1.046V18l2.478.762v.156a6.273,6.273,0,0,0,.046.918,7.865,7.865,0,0,1,0,1.973v.046a1.377,1.377,0,0,1-.872.624l-.285.11Zm-1.065-1.156a1.4,1.4,0,0,0,1.028.817l.257-.1a1.1,1.1,0,0,0,.67-.477,7.737,7.737,0,0,0,0-1.836A5.043,5.043,0,0,0,25.166,19l-1.836-.56a4.307,4.307,0,0,1-.055.844,10.591,10.591,0,0,0-.028,2.138Z" transform="translate(-1.883 -1.476)" fill="#010101"/>
    <ellipse id="Ellipse_2" data-name="Ellipse 2" cx="1.634" cy="1.771" rx="1.634" ry="1.771" transform="translate(9.571 7.447)" fill="#010101"/>
    <ellipse id="Ellipse_3" data-name="Ellipse 3" cx="0.385" cy="0.45" rx="0.385" ry="0.45" transform="translate(11.563 9.172)" fill="#fff"/>
    <ellipse id="Ellipse_4" data-name="Ellipse 4" cx="1.606" cy="1.771" rx="1.606" ry="1.771" transform="translate(23.274 7.006)" fill="#010101"/>
    <ellipse id="Ellipse_5" data-name="Ellipse 5" cx="0.376" cy="0.45" rx="0.376" ry="0.45" transform="translate(25.228 8.732)" fill="#fff"/>
    <path id="Path_282" data-name="Path 282" d="M20.49,18.795c-.716,1.725.395,5.176,2.331,2.634A20.392,20.392,0,0,1,22.9,18.18Z" transform="translate(-1.668 -1.491)" fill="#fff"/>
    <path id="Path_283" data-name="Path 283" d="M21.472,22.48a.918.918,0,0,1-.477-.128c-.78-.45-1.267-2.294-.716-3.671v-.073l2.753-.7v.22a5.724,5.724,0,0,1-.064,1.055,10.49,10.49,0,0,0,0,2.166v.119a1.936,1.936,0,0,1-1.5,1.01Zm-.909-3.57c-.395,1.074-.083,2.753.606,3.148.5.285,1.046-.211,1.432-.707a11.224,11.224,0,0,1,0-2.166,4.214,4.214,0,0,1,.055-.826Z" transform="translate(-1.649 -1.469)" fill="#010101"/>
    <path id="Path_284" data-name="Path 284" d="M20.57,15.213a2.1,2.1,0,0,0-1.725,2.937c.918,1.652,2.955-.147,4.222,0,1.459,0,2.662,1.542,3.836.275,1.3-1.413-.56-2.753-2.019-3.4Z" transform="translate(-1.536 -1.231)" fill="#f6d2a2"/>
    <path id="Path_285" data-name="Path 285" d="M25.845,19.109a3.671,3.671,0,0,1-1.34-.376,4.047,4.047,0,0,0-1.45-.4,3.671,3.671,0,0,0-1.523.33c-1.028.358-2.193.762-2.854-.422a1.982,1.982,0,0,1,0-1.927,2.349,2.349,0,0,1,1.836-1.257l4.414-.193c1.083.459,2.322,1.294,2.533,2.267a1.753,1.753,0,0,1-1.615,1.982ZM23.092,18a4.313,4.313,0,0,1,1.56.431c.826.349,1.478.615,2.138-.1a1.221,1.221,0,0,0,.376-1.11c-.184-.844-1.349-1.615-2.3-2.019l-4.268.174a2.037,2.037,0,0,0-1.56,1.083,1.661,1.661,0,0,0,0,1.606c.523.918,1.459.615,2.46.275a3.891,3.891,0,0,1,1.6-.34Z" transform="translate(-1.516 -1.218)" fill="#231f20"/>
    <path id="Path_286" data-name="Path 286" d="M20.51,14.987c-.1-2.294,4.286-2.588,4.8-.661S20.721,16.694,20.51,14.987Z" transform="translate(-1.687 -1.069)" fill="#010101"/>
  </g>
</svg>
