<svg xmlns="http://www.w3.org/2000/svg" width="68.221" height="54.901" viewBox="0 0 68.221 54.901">
  <g id="google-cloud-1" transform="translate(-0.048 -0.046)">
    <path id="Path_426" data-name="Path 426" d="M322.859,15.164h2.082l5.931-5.931.292-2.516a26.657,26.657,0,0,0-43.363,13,3.23,3.23,0,0,1,2.082-.126l11.859-1.956s.6-1,.915-.935A14.8,14.8,0,0,1,322.9,15.164h-.043Z" transform="translate(-279.524 0)" fill="#ea4335"/>
    <path id="Path_427" data-name="Path 427" d="M1164.138,246.983A26.716,26.716,0,0,0,1156.085,234l-8.321,8.321a14.793,14.793,0,0,1,5.43,11.736v1.478a7.406,7.406,0,0,1,0,14.813h-14.816l-1.478,1.5v8.885l1.478,1.478h14.816a19.267,19.267,0,0,0,10.944-35.228Z" transform="translate(-1104.343 -227.264)" fill="#4285f4"/>
    <path id="Path_428" data-name="Path 428" d="M274.633,1491.525h14.816v-11.859H274.633a7.341,7.341,0,0,1-3.06-.666l-2.082.643-5.971,5.931-.52,2.082a19.175,19.175,0,0,0,11.633,3.869Z" transform="translate(-255.433 -1436.661)" fill="#34a853"/>
    <path id="Path_429" data-name="Path 429" d="M19.2,571.6A19.266,19.266,0,0,0,7.57,606.135l8.593-8.593a7.407,7.407,0,1,1,9.8-9.8l8.593-8.593A19.259,19.259,0,0,0,19.2,571.6Z" transform="translate(0 -555.206)" fill="#fbbc05"/>
  </g>
</svg>
