<svg id="hardhat-seeklogo.com" xmlns="http://www.w3.org/2000/svg" width="169.884" height="35.007" viewBox="0 0 169.884 35.007">
  <path id="Path_556" data-name="Path 556" d="M196.963,40.865h3.167V32.747h9.039v8.118h3.2V22.44h-3.2v7.744H200.13V22.44h-3.167Zm24.729.2c3.052,0,5.094-1.267,5.787-2.418l.633,2.214h1.67V32.488c0-3.973-.864-6.564-6.881-6.564-5.182,0-6.449,2.361-6.449,5.412l2.99-.029c0-1.842.749-2.936,3.484-2.936,2.965,0,3.742,1.238,3.829,3.368l-4.635.461c-4.2.4-6.129,1.641-6.129,4.347C215.99,39.656,218.525,41.067,221.692,41.067Zm.777-2.416c-2.159,0-3.311-.775-3.311-2.13,0-1.152.864-1.7,3.426-1.986l4.174-.461v.461C226.759,37.094,225.18,38.651,222.469,38.651Zm10.793,2.214h3.08V32.689c0-2.389.6-4.088,3.685-4.088.259,0,.547.058.835.058V25.924h-.489c-2.879,0-4.29,1.267-4.75,2.245l-.72-2.044h-1.641Zm15.231.2c3.483,0,5.124-1.3,5.647-2.3l.686,2.1h1.67V20.512h-3.023v7.427c-.633-.979-2.1-2.015-5.009-2.015-4.894,0-6.276,3.543-6.276,7.571S243.629,41.067,248.494,41.067Zm.864-2.533c-3.34,0-4.03-2.073-4.03-5.038s.691-4.983,4.059-4.983c3.512,0,4.117,2.13,4.117,4.983C253.5,36.518,252.784,38.533,249.358,38.533Zm11,2.332h3.025l.058-8.262c0-2.793.664-4.088,3.771-4.088,3.138,0,3.6,1.329,3.6,4.088v8.262h3.052V32.893c0-4.232-.979-6.967-5.786-6.967-2.821,0-4.117.979-4.693,2.044V20.514h-3.023Zm22.225.2c3.056,0,5.1-1.267,5.786-2.416L289,40.865h1.67V32.488c0-3.973-.864-6.564-6.88-6.564-5.182,0-6.449,2.361-6.449,5.412l2.99-.029c0-1.842.748-2.936,3.483-2.936,2.965,0,3.742,1.238,3.829,3.368l-4.635.461c-4.208.4-6.132,1.641-6.132,4.347C276.88,39.656,279.413,41.067,282.58,41.067Zm.777-2.416c-2.159,0-3.311-.775-3.311-2.13,0-1.152.864-1.7,3.426-1.986l4.174-.461v.461C287.647,37.094,286.063,38.651,283.357,38.651Zm18.137,2.325V38.5c-3.2.144-3.771-.489-3.771-1.871V28.6h3.771V26.125h-3.858V22.44h-3.052v3.685l-2.1.633V28.6h2.1v8.032C294.585,40.117,296.629,41.268,301.494,40.976Z" transform="translate(-131.61 -13.706)" fill="#15191f"/>
  <g id="Group_149" data-name="Group 149" transform="translate(0 0)">
    <path id="Path_557" data-name="Path 557" d="M50.65,84.514s-7.713-1.143-11.789-1.47c-3.914-.314-8.552-.5-13.528-.5s-9.614.182-13.527.5C7.729,83.376.017,84.961.017,84.961v1.993c0,1.772,11.335,3.211,25.316,3.211s25.316-1.439,25.316-3.211Z" transform="translate(-0.011 -55.158)" fill="#f0d50c"/>
    <path id="Path_558" data-name="Path 558" d="M21.806,8.8A23.208,23.208,0,0,0,6.387,30.662v3.286a56.168,56.168,0,0,1,10.049-1.457q-.034-.946-.035-1.906C16.4,21.963,18.486,14.2,21.806,8.8Z" transform="translate(-4.268 -5.881)" fill="#f0d50c"/>
    <path id="Path_559" data-name="Path 559" d="M135.574,44.973a23.106,23.106,0,0,0-5.3-14.754,48.1,48.1,0,0,1,2.2,14.68q0,1.359-.07,2.686a28.448,28.448,0,0,1,3.132.664Z" transform="translate(-87.051 -20.192)" fill="#fff04d"/>
    <path id="Path_560" data-name="Path 560" d="M135.574,44.973a23.106,23.106,0,0,0-5.3-14.754,48.1,48.1,0,0,1,2.2,14.68q0,1.359-.07,2.686a28.448,28.448,0,0,1,3.132.664Z" transform="translate(-87.051 -20.192)" fill="#ffea00"/>
    <path id="Path_561" data-name="Path 561" d="M67.668,13.207A23.223,23.223,0,0,0,41.98,6.1c-3.322,5.4-5.4,13.161-5.4,21.785q0,.96.035,1.906c3.455-.267,7.454-.432,11.737-.462h1.415A135.353,135.353,0,0,1,69.8,30.578q.067-1.329.07-2.686a48.1,48.1,0,0,0-2.2-14.685Z" transform="translate(-24.441 -3.181)" fill="#fff04d"/>
    <g id="Group_148" data-name="Group 148" transform="translate(16.101)">
      <path id="Path_562" data-name="Path 562" d="M18.554,11.56l-1.47-9.19A1.772,1.772,0,0,0,15.839.943a23.3,23.3,0,0,0-13.124,0A1.772,1.772,0,0,0,1.472,2.37L0,11.56" transform="translate(0 0)" fill="#fff04d"/>
    </g>
    <path id="Path_563" data-name="Path 563" d="M25.324,78.222H23.908c-13.324.093-23.9,1.493-23.9,3.205V83.91a.618.618,0,0,0,.087.419,5.919,5.919,0,0,1,2.281-1.047,44.633,44.633,0,0,1,6.4-1.072,4.286,4.286,0,0,1,3.358,1.1,9.035,9.035,0,0,0,6.1,2.371H32.408a9.035,9.035,0,0,0,6.1-2.371h0a4.284,4.284,0,0,1,3.36-1.1,44.61,44.61,0,0,1,6.4,1.072,5.352,5.352,0,0,1,2.164.947c.036.037.079.069.11.1a.621.621,0,0,0,.089-.421V81.426C50.639,79.66,39.3,78.222,25.324,78.222Z" transform="translate(0 -52.268)" fill="#fff04d"/>
    <path id="Path_564" data-name="Path 564" d="M81.641,56,76.3,59.291v4.268Z" transform="translate(-50.984 -37.422)" fill="#6e6f70"/>
    <path id="Path_565" data-name="Path 565" d="M65.566,63.559V59.291L60.227,56Z" transform="translate(-40.244 -37.422)" fill="#0a0a0a"/>
    <path id="Path_566" data-name="Path 566" d="M60.227,32.738h0l5.339,3.087V24.1Z" transform="translate(-40.244 -16.105)" fill="#0a0a0a"/>
    <path id="Path_567" data-name="Path 567" d="M81.641,32.735,76.3,24.1h0v5.548h0v6.174l5.339-3.087h0Z" transform="translate(-50.984 -16.103)" fill="#6e6f70"/>
  </g>
</svg>
