<svg xmlns="http://www.w3.org/2000/svg" width="38.707" height="54.635" viewBox="0 0 38.707 54.635">
  <g id="html-5-logo-svgrepo-com" transform="translate(-0.445)">
    <path id="Path_97" data-name="Path 97" d="M39.152,70.766l-3.526,39.5-15.851,4.394L3.968,110.276.445,70.766H39.152Z" transform="translate(0 -60.029)" fill="#e44d26"/>
    <path id="Path_98" data-name="Path 98" d="M128,129.366l12.808-3.551,3.013-33.758H128Z" transform="translate(-108.201 -78.089)" fill="#f16529"/>
    <path id="Path_99" data-name="Path 99" d="M53.213,128.841h6.855V124H47.917l.116,1.3,1.191,13.354H60.068V133.8H53.656ZM54.3,141.071H49.44l.679,7.609,9.926,2.755.022-.006v-5.042l-.021.006-5.4-1.457Z" transform="translate(-40.269 -105.182)" fill="#ebebeb"/>
    <path id="Path_100" data-name="Path 100" d="M24.18,0h2.463V2.433H28.9V0h2.463V7.368H28.9V4.9H26.643V7.368H24.18V0ZM34.6,2.443H32.429V0h6.8V2.443H37.059V7.368H34.6V2.443h0ZM40.307,0h2.568l1.579,2.589L46.032,0H48.6V7.368H46.148V3.716l-1.694,2.62h-.042l-1.7-2.62V7.368H40.307Zm9.519,0H52.29V4.932h3.463V7.368H49.826V0Z" transform="translate(-20.134)"/>
    <path id="Path_101" data-name="Path 101" d="M127.889,138.649h5.967l-.563,6.285-5.4,1.459v5.041l9.934-2.753.073-.819,1.139-12.757.118-1.3H127.889Zm0-9.82v.012h11.7l.1-1.089.221-2.457.116-1.3H127.889v4.834Z" transform="translate(-108.107 -105.182)" fill="#fff"/>
  </g>
</svg>
