<svg xmlns="http://www.w3.org/2000/svg" width="140.388" height="47.33" viewBox="0 0 140.388 47.33">
  <g id="ionic-svgrepo-com" transform="translate(2023.462 2.66)">
    <path id="Path_342" data-name="Path 342" d="M23.721,0A23.518,23.518,0,0,1,34.585,2.639h0l.449.225-.393.309a7.32,7.32,0,0,0-2.189,2.863h0l-.14.309L32.03,6.2a19.365,19.365,0,1,0,11.06,17.489A18.691,18.691,0,0,0,41.6,16.282h0l-.14-.309.309-.14a7.5,7.5,0,0,0,2.976-2.021h0l.309-.393.2.449a23.311,23.311,0,0,1,2.134,9.769A23.693,23.693,0,1,1,23.721,0Zm0,12.913A10.808,10.808,0,1,1,12.913,23.721,10.849,10.849,0,0,1,23.721,12.914ZM39.188,3.987a4.941,4.941,0,1,1-4.941,4.941A4.941,4.941,0,0,1,39.188,3.987Z" transform="translate(-2023.462 -2.66)" fill="#3880ff"/>
    <path id="Path_343" data-name="Path 343" d="M289.525,46.994a9.332,9.332,0,0,1,4.716,1.347,10.835,10.835,0,0,1,3.9,3.565h0l-3.593,2.442s-1.965-3.088-5.165-3.088c-3.79,0-6.26,2.919-6.26,6.569s2.5,6.569,6.26,6.569c3.2,0,5.137-3.144,5.137-3.116h0l3.621,2.414a11.093,11.093,0,0,1-3.9,3.565,9.417,9.417,0,0,1-4.716,1.347,10.811,10.811,0,1,1,0-21.615Zm-54.151.028c5.194,0,10.808,3.677,10.78,10.808a10.554,10.554,0,0,1-10.7,10.78,10.794,10.794,0,1,1-.084-21.587Zm-13.025.477V68.132h-5V47.5Zm53.926,0V68.132h-5V47.5Zm-16.534-.477c6.316,0,8.674,4.351,8.758,9.769h0V68.1h-5V56.286c0-2.751-1.881-5.081-4.267-5.081-2.47,0-5.783,1.993-5.783,4.435h0V68.132h-5V47.5h4.155l.309,2.218.024-.022A10.852,10.852,0,0,1,259.741,47.022Zm-24.31,4.239a6.209,6.209,0,0,0-6.148,6.541,6.108,6.108,0,1,0,12.183.028A6.214,6.214,0,0,0,235.43,51.261Z" transform="translate(-2181.218 -36.769)" fill="#3880ff"/>
  </g>
</svg>
