<svg id="ios-2" xmlns="http://www.w3.org/2000/svg" width="56" height="56" viewBox="0 0 56 56">
  <path id="Path_344" data-name="Path 344" d="M0,0H56V56H0Z" fill="#282828"/>
  <path id="Path_345" data-name="Path 345" d="M211.458,515.474a10.505,10.505,0,0,0-4.714,1.1c-3.762,1.874-5.935,5.821-5.935,10.793s2.137,8.814,5.912,10.605a10.85,10.85,0,0,0,3.594.932,14.638,14.638,0,0,0,2.285,0,10.85,10.85,0,0,0,3.594-.932c3.776-1.791,5.913-5.621,5.913-10.605s-2.173-8.919-5.935-10.793A10.507,10.507,0,0,0,211.458,515.474Zm1.5,3.505c2.259.6,3.9,2.64,4.526,5.613a12.862,12.862,0,0,1-.31,6.4c-.984,2.959-3.118,4.63-5.713,4.6-2.595.027-4.729-1.644-5.713-4.6a12.877,12.877,0,0,1-.311-6.4c.628-2.973,2.267-5.011,4.526-5.613A7.645,7.645,0,0,1,212.956,518.979Zm-16.5-3.505a2.258,2.258,0,1,0,2.258,2.258A2.258,2.258,0,0,0,196.458,515.474Zm-2.11,6.89V538.95h4.22V522.364Zm33.9,16.551a15.245,15.245,0,0,1-5.023-1.388c-.02-.017.872-3.347.912-3.407,2.373.806,5.713,1.936,7.965.9a2.817,2.817,0,0,0,1.629-3.06c-.229-1.473-1.249-2.322-4.048-3.368-3.123-1.167-4.953-2.6-5.7-4.468a6.106,6.106,0,0,1-.325-3.106c.461-2.837,2.671-4.811,6.063-5.415a16.325,16.325,0,0,1,4.118,0c1.49.249,3.2.813,3.2,1.055,0,.089-.873,3.168-.918,3.236a13.241,13.241,0,0,0-4.524-1.009c-1.978-.025-4.124,1.149-3.745,3.224.268,1.3,1.1,1.935,4.151,3.175a11.531,11.531,0,0,1,4.253,2.484,5.83,5.83,0,0,1,1.7,4.282,5.518,5.518,0,0,1-.556,2.783q-1.616,3.5-6.575,4.055a17.745,17.745,0,0,1-2.574.028Z" transform="translate(-188.074 -499.212)" fill="#fff"/>
</svg>
