<svg xmlns="http://www.w3.org/2000/svg" width="39.359" height="54.423" viewBox="0 0 39.359 54.423">
  <g id="Group_130" data-name="Group 130" transform="translate(-1655.96 -646.152)">
    <path id="Path_52" data-name="Path 52" d="M42.853,62.986A19.315,19.315,0,0,1,23.758,82.511a19.531,19.531,0,0,1,0-39.051A19.315,19.315,0,0,1,42.853,62.986" transform="translate(1651.881 609.39)" fill="#d33833"/>
    <path id="Path_53" data-name="Path 53" d="M4.275,74.527S2.889,54.17,21.66,53.585L20.351,51.4,10.173,54.817l-2.91,3.342L4.722,63.024,3.274,68.691l.431,3.788" transform="translate(1653.056 602.684)" fill="#ef3d3a"/>
    <path id="Path_54" data-name="Path 54" d="M7.5,46.816a19.266,19.266,0,0,0,0,26.794,18.188,18.188,0,0,0,26.147,0,19.266,19.266,0,0,0,0-26.794,18.188,18.188,0,0,0-26.147,0Zm-.847,27.61a20.437,20.437,0,0,1,0-28.441,19.377,19.377,0,0,1,27.841,0,20.437,20.437,0,0,1,0,28.441,19.377,19.377,0,0,1-27.841,0Z" transform="translate(1655.067 612.24)" fill="#231f20"/>
    <path id="Path_55" data-name="Path 55" d="M67.841,30.737l-2.91.431L61,31.615l-2.541.062L55.984,31.6l-1.894-.585L52.412,29.2,51.1,25.486l-.293-.8L49.07,24.1l-1.016-1.678-.724-2.4.8-2.11,1.894-.662,1.524.724.724,1.6.878-.139.293-.37-.293-1.679-.077-2.11.431-2.91L53.49,10.7l1.324-2.125L57.139,6.9,61.2,5.16l4.512.662,3.927,2.833,1.817,2.91,1.17,2.11.293,5.236-.878,4.512-1.6,4-1.509,2.14" transform="translate(1615.837 641.746)" fill="#f0d6b7"/>
    <path id="Path_56" data-name="Path 56" d="M51.882,176.937l-10.394.431v1.74l.878,6.113-.431.508-7.268-2.479-.508-.878-.724-8.223-1.709-4.928-.37-1.17,5.821-4,1.817-.724,1.6,1.971,1.386,1.232,1.6.508.724.216.878,3.788.662.8,1.678-.585-1.17,2.263,6.313,2.987-.785.431" transform="translate(1629.333 508.128)" fill="#335061"/>
    <path id="Path_57" data-name="Path 57" d="M50.9,21.713l1.894-.662,1.524.724.724,1.6.878-.139.216-.878L55.7,20.681l.431-4-.37-2.187,1.309-1.524,2.833-2.248-.8-1.093-4,1.971L53.423,12.9l-.939,2.033-1.447,1.971L50.6,19.234l.293,2.479" transform="translate(1613.07 637.974)" fill="#6d6b6d"/>
    <path id="Path_58" data-name="Path 58" d="M53.885,16.29s1.093-2.695,5.451-4,.216-.939.216-.939l-4.728,1.817-1.817,1.817-.8,1.447,1.679-.139M51.7,22.619s-1.525-5.1,4.3-5.821l-.216-.878-4,.939-1.17,3.788.293,2.479.8-.508" transform="translate(1613.07 636.56)" fill="#dcd9d8"/>
    <path id="Path_59" data-name="Path 59" d="M50.922,21.133l.955-.924a.614.614,0,0,1,.508.554c.077.508.293,5.1,3.419,7.561.293.231-2.325-.37-2.325-.37l-2.325-3.634M64.3,19.747s.169-2.2.77-2.033a.823.823,0,0,1,.6.77s-1.447.924-1.37,1.263m6.036-8.069s-1.2.246-1.309,1.309,1.309.216,1.524.139m-9.008-1.37s-1.6.216-1.6,1.232,1.817.939,2.325.508m-10.61,2.987s-2.756-1.679-3.049-.077-.939,2.756.431,4.435l-.939-.293L47.227,18.3l-.293-2.187,1.679-1.74,1.894.139,1.093.878.062,1.093m1.309-4.589S54.2,5.488,60.454,4.256c5.143-1.016,7.853.216,8.87,1.386,0,0-4.589-5.451-8.947-3.788-4.358,1.679-7.561,4.727-7.484,6.683.123,3.357.077,3.357.077,3.357M69.832,6.366s-2.11-.077-2.187,1.817a1.525,1.525,0,0,0,.139.585s1.678-1.894,2.695-.878" transform="translate(1616.171 644.806)" fill="#f7e4cd"/>
    <path id="Path_60" data-name="Path 60" d="M112.293,39.942s-.37-2.895-2.833-1.217c-1.6,1.093-1.448,2.618-1.17,2.91.293.293.216.878.431.477s.154-1.709.955-2.079c.785-.37,2.11-.77,2.618-.092" transform="translate(1564.487 613.832)" fill="#f7e4cd"/>
    <path id="Path_61" data-name="Path 61" d="M40.693,164.959l-6.837,3.049s2.833,11.272,1.386,14.767l-1.016-.37-.077-4.3-1.894-8.13-.8-2.248,7.13-4.8,2.11,2.033m.693,6.236.97,1.186v4.358H41.2s-.139-3.049-.139-3.418.139-1.679.139-1.679m.216,5.759-3.28.139.939.662,2.325.37" transform="translate(1629.25 508.464)" fill="#49728b"/>
    <path id="Path_62" data-name="Path 62" d="M167.789,251.116l2.695-.077.662,6.683-2.756.37-.6-6.976" transform="translate(1514.072 434.026)" fill="#335061"/>
    <path id="Path_63" data-name="Path 63" d="M172.453,171.146l4.065-.216s1.679-4.219,1.679-4.435,1.447-6.113,1.447-6.113l-3.28-3.419-.662-.585-1.74,1.74v6.76l-1.509,6.267" transform="translate(1510.132 513.995)" fill="#335061"/>
    <path id="Path_64" data-name="Path 64" d="M170.33,170.722l-2.541.508.37,2.033c.939.431,2.541-.724,2.541-.724m-.293-14.552,5.1,3.788.139-1.74-3.85-3.557-1.386,1.509" transform="translate(1514.072 513.912)" fill="#49728b"/>
    <path id="Path_65" data-name="Path 65" d="M98.933,265.772l-1.509-6.113-.755-4.512-.123-3.342,6.822-.37H107.6l-.385,7.638.662,5.9-.077,1.093-5.528.431-3.341-.724" transform="translate(1574.259 433.69)" fill="#fff"/>
    <path id="Path_66" data-name="Path 66" d="M136.42,248.691a64.069,64.069,0,0,0,.724,12.95,13.8,13.8,0,0,1-5.374,1.74l6.113-.216.724-.431-.878-11.919-.231-2.556" transform="translate(1544.501 436.373)" fill="#dcd9d8"/>
    <path id="Path_67" data-name="Path 67" d="M185.923,246.422l2.833-.8,5.374-.293.8-2.479-1.448-4.3-1.678-.216-2.325.724-2.217,1.093-1.186-.216-.924.37" transform="translate(1499.403 444.755)" fill="#fff"/>
    <path id="Path_68" data-name="Path 68" d="M189.817,252.839a10.422,10.422,0,0,1,2.187-.8l-.8-4,.939-.37s.662,3.788.662,4.219c0,0,4.065.216,4.435.216a6.62,6.62,0,0,0,.662-3.419l.8,2.325.077,1.309-1.17,1.74-1.309.293-2.187-.077-.724-.939-2.541.369-.8.293" transform="translate(1495.462 436.876)" fill="#dcd9d8"/>
    <path id="Path_69" data-name="Path 69" d="M153.506,207.025l-1.6-4.065-1.678-2.4s.37-1.016.878-1.016h1.679l1.6.585-.139,2.695-.739,4.2" transform="translate(1528.909 477.531)" fill="#fff"/>
    <path id="Path_70" data-name="Path 70" d="M153.243,204.717a33.781,33.781,0,0,1-2.033-4.512s.37-.878.878-.662,1.6.8,1.6.8v-1.386l-2.479-.508-1.678.216,2.833,6.714.585.077" transform="translate(1529.495 478.453)" fill="#dcd9d8"/>
    <path id="Path_71" data-name="Path 71" d="M94.8,172.658l-2.017-.216-1.894-.585v.662l.924,1.016,2.91,1.309" transform="translate(1579.037 500.919)" fill="#fff"/>
    <path id="Path_72" data-name="Path 72" d="M94.067,178.406s2.248.939,2.987.724l.077.878-2.033-.431-1.232-.878.2-.293" transform="translate(1576.522 495.387)" fill="#dcd9d8"/>
    <path id="Path_73" data-name="Path 73" d="M170.415,179.188a13.445,13.445,0,0,1-3.326-.462,7.6,7.6,0,0,1,.046-1.078,2.54,2.54,0,0,1,1.139-.246,1.968,1.968,0,0,0-1.263-.139,2.092,2.092,0,0,0-.216-.662c.693-.246,2.325-1.863,3.249-1.34.447.262.631,1.709.662,2.433a2.547,2.547,0,0,1-.293,1.494" transform="translate(1514.911 498.13)" fill="#d33833"/>
    <path id="Path_74" data-name="Path 74" d="M170.415,179.188a13.445,13.445,0,0,1-3.326-.462,7.6,7.6,0,0,1,.046-1.078,2.54,2.54,0,0,1,1.139-.246,1.968,1.968,0,0,0-1.263-.139,2.092,2.092,0,0,0-.216-.662c.693-.246,2.325-1.863,3.249-1.34.447.262.631,1.709.662,2.433A2.547,2.547,0,0,1,170.415,179.188Z" transform="translate(1514.911 498.13)" stroke="#d33833" stroke-width="2"/>
    <path id="Path_75" data-name="Path 75" d="M122.709,178.8a1.662,1.662,0,0,1-.016.277c-.385.246-1,.246-1.432.462a4.036,4.036,0,0,1,1.54.385c-.016.231-.016.478-.031.708-.708.477-1.355,1.2-2.187,1.663a5.594,5.594,0,0,1-2.187.662c-.231-.062-.262-.354-.354-.631a9.144,9.144,0,0,1-.708-2.433c-.046-1.124-.169-3.018,1.047-2.787a10.62,10.62,0,0,1,2.88,1.047,2.924,2.924,0,0,0,1.448.647" transform="translate(1556.719 496.498)" fill="#d33833"/>
    <path id="Path_76" data-name="Path 76" d="M122.709,178.8a1.662,1.662,0,0,1-.016.277c-.385.246-1,.246-1.432.462a4.036,4.036,0,0,1,1.54.385c-.016.231-.016.478-.031.708-.708.477-1.355,1.2-2.187,1.663a5.594,5.594,0,0,1-2.187.662c-.231-.062-.262-.354-.354-.631a9.144,9.144,0,0,1-.708-2.433c-.046-1.124-.169-3.018,1.047-2.787a10.62,10.62,0,0,1,2.88,1.047,2.924,2.924,0,0,0,1.448.647Z" transform="translate(1556.719 496.498)" stroke="#d33833" stroke-width="2"/>
    <path id="Path_77" data-name="Path 77" d="M155.516,188.227a4.212,4.212,0,0,1-.185-1.324c1.648-1.093,1.94,1.879.185,1.324" transform="translate(1524.604 488.415)" fill="#d33833"/>
    <path id="Path_78" data-name="Path 78" d="M155.516,188.227a4.212,4.212,0,0,1-.185-1.324c1.648-1.093,1.94,1.879.185,1.324Z" transform="translate(1524.604 488.415)" stroke="#d33833" stroke-width="2"/>
    <path id="Path_79" data-name="Path 79" d="M122.9,176.131s-.508-.724-.139-.939.724,0,.939-.369,0-.585.077-1.016.431-.508.8-.585,1.386-.216,1.524.139l-.431-1.309-.878-.293-2.756,1.6-.139.8v1.6m-6.637,2.772c-.092-1.14-.185-2.264-.277-3.4-.154-1.694.4-1.4,1.879-1.4a3.793,3.793,0,0,1,1.463.431c.4.816-.662.631.462,1.247.939.508,2.618-.308,2.233-1.463-.216-.262-1.109-.077-1.432-.246l-1.709-.878c-.724-.37-2.387-.924-3.157-.4-1.956,1.324.123,4.65.816,6.036" transform="translate(1559.596 501.003)" fill="#ef3d3a"/>
    <path id="Path_80" data-name="Path 80" d="M68.4,43.031c-1.986-.462-2.972.832-3.572,2.171-.539-.123-.323-.862-.185-1.232C65,43,66.432,41.691,67.6,41.876c.493.062,1.17.524.8,1.155m9.655,2.248h.092a20.839,20.839,0,0,0,1.4,2.741c-.385.893-2.864,1.663-2.833.092.539-.231,1.463-.046,1.94-.354a5.4,5.4,0,0,1-.6-2.479M69.4,45.31a8.448,8.448,0,0,0,1.17,2.187c.277.262.8.585.539,1.324a1.7,1.7,0,0,1-.77.631c-.939.277-3.141.062-2.4-1.124.785.031,1.832.508,2.418-.062-.447-.708-1.247-2.125-.955-2.956m8.3,7.915A7.883,7.883,0,0,1,72.361,54.9a1.576,1.576,0,0,1-.2-2.033c.246.431.092,1.232.8,1.355,1.324.231,2.864-.816,3.819-1.17.585-1-.046-1.355-.585-2-1.093-1.309-2.541-2.941-2.495-4.9.447-.323.477.493.539.631a18.486,18.486,0,0,0,3.034,4.173c.262.277.678.554.724.739.139.523-.354,1.17-.293,1.524M58.948,52.27c-.446-.262-.554-1.37-1.078-1.4-.755-.046-.616,1.448-.616,2.325a2.783,2.783,0,0,1-.231-2.648c-.431-.216-.616.231-.862.385.323-2.233,3.28-1.032,2.787,1.34M78.6,54.164c-.662,1.263-1.6,2.649-3.542,2.695a4.407,4.407,0,0,1,0-1.278A10.474,10.474,0,0,0,78.6,54.164m-9.3.816c1.232.647,3.511.724,5.2.678a5.614,5.614,0,0,1,.092,1.278c-2.171.092-4.727-.447-5.3-1.956m-.231,1.2c.862,2.156,3.8,1.909,6.283,1.848a1.247,1.247,0,0,1-.647.724,6.314,6.314,0,0,1-4.1-.015,5.717,5.717,0,0,1-1.54-1.709c-.169-.231-1.093-.832,0-.847" transform="translate(1608.376 610.743)" fill="#231f20"/>
    <path id="Path_81" data-name="Path 81" d="M177.1,205.314a43.08,43.08,0,0,1-3.157,5,24.51,24.51,0,0,0,.785-5.805,1.824,1.824,0,0,1,2.371.8" transform="translate(1508.874 473.483)" fill="#81b0c4"/>
    <path id="Path_82" data-name="Path 82" d="M212.68,250.543c-1.124.231-1.909,1.324-3.018,1.247a3.6,3.6,0,0,1,3.018-1.247m.493,1.755a16.953,16.953,0,0,1-2.926.169c.446-.678,2.14-.431,2.926-.169m.323,1.525c-1.032.015-2.31,0-3.3-.077.585-.631,2.633-.231,3.3.077" transform="translate(1478.697 434.445)" fill="#231f20"/>
    <path id="Path_83" data-name="Path 83" d="M175.031,298.369a23.826,23.826,0,0,1,.6,4.019,4.357,4.357,0,0,1-1.663.354c-.046-1.2-.216-3.049-.169-4.2.369.031.924-.262,1.232-.169" transform="translate(1509.001 394.056)" fill="#dcd9d8"/>
    <path id="Path_84" data-name="Path 84" d="M149.437,175.429c-.524.339-.955.754-1.463,1.124a3.159,3.159,0,0,1-2.51-.708c.015-.046.092-.031.092-.093,1.186.524,2.695-.216,3.881-.323" transform="translate(1532.932 497.902)" fill="#f0d6b7"/>
    <path id="Path_85" data-name="Path 85" d="M131.175,211.481c.323-1.4,1.6-2.14,2.756-2.91a23.417,23.417,0,0,1,2.71,5.328,27.283,27.283,0,0,1-5.467-2.418" transform="translate(1545.004 469.903)" fill="#81b0c4"/>
    <path id="Path_86" data-name="Path 86" d="M50,46.754c-.046,1.155.108,2.987.169,4.2a4.354,4.354,0,0,0,1.663-.354,23.825,23.825,0,0,0-.6-4.019C50.925,46.477,50.371,46.77,50,46.754ZM38.114,40.225a60.373,60.373,0,0,0,2.572,12.627,16.656,16.656,0,0,0,9.178.169c-.477-2.31-.277-5.128-.554-7.607-.216-1.863-.108-3.726-.4-5.621-3.188-.662-7.684-.154-10.795.431Zm11.549-.4c-.031,1.986.092,3.957.246,5.944a18.97,18.97,0,0,0,1.986-.354,41.8,41.8,0,0,0-.678-5.774,4.9,4.9,0,0,0-1.555.185Zm3.865-.323a5.483,5.483,0,0,0-1.124,0c.169,1.617.554,3.4.693,5.112.539.015.832-.246,1.278-.323a10.142,10.142,0,0,0-.847-4.789Zm5.867,5.359a2.507,2.507,0,0,0,1.524-3.1,14.446,14.446,0,0,0-1-3.388c-.293-.446-1.109-1.047-1.771-.631-1.063.678-2.926.878-3.7,1.694a26.978,26.978,0,0,1,.662,4.681c1.324.077,2.941-.369,4.05.108a14.244,14.244,0,0,0-2.418.616,5.1,5.1,0,0,0,2.649.016ZM48.831,37.946a23.409,23.409,0,0,0-2.71-5.328c-1.155.77-2.418,1.509-2.756,2.91a28.084,28.084,0,0,0,5.467,2.418ZM50.8,32.141a24.494,24.494,0,0,1-.785,5.805,44.4,44.4,0,0,0,3.157-5,1.825,1.825,0,0,0-2.371-.8Zm-2.233-.785c-.447-.046-.832.523-1.417.277-.139.154-.262.308-.4.462,1.294,1.571,1.894,3.788,2.9,5.621a24.856,24.856,0,0,0,.6-5.621c-.739.031-1.155-.693-1.679-.739Zm-1.432-1.894a4.217,4.217,0,0,0,.185,1.324C49.078,31.34,48.785,28.368,47.137,29.461Zm-1.956-.647a10.606,10.606,0,0,0-2.88-1.047c-1.216-.231-1.093,1.663-1.047,2.787a9.321,9.321,0,0,0,.708,2.433c.092.277.123.57.354.631a5.781,5.781,0,0,0,2.187-.662,22.588,22.588,0,0,0,2.187-1.663c.015-.231.015-.477.031-.708a3.708,3.708,0,0,0-1.54-.385c.416-.216,1.047-.216,1.432-.462a1.663,1.663,0,0,1,.016-.277,3.223,3.223,0,0,1-1.448-.647Zm-7.237-1.309c-.631.647,1.771,1.509,2.525,1.555,0-.4.231-.785.185-1.078C39.746,27.829,38.56,27.937,37.944,27.506Zm7.761.293c0,.062-.077.046-.092.092a3.193,3.193,0,0,0,2.51.708c.493-.354.939-.785,1.463-1.124-1.2.108-2.71.847-3.881.323Zm7.114,2.156c-.031-.708-.216-2.171-.662-2.433-.924-.539-2.556,1.093-3.249,1.34a2.092,2.092,0,0,1,.216.662,1.959,1.959,0,0,1,1.263.139,2.543,2.543,0,0,0-1.139.246c-.092.293.031.678-.046,1.078a14.2,14.2,0,0,0,3.326.462,2.493,2.493,0,0,0,.293-1.494ZM36.882,28.122c-.2-.139-1.54-1.879-1.725-1.8a28.417,28.417,0,0,0-6.7,4.173,36.647,36.647,0,0,1,2.849,14.09c2.2,1.032,4.142,2.525,7.145,2.679-.354-2.448-.662-4.65-.862-6.96-.755-.323-1.832.016-2.541-.092,0-.847,1.078-.37,1.17-.939.062-.431-.6-.462-.385-1.14.554.2.847.647,1.432.816.539-1.17,0-3.249.077-4.235.016-.185.092-1.016.508-.878.37.123-.015,2.233.016,3.157a4.672,4.672,0,0,0,.246,2.218,82.693,82.693,0,0,1,8.977-.739,20.023,20.023,0,0,1-2.4-1.078c-.493-.277-2.017-.847-2.156-1.309-.231-.739.585-1.124.724-1.756-1.463.8-1.74-.77-2.094-1.863a15.357,15.357,0,0,1-.57-2.325,29.2,29.2,0,0,1-3.711-2.017Zm14.66-1.6c2.017-.97,2.387,3.65,1.586,5.143.123.446.539.616.708,1.016-1.124,2.017-2.371,3.9-3.526,5.882.847-.539,2.079-.092,3.08-.493.37-.139.631-.985.909-1.663a35.527,35.527,0,0,0,1.925-5.944,7,7,0,0,0,.246-1.632c-.092-.647-.955-1.124-1.4-1.509-.816-.739-1.324-1.37-2.187-2.063-.323.508-1.062.847-1.34,1.263ZM32.278,8.642c-.955,1.063-.755,3.034-.647,4.45a2.583,2.583,0,0,1,4.019,1.94c.832-.016.308-1.032.154-1.694-.493-2.14.832-4.45.061-6.406a5.235,5.235,0,0,0-3.588,1.709ZM39.145,2.5c-2.171.616-4.958,2.2-5.851,4.158.693-.108,1.17-.446,1.848-.493a4.259,4.259,0,0,0,.893.031c.585-.154,1.093-1.478,1.54-1.971.431-.477.955-.693,1.309-1.124.231-.108.57-.108.585-.447a.334.334,0,0,0-.323-.154Zm11.318.585C48.2,1.805,44.381.851,41.979,2.052c-1.94.97-4.558,2.572-5.451,4.589.832,1.955-.246,3.742-.323,5.728-.031,1.063.493,1.971.539,3.126-.293.477-1.155.523-1.755.493-.2-1.016-.554-2.156-1.6-2.279a2.424,2.424,0,0,0-2.633,2.341c-.077,1.509,1.155,4,2.91,3.834.678-.062.847-.739,1.586-.739.4.8-.616,1.047-.724,1.617a3.866,3.866,0,0,0,.154,1A13.91,13.91,0,0,0,36.4,25.781c.893,1.278,2.633,1.463,4.512,1.586.339-.724,1.571-.662,2.371-.477a7.925,7.925,0,0,1-2.6-2.125,5.356,5.356,0,0,1-1.756-3.172c1.617,2.233,2.941,4.188,5.867,5.174,2.217.739,4.8-.339,6.514-1.54a7.69,7.69,0,0,0,1.632-2,17.091,17.091,0,0,0,2.572-10.3,11.194,11.194,0,0,0-.6-4.111c-.539-1.078-2.371-2.063-3.449-1.078-.2-1.062.893-1.709,2.171-1.324a11.885,11.885,0,0,0-3.172-3.326ZM54.683,37.9c1.771-.878,5.066-2.356,6.16,0a18.319,18.319,0,0,1,1.093,3.249c.293,1.263-.323,3.942-1.632,4.358a7.818,7.818,0,0,1-3.88.077,2.246,2.246,0,0,1-.477-.616,5.312,5.312,0,0,0-2.695.462c.077.739-.416.847-.893,1-.339,1.37.693,3.157.447,4.388-.169.893-1.263,1.032-2.063,1.186a6.026,6.026,0,0,0,.092,1.324,1.992,1.992,0,0,1-1.786,1.155c-2.572.308-6.467.446-8.931-.447-.693-1.694-1.232-3.742-1.8-5.667-2.4.262-4.358-1.032-6.19-1.894-.631-.293-1.509-.462-1.756-.97a8.786,8.786,0,0,1-.2-2.31,35.5,35.5,0,0,0-.862-6.76c-.262-1.047-.739-1.956-1.063-2.956a20.631,20.631,0,0,1-.97-3c-.2-1.37,1.093-1.447,1.909-2.048,1.278-.924,2.279-1.432,3.665-2.264a7.95,7.95,0,0,0,1.786-1.155c.277-.57-.477-1.37-.677-1.817a5.475,5.475,0,0,1-.539-2,3.877,3.877,0,0,1-2.572-1.648,6.3,6.3,0,0,1-.724-5.482c.062-.139.354-.431.4-.647a7.051,7.051,0,0,0-.185-1.463c-.077-2.356.4-4.389,1.986-5.1.647-2.572,2.956-3.418,5.128-4.7a16.14,16.14,0,0,1,2.633-1.124C43.4-.181,48.493.05,51.249,2.129a14.686,14.686,0,0,1,3.7,4.1c1.771,3.557,1.632,9.516.4,13.859a14.248,14.248,0,0,1-.739,2.14c-.231.493-.955,1.463-.878,1.894.092.447,1.663,1.632,2,1.956.6.585,1.755,1.355,1.848,2.094a7.149,7.149,0,0,1-.57,2.618c-.739,2.525-1.478,4.851-2.325,7.114Z" transform="translate(1632.799 645.856)" fill="#231f20"/>
    <path id="Path_87" data-name="Path 87" d="M127.826,128.966c.092-.123.616-.323,1.355.031,0,0-.878.139-.8,1.6l-.37-.077c.016.016-.37-1.309-.185-1.555" transform="translate(1547.875 537.297)" fill="#f7e4cd"/>
    <path id="Path_88" data-name="Path 88" d="M164.819,208.276a.4.4,0,1,1-.4-.4.4.4,0,0,1,.4.4m.4,1.863a.4.4,0,1,1-.4-.4.388.388,0,0,1,.4.4" transform="translate(1517.258 470.49)" fill="#1d1919"/>
  </g>
</svg>
