<svg xmlns="http://www.w3.org/2000/svg" width="44.65" height="44.965" viewBox="0 0 44.65 44.965">
  <g id="joomla" transform="translate(-0.663 -0.747)">
    <path id="Path_410" data-name="Path 410" d="M107.569,7.769A5.9,5.9,0,0,0,95.83,6.935l-.06-.032c-4.824-2.176-8.888,1.678-8.888,1.678l-10.749,10.8,4.247,4.09,8.652-8.5c4.04-4.04,6.24-1.306,6.24-1.306,3.041,2.569.1,5.611.1,5.611l4.352,4.2c3.554-3.839,3.76-7.189,2.68-9.854a5.9,5.9,0,0,0,5.159-5.851" transform="translate(-62.255 -0.926)" fill="#f9ae41"/>
    <path id="Path_411" data-name="Path 411" d="M148.6,97.709l.032-.06c2.176-4.825-1.678-8.888-1.678-8.888l-10.8-10.75-4.09,4.248,8.5,8.652c4.04,4.04,1.306,6.24,1.306,6.24-2.569,3.041-5.611.1-5.611.1l-4.2,4.352c3.838,3.554,7.189,3.76,9.854,2.68a5.9,5.9,0,1,0,6.685-6.579" transform="translate(-108.388 -63.735)" fill="#ee4035"/>
    <path id="Path_412" data-name="Path 412" d="M27.852,133.04l-8.652,8.5c-4.04,4.041-6.24,1.306-6.24,1.306-3.041-2.57-.1-5.611-.1-5.611L8.5,133.04c-3.554,3.838-3.76,7.189-2.68,9.854a5.9,5.9,0,1,0,6.579,6.686l.06.031c4.825,2.176,8.888-1.678,8.888-1.678l10.75-10.8-4.247-4.09" transform="translate(0 -109.129)" fill="#4f91cd"/>
    <path id="Path_413" data-name="Path 413" d="M13.992,19.284c-4.04-4.04-1.306-6.24-1.306-6.24,2.57-3.041,5.611-.1,5.611-.1l4.2-4.352c-3.838-3.554-7.189-3.76-9.854-2.68a5.9,5.9,0,1,0-6.685,6.579l-.031.06C3.746,17.37,7.6,21.433,7.6,21.433l10.8,10.75,4.09-4.247-8.5-8.652" transform="translate(-0.186)" fill="#7ac043"/>
  </g>
</svg>
