<svg xmlns="http://www.w3.org/2000/svg" width="149.536" height="36.628" viewBox="0 0 149.536 36.628">
  <g id="jquery" transform="translate(0)">
    <path id="Path_109" data-name="Path 109" d="M219.73,27.823h0l-.957,3.393Zm4.924,7.366-1.055-.006Zm-.271,5.067h0l-6.32.023Zm1.325-5.06-1.055-.006Zm-.771,4.63,1.1-4.2-1.1,4.2Zm23.27-19.336-2.051,9.642Zm-5.272,0-1.557,7.2,1.557-7.2Z" transform="translate(-155.785 -14.637)" fill="#131b28"/>
    <path id="Path_110" data-name="Path 110" d="M273.046,18.971H268.66a.577.577,0,0,0-.537.433l-1.557,7.2-1.557,7.2a.575.575,0,0,1-.536.432h-3.1c-3.071,0-2.716-2.124-2.087-5.034l.019-.088.069-.367.013-.069.14-.747.15-.8c.046-.241.115-.594.16-.816l.708-3.458.708-3.458a.348.348,0,0,0-.354-.434h-4.5a.572.572,0,0,0-.534.434L254.892,24l-.968,4.592a.026.026,0,0,0,0,.007l-.09.427c-1.115,5.09-.819,9.944,5.24,10.1l.176,0h9.511a.574.574,0,0,0,.535-.434l2.051-9.641,2.051-9.642A.346.346,0,0,0,273.046,18.971Zm17.5,15.322a.348.348,0,0,1,.354.434l-.426,2.081m-.425,2.082.426-2.083-.426,2.083Zm-.534.438h0c-1.291.01-5.169.04-8.084.04C284.976,39.368,289.51,39.329,289.51,39.329Zm-10.7-7.716c0-.228.256-.621.5-.621l-.548-.009C278.517,33.465,278.812,31.612,278.812,31.612Z" transform="translate(-180.975 -13.553)" fill="#131b28"/>
    <path id="Path_111" data-name="Path 111" d="M176.038,39.24h0Zm8.714-5.074a.348.348,0,0,1,.354.434l-.426,2.081-.069.339m-6.5,2.215h0Zm-1.077,0h0Zm-.328,0h0Zm-.334,0h0Zm.6,0h0Zm1.122,0-1.058,0ZM183.724,39.2Zm.531-.436.357-1.744-.357,1.745Zm-7.648.475h0Zm-.654,0h0Zm.331,0h0Zm-64.153-7.7.681-3.02-.779,3.452-.747,3.516.655-3.082C111.991,32.165,112.077,31.775,112.131,31.537Zm8.154-12.744h-4.816a.583.583,0,0,0-.541.432l-.457,2.016-.457,2.017a.339.339,0,0,0,.345.432h4.854a.577.577,0,0,0,.538-.432l.441-2.016.442-2.014h0A.342.342,0,0,0,120.284,18.793ZM119.236,25.5h0l-1.413,6.535,1.413-6.534ZM105.245,47.152s2.428.031,3.971.031c-1.172,0-3.109-.021-3.973-.032ZM113.493,25.5l-.682,3.02Z" transform="translate(-75.186 -13.426)" fill="#131b28"/>
    <path id="Path_112" data-name="Path 112" d="M118.011,31.725h-4.854a.582.582,0,0,0-.54.432l-.682,3.02-.681,3.02c-.054.238-.139.627-.19.866l-.655,3.082-.655,3.082q-.1.432-.234.853s-.907,2.7-2.431,2.668l-.19,0-1.319-.024h0a.577.577,0,0,0-.544.422l-.5,2.116-.5,2.115a.339.339,0,0,0,.338.436c.864.01,2.8.032,3.973.032,3.808,0,5.816-2.11,7.1-8.181l1.506-6.968,1.413-6.535A.343.343,0,0,0,118.011,31.725Zm68.957,13.928a.344.344,0,0,1-.35-.434l3.652-17.1m1.774,17.1,1.477-7.3Z" transform="translate(-74.309 -20.086)" fill="#131b28"/>
    <path id="Path_113" data-name="Path 113" d="M393.272,44.736a1.883,1.883,0,0,1,.039-.65l1.733-8.119-1.826,8.552a.344.344,0,0,0,.35.434h.444c-.244,0-.711-.1-.74-.217Zm5.084.119a2.3,2.3,0,0,1-.684.1h.444a.566.566,0,0,0,.531-.434l.088-.434c-.049.238-.245.717-.378.771Zm1.028-3.987.652-3.222a.039.039,0,0,1,0,.006Zm14.408-12.308.2.831a.336.336,0,0,1-.341.432m-14.92,14.262.65-3.216ZM413.592,27.71l.2.851Zm-13.557,9.937c.049-.238.129-.625.179-.861l.7-3.262-.789,3.695Zm-3.1-10.512c-.048.23-.111.521-.151.713l-1.733,8.119,1.826-8.552Z" transform="translate(-280.91 -19.385)" fill="#131b28"/>
    <path id="Path_114" data-name="Path 114" d="M414.117,23.687l-.2-.831-.2-.851-.1-.431c-.394-1.532-1.552-2.416-4.065-2.416l-3.913,0-3.6,0h-4.054a.571.571,0,0,0-.534.433h0l-.179.847-.211,1-.059.28-1.826,8.552-1.733,8.119a1.892,1.892,0,0,0-.039.65c.029.119.5.217.74.217H397.8a2.3,2.3,0,0,0,.684-.1c.133-.054.329-.532.378-.771l.65-3.216.651-3.216v-.006l.087-.428.789-3.695.7-3.263a.574.574,0,0,1,.534-.432l11.509-.006A.335.335,0,0,0,414.117,23.687Z" transform="translate(-281.035 -13.68)" fill="#131b28"/>
    <path id="Path_115" data-name="Path 115" d="M263.13,2.492l-.886,0H258.56a.943.943,0,0,0-.693.366l-8.146,11.934c-.138.2-.294.172-.349-.065l-.6-2.629a.583.583,0,0,0-.541-.432h-5.237a.317.317,0,0,0-.321.425l2.347,8.221a1.942,1.942,0,0,1,.011.855l-1.023,3.979a.328.328,0,0,0,.333.43h5.176a.6.6,0,0,0,.553-.43l1.023-3.979a2.641,2.641,0,0,1,.376-.783L264.694,2.834c.147-.194.067-.353-.176-.351l-1.389.009Zm-41.605,10.3v0a.534.534,0,0,1-.517.458h-6.64a.286.286,0,0,1-.312-.349.069.069,0,0,1,.006-.015l0,0a.191.191,0,0,1,0-.022l.03-.113a4.161,4.161,0,0,1,4.353-2.793c2.733,0,3.266,1.336,3.081,2.837Zm-1.948-7.664c-8.522,0-10.542,5.173-11.675,10.394-1.133,5.321-1.035,10.3,7.783,10.3h1.4l1.058,0h.018c2.329-.009,4.665-.027,5.611-.034a.574.574,0,0,0,.529-.435l.357-1.745.069-.34.426-2.081a.348.348,0,0,0-.354-.434h-7.929c-3.153,0-4.089-.838-3.744-3.3H225.8a.523.523,0,0,0,.461-.327A.451.451,0,0,0,226.3,17h0c1.882-7.1,1.342-11.878-6.719-11.878h0ZM179.3,12.76l-.12.425h0l-.957,3.391-.957,3.391a.62.62,0,0,1-.563.426h-5.065c-3.842,0-4.778-3-3.842-7.437.935-4.534,2.769-7.352,6.551-7.637,5.167-.39,6.2,3.245,4.953,7.44Zm3.474,7.373a56.817,56.817,0,0,0,2.931-9.148C186.44,6.5,184.2,0,175.525,0,166.9,0,163.16,6.208,161.732,12.957c-1.428,6.8.443,12.759,9.015,12.71l6.763-.025,6.32-.023a.611.611,0,0,0,.554-.43l1.1-4.2a.328.328,0,0,0-.331-.431l-1.055-.006-1.055-.006a.271.271,0,0,1-.3-.313.428.428,0,0,1,.026-.1h0Z" transform="translate(-115.232)" fill="#131b28"/>
    <path id="Path_116" data-name="Path 116" d="M384.466,56.181a.291.291,0,1,1-.291-.291A.291.291,0,0,1,384.466,56.181Z" transform="translate(-274.249 -39.928)" fill="#131b28"/>
    <path id="Path_117" data-name="Path 117" d="M1.708,24.614c-2.38,3.421-2.084,7.873-.266,11.508.043.087.089.173.133.259.029.054.055.11.085.164.017.032.035.064.053.094.031.058.063.113.095.169.056.1.114.2.173.3.033.054.065.109.1.163.065.106.133.21.2.315.029.045.056.089.086.133q.142.212.292.421l.008.011.049.066c.087.119.176.237.266.354l.1.127q.167.209.34.414t.349.4a.151.151,0,0,1,.013.015q.357.387.738.752c.038.036.076.073.114.108q.19.179.387.352l.066.057c.113.1.229.2.346.292l.143.114q.143.114.288.225l.154.117q.161.118.324.232c.04.029.078.056.118.083l.032.023c.1.071.209.139.314.208.045.03.09.061.136.091.162.1.326.2.492.3l.136.077c.122.071.245.139.369.207.067.036.137.07.2.105.088.046.175.093.264.137l.061.029.108.052q.252.121.508.234t.488.2l.119.047q.258.1.519.191c.17.059.341.114.514.168l.124.037a4.975,4.975,0,0,0,.53.15c11.513,2.1,14.857-6.918,14.857-6.918-2.809,3.659-7.794,4.624-12.517,3.55-.179-.041-.352-.1-.527-.148q-.322-.1-.639-.205l-.07-.025q-.225-.08-.448-.166l-.125-.049q-.243-.1-.483-.2l-.1-.043q-.264-.12-.525-.246c-.106-.052-.21-.107-.315-.161-.07-.037-.141-.072-.21-.11q-.191-.1-.378-.212l-.127-.071q-.249-.147-.492-.3c-.045-.029-.089-.059-.133-.089q-.177-.114-.35-.233c-.039-.026-.075-.054-.113-.079-.111-.079-.221-.159-.331-.239l-.147-.111q-.218-.168-.432-.34-.188-.154-.372-.314l-.041-.034q-.2-.175-.391-.356l-.11-.106q-.143-.135-.281-.276l-.11-.11q-.176-.18-.345-.365l-.017-.018q-.179-.2-.35-.4l-.092-.109q-.128-.154-.252-.311l-.092-.115c-.1-.129-.2-.257-.291-.387C2.412,31.244,1.47,26.31,3.566,22.258" transform="translate(0 -15.901)" fill="#0868ac"/>
    <path id="Path_118" data-name="Path 118" d="M28.618,15.45a8.277,8.277,0,0,0-.285,8.414,10.951,10.951,0,0,0,.761,1.271,6.048,6.048,0,0,0,.886,1.107c.124.137.254.27.386.4.033.034.068.067.1.1.129.125.259.248.395.367l.016.014,0,0c.149.131.3.257.461.381l.1.082c.157.121.318.239.482.352l.014.011c.073.05.147.1.22.145.035.023.069.047.1.069.117.075.236.149.357.219l.051.029c.1.06.21.119.316.176.037.021.075.039.113.059.073.039.147.077.221.114l.033.015c.152.075.3.147.461.215.033.015.068.028.1.042.125.053.251.1.378.153l.162.059c.115.043.231.082.347.121l.157.05a3.844,3.844,0,0,0,.5.145c8.889,1.473,10.941-5.371,10.941-5.371-1.85,2.664-5.432,3.935-9.255,2.943q-.33-.087-.655-.194-.258-.083-.511-.181-.191-.073-.379-.153l-.1-.043q-.234-.1-.464-.215c-.079-.038-.156-.079-.232-.119l-.134-.069q-.148-.081-.294-.166l-.071-.04q-.18-.106-.356-.218c-.036-.023-.071-.048-.107-.072q-.116-.075-.231-.153-.244-.17-.48-.351l-.108-.085a10.718,10.718,0,0,1-3.63-5.174,8.028,8.028,0,0,1,.627-6.44" transform="translate(-19.521 -9.619)" fill="#0868ac"/>
    <path id="Path_119" data-name="Path 119" d="M51.452,10.256a5.181,5.181,0,0,0-.41,5,7.039,7.039,0,0,0,4.04,3.776c.073.027.147.052.22.077l.1.031a2.763,2.763,0,0,0,.316.091c4.908.948,6.239-2.518,6.594-3.029-1.166,1.679-3.126,2.082-5.53,1.5q-.3-.076-.582-.18a7.038,7.038,0,0,1-1.9-1.026c-2.152-1.632-3.488-4.747-2.084-7.283m54.517,30.136-1.415,3.222h-1.562l.128-2.928-1.15,2.928h-1.512l-.04-3.222.167-.8h1.071l-.206,3.183L103.4,38.55h1.493l-.108,3.222,1.179-3.222h.933Zm2.465.954c.137-.629.1-.747-.226-.747h-.492l-.314,1.474-.482,1.541h-.913l.746-3.5.109-.511h.835l.108.236a2.193,2.193,0,0,1,.952-.284c1,0,.924.756.707,1.788Zm2.967-2.251c-.4,0-.658-.118-.56-.609a.717.717,0,0,1,.815-.609c.394,0,.659.118.551.609A.71.71,0,0,1,112.16,38.048Zm-.432,4.519h-.9L111,41l.314-1.454-.628-.138.176-.854h1.719Zm3.919-3.165-1.13.138-.325,1.532c-.089.423-.089.541.285.541h.756l-.157.805a5.287,5.287,0,0,1-.982.206c-1.159,0-1.15-.638-.943-1.592l.314-1.5-.629-.137.186-.855h.659l.374-1.012h.894l-.216,1.012h1.1l-.187.864Zm2.348.051a.853.853,0,0,0-.913.767l1.513-.128C118.662,39.759,118.594,39.453,117.995,39.453Zm-1.06,1.493c-.069.492.117.658.746.658h1.581l-.157.747a7.653,7.653,0,0,1-1.66.265c-1.758,0-1.778-.991-1.552-2.053.226-1.041.628-2.072,2.328-2.072,1.641,0,1.72.992,1.317,2.455Zm6.207,1.62h-.9L122.414,41l.639-2.986-.629-.147.187-.855h1.72l-1.189,5.56Zm3.264-3.113a.854.854,0,0,0-.914.767L127,40.092C127.073,39.759,127,39.453,126.405,39.453Zm-1.061,1.493c-.069.492.118.658.746.658h1.582l-.157.747a7.661,7.661,0,0,1-1.66.265c-1.758,0-1.778-.991-1.552-2.053.226-1.041.629-2.072,2.328-2.072,1.64,0,1.719.992,1.317,2.455Zm6.747-1.444s-1.149.01-1.464.01c-.668,0-.737.206-.786.422l-.04.2,2.122.158a5.853,5.853,0,0,1-.079,1.061,1.833,1.833,0,0,1-1.974,1.287,8.771,8.771,0,0,1-1.542-.225l.167-.776h1.464c.649,0,.737-.177.777-.354l.049-.255-2.083-.158a3.351,3.351,0,0,1,.029-1.041,1.832,1.832,0,0,1,1.994-1.316,9.149,9.149,0,0,1,1.542.215l-.177.777Zm3.95,0s-1.149.01-1.464.01c-.668,0-.737.206-.786.422l-.04.2,2.123.158a5.851,5.851,0,0,1-.079,1.061,1.833,1.833,0,0,1-1.975,1.287,8.776,8.776,0,0,1-1.542-.225l.167-.776h1.464c.648,0,.737-.177.777-.354l.049-.255-2.083-.158a3.361,3.361,0,0,1,.029-1.041,1.832,1.832,0,0,1,1.995-1.316,9.149,9.149,0,0,1,1.542.215l-.177.777Zm1.237,3.7h-.785l.029-.59c-.285-.019-.432-.225-.364-.57a.712.712,0,0,1,.815-.609c.393,0,.657.118.55.609Zm5.255-3.664c-.589,0-.8.354-.933,1s-.1,1.031.491,1.031h.815l.452-2.033Zm1.346,2.5-.109.521-.825-.01-.118-.255a3.992,3.992,0,0,1-1.218.314c-1.258,0-1.317-1.031-1.091-2.072.226-1.061.717-2.063,1.965-2.063a3.8,3.8,0,0,1,1.061.226l.5-1.7h.9l-1.071,5.039Zm3.252-2.544c-.766,0-1.012.432-1.149,1.06s-.068,1.071.687,1.071c.786,0,1.022-.422,1.16-1.071.138-.609.1-1.06-.7-1.06Zm-.668,3.124c-1.621,0-1.749-1.012-1.533-2.063a2.275,2.275,0,0,1,2.417-2.053c1.611,0,1.758,1,1.532,2.053a2.268,2.268,0,0,1-2.416,2.063Zm9.2-.059.177-1.552.089-.442c.128-.589.206-1.021-.413-1.021h-.481a3.825,3.825,0,0,1-.118,1.012l-.422,2h-.914l.177-1.552.088-.442c.128-.589.206-1.021-.412-1.021h-.394l-.649,3.016h-1.051l.855-4.017h.825l.128.245a2.68,2.68,0,0,1,1.012-.3.729.729,0,0,1,.688.354A2.988,2.988,0,0,1,156,38.5c1.256,0,1.218,1.021.992,2.063l-.422,2h-.914Zm4.175-3.064c-.767,0-1.012.432-1.149,1.06s-.068,1.071.687,1.071c.786,0,1.022-.422,1.16-1.071.137-.609.1-1.06-.7-1.06Zm-.668,3.124c-1.622,0-1.749-1.012-1.532-2.063a2.275,2.275,0,0,1,2.417-2.053c1.612,0,1.758,1,1.532,2.053A2.268,2.268,0,0,1,159.166,42.626Zm5.146-2.327c.137-.629.1-.747-.226-.747h-.492l-.314,1.474-.482,1.541h-.913l.746-3.5.108-.511h.835l.108.236a2.2,2.2,0,0,1,.954-.284c1,0,.923.756.707,1.788Zm3.519-.846a.853.853,0,0,0-.913.767l1.512-.128c.069-.334,0-.639-.6-.639Zm-1.061,1.493c-.068.492.118.658.747.658H169.1l-.157.747a7.656,7.656,0,0,1-1.66.265c-1.758,0-1.778-.991-1.553-2.053.226-1.041.629-2.072,2.328-2.072,1.64,0,1.72.992,1.316,2.455Zm3.486,1.68c-.413,0-.668-.118-.559-.6s.4-.609.815-.609c.383,0,.648.117.55.609A.721.721,0,0,1,170.256,42.627Z" transform="translate(-36.14 -6.579)" fill="#0868ac"/>
  </g>
</svg>
