<svg xmlns="http://www.w3.org/2000/svg" width="113.106" height="41.942" viewBox="0 0 113.106 41.942">
  <g id="Junite-01" transform="translate(-154.799 -215.11)">
    <path id="Path_430" data-name="Path 430" d="M173.273,233.962c0-4.138-.148-8.276.047-12.414.148-2.956-1.052-3.973-3.807-3.677a13.584,13.584,0,0,1-1.472,0c-1.07.071-1.312-.5-1.318-1.448,0-1.064.508-1.312,1.454-1.312q8.566.035,17.144,0c.857,0,1.531.041,1.555,1.182s-.331,1.685-1.507,1.549c-2.879-.337-3.441,1.218-3.4,3.736.112,7.183-.254,14.389.106,21.554.591,11.468-9.382,15.317-17.676,13.455-6.5-1.466-10.168-6.012-9.529-11.5a6.276,6.276,0,0,1,4.215-5.557,5.377,5.377,0,0,1,5.8,1,5.031,5.031,0,0,1,1.371,5.912c-.834,2.146-2.465,2.926-4.729,2.436-.875-.189-1.927-.337-2.235.78a2.69,2.69,0,0,0,1.247,2.8,8.6,8.6,0,0,0,8.666,1.117c2.956-1.129,3.9-3.831,4.014-6.674.177-4.327.047-8.66.047-13.005Z" transform="translate(0 0)" fill="#4e9a06"/>
    <path id="Path_431" data-name="Path 431" d="M209.915,239.231c0-4.073-.03-7.419,0-10.771.03-2.1-.591-3.435-3.033-3.228-.851.071-2.128.491-2.093-1.182s1.377-1.058,2.17-1.07c4.729-.065,9.459-.053,14.188,0,.733,0,1.9-.55,2.022.952.13,1.626-1.058,1.454-1.974,1.33-2.82-.384-3.547.91-3.511,3.547.142,6.2,0,12.414.065,18.61.053,5.823,2.879,8.867,8.241,8.974,5.663.142,9.246-2.92,9.459-8.607s.13-11.421.041-17.144c-.041-2.672-1.123-4.853-4.091-5.291-1.117-.166-1.236-.7-1.182-1.561.065-1.111.922-.822,1.537-.828h10.641c.774,0,1.632-.166,1.561,1.111-.041.828-.272,1.182-1.182,1.259-3.269.361-4.061,2.767-4.109,5.5-.089,4.924-.266,9.861,0,14.779.656,11.3-7.455,15.228-16.162,14.537a17.581,17.581,0,0,1-7.537-2.24A8.93,8.93,0,0,1,210.2,250.9C209.708,246.768,210.086,242.636,209.915,239.231Z" transform="translate(-20.438 -3.176)" fill="#cb0101"/>
    <path id="Path_432" data-name="Path 432" d="M265.2,271.4c4.623-.047,3.647-3,3.695-5.391.03-1.673-.1-3.352.03-5.013.2-2.548-.083-4.7-3.494-5.09,3.766-2.034,5.912-1.383,6.71,1.773.952-.136,1.283-1.082,1.969-1.543a6.639,6.639,0,0,1,6.414-.922c2.276.881,3.068,2.956,3.192,5.2.136,2.554.065,5.114.059,7.685,0,1.525-.106,3.068,2.152,2.956.52-.03,1,.225.851.875s-.739.55-1.182.55h-6.5c-.591,0-1.3.035-1.295-.774,0-.591.591-.7,1.111-.7,1.472,0,1.773-.94,1.773-2.14-.035-2.749-.047-5.5-.148-8.276a3.441,3.441,0,0,0-2.82-3.636,4,4,0,0,0-4.558,1.945c-2.069,3.547-.975,7.46-.946,11.232,0,.715.786.739,1.366.845s1.626-.2,1.425.91c-.171.946-1.123.55-1.738.562-2.459.047-4.924,0-7.389,0Z" transform="translate(-45.137 -16.202)" fill="#cc0606"/>
    <path id="Path_433" data-name="Path 433" d="M337.47,261.251c.254,4.3-1.667,6.7-5.179,6.639-2.719-.047-4.239-1.413-4.31-4.138-.095-3.24,0-6.5-.035-9.725,0-.916.343-2.087-1.312-2.01-.591,0-1.549.355-1.626-.692-.053-.721.8-.763,1.289-.987,1.892-.887,2.548-2.56,3.121-4.392.272-.857-.189-2.01,1.182-2.8a12.538,12.538,0,0,1,.242,4.889c-.106,1.773.384,2.43,2.258,2.335,1.117-.053,3.21-.822,3.269.745.065,1.833-2.028.875-3.068.845-1.927-.059-2.572.526-2.453,2.477.166,2.743.035,5.5.047,8.276,0,1.567.349,3.115,2.146,3.37,1.927.278,2.707-1.182,3.216-2.773C336.5,262.623,336.175,261.677,337.47,261.251Z" transform="translate(-69.588 -11.464)" fill="#cc0202"/>
    <path id="Path_434" data-name="Path 434" d="M311.578,262.8v4.428c0,1.874-.656,4.25,2.672,3.89a.644.644,0,0,1,.674.768c-.035.461-.4.627-.822.627h-7.981c-.491,0-1.058-.053-1.023-.739s.591-.739,1.094-.692c2.2.207,2.311-1.182,2.282-2.82-.059-2.855-.071-5.711,0-8.566.053-1.839-.337-3.145-2.53-3.056-.5,0-1.04-.047-1.076-.7-.041-.839.591-.845,1.182-.887h.591c4.913-.39,4.913-.39,4.913,4.511Z" transform="translate(-61.354 -16.268)" fill="#cc0404"/>
    <path id="Path_435" data-name="Path 435" d="M311.5,242.093a2.049,2.049,0,0,1-2.282-1.945,1.915,1.915,0,0,1,1.957-2.122,1.862,1.862,0,0,1,2.14,1.9A1.942,1.942,0,0,1,311.5,242.093Z" transform="translate(-63.13 -9.36)" fill="#ce1010"/>
  </g>
</svg>
