<svg xmlns="http://www.w3.org/2000/svg" width="58.623" height="57.085" viewBox="0 0 58.623 57.085">
  <g id="kubernets" transform="translate(-0.532 -0.165)">
    <path id="Path_45" data-name="Path 45" d="M22.347,59.141a4.471,4.471,0,0,1-3.525-1.706L5.555,40.946a4.45,4.45,0,0,1-.872-3.866L9.421,16.5a4.483,4.483,0,0,1,2.464-3.07l19.18-9.173a4.5,4.5,0,0,1,3.942,0l19.18,9.135a4.484,4.484,0,0,1,2.464,3.07L61.39,37.042a4.573,4.573,0,0,1-.872,3.866L47.251,57.4A4.589,4.589,0,0,1,43.726,59.1l-21.378.038Z" transform="translate(-3.098 -2.8)" fill="#326de6"/>
    <path id="Path_46" data-name="Path 46" d="M29.9,1.947a3.707,3.707,0,0,1,1.554.341l19.18,9.135a3.681,3.681,0,0,1,1.971,2.464l4.738,20.582a3.544,3.544,0,0,1-.72,3.108L43.356,54.066a3.612,3.612,0,0,1-2.843,1.364H19.249a3.611,3.611,0,0,1-2.843-1.364L3.139,37.577a3.794,3.794,0,0,1-.72-3.108L7.157,13.887a3.62,3.62,0,0,1,1.971-2.464L28.308,2.25a4.564,4.564,0,0,1,1.592-.3Zm0-1.782A5.738,5.738,0,0,0,27.55.7L8.37,9.869a5.368,5.368,0,0,0-2.957,3.677L.675,34.128a5.375,5.375,0,0,0,1.061,4.625L15,55.242a5.355,5.355,0,0,0,4.208,2.009H40.475a5.355,5.355,0,0,0,4.208-2.009L57.95,38.753a5.347,5.347,0,0,0,1.061-4.625L54.273,13.546a5.368,5.368,0,0,0-2.956-3.677L32.212.7A5.438,5.438,0,0,0,29.9.165Z" transform="translate(0 0)" fill="#fff"/>
    <path id="Path_47" data-name="Path 47" d="M80.332,62.236h-.038c-.038,0-.076,0-.076-.038-.076,0-.151-.038-.227-.038a5.184,5.184,0,0,0-.72-.076,1.416,1.416,0,0,1-.379-.038h-.038a10,10,0,0,1-2.047-.341.739.739,0,0,1-.417-.417c0-.038-.038-.038-.038-.076l-.493-.151a14.994,14.994,0,0,0-.265-5.345,15.618,15.618,0,0,0-2.123-4.966l.379-.341v-.076a.857.857,0,0,1,.189-.569,11.06,11.06,0,0,1,1.706-1.175c.114-.076.227-.114.341-.19a5.673,5.673,0,0,0,.644-.379c.038-.038.114-.076.19-.151.038-.038.076-.038.076-.076a1.266,1.266,0,0,0,.265-1.706,1.078,1.078,0,0,0-.872-.417,1.409,1.409,0,0,0-.834.3l-.076.076c-.076.038-.114.114-.19.152a6.259,6.259,0,0,0-.493.531,1.742,1.742,0,0,1-.265.265,9.636,9.636,0,0,1-1.516,1.365.611.611,0,0,1-.341.114.479.479,0,0,1-.227-.038h-.076l-.455.3a18.423,18.423,0,0,0-1.554-1.44,15.138,15.138,0,0,0-7.922-3.146l-.038-.493-.076-.076a.793.793,0,0,1-.3-.493,13.316,13.316,0,0,1,.114-2.047v-.038a1.349,1.349,0,0,1,.076-.379c.038-.227.076-.455.114-.72v-.341a1.157,1.157,0,0,0-2.009-.872,1.2,1.2,0,0,0-.341.872v.3a2.209,2.209,0,0,0,.114.72c.038.114.038.227.076.379v.038a9.8,9.8,0,0,1,.114,2.047.793.793,0,0,1-.3.493l-.076.076-.038.493a19.006,19.006,0,0,0-2.047.3,14.614,14.614,0,0,0-7.505,4.245l-.379-.265h-.076c-.076,0-.152.038-.227.038a.612.612,0,0,1-.341-.114,10.049,10.049,0,0,1-1.516-1.4,1.742,1.742,0,0,0-.265-.265,6.27,6.27,0,0,0-.493-.531c-.038-.038-.114-.076-.189-.152-.038-.038-.076-.038-.076-.076a1.325,1.325,0,0,0-.834-.3,1.078,1.078,0,0,0-.872.417,1.266,1.266,0,0,0,.265,1.706c.038,0,.038.038.076.038.076.038.114.114.19.151a5.748,5.748,0,0,0,.644.379,1.529,1.529,0,0,1,.341.19,11.051,11.051,0,0,1,1.706,1.175.7.7,0,0,1,.19.568V50.3l.379.341a1.339,1.339,0,0,0-.19.3,14.763,14.763,0,0,0-2.123,10.007l-.493.151c0,.038-.038.038-.038.076a.88.88,0,0,1-.417.417,9.564,9.564,0,0,1-2.047.341h-.038a1.29,1.29,0,0,0-.379.038,5.182,5.182,0,0,0-.72.076c-.076,0-.151.038-.227.038a.14.14,0,0,0-.114.038,1.243,1.243,0,0,0-.985,1.4,1.168,1.168,0,0,0,1.213.872.831.831,0,0,0,.3-.038c.038,0,.076,0,.076-.038.076,0,.151-.038.227-.038a3.632,3.632,0,0,0,.683-.265c.114-.038.227-.114.341-.151h.038a9.3,9.3,0,0,1,1.971-.569h.076a.842.842,0,0,1,.493.19c.038,0,.038.038.076.038l.531-.076a14.993,14.993,0,0,0,4.966,7.126,15.373,15.373,0,0,0,1.63,1.1l-.227.493c0,.038.038.038.038.076a.779.779,0,0,1,.076.607,10.665,10.665,0,0,1-.985,1.782v.038c-.076.114-.151.19-.227.3-.152.19-.266.379-.417.607a.825.825,0,0,0-.114.19.132.132,0,0,1-.038.076,1.2,1.2,0,0,0,.493,1.63,1.01,1.01,0,0,0,.455.114,1.363,1.363,0,0,0,1.137-.72.132.132,0,0,1,.038-.076.836.836,0,0,1,.114-.19,7.118,7.118,0,0,0,.227-.682l.114-.341a8.912,8.912,0,0,1,.8-1.9.974.974,0,0,1,.493-.341c.038,0,.038,0,.076-.038L56,72.812A14.808,14.808,0,0,0,61.3,73.8a13.762,13.762,0,0,0,3.3-.379,16.845,16.845,0,0,0,1.971-.569l.227.417c.038,0,.038,0,.076.038a.7.7,0,0,1,.493.341,12.979,12.979,0,0,1,.8,1.9v.038l.114.341a4.8,4.8,0,0,0,.227.682c.038.076.076.114.114.19a.132.132,0,0,0,.038.076,1.287,1.287,0,0,0,1.137.72,1.01,1.01,0,0,0,.455-.114,1.13,1.13,0,0,0,.569-.682,1.372,1.372,0,0,0-.076-.948c0-.038-.038-.038-.038-.076a.835.835,0,0,0-.114-.19,3.439,3.439,0,0,0-.417-.607c-.076-.114-.151-.189-.227-.3v-.038a8.486,8.486,0,0,1-.986-1.782A1.057,1.057,0,0,1,69,72.243c0-.038.038-.038.038-.076l-.19-.455a15.035,15.035,0,0,0,6.6-8.3l.455.076c.038,0,.038-.038.076-.038a.965.965,0,0,1,.493-.189h.076a9.3,9.3,0,0,1,1.971.568h.038c.114.038.227.114.341.151a3.652,3.652,0,0,0,.682.266c.076,0,.151.038.227.038a.139.139,0,0,1,.114.038.836.836,0,0,0,.3.038,1.276,1.276,0,0,0,1.213-.872,1.459,1.459,0,0,0-1.1-1.251Zm-17.55-1.857-1.668.8-1.668-.8L59.03,58.6l1.137-1.44h1.857l1.137,1.44-.379,1.781Zm9.893-3.942a11.953,11.953,0,0,1,.265,3.828l-5.8-1.668a1.027,1.027,0,0,1-.72-1.213.9.9,0,0,1,.227-.417l4.587-4.132a12.156,12.156,0,0,1,1.44,3.6Zm-3.26-5.875L64.45,54.087a1.01,1.01,0,0,1-1.327-.227.845.845,0,0,1-.19-.417l-.341-6.179a11.505,11.505,0,0,1,6.823,3.3ZM58.423,47.453c.417-.076.8-.151,1.213-.227l-.341,6.065a1.037,1.037,0,0,1-1.024.985.9.9,0,0,1-.455-.114l-5.041-3.6a11.563,11.563,0,0,1,5.648-3.108Zm-7.467,5.383,4.511,4.018a1.009,1.009,0,0,1,.114,1.4.756.756,0,0,1-.455.3L49.25,60.265A12.2,12.2,0,0,1,50.956,52.835ZM49.932,63.108l6.027-1.024a1.022,1.022,0,0,1,1.061.8,1.084,1.084,0,0,1-.038.607L54.67,69.059a11.949,11.949,0,0,1-4.738-5.951Zm13.836,7.543a12.379,12.379,0,0,1-2.654.3,12.838,12.838,0,0,1-3.828-.606l2.994-5.42a1,1,0,0,1,1.213-.265,1.616,1.616,0,0,1,.455.417l2.919,5.269c-.341.114-.72.19-1.1.3Zm7.391-5.269a12.034,12.034,0,0,1-3.639,3.677l-2.388-5.724a1.02,1.02,0,0,1,.531-1.175,1.211,1.211,0,0,1,.531-.114l6.065,1.024A7.631,7.631,0,0,1,71.159,65.382Z" transform="translate(-31.214 -29.397)" fill="#fff"/>
  </g>
</svg>
