<svg xmlns="http://www.w3.org/2000/svg" width="129.084" height="54.413" viewBox="0 0 129.084 54.413">
  <g id="Group_135" data-name="Group 135" transform="translate(-1223.376 -499.053)">
    <path id="Path_9" data-name="Path 9" d="M232.478,50.954c.761-3.35,2.912-4.628,5.82-5.208,4.288-.854,6.535-4.059,8.253-7.762a2.577,2.577,0,0,1,.663.259c5.374,4.471,8.12,15.142,5.577,21.636-1.841,4.7-8.071,8.753-13.426,8.546.114-1.326.284-2.643.325-3.963.049-1.581.015-3.166-.03-4.749-.108-3.824-.964-6.8-6.087-8.175a5.393,5.393,0,0,1-1.1-.585" transform="translate(1091.366 477.484)" fill="#fc8200"/>
    <path id="Path_10" data-name="Path 10" d="M143.866,99.559a9.52,9.52,0,0,1-1.11.361c-3.779.609-4.062.367-4.064-3.422,0-3.528-.026-7.057,0-10.585a3.049,3.049,0,0,0-2.324-3.228c-1.808-.552-2.664.166-2.683,2.064-.043,4.39-.211,8.782-.145,13.17.043,2.859-1.946,2-3.436,2.152-1.824.18-1.972-.73-1.933-2.354.109-4.459-.13-8.924-.119-13.387,0-1.913-1.212-1.827-2.459-1.777s-2.377.018-2.328,1.954c.116,4.531-.127,9.071-.015,13.6.064,2.586-1.8,1.945-3.094,2.083-1.361.145-2.279-.378-2.247-2.09.091-4.9.062-9.793.038-14.689-.008-1.623.7-2.383,2.332-2.372,6.524.044,13.049.026,19.573.107,2.363.029,3.97,1.849,4,4.485.055,4.6.016,9.2.016,13.928" transform="translate(1156.425 453.036)" fill="#ff8107"/>
    <path id="Path_11" data-name="Path 11" d="M230.638,54.322c-.452-1.71-.186-2.523,1.716-2.912,9.663-1.975,15.021-7.2,16.45-16.157,1.091-6.841-1.138-12.95-5.017-18.469a42.756,42.756,0,0,0-10.91-10.5c.182,2.019.431,3.681.464,5.347.093,4.709-2.022,7.619-6.549,8.535a9.55,9.55,0,0,0-7.4,6.233c-.731,1.848-1.612,2.139-3.179,1.2.328-4.1,4.287-9.059,8.5-9.755,5.745-.949,6.428-4.181,5.536-8.917A82.8,82.8,0,0,0,227.527,0c1.1.554,2.179,1.007,3.169,1.6,8.912,5.348,16.409,12.047,19.74,22.258,4.35,13.333-1.13,27.477-18.549,30.454a7.607,7.607,0,0,1-1.249.009" transform="translate(1100.602 499.054)" fill="#073e7b"/>
    <path id="Path_12" data-name="Path 12" d="M79.25,99.9H73.233V92.691H63.166v7.081H57.187V80.324c.672-.033,1.36-.1,2.05-.1q7.127-.011,14.255,0c3.807.005,5.738,1.9,5.754,5.684.019,4.591,0,9.183,0,13.987m-6.113-9.816c0-1.771.04-3.28-.011-4.785A2.609,2.609,0,0,0,70.49,82.47a58.363,58.363,0,0,0-6.043.025c-.464.025-1.264.612-1.284.975-.121,2.195-.06,4.4-.06,6.613Z" transform="translate(1190.903 453.5)" fill="#074081"/>
    <path id="Path_13" data-name="Path 13" d="M196.377,91.341v8.608c-1.83,0-3.52.064-5.2-.051a1.476,1.476,0,0,1-.949-1.078c-.06-6.094-.042-12.19-.042-18.6,1.1,0,2,0,2.9,0q6.792.01,13.583.023c3.5.01,4.709,1.194,4.725,4.606.028,5.865-.6,6.491-6.552,6.488-2.718,0-5.437,0-8.468,0m.4-2.347c1.347,0,2.71-.014,4.072,0,4.908.06,4.508.606,4.391-5.008-.01-.5-.612-1.4-.96-1.412-2.5-.079-5,.026-7.5.071q-.137,2.957-.268,5.913c0,.057.07.118.27.433" transform="translate(1115.383 453.5)" fill="#074081"/>
    <path id="Path_14" data-name="Path 14" d="M.034,80.474H5.976c0,4.682,0,9.257,0,13.832,0,3.488,0,3.492,3.431,3.5,3.657,0,7.313,0,11.143,0,.056.745.1,1.344.138,1.843-.263.2-.374.355-.486.356-5.532.041-11.063.11-16.595.077A3.215,3.215,0,0,1,.091,96.967C-.073,91.529.034,86.084.034,80.474" transform="translate(1223.376 453.357)" fill="#074081"/>
  </g>
</svg>
