<svg xmlns="http://www.w3.org/2000/svg" width="138.115" height="36.616" viewBox="0 0 138.115 36.616">
  <path id="laravel-ar21" d="M39.266,52.258a.829.829,0,0,1-.713-.4L32.286,41.4,20.565,44.59a.829.829,0,0,1-.926-.416L5.941,18.425a.829.829,0,0,1,.62-1.211l11.63-1.563a.829.829,0,0,1,.824.393l14.027,23.43,16.315-4.438-5.44-7.683a.829.829,0,0,1,.463-1.285l7.632-1.8a.829.829,0,0,1,.838.287L59.454,32.8a.829.829,0,0,1-.43,1.319l-6.937,1.892,6.074,8.544a.829.829,0,0,1-.4,1.262L39.529,52.207a.829.829,0,0,1-.264.051Zm-5.32-11.311,5.681,9.475,16.556-5.8L50.4,36.476ZM7.965,18.687,20.784,42.813l10.639-2.887L17.874,17.366ZM46.007,27.4l5.1,7.174,6.327-1.721L51.93,26Zm22.171-2.5h1.658V42.673H68.185Zm17.852,4.952V42.673H84.4V40.454a7.1,7.1,0,0,1-2.328,1.9A6.5,6.5,0,0,1,74.6,41.014a6.618,6.618,0,0,1-1.927-4.8,6.5,6.5,0,0,1,1.945-4.739,6.338,6.338,0,0,1,4.691-1.968,6.064,6.064,0,0,1,2.859.672,6.5,6.5,0,0,1,2.246,2.015V29.846Zm-6.593,1.275a4.986,4.986,0,0,0-4.4,2.577,5.2,5.2,0,0,0,0,5.181A5.056,5.056,0,0,0,76.9,40.8a4.871,4.871,0,0,0,2.512.689,5.152,5.152,0,0,0,2.566-.683,4.777,4.777,0,0,0,1.864-1.849,5.279,5.279,0,0,0,.654-2.64A5.1,5.1,0,0,0,83.034,32.6a4.858,4.858,0,0,0-3.6-1.48Zm9.681-1.275h1.686v1.875A6.108,6.108,0,0,1,92.4,30.069a3.137,3.137,0,0,1,1.744-.548,3.009,3.009,0,0,1,1.466.437l-.865,1.4a2.3,2.3,0,0,0-.893-.223,2.385,2.385,0,0,0-1.593.677,4.285,4.285,0,0,0-1.173,2.1,21.05,21.05,0,0,0-.293,4.43v4.339H89.108Zm20.658,0V42.673H108.15V40.454a7.1,7.1,0,0,1-2.328,1.9,6.5,6.5,0,0,1-7.471-1.338,6.618,6.618,0,0,1-1.927-4.8,6.5,6.5,0,0,1,1.947-4.739,6.338,6.338,0,0,1,4.691-1.968,6.064,6.064,0,0,1,2.859.672,6.5,6.5,0,0,1,2.246,2.015V29.846Zm-6.593,1.275a4.986,4.986,0,0,0-4.4,2.577,5.2,5.2,0,0,0,0,5.181,5.056,5.056,0,0,0,1.864,1.923,4.871,4.871,0,0,0,2.512.689,5.152,5.152,0,0,0,2.566-.683,4.777,4.777,0,0,0,1.864-1.849,5.279,5.279,0,0,0,.654-2.64,5.1,5.1,0,0,0-1.465-3.734,4.858,4.858,0,0,0-3.595-1.48Zm9.1-1.275h1.76l4.305,9.347,4.259-9.347h1.76L118.5,42.674H118.2Zm25.385,8.569,1.4.731a7.574,7.574,0,0,1-1.58,2.17,6.274,6.274,0,0,1-2.017,1.255,7.039,7.039,0,0,1-2.536.431,6.16,6.16,0,0,1-4.909-2.04,6.937,6.937,0,0,1-1.76-4.651,6.79,6.79,0,0,1,1.5-4.336,6.121,6.121,0,0,1,5.084-2.428,6.325,6.325,0,0,1,5.237,2.487,6.914,6.914,0,0,1,1.4,4.4H127.941a5.222,5.222,0,0,0,1.428,3.662,4.552,4.552,0,0,0,3.41,1.428,5.483,5.483,0,0,0,1.906-.34,5.088,5.088,0,0,0,1.575-.9,7.69,7.69,0,0,0,1.4-1.839Zm0-3.443a5.458,5.458,0,0,0-.961-2.108,4.552,4.552,0,0,0-1.668-1.273,5.118,5.118,0,0,0-2.173-.485,4.693,4.693,0,0,0-3.245,1.214,5.539,5.539,0,0,0-1.5,2.64Zm4.642-10.064h1.651V42.687h-1.651Z" transform="translate(-5.844 -15.643)" fill="#ef533f"/>
</svg>
