<svg xmlns="http://www.w3.org/2000/svg" width="123.128" height="38.105" viewBox="0 0 123.128 38.105">
  <g id="launchpad" transform="translate(-2.835 -67.429)">
    <path id="Path_537" data-name="Path 537" d="M2.868,110.2H23.155v-3.7l.006-.016-.352.161-.439-.085s-.087,1.416-4.848,1.314a35.263,35.263,0,0,1-7.3-.781l-.869.429-1.135-.141.89-.525s-6.517-1.424-5.655-3.27l-.595-.136.009,6.749Z" transform="translate(-0.008 -12.315)" fill="#8597bd"/>
    <path id="Path_538" data-name="Path 538" d="M45.563,67.429h2.483V97.795H45.563ZM58.51,97.795v-17.8c0-2.64-.968-3.551-3.746-3.551-2.736,0-3.7.91-3.7,3.46v2.731h2.483V78.9h2.483v7.42a3.83,3.83,0,0,0-2.694-1.229,2.088,2.088,0,0,0-1.978,1.092,3.536,3.536,0,0,0-.253,1.776v7.42c.041,1.775.715,2.64,2.231,2.64a4.118,4.118,0,0,0,2.694-1.229v1H58.51ZM53.544,87.551h2.483v8.012H53.544ZM66.328,97.795h2.483V76.671H66.328V95.564H63.844V76.671H61.361V95.382c.042,1.82.715,2.64,2.23,2.64a3.751,3.751,0,0,0,2.736-1.229v1h0Zm8.081-21.123H71.925V97.795h2.483V78.9h2.483V97.795h2.483V79.084c0-1.822-.715-2.64-2.231-2.64a3.751,3.751,0,0,0-2.736,1.228v-1Zm15.27,5.964V79.9c0-2.55-.969-3.46-3.747-3.46a4.675,4.675,0,0,0-2.863.773c-.631.546-.842,1.184-.842,2.731V94.471c0,2.642.969,3.551,3.747,3.551,2.693,0,3.7-.91,3.7-3.505V90.648H87.194v4.916H84.711V78.9h2.483v3.733h2.484Zm5.049-15.206H92.243V97.795h2.484V78.9h2.483V97.795h2.482V79.084c0-1.822-.716-2.64-2.232-2.64a3.746,3.746,0,0,0-2.734,1.228V67.429Zm10.427,38.105V96.794a3.752,3.752,0,0,0,2.737,1.229,2.079,2.079,0,0,0,1.978-1.138c.211-.455.252-.682.252-2.323V79.312c0-2.049-.631-2.867-2.273-2.867a3.558,3.558,0,0,0-2.694,1.228v-1h-2.483v28.863h2.483Zm0-26.633h2.483V95.564h-2.483V78.9Zm15.269,18.893v-17.8c0-2.64-.968-3.551-3.744-3.551-2.737,0-3.706.91-3.706,3.46v2.731h2.483V78.9h2.484v7.42a3.833,3.833,0,0,0-2.694-1.229,2.091,2.091,0,0,0-1.978,1.092,3.534,3.534,0,0,0-.253,1.776v7.42c.042,1.775.716,2.64,2.232,2.64a4.12,4.12,0,0,0,2.694-1.229v1h2.482Zm-4.967-10.243h2.484v8.012h-2.484Zm12.785-20.122V77.672a3.682,3.682,0,0,0-2.737-1.228,2.122,2.122,0,0,0-1.978,1.138c-.209.455-.252.683-.252,2.322v15.2a3.547,3.547,0,0,0,.252,1.776,2.145,2.145,0,0,0,2.022,1.138,3.552,3.552,0,0,0,2.693-1.229v1h2.483V67.429ZM125.759,78.9h2.482V95.564h-2.482Z" transform="translate(-14.607)" fill="#75738b"/>
    <path id="Path_539" data-name="Path 539" d="M5.09,90.421a6.383,6.383,0,0,1,1.832-.035,5.044,5.044,0,0,0-1.942.712l.977.178-.716.215L4.6,91.4S3.743,92.59,9.79,94.1l.7-.39,1.167.163-.775.429s7.8,1.474,10.166-.271L20,93.878l.71-.255.658.118s.438-.729-2.224-1.88a9.167,9.167,0,0,1,1.351.341l.024-.015a1.576,1.576,0,0,0-.868-1.8A1.771,1.771,0,0,1,19.2,91l-.188-.186a1.151,1.151,0,0,0-.126-1.7,1.405,1.405,0,0,0-1.744-.122,1.149,1.149,0,0,1-.041,1.173l-.219-.153a.941.941,0,0,0-1.645-.847l-.2-.118a1.143,1.143,0,0,1,1.473-.592,1.854,1.854,0,0,1,.434.294l.02-.007a1.678,1.678,0,0,1,2.209-.12,1.281,1.281,0,0,1,.594,1.221,1.69,1.69,0,0,1,1.1.762.99.99,0,0,0-.032-1.272.842.842,0,0,0-.955-.288l-.11-.238a1.146,1.146,0,0,1,1.645.611,1.166,1.166,0,0,1-.407,1.473,1.809,1.809,0,0,1,.011,1.472l.005.038c.744.321,1.44.8,1.5,1.49l.611.1.01-.015V67.461h-3.5L16.225,87.02l-.164-.055,2.371-19.5H16.438L13.423,88.721l-.165-.049,1.947-21.21H13.563L11.507,84.278l-.167-.043.969-16.773H2.859L2.835,90.929l.532-.186.58.118a2.12,2.12,0,0,1,.765-.352l.009-.005a2.552,2.552,0,0,1,.636-2.676,2.441,2.441,0,0,1,2.24-.643,1.957,1.957,0,0,1,1.41-1.05A2.144,2.144,0,0,1,11.341,87.9l-.3.067a1.773,1.773,0,0,0-1.926-1.135,1.9,1.9,0,0,0-1.441,2.05l-.282.085A2.63,2.63,0,0,1,7.331,87.9a2.031,2.031,0,0,0-1.551.576,2.288,2.288,0,0,0-.694,1.945l0,0Z" transform="translate(0 -0.011)" fill="#234b8d"/>
    <path id="Path_540" data-name="Path 540" d="M14.759,100.42l.172.135a1.188,1.188,0,0,1,1.6-.321,1.127,1.127,0,0,1,.423,1.508l.188.118a1.431,1.431,0,0,0-.392-2.151A1.416,1.416,0,0,0,14.759,100.42Z" transform="translate(-4.076 -10.977)" fill="#fff"/>
    <path id="Path_541" data-name="Path 541" d="M177.766,67.66H181.2v.507h-1.431V71.89H179.2V68.167h-1.43Zm7.446,4.23v-2.5c0-.124.013-.659.013-1.055h-.013l-1.191,3.553h-.565l-1.191-3.547h-.012c0,.389.012.925.012,1.049v2.5h-.554v-4.23h.82l1.207,3.576h.013l1.2-3.576h.812v4.23h-.553Z" transform="translate(-59.803 -0.079)" fill="#75738b"/>
  </g>
</svg>
