<svg xmlns="http://www.w3.org/2000/svg" width="64.143" height="56.439" viewBox="0 0 64.143 56.439">
  <g id="MATIC" transform="translate(0 0.1)">
    <path id="Path_505" data-name="Path 505" d="M48.568,17.15a4.267,4.267,0,0,0-4.019,0L35.17,22.677l-6.364,3.517L19.595,31.72a4.267,4.267,0,0,1-4.019,0l-7.2-4.354a4.082,4.082,0,0,1-2.01-3.517V15.475a4.131,4.131,0,0,1,2.01-3.517l7.2-4.187a4.267,4.267,0,0,1,4.019,0l7.2,4.354a4.082,4.082,0,0,1,2.01,3.517v5.527l6.364-3.684V11.791a4.131,4.131,0,0,0-2.01-3.517L19.762.4a4.267,4.267,0,0,0-4.019,0L2.01,8.441A3.684,3.684,0,0,0,0,11.791V27.534a4.131,4.131,0,0,0,2.01,3.517l13.566,7.871a4.267,4.267,0,0,0,4.019,0l9.211-5.359,6.364-3.684,9.211-5.359a4.267,4.267,0,0,1,4.019,0l7.2,4.187a4.082,4.082,0,0,1,2.01,3.517V40.6a4.131,4.131,0,0,1-2.01,3.517L48.568,48.3a4.267,4.267,0,0,1-4.019,0l-7.2-4.187a4.082,4.082,0,0,1-2.01-3.517V35.237l-6.364,3.684v5.527a4.131,4.131,0,0,0,2.01,3.517l13.566,7.871a4.267,4.267,0,0,0,4.019,0l13.566-7.871a4.082,4.082,0,0,0,2.01-3.517V28.538a4.131,4.131,0,0,0-2.01-3.517Z" transform="translate(0 0)" fill="#8247e5"/>
  </g>
</svg>
