<svg xmlns="http://www.w3.org/2000/svg" width="142.593" height="41.893" viewBox="0 0 142.593 41.893">
  <g id="Group_133" data-name="Group 133" transform="translate(-1467.791 -282.373)">
    <path id="Path_2" data-name="Path 2" d="M4.022.8V-10.963H1.015v-3.157H7.571v2.279A10.148,10.148,0,0,1,13.855-14.4a4.264,4.264,0,0,1,4.27,2.82q3.53-2.82,6.575-2.82a4.993,4.993,0,0,1,2.886.775,3.794,3.794,0,0,1,1.522,1.961,11.829,11.829,0,0,1,.392,3.5V.8h3.157V3.961H25.95V-7.526a11.908,11.908,0,0,0-.14-2.213A1.759,1.759,0,0,0,25.1-10.8a2.248,2.248,0,0,0-1.373-.42q-2.279,0-5.174,2.335V.8h3.1V3.961H15.005V-7.862a4.9,4.9,0,0,0-.512-2.568,1.913,1.913,0,0,0-1.742-.794q-2.012,0-5.179,2.335V.8h3.175V3.961H.791V.8Z" transform="translate(1467 308.538)"/>
    <path id="Path_1" data-name="Path 1" d="M18.086-4.574H4.582A7.154,7.154,0,0,0,6.3.357a5.924,5.924,0,0,0,4.52,1.737A9.4,9.4,0,0,0,16.76-.036V2.841a11.1,11.1,0,0,1-6.668,1.83A8.084,8.084,0,0,1,3.722,2.066Q1.406-.54,1.406-5.265a10.459,10.459,0,0,1,2.531-7.275,8.115,8.115,0,0,1,6.285-2.811,7.191,7.191,0,0,1,5.809,2.428,10.124,10.124,0,0,1,2.055,6.743Zm-3.138-2.6A6.232,6.232,0,0,0,13.668-11.3a4.359,4.359,0,0,0-3.5-1.476,4.948,4.948,0,0,0-3.68,1.55A7.035,7.035,0,0,0,4.619-7.171Z" transform="translate(1505.422 308.277)"/>
    <g id="angular-icon" transform="translate(1531.174 282.373)">
      <path id="Path_3" data-name="Path 3" d="M20.559.341.849,7.278,3.964,33.1,20.58,42.234l16.7-9.256L40.4,7.155Z" transform="translate(-0.849 -0.341)" fill="#b3b3b3"/>
      <path id="Path_4" data-name="Path 4" d="M145.227,20.576l-17.917-6.11V51.981l15.015-8.31,2.9-23.095Z" transform="translate(-107.646 -12.27)" fill="#a6120d"/>
      <path id="Path_5" data-name="Path 5" d="M15.073,20.683l2.669,23.1,14.783,8.2V14.462l-17.452,6.22Z" transform="translate(-12.861 -12.266)" fill="#dd1b16"/>
      <path id="Path_6" data-name="Path 6" d="M66.057,41.836l-4.932,2.306h-5.2l-2.443,6.112-4.545.084L61.125,23.227l4.932,18.609Zm-.477-1.161-4.422-8.755-3.628,8.6h3.595l4.455.151Z" transform="translate(-41.461 -19.668)" fill="#f2f2f2"/>
      <path id="Path_7" data-name="Path 7" d="M127.309,23.226l.033,8.693,4.116,8.611h-4.139l-.009,3.606,5.724.005,2.675,6.2,4.349.081Z" transform="translate(-107.645 -19.667)" fill="#b3b3b3"/>
    </g>
    <path id="Path_8" data-name="Path 8" d="M1397.442,501.549v-22.4l15.038-9.918,15.677,9.918v22.4l-9.918-5.119V484.272l-5.759-3.519-4.8,3.519V496.43l-.387.193Z" transform="translate(181.726 -183.83)" stroke="#000" stroke-width="1"/>
  </g>
</svg>
