<svg xmlns="http://www.w3.org/2000/svg" xmlns:xlink="http://www.w3.org/1999/xlink" width="67.224" height="54.349" viewBox="0 0 67.224 54.349">
  <defs>
    <linearGradient id="linear-gradient" x1="-4.183" y1="0.143" x2="-3.174" y2="0.794" gradientUnits="objectBoundingBox">
      <stop offset="0" stop-color="#909ca9"/>
      <stop offset="1" stop-color="#ededee"/>
    </linearGradient>
    <linearGradient id="linear-gradient-2" x1="-8.133" y1="37.388" x2="-6.64" y2="37.388" gradientUnits="objectBoundingBox">
      <stop offset="0" stop-color="#939fab"/>
      <stop offset="1" stop-color="#dcdee1"/>
    </linearGradient>
    <radialGradient id="radial-gradient" cx="0.443" cy="0.439" r="0.128" gradientUnits="objectBoundingBox">
      <stop offset="0" stop-color="#ee352c"/>
      <stop offset="1" stop-color="#a91d22"/>
    </radialGradient>
  </defs>
  <g id="microsoft-sql-server-logo-svgrepo-com" transform="translate(0 0.001)">
    <g id="Group_121" data-name="Group 121" transform="translate(24.192 -0.001)">
      <path id="Path_389" data-name="Path 389" d="M353.9,463.277l-7.424,2.424-6.459,2.851-1.807.477c-.46.438-.943.881-1.465,1.33-.572.494-1.105.943-1.515,1.268a11.3,11.3,0,0,0-1.47,1.459,6.614,6.614,0,0,0-1.089,1.841,3.09,3.09,0,0,0,.438,2.778,9.839,9.839,0,0,0,4.057,3.047,25.778,25.778,0,0,0,3.569,1.2,47.257,47.257,0,0,0,7.609,1.083,8.728,8.728,0,0,0,.982,0,13.365,13.365,0,0,0,.724-1.375,34.756,34.756,0,0,0,2.632-6.964,33,33,0,0,0,.673-4.826c.039-.544.056-2.368.023-2.985a20.982,20.982,0,0,0-.281-2.632.608.608,0,0,1-.017-.23,9.68,9.68,0,0,1,1-.3l-.185-.438h0Zm-1.695.993a18.172,18.172,0,0,1,.292,2.811,1.5,1.5,0,0,1-.006.382c-.045,0-.948-.533-1.594-.937-.561-.354-1.627-1.061-1.8-1.2-.056-.039-.051-.045.41-.2C350.288,464.865,352.14,464.27,352.2,464.27Zm-3.782,1.246a1.863,1.863,0,0,1,.488.264,34.776,34.776,0,0,0,3.4,1.891c.208.09.23.056-.247.382a24.46,24.46,0,0,1-3.855,2.071c-.275.123-.5.219-.511.219a1.455,1.455,0,0,1,.067-.309,16.546,16.546,0,0,0,.6-3.945c.006-.561.006-.561.056-.578C348.408,465.516,348.414,465.516,348.42,465.516Zm-.78.3a12.1,12.1,0,0,1-.034,1.633,14.281,14.281,0,0,1-.516,2.441,3.736,3.736,0,0,1-.129.393,9.872,9.872,0,0,1-1.044-1.016,7.6,7.6,0,0,1-1.032-1.5,4.727,4.727,0,0,1-.314-.763C344.66,466.936,347.617,465.791,347.64,465.813Zm-3.67,1.442a.021.021,0,0,1,.017.006,1.049,1.049,0,0,1,.084.2A7.583,7.583,0,0,0,345,469.13a9.5,9.5,0,0,0,1.3,1.4c.135.112.258.219.275.236.034.034.045.028-.87.376-1.06.4-2.216.808-3.541,1.234l-.948.309c-.051.017-.034-.011.112-.241a31.558,31.558,0,0,0,2.216-4.467c.1-.247.191-.494.208-.55a.2.2,0,0,1,.123-.146.542.542,0,0,1,.1-.022Zm-1.122.466a12.558,12.558,0,0,1-.55,1.162c-.544,1.061-1.139,2.1-1.936,3.372-.135.219-.264.421-.281.443-.028.039-.039.028-.129-.146a5.146,5.146,0,0,1-.432-1.3,5.239,5.239,0,0,1,.028-1.672c.073-.348.067-.342.236-.426C340.5,468.787,342.825,467.7,342.848,467.721Zm9.68.393v.236a30.528,30.528,0,0,1-.331,4.22c-.034.219-.062.4-.067.4s-.163-.045-.354-.1a14.48,14.48,0,0,1-2.581-1.105,11.424,11.424,0,0,1-1.313-.808c.006-.006.241-.129.516-.275a33.068,33.068,0,0,0,3.069-1.8c.342-.23.859-.6.971-.7l.09-.067Zm-13.916,1.661c.022,0,.017.045-.017.247-.022.146-.05.415-.062.6a4.152,4.152,0,0,0,.494,2.256,4.669,4.669,0,0,1,.2.426c-.039.034-3.754,1.122-4.921,1.442l-.673.185c-.039.011-.045.006-.028-.09a5.9,5.9,0,0,1,1.633-2.811,7.258,7.258,0,0,1,1.846-1.414c.572-.325,1.453-.814,1.521-.836C338.6,469.775,338.605,469.775,338.611,469.775Zm8.754,1.566a2.263,2.263,0,0,1,.3.163,16.906,16.906,0,0,0,4.3,1.672l.129.028-.18.1c-.746.415-3.2,1.437-5.707,2.374-.365.135-.724.269-.791.3a.4.4,0,0,1-.129.039c0-.006.1-.2.23-.443a27.693,27.693,0,0,0,1.768-4.023c.045-.107.073-.2.079-.208Zm-.892.292a1.61,1.61,0,0,1-.1.258,35.533,35.533,0,0,1-1.947,3.922c-.208.37-.382.668-.387.668s-.174-.1-.376-.225a11.539,11.539,0,0,1-2.935-2.5l-.1-.123.511-.14a36.633,36.633,0,0,0,4.927-1.7C346.287,471.705,346.467,471.632,346.472,471.632Zm5.544,1.936h0c.006.129-.281,1.285-.516,2.121-.2.7-.365,1.251-.673,2.222-.135.427-.252.78-.258.78a.372.372,0,0,1-.073-.017,23.453,23.453,0,0,1-4.562-1.285c-.393-.157-.954-.41-.988-.438a6.554,6.554,0,0,1,.752-.354c2.553-1.117,5.2-2.385,6.111-2.929A.732.732,0,0,1,352.016,473.568Zm-12.8.438c.011.011-.7,1.038-1.7,2.435-.348.488-.752,1.061-.9,1.274s-.382.55-.511.752l-.236.365-.253-.213a9.346,9.346,0,0,1-1.044-1.066,4.605,4.605,0,0,1-.937-1.812c-.062-.269-.062-.4-.006-.421.084-.022,1.582-.376,2.985-.7.78-.18,1.683-.393,2.009-.471S339.211,474.006,339.217,474.006Zm.718.275.18.2a10.537,10.537,0,0,0,2.632,2.155,1.474,1.474,0,0,1,.3.2c-.039.028-3.468,1.246-5.056,1.8-.892.314-1.627.567-1.633.567a.962.962,0,0,1-.112-.073l-.1-.073.163-.236c.527-.763,1.19-1.6,2.632-3.339l.993-1.2Zm4.478,3.2c.006-.006.252.084.555.2a17.957,17.957,0,0,0,2.082.645,23.041,23.041,0,0,0,3.148.544c.123.011.191.022.168.039-.039.022-.864.3-1.47.488-.965.3-3.911,1.173-6.313,1.863-.443.129-.825.236-.847.241a.445.445,0,0,1-.241-.062,4.062,4.062,0,0,1,.3-.376A33.314,33.314,0,0,0,344.071,478C344.256,477.721,344.413,477.491,344.413,477.485Zm-.988.028c.006.006-.393.645-1.089,1.745-.3.466-.629.993-.746,1.178s-.281.46-.376.617l-.163.286-.084-.022c-.2-.056-1.622-.556-2-.707a13.891,13.891,0,0,1-1.307-.6,5.461,5.461,0,0,1-.965-.612c.011-.006.78-.213,1.706-.466,2.458-.668,3.821-1.055,4.714-1.336a2.242,2.242,0,0,1,.309-.084Zm6.986,1.638h.006c.022.056-.887,2.581-1.218,3.378-.073.18-.1.225-.14.219-.1-.006-1.414-.191-2.217-.309-1.4-.213-3.743-.623-4.332-.758l-.135-.028.836-.191c1.8-.4,2.66-.623,3.535-.892a24.988,24.988,0,0,0,3.305-1.274A2.7,2.7,0,0,1,350.412,479.152Z" transform="translate(-332.512 -445.971)" fill="url(#linear-gradient)"/>
      <path id="Path_390" data-name="Path 390" d="M464.35,82.735a35.675,35.675,0,0,0-3.4,1.223,21.235,21.235,0,0,0-3.911,1.964,2.966,2.966,0,0,0-.757.758.524.524,0,0,0-.034.191l.752.713,1.79.572,4.259.763,4.871.836.051-.421c-.017,0-.028-.006-.045-.006l-.64-.1-.129-.23c-.662-1.167-1.392-2.615-1.818-3.591a18.566,18.566,0,0,1-.819-2.261c-.1-.382-.107-.4-.168-.41h0Zm-.09.286h.006c.005.006.028.163.05.348a11.722,11.722,0,0,0,.544,2.362c.208.617.208.584-.034.511-.572-.157-3.137-.6-4.994-.858-.3-.039-.55-.079-.55-.084-.022-.022,1.341-.735,1.941-1.016C461.994,83.93,464.1,83.049,464.26,83.021Zm-5.409,2.514.219.073a33.448,33.448,0,0,0,5.83,1.111c.185.017.342.034.348.034a2.6,2.6,0,0,1-.354.185c-.8.4-1.672.887-2.278,1.263a2.326,2.326,0,0,1-.365.2c-.022,0-.14-.022-.264-.039l-.224-.034-.561-.55c-.988-.959-1.762-1.7-2.059-1.981Zm-.224.174.791.988c.432.544.87,1.077.965,1.2a1.844,1.844,0,0,1,.168.219c-.022.017-1.145-.2-1.74-.337-.612-.14-.864-.208-1.24-.325l-.309-.1v-.079c.006-.376.483-.937,1.291-1.509Zm6.722,1.347c.022,0,.05.05.118.2.191.421.786,1.554.931,1.773.045.073.123.079-.668-.05-1.9-.309-2.514-.41-2.514-.421a.583.583,0,0,1,.129-.084,10.954,10.954,0,0,0,1.711-1.184c.129-.107.247-.208.269-.225C465.332,87.055,465.344,87.05,465.349,87.055Z" transform="translate(-450.62 -82.734)" fill="url(#linear-gradient-2)"/>
      <path id="Path_391" data-name="Path 391" d="M395.782,167.757a.559.559,0,0,0-.006.488,2.218,2.218,0,0,0,.527.623s2.5,2.435,2.8,2.783a7.8,7.8,0,0,1,2.037,5.331,8.631,8.631,0,0,1-.887,4.035c-1.167,2.548-3.631,5.359-7.429,8.479l.556-.185a17.836,17.836,0,0,1,1.992-1.184,71,71,0,0,1,9.264-4.147,115.542,115.542,0,0,1,18.8-5.039l.511-.079-.079-.123a17.3,17.3,0,0,0-1.128-1.588,13.483,13.483,0,0,0-3.984-3.316,29.546,29.546,0,0,0-8.647-2.9c-.679-.135-2.172-.393-3.384-.578-2.57-.4-4.231-.673-6.06-.988-.656-.112-1.639-.281-2.289-.421a14.535,14.535,0,0,1-1.487-.4C396.489,168.391,395.905,168.234,395.782,167.757Zm1.448,1.4a1.566,1.566,0,0,1,.213.067c.213.073.488.157.814.247q.369.1.741.2c.337.084.617.163.623.163.039.039.606,1.852.8,2.547.073.264.129.488.123.488a1.138,1.138,0,0,1-.14-.219,11.68,11.68,0,0,0-2.9-3.271A2.392,2.392,0,0,1,397.23,169.16Zm2.761.763a2.2,2.2,0,0,1,.3.05c.954.213,2.665.539,3.76.724a1.375,1.375,0,0,1,.331.073.566.566,0,0,1-.152.1c-.185.1-.931.539-1.178.707a10.75,10.75,0,0,0-1.588,1.268c-.163.163-.3.3-.3.3s-.034-.1-.062-.213a18.18,18.18,0,0,0-1-2.75,2.4,2.4,0,0,1-.112-.258C399.985,169.929,399.985,169.923,399.99,169.923Zm4.859.926a2.16,2.16,0,0,1,.2.623,9.187,9.187,0,0,1,.269,2.57c-.011.236-.022.454-.034.483l-.017.056-.292-.1c-.6-.191-1.577-.477-2.413-.713-.477-.129-.864-.247-.864-.258a13.27,13.27,0,0,1,.993-.993A26.046,26.046,0,0,1,404.85,170.849Zm.387.056c.017-.017,2.323.382,3.372.584.78.151,1.914.387,1.981.415.034.011-.084.079-.46.247a24.359,24.359,0,0,0-3.675,2c-.286.191-.527.348-.533.348a3.051,3.051,0,0,1-.011-.359,7.838,7.838,0,0,0-.606-3.053A.85.85,0,0,1,405.237,170.905Zm5.965,1.178a4.221,4.221,0,0,1-.123.741,14.069,14.069,0,0,1-1.414,3.243,3.709,3.709,0,0,1-.236.382,2.393,2.393,0,0,1-.337-.18,18.269,18.269,0,0,0-2.2-1.077c-.224-.1-.421-.174-.426-.185-.039-.034,1.768-1.229,2.721-1.8C409.945,172.746,411.179,172.061,411.2,172.084Zm.426.067c.051,0,1.072.281,1.6.438a33.1,33.1,0,0,1,3.821,1.4l.41.185-.286.067a41.833,41.833,0,0,0-6.47,2c-.163.067-.309.123-.32.123a1.447,1.447,0,0,1,.118-.286,11.363,11.363,0,0,0,1.083-3.737C411.595,172.235,411.611,172.151,411.628,172.151Zm-10.168,2.334c.017-.017.8.168,1.218.286.64.18,2,.634,2,.668,0,.006-.151.135-.331.292-.735.612-1.442,1.257-2.29,2.076-.253.241-.466.438-.477.438s-.017-.034-.011-.079a12.651,12.651,0,0,0-.078-3.384C401.472,174.625,401.455,174.491,401.461,174.485Zm16.391.017a10.771,10.771,0,0,1-.595.926c-.337.483-.831,1.122-1.947,2.525-.589.741-1.251,1.577-1.47,1.857s-.41.516-.415.516a1.934,1.934,0,0,1-.157-.224,11.6,11.6,0,0,0-2.273-2.508c-.168-.14-.353-.292-.415-.337a.624.624,0,0,1-.112-.1c0-.017.954-.427,1.678-.718,1.268-.516,3-1.133,4.293-1.532.679-.213,1.4-.421,1.414-.41Zm.432.112a1.293,1.293,0,0,1,.32.157,19.032,19.032,0,0,1,3.754,2.817c.3.292,1.032,1.055,1.021,1.061s-.258.022-.561.045a55.311,55.311,0,0,0-8.294,1.38c-.2.045-.37.084-.382.084s.208-.219.483-.482a14.357,14.357,0,0,0,3.406-4.534c.129-.275.241-.511.252-.527Zm-12.5,1.279c.079.017.808.359,1.358.634.505.252,1.263.657,1.3.69.006.006-.264.146-.595.309-1.055.527-1.958,1.027-2.9,1.6-.269.163-.494.3-.5.3-.022,0-.017-.023.135-.3a11.717,11.717,0,0,0,1.139-3.092c.022-.084.045-.14.062-.14Zm-.73.135a10.712,10.712,0,0,1-.292,1.083,13.817,13.817,0,0,1-.993,2.278c-.09.157-.224.387-.3.516l-.14.224-.314-.3a4.122,4.122,0,0,0-1.044-.769,1.507,1.507,0,0,1-.269-.157c0-.045.96-.915,1.695-1.543C403.929,176.9,405.041,176.011,405.057,176.028Zm4.461,1.835.275.18a21.329,21.329,0,0,1,1.936,1.431c.32.264.937.819,1.061.954l.067.073-.454.129c-2.57.713-4.556,1.347-6.874,2.2-.258.1-.477.174-.494.174-.034,0-.062.028.516-.505a24.637,24.637,0,0,0,3.771-4.332l.2-.3Zm-1.173.292c.011.011-.758,1.094-1.218,1.706-.55.729-1.526,1.953-2.2,2.749-.281.331-.522.606-.533.612s-.022-.079-.022-.208a4.7,4.7,0,0,0-.477-2.02c-.129-.258-.152-.32-.123-.348.107-.1,1.739-1.027,2.772-1.582C407.24,178.694,408.329,178.144,408.346,178.155Zm-7.093,1.74a2.475,2.475,0,0,1,.292.146,6.164,6.164,0,0,1,.965.651,1.675,1.675,0,0,1-.325.269c-.533.382-1.341.993-1.812,1.369-.494.393-.511.4-.455.32a9.629,9.629,0,0,0,1.223-2.469A.952.952,0,0,1,401.253,179.895Zm1.891,1.481c.028-.006.062.045.213.269a4.048,4.048,0,0,1,.629,1.633l.011.112-.769.3c-1.375.533-2.643,1.061-3.5,1.453-.241.112-.662.314-.937.449s-.5.247-.5.241.174-.135.387-.292a22.628,22.628,0,0,0,4.22-3.889c.118-.14.225-.269.236-.275Zm-.87.213a11.858,11.858,0,0,1-1.055,1.19,18.611,18.611,0,0,1-3.485,2.811l-.337.213c-.039.022.011-.034.595-.668.37-.4.651-.735.971-1.15a1.9,1.9,0,0,1,.561-.533C400.349,182.857,402.252,181.567,402.274,181.589Z" transform="translate(-390.082 -163.891)" fill="url(#radial-gradient)"/>
    </g>
    <path id="Path_392" data-name="Path 392" d="M12.085,794.352c-.1,0-.207.01-.31.01a4.625,4.625,0,0,0-4.325,2.828,7.457,7.457,0,0,0,.008,5.385,4.671,4.671,0,0,0,3.93,2.759c.422.069.705.3,1.523,1.255l1.006,1.179h1.824l-1.213-1.223a12.948,12.948,0,0,1-1.213-1.306c0-.051.257-.164.567-.258a4.169,4.169,0,0,0,2.468-2.313,4.858,4.858,0,0,0,.619-2.485c.18-3.6-1.72-5.858-4.885-5.832Zm1.6,9.426a4.292,4.292,0,0,1-3.018.207,3.892,3.892,0,0,1-2.091-2.245,6.376,6.376,0,0,1,.12-4.11,3.469,3.469,0,0,1,3.294-2.16c2.219,0,3.481,1.359,3.646,3.913.13,2.132-.584,3.732-1.951,4.395ZM45.2,797.431a1.954,1.954,0,0,0-1.746.92l-.31.483v-1.256H41.822v7.535h1.324V802.7c0-2.2.027-2.46.335-3.062A1.653,1.653,0,0,1,45.34,798.6l.473.138v-1.306H45.2Zm-7.781-.069a4.282,4.282,0,0,0-2.53,6.959,4.1,4.1,0,0,0,4.515.644c.3-.128.628-.276.628-.276V803.5l-.628.325c-1.427.621-2.5.621-3.363-.111a3.394,3.394,0,0,1-.9-1.995h5.34v-1.016c0-2.071-1.247-3.379-3.061-3.345h0Zm-2.16,3.3a3.087,3.087,0,0,1,.929-1.8,2,2,0,0,1,1.152-.369,1.842,1.842,0,0,1,1.118.378,2.938,2.938,0,0,1,.783,1.78H35.261v.01Zm-31.93-1.359c-1.436-.87-2.073-1.5-2-2.237.223-2.046,2.751-1.763,4.152-.989L5.5,794.7a5.4,5.4,0,0,0-1.884-.353c-1.7-.026-2.8.532-3.318,1.669-.757,1.677-.087,2.941,2.337,4.351,1.361.792,1.962,1.479,1.962,2.229,0,1.548-1.867,2.089-3.793,1.117-.4-.2-.732-.362-.749-.362a11.891,11.891,0,0,0-.033,1.489,8.229,8.229,0,0,0,1.479.42c2.2.439,4.2-.594,4.393-2.27.165-1.574-.4-2.4-2.561-3.688h0Zm53.592-1.963a4.009,4.009,0,0,0-.819.1,4.412,4.412,0,0,0-1.711,6.854,4.106,4.106,0,0,0,4.524.645c.3-.128.626-.274.626-.274v-1.187l-.627.327c-1.43.619-2.5.619-3.363-.112a3.35,3.35,0,0,1-.9-2h5.331v-1.016c0-2.061-1.247-3.37-3.061-3.335l0,0Zm-2.16,3.3a3.137,3.137,0,0,1,.93-1.807,1.987,1.987,0,0,1,1.151-.37,1.843,1.843,0,0,1,1.118.379,2.956,2.956,0,0,1,.783,1.789H54.764Zm-24.276-1.324c-1.436-.868-2.071-1.5-1.994-2.237.223-2.047,2.752-1.763,4.152-.989l.01-1.377a5.373,5.373,0,0,0-1.884-.351c-1.7-.026-2.8.533-3.319,1.669-.756,1.676-.077,2.941,2.339,4.351,1.359.791,1.961,1.469,1.961,2.219,0,1.548-1.866,2.1-3.792,1.117-.394-.2-.73-.36-.749-.36a11.891,11.891,0,0,0-.033,1.489,9.012,9.012,0,0,0,1.469.42c2.2.44,4.207-.592,4.4-2.268.164-1.566-.4-2.391-2.554-3.682v0Zm34.218-1.91a1.947,1.947,0,0,0-1.746.921l-.31.481v-1.254H61.325v7.532h1.323v-2.408c0-2.2.027-2.46.335-3.061a1.652,1.652,0,0,1,1.859-1.04l.473.138v-1.309H64.7Zm-44.75,1.867v-4.8H18.62v10.629h5.615v-1.255h-4.28V799.28Zm30.879,1.5-1.1,2.864-1.058-2.88L47.6,797.569H46.234c.886,2.511,1.849,5.065,2.82,7.541.421.01.843,0,1.264,0l1.486-3.732,1.514-3.809H52.012s-.577,1.513-1.178,3.207h0Zm-27.8-9.191a.731.731,0,0,0,.542-.217.719.719,0,0,0,.223-.533.707.707,0,0,0-.223-.533.742.742,0,0,0-.533-.207.732.732,0,0,0-.542.215.718.718,0,0,0-.215.533.7.7,0,0,0,.215.533.724.724,0,0,0,.533.207Zm-.473-1.223a.676.676,0,0,1,1.154.473.662.662,0,0,1-.2.481.645.645,0,0,1-.473.189.629.629,0,0,1-.473-.189.662.662,0,0,1-.2-.481A.636.636,0,0,1,22.559,790.362Zm.318.542h.087c.061,0,.121.059.173.172l.1.233H23.4l-.128-.258c-.052-.1-.1-.164-.164-.181a.314.314,0,0,0,.179-.095.237.237,0,0,0,.059-.173.22.22,0,0,0-.077-.181.431.431,0,0,0-.276-.076h-.274v.964h.138v-.4Zm0-.448H23a.308.308,0,0,1,.181.043c.033.026.041.059.041.12,0,.111-.069.164-.2.164h-.148v-.327ZM.82,790.819c0-.335-.01-.585-.018-.732H.81a2.2,2.2,0,0,0,.111.389L2.2,793.34h.215L3.7,790.45a2.61,2.61,0,0,0,.112-.362h.01c-.026.286-.034.534-.034.733v2.528h.439v-3.757h-.55L2.5,792.2c-.043.1-.1.258-.18.464H2.3a3.016,3.016,0,0,0-.172-.446l-1.152-2.64H.391v3.757H.813v-2.519l.007,0Zm4.368.007h.379v2.34H5.188Zm.189-.858a.267.267,0,0,0,.2-.079.274.274,0,0,0,.087-.2.248.248,0,0,0-.086-.2.276.276,0,0,0-.2-.079.27.27,0,0,0-.2.079.277.277,0,0,0-.087.2.237.237,0,0,0,.087.2.284.284,0,0,0,.2.079h0Zm2.89,3.25v-.412a1.089,1.089,0,0,1-.661.232.856.856,0,0,1-.664-.276,1.068,1.068,0,0,1-.249-.74,1.111,1.111,0,0,1,.266-.781.866.866,0,0,1,.671-.284,1.1,1.1,0,0,1,.637.207v-.439a1.311,1.311,0,0,0-.619-.138,1.326,1.326,0,0,0-1.016.4,1.512,1.512,0,0,0-.377,1.065,1.366,1.366,0,0,0,.343.965,1.22,1.22,0,0,0,.929.387,1.515,1.515,0,0,0,.74-.19Zm1.084-1.247a1.214,1.214,0,0,1,.2-.73.54.54,0,0,1,.439-.233.5.5,0,0,1,.325.087v-.448a.684.684,0,0,0-.256-.034.654.654,0,0,0-.414.148.905.905,0,0,0-.291.454h-.01v-.549H8.912v2.682h.43V791.97Zm2.468,1.43a1.27,1.27,0,0,0,.971-.388,1.692,1.692,0,0,0,.026-2.055,1.185,1.185,0,0,0-.937-.37,1.346,1.346,0,0,0-.971.353,1.463,1.463,0,0,0-.394,1.083,1.4,1.4,0,0,0,.343.989,1.249,1.249,0,0,0,.963.388h0Zm-.611-2.185a.848.848,0,0,1,.645-.258.8.8,0,0,1,.637.258,1.438,1.438,0,0,1,.017,1.539.784.784,0,0,1-.645.276.838.838,0,0,1-.654-.276,1.087,1.087,0,0,1-.241-.757A1.053,1.053,0,0,1,11.208,791.214Zm3.826,1.952a.7.7,0,0,0,.251-.55.672.672,0,0,0-.2-.49,1.522,1.522,0,0,0-.5-.292,1.562,1.562,0,0,1-.4-.224.368.368,0,0,1-.111-.276.325.325,0,0,1,.128-.266.53.53,0,0,1,.345-.1,1.013,1.013,0,0,1,.611.19v-.43a1.26,1.26,0,0,0-.577-.128,1.023,1.023,0,0,0-.681.223.737.737,0,0,0-.095,1.039,1.39,1.39,0,0,0,.481.3,1.81,1.81,0,0,1,.439.249.328.328,0,0,1,.111.257c0,.25-.172.38-.507.38a1.063,1.063,0,0,1-.7-.256v.463a1.267,1.267,0,0,0,.661.164,1.166,1.166,0,0,0,.74-.25Zm2.047-2.58a1.346,1.346,0,0,0-.971.353,1.471,1.471,0,0,0-.394,1.083,1.4,1.4,0,0,0,.343.989,1.4,1.4,0,0,0,1.935,0,1.445,1.445,0,0,0,.362-1.032,1.471,1.471,0,0,0-.335-1.024,1.213,1.213,0,0,0-.937-.37h0Zm.834,1.41a1.154,1.154,0,0,1-.215.757.784.784,0,0,1-.645.276.839.839,0,0,1-.654-.276,1.087,1.087,0,0,1-.241-.757,1.1,1.1,0,0,1,.258-.791.848.848,0,0,1,.645-.258.816.816,0,0,1,.635.258,1.307,1.307,0,0,1,.215.791h0Zm1.162,1.342h.429v-2.322h.628v-.361h-.628v-.414c0-.377.146-.566.448-.566a.594.594,0,0,1,.282.069v-.387a.787.787,0,0,0-.31-.042.8.8,0,0,0-.576.215.9.9,0,0,0-.276.7v.44h-.454v.361h.454v2.314Zm1.762-.732c0,.525.232.792.705.792a.775.775,0,0,0,.4-.089v-.369a.449.449,0,0,1-.276.087.366.366,0,0,1-.309-.113.629.629,0,0,1-.1-.387v-1.514h.68v-.361h-.68v-.791c-.148.051-.293.095-.43.138v.653h-.463v.361h.463v1.591Zm46.153,4.945a.739.739,0,0,0-.532-.207.738.738,0,0,0-.758.75.7.7,0,0,0,.214.532.757.757,0,0,0,.542.207.74.74,0,0,0,.542-.215.726.726,0,0,0,.222-.532.745.745,0,0,0-.232-.535Zm-.069,1.016a.692.692,0,0,1-.947,0,.669.669,0,0,1-.2-.483.645.645,0,0,1,.671-.661.643.643,0,0,1,.473.187.651.651,0,0,1,.2.473A.619.619,0,0,1,66.924,798.567Zm-.387-.439a.371.371,0,0,0,.181-.095.238.238,0,0,0,.059-.173.219.219,0,0,0-.077-.18.432.432,0,0,0-.276-.076H66.15v.962h.138v-.4h.086c.059,0,.118.059.172.172l.1.232h.164l-.128-.258c-.044-.112-.1-.164-.148-.181Zm-.095-.087h-.148v-.325h.121a.3.3,0,0,1,.18.042c.034.026.042.059.042.12,0,.111-.069.163-.2.163Zm-23.993-7.5h.12v-.964h.318v-.12h-.757v.12h.319v.964Zm.73-.724a1.737,1.737,0,0,0-.007-.214.6.6,0,0,0,.034.111l.37.826h.059l.371-.834c.01-.026.018-.059.035-.1-.008.086-.008.155-.008.207v.73h.128V789.46h-.155l-.335.748c-.008.027-.035.079-.051.138h-.01a.784.784,0,0,0-.049-.128l-.335-.757h-.174v1.085h.121v-.724h.007Z" transform="translate(0 -753.42)" fill="#231f1f"/>
  </g>
</svg>
