<svg xmlns="http://www.w3.org/2000/svg" width="128.566" height="49.672" viewBox="0 0 128.566 49.672">
  <g id="mongodb-ar21" transform="translate(-7.09 -5.044)">
    <path id="Path_393" data-name="Path 393" d="M16.154,5.154l1.324,2.491a7.472,7.472,0,0,0,1,1.244,34.537,34.537,0,0,1,3.11,3.517,30.569,30.569,0,0,1,4.843,9.768A24.04,24.04,0,0,1,27.461,28.8a23.346,23.346,0,0,1-6.845,17.262,19.8,19.8,0,0,1-2.435,2.084c-.462,0-.677-.364-.866-.677a5.407,5.407,0,0,1-.677-1.948,9.34,9.34,0,0,1-.216-2.463v-.379c-.027-.081-.433-37.338-.271-37.527Z" transform="translate(1.939 0.024)" fill="#599636"/>
    <path id="Path_394" data-name="Path 394" d="M18.094,5.1c-.055-.109-.109-.027-.163.027a2.481,2.481,0,0,1-.462,1.488A7.032,7.032,0,0,1,16.279,7.8a25.9,25.9,0,0,0-5.817,7.414A30.055,30.055,0,0,0,7.108,27.338a40.235,40.235,0,0,0,.974,8.55,25.785,25.785,0,0,0,6.8,10.687,29.579,29.579,0,0,0,2.408,2.056c.243,0,.271-.216.324-.379a7.424,7.424,0,0,0,.243-1.056c.243-1.352.379-2.706.541-4.058L18.1,5.1Z" transform="translate(0 0)" fill="#6cac48"/>
    <path id="Path_395" data-name="Path 395" d="M17.618,43.217a3.847,3.847,0,0,1,.677-1.65,1.718,1.718,0,0,1-.758-.7,5.756,5.756,0,0,1-.406-.893,15.317,15.317,0,0,1-.569-3.491v-.7a3.409,3.409,0,0,0-.163,1.164,27.062,27.062,0,0,1-.486,3.652A3.272,3.272,0,0,1,15.481,42a.531.531,0,0,0,.027.19,16.223,16.223,0,0,1,.7,4.384v.541c0,.649-.027.514.514.729a2.377,2.377,0,0,1,.677.271c.163,0,.19-.134.19-.243l-.081-.893V44.484a6.53,6.53,0,0,1,.109-1.272Z" transform="translate(1.804 6.605)" fill="#c2bfbf"/>
    <g id="Group_122" data-name="Group 122" transform="translate(36.253 27.957)">
      <path id="Path_396" data-name="Path 396" d="M39.184,35.4V37.98a1.8,1.8,0,0,0,.017.305.652.652,0,0,0,.5.577,6.166,6.166,0,0,0,.782.153c.153.017.2.084.221.248.017.577-.033.645-.593.61a33.537,33.537,0,0,0-3.917,0h-.124c-.407.017-.44-.017-.44-.424,0-.068.017-.153.017-.221a.18.18,0,0,1,.2-.186c.273-.033.526-.1.782-.153a.7.7,0,0,0,.593-.661,9.492,9.492,0,0,0,.05-1.187l.017-4.543a.7.7,0,0,0-.372-.645,4.826,4.826,0,0,0-.968-.407,1.335,1.335,0,0,1-.288-.1c-.248-.119-.254-.339-.017-.475a.865.865,0,0,1,.288-.1A15.409,15.409,0,0,0,38.948,30c.2-.068.254-.05.273.153a1.453,1.453,0,0,1-.017.39,4.268,4.268,0,0,0-.034.645.234.234,0,0,0,.1.221c.084.051.17,0,.248-.05a9.221,9.221,0,0,1,1.1-.744,5.206,5.206,0,0,1,1.8-.661,2.513,2.513,0,0,1,2.052.61,3.846,3.846,0,0,1,.644.746c.17.248.186.254.407.084a10,10,0,0,1,2.052-1.2,3.148,3.148,0,0,1,2.322-.1A2.787,2.787,0,0,1,51.56,31.7a4.573,4.573,0,0,1,.39,1.9v4.543a.653.653,0,0,0,.424.645,6.323,6.323,0,0,0,1.017.254c.221.05.221.05.221.273-.033.558-.084.593-.628.558a36.5,36.5,0,0,0-4.085,0c-.273.017-.273.017-.288-.254v-.084c-.017-.459-.017-.459.424-.558l.44-.119A.682.682,0,0,0,50,38.2l.05-1.272L50.018,33.6a2.642,2.642,0,0,0-.186-.865,2.079,2.079,0,0,0-2.255-1.305,3.832,3.832,0,0,0-1.831.729.365.365,0,0,0-.186.356,26.412,26.412,0,0,1,.068,3.255v2.357a.653.653,0,0,0,.577.729l.782.17c.119.017.186.068.186.2v.124c-.017.475-.05.5-.526.491-1.356-.068-2.713-.05-4.052,0-.459.017-.5-.034-.475-.5.017-.273.05-.288.305-.339l.558-.1a.739.739,0,0,0,.712-.814l.05-1.136-.033-3.408a2.728,2.728,0,0,0-.356-1.221,1.785,1.785,0,0,0-1.594-.984,3.579,3.579,0,0,0-1.985.558,1,1,0,0,0-.577,1.035v2.475Zm31.942.1V37.9q0,.255.033.509a.521.521,0,0,0,.407.475,3.957,3.957,0,0,0,.9.153c.17.017.2.084.221.221v.119c-.017.593-.084.661-.661.628a32.671,32.671,0,0,0-3.866,0l-.5.017c-.1,0-.124-.05-.153-.119a1.724,1.724,0,0,1,0-.712c.017-.1.084-.124.186-.153.248-.033.459-.084.695-.124a.64.64,0,0,0,.593-.712l.05-1.424V32.6a.631.631,0,0,0-.39-.628,6.1,6.1,0,0,0-.968-.407,1.429,1.429,0,0,1-.288-.119.307.307,0,0,1-.033-.542.608.608,0,0,1,.339-.136,14.391,14.391,0,0,0,3.154-.814c.119-.05.17-.017.221.084a.563.563,0,0,1,.05.339l-.05.8c0,.1-.05.248.034.288.1.068.17-.084.254-.124A7.555,7.555,0,0,1,73,30.29a3.4,3.4,0,0,1,1.679-.372,2.85,2.85,0,0,1,2.475,1.645,4.453,4.453,0,0,1,.44,1.7l.05,1.241.017,3.747a.568.568,0,0,0,.407.577,5.546,5.546,0,0,0,.916.221c.273.033.288.084.305.339v.084c-.033.577-.068.593-.645.558a35.47,35.47,0,0,0-3.8,0c-.17.017-.339,0-.5.017-.1,0-.17-.017-.186-.119a1.827,1.827,0,0,1-.017-.679.187.187,0,0,1,.186-.17l.782-.124a.568.568,0,0,0,.459-.5l.034-.475-.017-3.543a5.965,5.965,0,0,0-.1-1.221,1.978,1.978,0,0,0-1.762-1.576,3.184,3.184,0,0,0-2.136.542.935.935,0,0,0-.459.847V35.59c0-.05,0-.05.017-.05Z" transform="translate(-35.47 -24.854)" fill="#47474a"/>
      <path id="Path_397" data-name="Path 397" d="M108.424,31.6a6.616,6.616,0,0,0-1.442-3.306,6.538,6.538,0,0,0-2.611-1.933,9.414,9.414,0,0,0-3.357-.61c-.475-.017-6.951.084-7.426,0a.253.253,0,0,0-.273.119,1.936,1.936,0,0,0-.221.39c-.2.459-.2.424.288.491a9.19,9.19,0,0,1,1.187.221.933.933,0,0,1,.695.712c.033.186.068,6.153.068,8.935l-.068,1.985a1.86,1.86,0,0,1-.084.44.71.71,0,0,1-.39.459,2.01,2.01,0,0,1-.712.186c-.459.05-.526.068-.679.577l-.05.186c-.033.221-.017.254.2.254l5.069.05,1.985-.034,1.373-.17a8.542,8.542,0,0,0,4.136-1.966,6.885,6.885,0,0,0,1.628-2.136,7.528,7.528,0,0,0,.729-3.035,6.029,6.029,0,0,0-.05-1.814Zm-2.459,2.407a6.788,6.788,0,0,1-.847,3.085,4.693,4.693,0,0,1-3.136,2.407,5.559,5.559,0,0,1-1.861.1,5.635,5.635,0,0,1-1.322-.254,1.42,1.42,0,0,1-1.051-1.489L97.73,27.638c0-.61.273-.744.712-.763a11.472,11.472,0,0,1,2,.033,7.518,7.518,0,0,1,2.052.5,4.938,4.938,0,0,1,1.34.831,5.911,5.911,0,0,1,1.861,2.915,8.418,8.418,0,0,1,.273,2.831Zm16.55,1.662a1.6,1.6,0,0,0-.017-.288A3.251,3.251,0,0,0,121.09,33.2a5.3,5.3,0,0,0-1.628-.763,1.8,1.8,0,0,0-.288-.084.145.145,0,0,1,.119-.119,4.329,4.329,0,0,0,.949-.61,3.186,3.186,0,0,0,1.051-1.645,3.213,3.213,0,0,0-1.17-3.29,4.5,4.5,0,0,0-2.645-.831c-1.831-.033-3.678,0-5.508,0a10.287,10.287,0,0,1-1.594-.05c-.1-.017-.248-.05-.323.068a2.411,2.411,0,0,0-.323.695c-.017.119.017.186.153.2l1.17.17a.84.84,0,0,1,.814.729,7.169,7.169,0,0,1,.05.847l-.034,3.17-.017,6.272a5.938,5.938,0,0,1-.119,1.1.62.62,0,0,1-.44.509,3.5,3.5,0,0,1-1.017.2.422.422,0,0,0-.44.288,2.2,2.2,0,0,0-.153.475c-.034.2.017.273.221.248.153-.017,5.748.119,6.8.017a10.287,10.287,0,0,0,1.865-.339,6.405,6.405,0,0,0,2.831-1.662,3.647,3.647,0,0,0,1.051-2.442,3.049,3.049,0,0,0,.05-.679Zm-8.223-6.947.05-1.356a.376.376,0,0,1,.356-.424,4.968,4.968,0,0,1,1.221-.033,5.9,5.9,0,0,1,1.2.2,2.534,2.534,0,0,1,1.662,1.356,2.431,2.431,0,0,1,.237,1.035,3.26,3.26,0,0,1-.2,1.389,1.867,1.867,0,0,1-1.407,1.154,24.072,24.072,0,0,1-2.831.068c-.254,0-.273-.034-.273-.288v-1.6a10.908,10.908,0,0,1-.017-1.492Zm5.508,9.121a2.6,2.6,0,0,1-1.559,1.576,2.965,2.965,0,0,1-1.241.221,9.876,9.876,0,0,1-1.576-.1,1.475,1.475,0,0,1-1.086-1.322c-.084-.865-.034-1.747-.05-2.391V33.589c0-.273.034-.356.323-.356l1.594.017,1.086.124a3.67,3.67,0,0,1,2,1.051,2.749,2.749,0,0,1,.729,1.679,3.76,3.76,0,0,1-.2,1.729Z" transform="translate(-23.112 -25.749)" fill="#c2bfbf"/>
      <path id="Path_398" data-name="Path 398" d="M85.544,31.847l.44.068a1.093,1.093,0,0,0,1.2-.814,1.712,1.712,0,0,0,0-.968c-.1,0-.153.084-.2.119a1.629,1.629,0,0,1-.847.356,3.9,3.9,0,0,1-1.814-.186l-.831-.288a4.9,4.9,0,0,0-1.8-.236,6.234,6.234,0,0,0-2.442.763,3.313,3.313,0,0,0-1.662,2,3.959,3.959,0,0,0-.1,1.61,3,3,0,0,0,1.966,2.561c.068.017.119.05.186.068.153.084.17.17.034.288l-.424.288-1.017.628a.379.379,0,0,0-.2.542,1.774,1.774,0,0,0,.542.814,2.828,2.828,0,0,0,.78.475c.186.084.186.124.017.273l-.968.695a5.8,5.8,0,0,0-.916.814,1.675,1.675,0,0,0-.407,1.526,2.866,2.866,0,0,0,.881,1.526,3.6,3.6,0,0,0,1.559.847,6.652,6.652,0,0,0,6.46-1.814,3.7,3.7,0,0,0,1.086-2.481,2.382,2.382,0,0,0-1.831-2.475l-.916-.17-2.8-.248a1.875,1.875,0,0,1-.865-.221.581.581,0,0,1-.2-.847.806.806,0,0,1,.577-.323l.542-.05a4.913,4.913,0,0,0,2.865-1.305,3,3,0,0,0,.865-1.442,4.52,4.52,0,0,0,.033-2.233c-.05-.186-.033-.2.2-.17Zm-4.156,8.445a1.791,1.791,0,0,0,.305,0,9.938,9.938,0,0,1,2.136.273,4.441,4.441,0,0,1,.661.254,1.624,1.624,0,0,1,.847,1.712,2.142,2.142,0,0,1-1.187,1.662,3.628,3.628,0,0,1-1.442.407c-.186.017-.356,0-.542,0a4.026,4.026,0,0,1-1.729-.288,2.674,2.674,0,0,1-1-.679,1.749,1.749,0,0,1,.017-2.561,2.49,2.49,0,0,1,1.933-.782ZM83.321,35a1.656,1.656,0,0,1-1.915,1.051,2.03,2.03,0,0,1-1.576-1.136,3.651,3.651,0,0,1-.305-2.7,1.659,1.659,0,0,1,1.356-1.34A2.076,2.076,0,0,1,83.22,32a3.7,3.7,0,0,1,.356,1.814A3.842,3.842,0,0,1,83.322,35ZM61.96,33.849a4.687,4.687,0,0,0-1.119-2.442,4.477,4.477,0,0,0-3.459-1.492,5.964,5.964,0,0,0-3.255.933,4.416,4.416,0,0,0-1.984,2.594,5.9,5.9,0,0,0-.05,2.984,4.527,4.527,0,0,0,5.136,3.662,5.638,5.638,0,0,0,2.084-.61A4.574,4.574,0,0,0,61.5,37.324a5.57,5.57,0,0,0,.542-2.611l-.084-.865Zm-2.407,3.764a2.059,2.059,0,0,1-1.747,1.424,2.836,2.836,0,0,1-2.068-.526,3.523,3.523,0,0,1-1.068-1.272,6.5,6.5,0,0,1-.459-4.441,2.543,2.543,0,0,1,.712-1.238,2.312,2.312,0,0,1,2.171-.542,3.087,3.087,0,0,1,1.861,1.238,4.863,4.863,0,0,1,.847,2.171,8.928,8.928,0,0,1,.084,1.051,5.673,5.673,0,0,1-.323,2.136ZM99,33.985a4.591,4.591,0,0,0-1.187-2.628,4.527,4.527,0,0,0-3.424-1.442,6.041,6.041,0,0,0-3.154.865,4.317,4.317,0,0,0-2.119,2.8,5.918,5.918,0,0,0,.407,4.034A4.115,4.115,0,0,0,92.291,39.9a5.557,5.557,0,0,0,4-.424,4.647,4.647,0,0,0,2.373-2.543,6.262,6.262,0,0,0,.39-2.255,3.874,3.874,0,0,0-.05-.695Zm-2.34,3.408a2.112,2.112,0,0,1-1.814,1.645,2.819,2.819,0,0,1-2-.475,3.447,3.447,0,0,1-1.17-1.389,5.219,5.219,0,0,1-.542-1.865,6.59,6.59,0,0,1,.084-2.373,2.418,2.418,0,0,1,.153-.458,2.286,2.286,0,0,1,2.764-1.458,3.086,3.086,0,0,1,1.933,1.34,4.993,4.993,0,0,1,.782,2.233,4.548,4.548,0,0,1,.05.949,5.769,5.769,0,0,1-.248,1.865Z" transform="translate(-31.933 -24.859)" fill="#47474a"/>
    </g>
  </g>
</svg>
