<svg xmlns="http://www.w3.org/2000/svg" width="62.424" height="62.423" viewBox="0 0 62.424 62.423">
  <g id="Group_155" data-name="Group 155" transform="translate(-1133.605 -2050.45)">
    <path id="Path_596" data-name="Path 596" d="M57.2,130.569A23.58,23.58,0,0,0,46.91,116.924l-.88,1.376-11.2,17.6L23.522,118.2l-.848-1.344A23.579,23.579,0,0,0,12.34,130.6a22.764,22.764,0,0,0,2.352,17.965,23.276,23.276,0,0,0,10.254,9.342l2.08-8a13.629,13.629,0,0,1-8.094-12.462,14.685,14.685,0,0,1,2.464-8.158l9.758,15.245h7.263l9.758-15.245a14.669,14.669,0,0,1,2.448,8.158,13.613,13.613,0,0,1-8,12.462l2.08,8a23.276,23.276,0,0,0,10.254-9.342,22.812,22.812,0,0,0,2.352-17.981Z" transform="translate(1129.993 1944.278)" fill="#00a1df"/>
    <path id="Path_597" data-name="Path 597" d="M37.7,109.8a12.918,12.918,0,1,1,0,.016Zm0,59.669a28.459,28.459,0,1,1,20.124-8.334A28.458,28.458,0,0,1,37.7,169.469Z" transform="translate(1127.118 1940.65)" fill="#00a1df"/>
  </g>
</svg>
