<svg xmlns="http://www.w3.org/2000/svg" width="104.478" height="54.262" viewBox="0 0 104.478 54.262">
  <g id="mysql-4" transform="translate(-8.504 -45.068)">
    <path id="Path_400" data-name="Path 400" d="M8.5,94.5h3.475V80.817l5.358,11.936a2.937,2.937,0,0,0,3.183,1.936A2.937,2.937,0,0,0,23.7,92.753L29.06,80.817V94.5h3.448V80.843a2.092,2.092,0,0,0-1.618-2.308c-2.626-.822-4.4-.106-5.2,1.672L20.44,91.957l-5.092-11.75c-.769-1.777-2.573-2.494-5.2-1.672A2.088,2.088,0,0,0,8.5,80.843V94.5h0ZM35.4,83.363h3.448V90.9c-.026.424.133,1.379,2.043,1.406.955.026,7.453,0,7.506,0V83.336H51.87c.026,0,0,12.227,0,12.281.026,3.023-3.74,3.66-5.464,3.713H35.479V97s10.9.027,10.928,0c2.228-.212,1.963-1.326,1.963-1.7v-.9H41.022c-3.422-.052-5.6-1.539-5.623-3.262,0-.159.08-7.691,0-7.771ZM109.9,74.689a11.935,11.935,0,0,0-5.146.742c-.4.159-1.008.159-1.087.663a3.594,3.594,0,0,1,.424.849,6.867,6.867,0,0,0,1.406,1.618,19.288,19.288,0,0,0,1.671,1.22c1.061.636,2.228.981,3.209,1.619.611.37,1.194.849,1.777,1.273a3.316,3.316,0,0,0,.822.663v-.052a8.333,8.333,0,0,1-.4-.85l-.8-.8A13.181,13.181,0,0,0,109,78.987c-.822-.584-2.679-1.406-3.023-2.361-.027-.027-.054-.027-.054-.053a17.8,17.8,0,0,0,1.8-.425c.9-.238,1.724-.185,2.652-.424.425-.133.849-.239,1.274-.372v-.239a18.81,18.81,0,0,0-1.326-1.565,37.191,37.191,0,0,0-4.35-3.262,26.957,26.957,0,0,0-2.785-1.352c-.292-.133-.823-.212-1.034-.477a12.408,12.408,0,0,1-1.088-2.043Q99.905,64.145,98.9,61.8a28.387,28.387,0,0,0-1.326-3.024,26.813,26.813,0,0,0-10.292-9.92,12.739,12.739,0,0,0-3.4-1.087c-.663-.054-1.326-.08-1.989-.133a11.984,11.984,0,0,1-1.22-.9c-1.512-.955-5.411-3.05-6.526-.292-.716,1.724,1.061,3.422,1.7,4.3a12.391,12.391,0,0,1,1.327,1.989c.211.451.238.9.424,1.379a35.693,35.693,0,0,0,1.379,3.581,12.751,12.751,0,0,0,.981,1.645c.212.292.611.424.663.9a7.576,7.576,0,0,0-.609,1.989,11.694,11.694,0,0,0,.8,8.912c.425.663,1.406,2.122,2.786,1.565,1.194-.5.928-1.99,1.273-3.342.08-.292.027-.5.185-.716v.053c.345.743.716,1.459,1.088,2.175a14.242,14.242,0,0,0,3.449,3.581c.609.477,1.113,1.3,1.936,1.565V75.96h-.079c-.159-.238-.4-.344-.584-.53a15.961,15.961,0,0,1-1.406-1.591,39.9,39.9,0,0,1-2.97-4.828c-.425-.822-.8-1.724-1.14-2.546-.134-.318-.134-.8-.425-.981a13.262,13.262,0,0,0-1.274,1.83,14.956,14.956,0,0,0-.715,3.979c-.107.053-.08.026-.134.08-.848-.212-1.14-1.088-1.458-1.83a11.675,11.675,0,0,1-.239-7.082c.185-.557,1.009-2.308.664-2.838-.16-.5-.664-.822-.955-1.22a9.462,9.462,0,0,1-.981-1.671c-.636-1.486-.929-3.13-1.619-4.615a13.455,13.455,0,0,0-1.326-2.043A13.061,13.061,0,0,1,75.424,48c-.133-.292-.318-.769-.133-1.088a.525.525,0,0,1,.37-.372c.345-.265,1.327.106,1.7.238a16.018,16.018,0,0,1,2.6,1.353c.4.265.8.769,1.274.9h.531c.849.185,1.8.053,2.6.292a14.942,14.942,0,0,1,3.82,1.83,23.6,23.6,0,0,1,8.3,9.071c.318.61.451,1.167.716,1.8.558,1.3,1.273,2.626,1.83,3.872a16.926,16.926,0,0,0,1.857,3.581c.425.557,2.016.849,2.732,1.14a15.137,15.137,0,0,1,1.8.743c.928.53,1.8,1.194,2.679,1.8.423.295,1.749.958,1.8,1.515Z" transform="translate(0 0)" fill="#00678c"/>
    <path id="Path_401" data-name="Path 401" d="M132.825,56.124a4.511,4.511,0,0,0-1.087.133v.053h.079a8.511,8.511,0,0,0,.849,1.087c.185.424.4.849.584,1.273l.079-.08a1.425,1.425,0,0,0,.531-1.326c-.133-.159-.159-.345-.291-.531a4.112,4.112,0,0,0-.744-.611Z" transform="translate(-49.975 -4.483)" fill="#00678c"/>
    <path id="Path_402" data-name="Path 402" d="M85.96,117.316h9.946a7.693,7.693,0,0,0,3.209-.664c1.485-.688,2.228-1.618,2.228-2.837v-2.546c0-.981-.849-1.936-2.466-2.546a8.324,8.324,0,0,0-2.971-.5h-4.19c-1.406,0-2.069-.425-2.228-1.352a1.278,1.278,0,0,1-.027-.318v-1.565a1.075,1.075,0,0,1,.027-.291c.159-.716.53-.929,1.751-1.034.106,0,.238-.027.345-.027h9.893v-2.307H91.742a9.668,9.668,0,0,0-2.785.291c-2.069.663-2.971,1.671-2.971,3.449v2.016c0,1.565,1.777,2.891,4.721,3.209.345,0,.663.027,1.008.027H95.3a1.608,1.608,0,0,1,.37.027c1.115.106,1.565.291,1.91.688a.908.908,0,0,1,.266.637v2.016a1.133,1.133,0,0,1-.5.822,2.485,2.485,0,0,1-1.459.477c-.133,0-.238.027-.372.027H85.96Zm36.974-4.033c0,2.387,1.751,3.713,5.332,3.979.318.027.663.053.981.053h9.018v-2.308h-9.072c-2.043,0-2.811-.5-2.811-1.724V101.322h-3.449v11.961Zm-19.389.133v-8.222c0-2.1,1.458-3.368,4.376-3.767a5.418,5.418,0,0,1,.929-.053h6.577a5.886,5.886,0,0,1,.955.053c2.891.4,4.376,1.671,4.376,3.767v8.222a2.994,2.994,0,0,1-2.069,3.183l3.422,3.077H118.08l-2.759-2.467-2.786.159h-3.686a7.3,7.3,0,0,1-2.043-.291c-2.2-.584-3.261-1.751-3.261-3.661Zm3.74-.211a1.79,1.79,0,0,0,.053.372c.212.954,1.113,1.485,2.466,1.485h3.157l-2.891-2.6H114.1l2.519,2.255a1.63,1.63,0,0,0,.876-1.088,1.612,1.612,0,0,0,.027-.345v-7.9a1.185,1.185,0,0,0-.027-.292c-.212-.9-1.113-1.4-2.44-1.4H109.8c-1.538,0-2.519.663-2.519,1.7V113.2h0Zm32.572,4.111h.5v-1.91h.69v-.4h-1.883v.4h.69Zm3.872,0h.451v-2.308h-.69l-.609,1.592-.609-1.592h-.716v2.308h.477v-1.751l.663,1.751h.345l.663-1.751h.027v1.751Z" transform="translate(-31.41 -22.812)" fill="#ce8b2c"/>
    <path id="Path_403" data-name="Path 403" d="M10.155,85.924V76.959h.981v8.965Zm2.653,0V76.959h1.008l3.846,7.055V76.959h.928v8.965H17.582L13.736,78.9v7.028h-.928Zm12.652-3.13.955.292A4.2,4.2,0,0,1,25.3,85.34a2.809,2.809,0,0,1-1.99.743,3.014,3.014,0,0,1-1.75-.5,3.294,3.294,0,0,1-1.167-1.591,6.5,6.5,0,0,1-.477-2.6,5.808,5.808,0,0,1,.477-2.493A3.392,3.392,0,0,1,21.64,77.33a3.135,3.135,0,0,1,1.751-.5,2.746,2.746,0,0,1,1.83.636,3.634,3.634,0,0,1,1.087,1.963l-.955.265c-.319-1.247-.981-1.857-1.963-1.857a2.013,2.013,0,0,0-1.273.371,2.387,2.387,0,0,0-.875,1.168,5.439,5.439,0,0,0-.319,2.016,4.654,4.654,0,0,0,.663,2.758,2.019,2.019,0,0,0,1.724.929,1.77,1.77,0,0,0,1.353-.583,2.913,2.913,0,0,0,.8-1.7Zm2.122,3.13V76.959h.982v7.931H32.17v1.034H27.581Zm10.557-8.965h.981v5.173a7.88,7.88,0,0,1-.265,2.148,2.4,2.4,0,0,1-.929,1.326,2.849,2.849,0,0,1-1.7.477,2.668,2.668,0,0,1-2.175-.876,4.936,4.936,0,0,1-.716-3.076V76.959h.981v5.173a5.791,5.791,0,0,0,.185,1.777,1.505,1.505,0,0,0,.61.822,1.919,1.919,0,0,0,1.061.291,1.838,1.838,0,0,0,1.486-.583,3.922,3.922,0,0,0,.477-2.307V76.959Zm2.573,8.965V76.959h2.546a4.813,4.813,0,0,1,1.432.159,2.707,2.707,0,0,1,1.114.8,3.637,3.637,0,0,1,.716,1.432,8.1,8.1,0,0,1-.159,4.642,2.818,2.818,0,0,1-3,1.936H40.71Zm.981-1.034h1.565a2.608,2.608,0,0,0,1.432-.318,1.875,1.875,0,0,0,.742-1.008,5.911,5.911,0,0,0,.372-2.175,5.294,5.294,0,0,0-.372-2.148,2.045,2.045,0,0,0-.954-1.034,3,3,0,0,0-1.247-.185H41.692Zm6.472,1.034V76.959h5.3V78.02H49.145v2.758H53.2v1.034H49.145v3.077h4.509v1.034H48.164Zm6.471-2.891.929-.08a2.528,2.528,0,0,0,.345,1.14,1.647,1.647,0,0,0,.743.663,2.136,2.136,0,0,0,1.088.265,2.065,2.065,0,0,0,1.352-.424,1.446,1.446,0,0,0,.477-1.114,1.487,1.487,0,0,0-.185-.69,1.348,1.348,0,0,0-.53-.477,8.045,8.045,0,0,0-1.512-.53,5.43,5.43,0,0,1-1.486-.637,1.931,1.931,0,0,1-.69-.769,2.424,2.424,0,0,1-.238-1.087,2.4,2.4,0,0,1,.69-1.777,2.565,2.565,0,0,1,1.909-.69,3.154,3.154,0,0,1,1.432.318,2.464,2.464,0,0,1,.955.929,3.357,3.357,0,0,1,.372,1.432l-.929.08a2.027,2.027,0,0,0-.53-1.3,1.72,1.72,0,0,0-1.273-.424,1.888,1.888,0,0,0-1.247.372,1.182,1.182,0,0,0-.451.955,1.12,1.12,0,0,0,.318.849,4.193,4.193,0,0,0,1.432.61,9.27,9.27,0,0,1,1.538.5A2.357,2.357,0,0,1,60.5,83.378a2.776,2.776,0,0,1-.372,1.405,2.27,2.27,0,0,1-.981.955,2.866,2.866,0,0,1-1.485.345,2.919,2.919,0,0,1-2.175-.822,3.245,3.245,0,0,1-.85-2.227Z" transform="translate(-0.67 -12.879)" fill="#00678c"/>
  </g>
</svg>
