<svg xmlns="http://www.w3.org/2000/svg" xmlns:xlink="http://www.w3.org/1999/xlink" width="94.134" height="54.577" viewBox="0 0 94.134 54.577">
  <defs>
    <linearGradient id="linear-gradient" x1="-1.92" y1="3.566" x2="-1.924" y2="3.56" gradientUnits="objectBoundingBox">
      <stop offset="0" stop-color="#41873f"/>
      <stop offset="0.33" stop-color="#418b3d"/>
      <stop offset="0.64" stop-color="#419637"/>
      <stop offset="0.93" stop-color="#3fa92d"/>
      <stop offset="1" stop-color="#3fae2a"/>
    </linearGradient>
    <linearGradient id="linear-gradient-2" x1="-1.98" y1="3.563" x2="-1.969" y2="3.569" gradientUnits="objectBoundingBox">
      <stop offset="0.14" stop-color="#41873f"/>
      <stop offset="0.4" stop-color="#54a044"/>
      <stop offset="0.71" stop-color="#66b848"/>
      <stop offset="0.91" stop-color="#6cc04a"/>
    </linearGradient>
    <linearGradient id="linear-gradient-3" x1="-595.603" y1="363.196" x2="-478.488" y2="363.196" gradientUnits="objectBoundingBox">
      <stop offset="0.09" stop-color="#6cc04a"/>
      <stop offset="0.29" stop-color="#66b848"/>
      <stop offset="0.6" stop-color="#54a044"/>
      <stop offset="0.86" stop-color="#41873f"/>
    </linearGradient>
    <linearGradient id="linear-gradient-4" x1="-2.003" y1="3.562" x2="-1.993" y2="3.562" xlink:href="#linear-gradient-3"/>
    <linearGradient id="linear-gradient-5" x1="-3530.515" y1="478.505" x2="-3237.657" y2="478.505" xlink:href="#linear-gradient-3"/>
    <linearGradient id="linear-gradient-6" x1="-4.886" y1="10.249" x2="-4.848" y2="10.249" xlink:href="#linear-gradient-3"/>
    <linearGradient id="linear-gradient-7" x1="-4.843" y1="10.325" x2="-4.866" y2="10.205" xlink:href="#linear-gradient"/>
  </defs>
  <g id="node_js_logo" data-name="node js logo" transform="translate(-32.42 -84.128)">
    <path id="Path_120" data-name="Path 120" d="M125.147,184.868a1.76,1.76,0,0,1-.829-.22l-2.68-1.591c-.414-.224-.2-.3-.079-.344a4.972,4.972,0,0,0,1.21-.543.178.178,0,0,1,.2,0l2.071,1.243a.257.257,0,0,0,.244,0l8.037-4.652a.228.228,0,0,0,.12-.224v-9.284a.228.228,0,0,0-.12-.22l-8.037-4.636a.282.282,0,0,0-.244,0L117,169.034a.248.248,0,0,0-.12.22v9.288a.249.249,0,0,0,.12.224l2.2,1.268c1.189.6,1.935-.1,1.935-.8v-9.168a.244.244,0,0,1,.24-.24H122.4a.244.244,0,0,1,.24.24v9.168a2.234,2.234,0,0,1-2.374,2.519,3.452,3.452,0,0,1-1.856-.505l-2.113-1.21a1.7,1.7,0,0,1-.829-1.471v-9.288a1.7,1.7,0,0,1,.829-1.471l8.037-4.652a1.806,1.806,0,0,1,1.694,0l8.037,4.652a1.7,1.7,0,0,1,.829,1.471v9.288a1.7,1.7,0,0,1-.829,1.471l-8.037,4.656A2.1,2.1,0,0,1,125.147,184.868Zm2.486-6.384c-3.525,0-4.25-1.611-4.25-2.983a.249.249,0,0,1,.244-.24h1.048a.2.2,0,0,1,.22.2c.162,1.069.626,1.591,2.759,1.591,1.694,0,2.419-.381,2.419-1.288,0-.522-.2-.907-2.842-1.168-2.2-.22-3.567-.7-3.567-2.457,0-1.632,1.371-2.6,3.67-2.6,2.577,0,3.844.887,4.006,2.821a.348.348,0,0,1-.058.182.257.257,0,0,1-.162.083h-1.056a.244.244,0,0,1-.224-.182c-.24-1.11-.866-1.471-2.515-1.471-1.856,0-2.071.642-2.071,1.127,0,.584.261.766,2.759,1.09s3.646.783,3.646,2.519-1.471,2.78-4.035,2.78Z" transform="translate(-46.177 -46.163)" fill="#539e43"/>
    <path id="Path_121" data-name="Path 121" d="M51.559,119.785a1.019,1.019,0,0,0-.522-.887l-8.542-4.917a1.284,1.284,0,0,0-.464-.141h-.079a.978.978,0,0,0-.464.141L32.946,118.9a1.023,1.023,0,0,0-.526.887V133a.5.5,0,0,0,.261.443.464.464,0,0,0,.505,0l5.075-2.9a1.032,1.032,0,0,0,.547-.895v-6.177a1.019,1.019,0,0,1,.522-.866l2.158-1.243a.982.982,0,0,1,.522-.141.878.878,0,0,1,.505.141l2.154,1.243a1.023,1.023,0,0,1,.526.887v6.156a1.027,1.027,0,0,0,.522.887l5.079,2.9a.522.522,0,0,0,.783-.443V119.776Z" transform="translate(0 -17.403)" fill="#333"/>
    <path id="Path_122" data-name="Path 122" d="M158.6,84.187a.572.572,0,0,0-.505,0,.53.53,0,0,0-.261.443V97.746a.365.365,0,0,1-.543.323l-2.138-1.243a1.056,1.056,0,0,0-1.027,0l-8.542,4.938a1.019,1.019,0,0,0-.522.887v9.843a1.019,1.019,0,0,0,.522.887l8.542,4.938a1.056,1.056,0,0,0,1.027,0l8.526-4.938a1.023,1.023,0,0,0,.526-.887V87.936a1.032,1.032,0,0,0-.526-.907l-5.1-2.842Zm-.787,25.063a.228.228,0,0,1-.12.224l-2.921,1.69a.29.29,0,0,1-.261,0l-2.921-1.69a.253.253,0,0,1-.124-.224v-3.385a.224.224,0,0,1,.124-.22l2.921-1.694a.29.29,0,0,1,.261,0l2.921,1.694a.244.244,0,0,1,.12.22Z" transform="translate(-62.643)" fill="#333"/>
    <path id="Path_123" data-name="Path 123" d="M220.1,123.371a1.011,1.011,0,0,0,.505-.887v-2.4a1.048,1.048,0,0,0-.505-.887l-8.48-4.917a1.056,1.056,0,0,0-1.027,0l-8.542,4.938a1.023,1.023,0,0,0-.526.887v9.851a1.023,1.023,0,0,0,.526.887l8.48,4.835a.994.994,0,0,0,1.007,0l5.137-2.858a.51.51,0,0,0,.265-.443.5.5,0,0,0-.265-.443L208.09,127a.526.526,0,0,1-.265-.443V123.47a.5.5,0,0,1,.265-.443l2.68-1.533a.493.493,0,0,1,.522,0l2.68,1.533a.522.522,0,0,1,.261.443v2.419a.526.526,0,0,0,.787.443Z" transform="translate(-94.047 -17.584)" fill="#333"/>
    <path id="Path_124" data-name="Path 124" d="M221.882,135.246a.182.182,0,0,1,.2,0l1.632.945a.224.224,0,0,1,.1.182v1.893a.215.215,0,0,1-.1.182l-1.632.949a.2.2,0,0,1-.2,0l-1.632-.957a.215.215,0,0,1-.1-.182v-1.889a.224.224,0,0,1,.1-.182l1.632-.945Z" transform="translate(-104.959 -29.924)" fill="#539e43"/>
    <path id="path-2" d="M98.947,114.376a1.032,1.032,0,0,0-1.027,0l-8.484,4.9a1.007,1.007,0,0,0-.505.887v9.81a1.044,1.044,0,0,0,.505.887l8.484,4.9a1.031,1.031,0,0,0,1.027,0l8.48-4.9a1,1,0,0,0,.505-.887v-9.81a1.048,1.048,0,0,0-.505-.887Z" transform="translate(-31.431 -17.637)" fill="url(#linear-gradient)"/>
    <g id="Group_29" data-name="Group 29" transform="translate(57.418 96.598)">
      <path id="Path_125" data-name="Path 125" d="M97.788,114.371l-8.5,4.9a1.04,1.04,0,0,0-.543.887v9.81a.969.969,0,0,0,.261.646l9.528-16.36a1.135,1.135,0,0,0-.762.12Z" transform="translate(-88.74 -114.23)" fill="none"/>
      <path id="Path_126" data-name="Path 126" d="M112.57,143.227a.984.984,0,0,0,.24-.1l8.5-4.9a1.015,1.015,0,0,0,.522-.887v-9.81a1.015,1.015,0,0,0-.3-.7Z" transform="translate(-102.698 -121.61)" fill="none"/>
      <path id="Path_127" data-name="Path 127" d="M107.735,119.326l-8.522-4.9a1.38,1.38,0,0,0-.265-.1l-9.528,16.36a1.09,1.09,0,0,0,.282.24l8.526,4.9a.965.965,0,0,0,.783.1l8.965-16.4a1.007,1.007,0,0,0-.22-.2Z" transform="translate(-89.138 -114.289)" fill="url(#linear-gradient-2)"/>
    </g>
    <g id="Group_30" data-name="Group 30" transform="translate(57.424 94.945)">
      <path id="Path_128" data-name="Path 128" d="M121.667,129.993v-9.81a1.04,1.04,0,0,0-.543-.887l-8.521-4.9a.9.9,0,0,0-.323-.12l9.329,15.937A.439.439,0,0,0,121.667,129.993Z" transform="translate(-102.528 -112.606)" fill="none"/>
      <path id="Path_129" data-name="Path 129" d="M89.283,126.361a1.04,1.04,0,0,0-.543.887v9.81a1.081,1.081,0,0,0,.543.887l8.526,4.9a.941.941,0,0,0,.663.12l-9.114-16.62H89.3Z" transform="translate(-88.74 -119.67)" fill="none"/>
      <path id="Path_130" data-name="Path 130" d="M109.77,110.24l-.12.062h.145Z" transform="translate(-100.988 -110.24)" fill="url(#linear-gradient-3)"/>
      <path id="Path_131" data-name="Path 131" d="M108.183,130.849a1.135,1.135,0,0,0,.5-.642L99.339,114.25a1.015,1.015,0,0,0-.725.12l-8.464,4.876,9.114,16.641a1.422,1.422,0,0,0,.385-.12l8.522-4.917Z" transform="translate(-89.566 -112.576)" fill="url(#linear-gradient-4)"/>
      <path id="Path_132" data-name="Path 132" d="M135.488,153.859l-.058-.1v.141Z" transform="translate(-116.088 -135.731)" fill="url(#linear-gradient-5)"/>
      <path id="Path_133" data-name="Path 133" d="M121.116,153.389l-8.5,4.9a1.173,1.173,0,0,1-.381.12l.162.3,9.429-5.464v-.12l-.24-.414a.94.94,0,0,1-.464.663Z" transform="translate(-102.499 -135.116)" fill="url(#linear-gradient-6)"/>
      <path id="Path_134" data-name="Path 134" d="M121.116,153.389l-8.5,4.9a1.173,1.173,0,0,1-.381.12l.162.3,9.429-5.464v-.12l-.24-.414a.94.94,0,0,1-.464.663Z" transform="translate(-102.499 -135.116)" fill="url(#linear-gradient-7)"/>
    </g>
  </g>
</svg>
