<svg xmlns="http://www.w3.org/2000/svg" width="110.883" height="53.037" viewBox="0 0 110.883 53.037">
  <g id="NUnit-01" transform="translate(-45.17 -151.61)">
    <path id="Path_440" data-name="Path 440" d="M45.17,178.118a26.473,26.473,0,1,1,7.753,18.775A26.519,26.519,0,0,1,45.17,178.118Z" transform="translate(0)" fill="#005b0c"/>
    <path id="Path_441" data-name="Path 441" d="M264.064,230.328c-.4.308-.772.626-1.174.894a7.451,7.451,0,0,1-7.558.78,5.935,5.935,0,0,1-3.153-3.99,13.562,13.562,0,0,1-.54-3.971c-.019-3.142,0-6.284.024-9.426a1.785,1.785,0,0,1,2.667-1.709,1.579,1.579,0,0,1,.915,1.644v8.279a16.951,16.951,0,0,0,.27,3.7,3.692,3.692,0,0,0,1.962,2.88c1.8.81,4.983.27,6.082-1.76a5.242,5.242,0,0,0,.54-2.556V214.631a2.729,2.729,0,0,1,.089-.783,1.719,1.719,0,0,1,2.1-1.08c.983.2,1.393.759,1.393,1.89v15.33a6.887,6.887,0,0,1-.038.71,1.42,1.42,0,0,1-1.169,1.35,2.551,2.551,0,0,1-1.177,0,1.408,1.408,0,0,1-1.163-1.312C264.116,230.6,264.091,230.482,264.064,230.328Z" transform="translate(-150.73 -44.601)" fill="#005b0c"/>
    <path id="Path_442" data-name="Path 442" d="M325.095,215.189a10.708,10.708,0,0,1,2.124-1.52,7.493,7.493,0,0,1,6.252-.424,5.8,5.8,0,0,1,3.509,4,11.337,11.337,0,0,1,.559,3.488q.016,5.169,0,10.339a1.487,1.487,0,0,1-1.533,1.558,3.052,3.052,0,0,1-.785-.035,1.514,1.514,0,0,1-1.244-1.636v-5.782c0-1.676.054-3.353-.078-5.026a7.218,7.218,0,0,0-.64-2.624,3.072,3.072,0,0,0-2.51-1.806,5.476,5.476,0,0,0-4.089.926,4.032,4.032,0,0,0-1.533,3.474c-.019,3.552,0,7.1,0,10.657a1.776,1.776,0,0,1-2.678,1.7,1.59,1.59,0,0,1-.9-1.62c-.016-1.452,0-2.9,0-4.357V214.63a1.815,1.815,0,0,1,2.8-1.666,1.406,1.406,0,0,1,.764,1.209C325.114,214.463,325.095,214.768,325.095,215.189Z" transform="translate(-201.771 -44.594)" fill="#005b0c"/>
    <path id="Path_443" data-name="Path 443" d="M416.953,199.467c0,1.89-.038,3.779.051,5.669a13.137,13.137,0,0,0,.375,2.969,1.8,1.8,0,0,0,2.024,1.528c.91,0,1.817-.07,2.724-.14.27-.022.367.035.3.329a2.351,2.351,0,0,1-2.254,1.927,5.3,5.3,0,0,1-5.169-2.138,8.965,8.965,0,0,1-1.436-3.587,22.261,22.261,0,0,1-.364-4.438v-6.379c0-.319-.092-.408-.4-.389-.421.024-.845,0-1.269,0a1.281,1.281,0,0,1-1.474-1.35,1.345,1.345,0,0,1,1.433-1.584c.448-.019.9-.019,1.35,0,.27,0,.329-.062.327-.324-.013-1.188,0-2.378,0-3.566,0-.672.03-1.35.027-2.016,0-1.579,1.1-2.014,2.278-1.827,1.055.167,1.46.74,1.466,1.941v5.428c0,.3.07.378.37.367.645-.027,1.293-.022,1.938,0a1.338,1.338,0,0,1,1.35.775c.4.985.092,2.132-1.242,2.159-.686.016-1.371.019-2.057,0-.313,0-.37.1-.367.383C416.961,196.619,416.953,198.045,416.953,199.467Z" transform="translate(-266.398 -23.728)" fill="#005b0c"/>
    <path id="Path_444" data-name="Path 444" d="M396.689,222.763v8.322a1.552,1.552,0,0,1-1.323,1.62,1.743,1.743,0,0,1-2.105-.969,2,2,0,0,1-.14-.732V214.562a1.58,1.58,0,0,1,.961-1.62,2.115,2.115,0,0,1,2.176.356,1.638,1.638,0,0,1,.429,1.19Z" transform="translate(-254.026 -44.667)" fill="#005b0c"/>
    <path id="Path_445" data-name="Path 445" d="M393.169,193.275a3.339,3.339,0,0,1-1.131-.116,1.907,1.907,0,0,1-1.32-2.3,1.841,1.841,0,0,1,1.7-1.638,4.489,4.489,0,0,1,1.838.084,2.037,2.037,0,0,1-.065,3.876A3.615,3.615,0,0,1,393.169,193.275Z" transform="translate(-252.261 -27.418)" fill="#005b0c"/>
    <path id="Path_446" data-name="Path 446" d="M64.179,197.847a3.412,3.412,0,0,1-3.021-3.239,3.7,3.7,0,0,1,.54-2.019.329.329,0,0,0,.027-.346,18.955,18.955,0,0,1-.869-2.707c-.227-1.01-.483-2.014-.64-3.039a13.463,13.463,0,0,1-.165-2.057,16.417,16.417,0,0,1,0-1.822,24.032,24.032,0,0,1,1.531-7.442,20.936,20.936,0,0,1,2.948-5.345,21.485,21.485,0,0,1,2.861-3.215,24.51,24.51,0,0,1,4.238-3.077,22.3,22.3,0,0,1,5.939-2.246c.561-.138,1.134-.224,1.7-.324a.475.475,0,0,0,.354-.254,3.394,3.394,0,0,1,5.018-.956,2.262,2.262,0,0,1,.721.777.939.939,0,0,0,.772.507,22,22,0,0,1,6.913,2.308,23.669,23.669,0,0,1,4.859,3.531,23.331,23.331,0,0,1,4.859,6.657,24.587,24.587,0,0,1,1.995,6.622c.157.858.186,1.736.27,2.6a14.9,14.9,0,0,1,0,1.666,25.94,25.94,0,0,1-1.89,8.306.48.48,0,0,0,0,.4,3.306,3.306,0,0,1-.526,3.523,2.991,2.991,0,0,1-2.3,1.169.44.44,0,0,0-.359.2A22.221,22.221,0,0,1,86.578,206a22.02,22.02,0,0,1-5.069.4,19.462,19.462,0,0,1-3.3-.456,21.287,21.287,0,0,1-6.149-2.159,25.23,25.23,0,0,1-4.44-3.11,18.824,18.824,0,0,1-2.57-2.759C64.765,197.787,64.465,197.9,64.179,197.847Z" transform="translate(-10.846 -5.428)" fill="#fff"/>
    <path id="Path_447" data-name="Path 447" d="M59.9,246.34v1.822A5.164,5.164,0,0,1,59.9,246.34Z" transform="translate(-10.696 -69.159)" fill="#1d6d28"/>
    <path id="Path_448" data-name="Path 448" d="M226.72,248.585V246.92A4.43,4.43,0,0,1,226.72,248.585Z" transform="translate(-132.543 -69.582)" fill="#1d6d28"/>
    <path id="Path_449" data-name="Path 449" d="M75.41,302.736c.289.03.588-.1.867.073C75.99,302.744,75.688,302.868,75.41,302.736Z" transform="translate(-22.077 -110.317)" fill="#699d70"/>
    <path id="Path_450" data-name="Path 450" d="M69.444,195.238a18.96,18.96,0,0,1,.669-4.816,20.545,20.545,0,0,1,2.159-5.188,19.886,19.886,0,0,1,13.6-9.531c.227-.04.294,0,.394.224a3.29,3.29,0,0,0,3.123,2.068A3.243,3.243,0,0,0,92.5,176c.111-.227.173-.335.472-.27a19.6,19.6,0,0,1,11.232,6.406,19.921,19.921,0,0,1,4.924,10.644A20.367,20.367,0,0,1,108,203.015c-.094.251-.186.337-.478.27a3.382,3.382,0,0,0-3.323,5.434c.211.27.184.386-.019.61a20.013,20.013,0,0,1-12.179,6.5,18.571,18.571,0,0,1-4.2.127,19.789,19.789,0,0,1-11.391-4.813,19.037,19.037,0,0,1-2.159-2.216c-.143-.173-.165-.27-.03-.443a3.409,3.409,0,0,0-.516-4.4,3.361,3.361,0,0,0-2.462-.864.445.445,0,0,1-.54-.354,20.245,20.245,0,0,1-1.263-6.619A4.827,4.827,0,0,1,69.444,195.238Z" transform="translate(-17.701 -17.579)" fill="#1d6d28"/>
    <path id="Path_451" data-name="Path 451" d="M69.32,248.11v1.026A1.817,1.817,0,0,1,69.32,248.11Z" transform="translate(-17.577 -70.451)" fill="#bed5c1"/>
    <path id="Path_452" data-name="Path 452" d="M118.051,216.542a10,10,0,0,1,2.783-2.027,7.119,7.119,0,0,1,6.192-.057,5.648,5.648,0,0,1,2.915,3.663,12.306,12.306,0,0,1,.556,3.779v9.747a1.284,1.284,0,0,1-.7,1.35,1.846,1.846,0,0,1-1.917-.162,1.394,1.394,0,0,1-.448-1.215c0-3.077,0-6.155-.016-9.232a10.658,10.658,0,0,0-.553-3.779,3.492,3.492,0,0,0-3.32-2.429,5.89,5.89,0,0,0-3.461.764,4.153,4.153,0,0,0-2.008,3.8c-.019,3.566,0,7.134,0,10.7a3.258,3.258,0,0,1-.04.669,1.454,1.454,0,0,1-1.89,1.012,1.212,1.212,0,0,1-1.08-1.131,3.414,3.414,0,0,1-.043-.54V215.37a1.448,1.448,0,0,1,1.89-1.587,1.243,1.243,0,0,1,1.169,1.312C118.068,215.54,118.051,215.989,118.051,216.542Z" transform="translate(-50.995 -45.362)" fill="#fefefe"/>
  </g>
</svg>
