<svg xmlns="http://www.w3.org/2000/svg" width="141.836" height="18.439" viewBox="0 0 141.836 18.439">
  <path id="oracle-6" d="M61.232,12H70.6L65.648,4.023l-9.1,14.415H52.413L63.476,1.122A2.614,2.614,0,0,1,65.648,0a2.565,2.565,0,0,1,2.128,1.093L78.883,18.438H74.744l-1.953-3.221H63.3L61.232,12Zm43,3.221V.175h-3.513V16.689a1.722,1.722,0,0,0,.51,1.224,1.8,1.8,0,0,0,1.283.525h16.019l2.07-3.221H104.23Zm-58.114-2.7a6.173,6.173,0,1,0,0-12.346H30.749V18.439h3.512V3.4H45.883a2.959,2.959,0,0,1,0,5.918l-9.9-.014,10.486,9.139h5.1l-7.055-5.918h1.6ZM9.133,18.438a9.132,9.132,0,1,1,0-18.263H19.749a9.132,9.132,0,1,1,0,18.263H9.133Zm10.38-3.221a5.91,5.91,0,1,0,0-11.821H9.368a5.91,5.91,0,1,0,0,11.821H19.513Zm66.7,3.221a9.132,9.132,0,1,1,0-18.263H98.823L96.768,3.4H86.448a5.91,5.91,0,1,0,0,11.821H99.114l-2.07,3.221H86.215Zm42.955-3.221a5.9,5.9,0,0,1-5.685-4.3H138.5l2.07-3.221H123.486a5.919,5.919,0,0,1,5.685-4.3h10.305L141.559.175H128.937a9.132,9.132,0,1,0,0,18.264h10.83l2.07-3.221H129.17Z" fill="#ea1b22"/>
</svg>
