<svg xmlns="http://www.w3.org/2000/svg" xmlns:xlink="http://www.w3.org/1999/xlink" width="65.821" height="54.182" viewBox="0 0 65.821 54.182">
  <defs>
    <linearGradient id="linear-gradient" x1="0.629" y1="0.986" x2="0.373" y2="0.021" gradientUnits="objectBoundingBox">
      <stop offset="0" stop-color="#d1d8f4"/>
      <stop offset="0.08" stop-color="#c5cdf6"/>
      <stop offset="0.32" stop-color="#a7b1fa"/>
      <stop offset="0.56" stop-color="#919dfd"/>
      <stop offset="0.79" stop-color="#8491fe"/>
      <stop offset="1" stop-color="#808dff"/>
    </linearGradient>
  </defs>
  <g id="phpunit" transform="translate(0.001 -0.002)">
    <path id="Path_468" data-name="Path 468" d="M26.157,18.265a5.08,5.08,0,0,0,5.476,4.892c1.68-.2,2.385.65,1.82,2.217q-1.837,5.1-3.705,10.192a3.562,3.562,0,0,1-4.976,2.289Q13.737,33.848,2.709,29.813C.285,28.926-.54,27.146.344,24.71Q4.357,13.632,8.393,2.568A3.544,3.544,0,0,1,13.246.285Q24.429,4.327,35.6,8.423a3.546,3.546,0,0,1,2.255,4.871c-.183.516-.362,1.036-.569,1.543-.524,1.284-1.633,1.533-2.569.5a5.053,5.053,0,0,0-3.954-1.608,4.551,4.551,0,0,0-4.6,4.531Zm-1.172.049a5.814,5.814,0,0,1,7.259-5.584,5.712,5.712,0,0,1,3.231,1.74c.292.352.6.371.766-.124a21.24,21.24,0,0,0,.675-2.054A2.28,2.28,0,0,0,35.7,9.729a7.8,7.8,0,0,0-.967-.406Q23.848,5.351,12.96,1.39A2.477,2.477,0,0,0,9.454,3.036C8.621,5.282,7.808,7.527,7,9.773q-2.783,7.651-5.558,15.31c-.666,1.847-.132,2.984,1.69,3.653,3.882,1.425,7.774,2.825,11.66,4.241,3.464,1.262,6.946,2.479,10.379,3.82a2.6,2.6,0,0,0,3.542-1.7c1.183-3.388,2.442-6.749,3.663-10.121.226-.624.123-.669-.564-.7a10.625,10.625,0,0,1-2.624-.338,6.061,6.061,0,0,1-4.2-5.615Zm-3.877,35.6H18V49.349H14.173V53.9H11.029V42.156h3.093v4.3h3.861V42.165h3.124ZM26.5,50.071v3.838H23.374v-11.6a16.479,16.479,0,0,1,6.171.019,3.443,3.443,0,0,1,2.789,3.654A3.694,3.694,0,0,1,29.27,49.7C28.4,49.9,27.5,49.942,26.5,50.071Zm-.009-2.521c.383,0,.653.024.918,0,.722-.073,1.469-.268,1.647-1.036a2.159,2.159,0,0,0-.254-1.573c-.46-.645-1.281-.545-2-.449a.516.516,0,0,0-.3.4c-.028.84-.013,1.681-.013,2.657ZM3.534,50.076v3.841H.468c-.021-.217-.055-.407-.055-.6,0-3.443.013-6.876-.016-10.313,0-.6.2-.8.749-.8a46.69,46.69,0,0,1,4.91.022,3.481,3.481,0,0,1,3.338,3.49A3.741,3.741,0,0,1,6.3,49.7c-.865.2-1.762.244-2.765.373Zm.021-2.5c.539-.042.958-.04,1.362-.112a1.348,1.348,0,0,0,1.266-1.175c.028-.484-.121-1.243-.449-1.427a5.3,5.3,0,0,0-1.97-.347c-.055,0-.2.26-.2.4-.016.838-.007,1.677-.007,2.659Zm30.56-5.419h2.5c.015.3.036.564.037.829,0,1.921-.019,3.841.012,5.761a7.242,7.242,0,0,0,.256,1.838A1.808,1.808,0,0,0,38.8,51.995a1.831,1.831,0,0,0,1.928-1.446,8.166,8.166,0,0,0,.241-1.918c.03-1.87.01-3.743.01-5.611v-.856h2.671c0,.68.007,1.319,0,1.96-.027,1.919.015,3.843-.112,5.755a4.055,4.055,0,0,1-2.753,3.915,5.213,5.213,0,0,1-5.3-.74A3.717,3.717,0,0,1,34.142,50.3C34.058,47.607,34.115,44.921,34.115,42.153ZM45.9,45.361a8.366,8.366,0,0,1,1.84.042c.262.058.421.57.657.925.111-.093.3-.262.5-.425a2.96,2.96,0,0,1,4.922,1.708,28.827,28.827,0,0,1,.184,4.171c.021.692,0,1.385,0,2.127H51.338V50.4a16.858,16.858,0,0,0-.049-1.719c-.093-.9-.585-1.365-1.316-1.338a1.434,1.434,0,0,0-1.4,1.4c-.054,1.293-.03,2.591-.036,3.892v1.292H45.907Zm19.9,6.573a11.889,11.889,0,0,1-.022,1.546.731.731,0,0,1-.457.513,7.263,7.263,0,0,1-1.853.057A2.075,2.075,0,0,1,61.5,52.128a30.63,30.63,0,0,1-.15-3.277c-.015-.47,0-.94,0-1.461l-1.108-.112V45.429l1.066-.118c.027-.5.052-1.013.081-1.564l2.554-.7v2.314H65.82v1.946H64.037c0,1.347-.027,2.611.013,3.868a.792.792,0,0,0,.868.757C65.164,51.948,65.419,51.935,65.807,51.935Zm-9.618,1.979v-8.5h2.582v8.5Z" transform="translate(0 0)"/>
    <path id="Path_469" data-name="Path 469" d="M188.889,107.356a2.774,2.774,0,1,1,2.726,2.793A2.774,2.774,0,0,1,188.889,107.356Zm4.172,0a1.415,1.415,0,1,1,0-.009Zm25.079,23.091a1.428,1.428,0,0,1,1.374,1.4,1.4,1.4,0,1,1-1.374-1.4ZM207.094,115.7l1.617,1.5-1.048,1.12-1.564-1.455Zm-7.183-5.258,1.868,1.174-.844,1.289-1.8-1.133Zm9.268,9.428,1.115-1.067c.5.564.963,1.093,1.475,1.677l-1.18.976Zm4.008,2.346,1.317,1.772-1.241.885c-.431-.57-.838-1.111-1.3-1.72Zm-9.569-9.319,1.777,1.361-.985,1.2-1.672-1.283Zm13.27,14.853-1.308.784-1.124-1.828,1.3-.855Zm-19.671-17.061-1.915-.969c.226-.457.43-.865.68-1.368l1.976.975Z" transform="translate(-160.612 -88.941)"/>
    <path id="Path_470" data-name="Path 470" d="M31.55,24.88a6.063,6.063,0,0,0,4.192,5.615,10.581,10.581,0,0,0,2.624.338c.687.033.79.078.564.7-1.222,3.373-2.481,6.737-3.663,10.121a2.594,2.594,0,0,1-3.542,1.7c-3.433-1.347-6.915-2.558-10.379-3.82-3.892-1.416-7.784-2.816-11.66-4.241C7.864,34.628,7.33,33.492,8,31.645q2.76-7.666,5.57-15.314c.817-2.246,1.624-4.5,2.458-6.737A2.48,2.48,0,0,1,19.53,7.948q10.888,3.961,21.77,7.934a7.8,7.8,0,0,1,.963.412,2.278,2.278,0,0,1,1.219,2.563,21.238,21.238,0,0,1-.675,2.054c-.172.5-.475.476-.766.124a5.712,5.712,0,0,0-3.231-1.74A5.814,5.814,0,0,0,31.55,24.88Z" transform="translate(-6.565 -6.562)" fill="url(#linear-gradient)"/>
    <g id="Group_126" data-name="Group 126" transform="translate(3.553 17.034)">
      <path id="Path_471" data-name="Path 471" d="M46.667,144.29c0-.976-.015-1.817.013-2.657a.516.516,0,0,1,.3-.4c.72-.1,1.542-.2,2,.449a2.159,2.159,0,0,1,.254,1.573c-.183.768-.93.963-1.647,1.036C47.319,144.314,47.05,144.29,46.667,144.29Zm-22.928.022c0-.982-.009-1.82.01-2.659,0-.142.15-.409.2-.4a5.3,5.3,0,0,1,1.97.347c.325.184.475.943.449,1.427A1.344,1.344,0,0,1,25.1,144.2C24.7,144.272,24.277,144.271,23.738,144.313Zm28.894-29.166a1.391,1.391,0,1,1-.881-1.275A1.4,1.4,0,0,1,52.632,115.146Z" transform="translate(-23.736 -113.774)" fill="#fff"/>
    </g>
  </g>
</svg>
