<svg xmlns="http://www.w3.org/2000/svg" width="55.125" height="56.832" viewBox="0 0 55.125 56.832">
  <g id="postgresql" transform="translate(-0.297 -0.365)">
    <path id="Path_404" data-name="Path 404" d="M55.276,34.408a2.8,2.8,0,0,0-2.322-1.87,5.316,5.316,0,0,0-1.853.1,16.651,16.651,0,0,1-2.855.375,55.056,55.056,0,0,0,5.829-13.863c1.934-7.488.9-10.9-.307-12.441A16.723,16.723,0,0,0,40.284.366a23.9,23.9,0,0,0-7.01.982,26.1,26.1,0,0,0-4.1-.375,13.326,13.326,0,0,0-7.14,1.759,32.554,32.554,0,0,0-5.043-1.266c-4.93-.809-8.9-.179-11.811,1.875C1.662,5.827.031,10.147.333,16.18A73.782,73.782,0,0,0,3.187,29.45,45.83,45.83,0,0,0,6.26,37.292c1.517,2.874,3.14,4.566,4.962,5.174a4.877,4.877,0,0,0,4.828-1.047,4.222,4.222,0,0,0,1.015.874,6.755,6.755,0,0,0,1.916.807,10.288,10.288,0,0,0,6.7-.4c.012.348.021.68.029.967.013.466.026.922.043,1.349a23.627,23.627,0,0,0,.894,6.7c.032.086.075.218.12.358a8.068,8.068,0,0,0,2.011,3.542A6,6,0,0,0,33.018,57.2,9.534,9.534,0,0,0,35,56.976c2.12-.454,4.527-1.146,6.268-3.626,1.646-2.344,2.447-5.875,2.592-11.438.019-.157.036-.308.053-.451l.035-.294.388.034.1.007a15.348,15.348,0,0,0,6.42-1.112c1.281-.594,5.386-2.762,4.42-5.688" transform="translate(0 0)"/>
    <path id="Path_405" data-name="Path 405" d="M60.251,43.645C53.831,44.97,53.39,42.8,53.39,42.8,60.167,32.739,63,19.973,60.556,16.849c-6.671-8.523-18.217-4.492-18.41-4.388l-.062.011a22.894,22.894,0,0,0-4.283-.446,10.578,10.578,0,0,0-6.78,2.029s-20.6-8.486-19.64,10.672c.2,4.076,5.842,30.839,12.566,22.755,2.458-2.956,4.833-5.455,4.833-5.455a6.234,6.234,0,0,0,4.072,1.04l.115-.1a4.486,4.486,0,0,0,.046,1.151c-1.732,1.936-1.223,2.275-4.686,2.988-3.5.722-1.446,2.008-.1,2.344a7.12,7.12,0,0,0,7.946-2.581l-.1.407c.679.544,1.155,3.536,1.075,6.249s-.133,4.575.4,6.03,1.068,4.728,5.621,3.753c3.8-.815,5.775-2.928,6.05-6.452.194-2.505.635-2.135.663-4.375l.353-1.06c.407-3.4.065-4.492,2.408-3.982l.57.05a12.982,12.982,0,0,0,5.307-.893c2.853-1.324,4.545-3.535,1.732-2.954h0" transform="translate(-8.666 -8.668)" fill="#336791"/>
    <path id="Path_406" data-name="Path 406" d="M102.338,79.964a1.991,1.991,0,0,0-1.367.195.5.5,0,0,0-.208.334.975.975,0,0,0,.237.638,1.788,1.788,0,0,0,1.135.708,1.292,1.292,0,0,0,.182.013,1.471,1.471,0,0,0,1.394-.948c.07-.5-.662-.84-1.372-.939m19.164.016c-.055-.4-.758-.508-1.426-.415s-1.313.394-1.259.79a1.353,1.353,0,0,0,1.258.834,1.2,1.2,0,0,0,.168-.012,1.622,1.622,0,0,0,.915-.5,1.009,1.009,0,0,0,.343-.7" transform="translate(-78.777 -62.081)" fill="#fff"/>
    <path id="Path_407" data-name="Path 407" d="M59.332,40.318c-.245-.74-1.033-.978-2.342-.708-3.886.8-5.278.246-5.735-.09A53.437,53.437,0,0,0,58.1,24.165a29.175,29.175,0,0,0,1.014-6.6,7.131,7.131,0,0,0-1.034-4.46A15.187,15.187,0,0,0,45.8,7.368a21.035,21.035,0,0,0-7.1,1.119,17.693,17.693,0,0,0-3.994-.513,11.537,11.537,0,0,0-6.843,1.887A30.549,30.549,0,0,0,22.309,8.4c-4.505-.725-8.085-.176-10.64,1.634-3.048,2.16-4.456,6.02-4.183,11.474A72.033,72.033,0,0,0,10.274,34.4c2.172,7.115,4.533,11.143,7.017,11.972a3.143,3.143,0,0,0,1,.165,4.16,4.16,0,0,0,3.173-1.8q2.115-2.537,4.373-4.949a7.046,7.046,0,0,0,3.146.846c0,.029,0,.057.008.086q-.283.338-.555.685c-.76.965-.918,1.166-3.365,1.67-.7.144-2.545.525-2.572,1.821-.029,1.416,2.185,2.011,2.438,2.074a10.441,10.441,0,0,0,2.534.329,7.375,7.375,0,0,0,5.076-1.9c-.043,5.048.168,10.022.774,11.537.5,1.241,1.709,4.273,5.54,4.272A8.886,8.886,0,0,0,40.717,61c4-.857,5.734-2.624,6.405-6.519.359-2.082.976-7.053,1.266-9.72a7.833,7.833,0,0,0,2.252.278,13.406,13.406,0,0,0,5.113-.974C57.2,43.394,59.8,41.748,59.332,40.318ZM49.812,22.3a16.173,16.173,0,0,1-.236,2.248,20.762,20.762,0,0,0-.284,2.639A20.011,20.011,0,0,0,49.5,30.17c.239,1.99.485,4.039-.465,6.061a7.881,7.881,0,0,1-.421-.865c-.118-.286-.375-.746-.73-1.382-1.381-2.477-4.616-8.278-2.96-10.645.493-.7,1.745-1.429,4.887-1.039ZM46,8.962a13.431,13.431,0,0,1,10.826,5.12c1.978,2.528-.2,14.03-6.506,23.952l-.191-.241-.08-.1C51.682,35,51.364,32.34,51.08,29.98a18.5,18.5,0,0,1-.2-2.743,19.43,19.43,0,0,1,.266-2.448,15.455,15.455,0,0,0,.249-3.03,1.255,1.255,0,0,0,.026-.427,17.01,17.01,0,0,0-3.88-7.3A17.477,17.477,0,0,0,41.375,9.4,20.8,20.8,0,0,1,46,8.962ZM20.236,43.718c-1.273,1.531-2.153,1.238-2.442,1.141-1.884-.629-4.071-4.611-6-10.927a71.38,71.38,0,0,1-2.72-12.5c-.243-4.873.938-8.27,3.511-10.095,4.188-2.97,11.074-1.192,13.841-.291-.04.039-.081.076-.12.116-4.541,4.585-4.433,12.42-4.422,12.9,0,.185.015.446.036.806a32.413,32.413,0,0,1-.165,6.548,8.28,8.28,0,0,0,2.182,6.931q.269.28.565.533C23.726,39.711,22.036,41.553,20.236,43.718Zm4.852-6.474a6.7,6.7,0,0,1-1.755-5.61,33.886,33.886,0,0,0,.177-6.862c-.011-.192-.022-.36-.027-.493.663-.588,3.737-2.235,5.929-1.733a2.412,2.412,0,0,1,1.863,2.082c1.311,6.066.174,8.594-.741,10.626-.188.419-.367.814-.518,1.223l-.118.316a20.741,20.741,0,0,0-.748,2.25,5.659,5.659,0,0,1-4.062-1.8Zm.23,8.181a3.517,3.517,0,0,1-1.061-.456,5.183,5.183,0,0,1,1.131-.337c2.879-.592,3.323-1.011,4.294-2.244.223-.283.475-.6.824-.993h0c.52-.583.758-.484,1.19-.3a1.684,1.684,0,0,1,.829,1.066,1.186,1.186,0,0,1-.1,1C30.4,45.993,27.44,45.956,25.318,45.425Zm15.066,14.02c-3.522.755-4.769-1.042-5.59-3.1-.53-1.326-.791-7.306-.606-13.911a.8.8,0,0,0-.034-.253,3.334,3.334,0,0,0-.1-.467,3.224,3.224,0,0,0-1.749-2.1,2.467,2.467,0,0,0-1.61-.195,19.456,19.456,0,0,1,.693-2.075l.118-.318c.133-.359.3-.731.478-1.125.957-2.126,2.267-5.037.845-11.615-.533-2.464-2.312-3.667-5.009-3.387A11.557,11.557,0,0,0,23.987,22.1c-.159.08-.3.158-.439.234.206-2.482.984-7.121,3.894-10.056a9.562,9.562,0,0,1,7.246-2.711,15.359,15.359,0,0,1,11.735,5.608,17.809,17.809,0,0,1,3.211,5.506c-2.969-.3-4.988.284-6.012,1.748-2.227,3.183,1.218,9.362,2.874,12.331.3.544.566,1.014.648,1.214a11.026,11.026,0,0,0,1.747,2.816c.156.2.308.384.423.55-.9.259-2.514.858-2.367,3.852-.119,1.5-.963,8.536-1.392,11.021-.566,3.283-1.774,4.506-5.171,5.234Zm14.7-16.822a11.6,11.6,0,0,1-3.92.816,4.916,4.916,0,0,1-2.63-.339c-.091-1.866.6-2.061,1.339-2.267.115-.032.228-.064.337-.1a2.747,2.747,0,0,0,.223.163c1.3.856,3.612.949,6.88.274l.036-.007A8.8,8.8,0,0,1,55.084,42.622Z" transform="translate(-5.611 -5.491)" fill="#fff"/>
  </g>
</svg>
