<svg xmlns="http://www.w3.org/2000/svg" width="54.547" height="54.547" viewBox="0 0 54.547 54.547">
  <g id="postman" transform="translate(0.002 0.003)">
    <path id="Path_472" data-name="Path 472" d="M48.857,10.6a27.272,27.272,0,1,0-4.91,38.25,27.272,27.272,0,0,0,4.91-38.25Z" transform="translate(0 0)" fill="#ff6c37"/>
    <path id="Path_473" data-name="Path 473" d="M40.236,20.165l-11.5,11.591-3.25-3.341c11.318-11.318,12.454-10.3,14.75-8.25Z" transform="translate(-3.766 -2.789)" fill="#fff"/>
    <path id="Path_474" data-name="Path 474" d="M28.665,32a.409.409,0,0,1-.273-.113L25.12,28.615a.409.409,0,0,1,0-.568C36.279,16.888,37.8,17.411,40.438,19.8a.364.364,0,0,1,.136.3.32.32,0,0,1-.113.3l-11.5,11.5a.431.431,0,0,1-.3.113Zm-2.682-3.659,2.682,2.682L39.574,20.116a2.455,2.455,0,0,0-3.228-.545C34.37,20.457,31.188,23.161,25.983,28.343Z" transform="translate(-3.694 -2.718)" fill="#ff6c37"/>
    <path id="Path_475" data-name="Path 475" d="M32.623,35.223l-3.136-3.2,11.5-11.364c3.091,3.023-1.5,8.068-8.363,14.568Z" transform="translate(-4.357 -3.052)" fill="#fff"/>
    <path id="Path_476" data-name="Path 476" d="M32.558,35.537a.477.477,0,0,1-.273-.113l-3.2-3.136a.477.477,0,0,1,0-.364.441.441,0,0,1,0-.3l11.5-11.5a.431.431,0,0,1,.591,0,3.525,3.525,0,0,1,1.136,2.7c0,3.068-3.5,6.931-9.454,12.568a.477.477,0,0,1-.3.136Zm-2.546-3.614L32.58,34.49c4.545-4.3,8.887-8.727,8.909-11.727a2.591,2.591,0,0,0-.591-1.75Z" transform="translate(-4.291 -2.957)" fill="#ff6c37"/>
    <path id="Path_477" data-name="Path 477" d="M25.06,30.14l2.273,2.273a.136.136,0,0,1,0,.2l-4.8,1.023a.454.454,0,0,1-.409-.773l2.8-2.772A.225.225,0,0,1,25.06,30.14Z" transform="translate(-3.249 -4.447)" fill="#fff"/>
    <path id="Path_478" data-name="Path 478" d="M22.353,34.027a.886.886,0,0,1-.75-.432.864.864,0,0,1,.159-1.023l2.772-2.8a.545.545,0,0,1,.727,0l2.273,2.273a.5.5,0,0,1,.136.5.527.527,0,0,1-.386.364l-4.8,1.023ZM24.9,30.573,22.33,33.141l4.25-.909ZM25.1,30.368Z" transform="translate(-3.177 -4.379)" fill="#ff6c37"/>
    <path id="Path_479" data-name="Path 479" d="M48.672,12.68a4.409,4.409,0,1,0-.8,6.954l-3.091-3.091Z" transform="translate(-6.087 -1.691)" fill="#fff"/>
    <path id="Path_480" data-name="Path 480" d="M45.543,20.616a4.823,4.823,0,0,1-3.372-8.2,4.866,4.866,0,0,1,6.818,0,.386.386,0,0,1,.136.3.392.392,0,0,1-.136.3l-3.682,3.477,2.8,2.75a.384.384,0,0,1,.113.341.409.409,0,0,1-.182.3,4.943,4.943,0,0,1-2.5.75Zm0-8.818a3.994,3.994,0,1,0,1.591,7.659l-2.682-2.682a.364.364,0,0,1,0-.568L48,12.638a4.078,4.078,0,0,0-2.455-.841Z" transform="translate(-6.026 -1.628)" fill="#ff6c37"/>
    <path id="Path_481" data-name="Path 481" d="M49.373,12.974l-3.886,3.863,3.091,3.091a4.7,4.7,0,0,0,.863-.637A4.545,4.545,0,0,0,49.373,12.974Z" transform="translate(-6.72 -1.917)" fill="#fff"/>
    <path id="Path_482" data-name="Path 482" d="M48.426,20.19a.341.341,0,0,1-.273-.113l-3.091-3.091a.364.364,0,0,1,0-.568l3.863-3.8a.409.409,0,0,1,.682,0,4.773,4.773,0,0,1,0,6.818,4.159,4.159,0,0,1-.909.727.367.367,0,0,1-.273.023Zm-2.5-3.5,2.568,2.568a4.365,4.365,0,0,0,.5-.409,4.023,4.023,0,0,0,1.182-2.841,3.9,3.9,0,0,0-.978-2.591Z" transform="translate(-6.637 -1.838)" fill="#ff6c37"/>
    <path id="Path_483" data-name="Path 483" d="M41.174,20.87a1.66,1.66,0,0,0-2.273,0L28.607,31.141l1.7,1.728L41.2,23.324a1.685,1.685,0,0,0-.023-2.455Z" transform="translate(-4.227 -3.017)" fill="#fff"/>
    <path id="Path_484" data-name="Path 484" d="M30.133,33.207a.409.409,0,0,1-.273-.113l-1.728-1.728a.409.409,0,0,1,0-.568l10.3-10.25A2.091,2.091,0,0,1,42,22.093a2.139,2.139,0,0,1-.7,1.5L30.406,33.138a.388.388,0,0,1-.273.068Zm-1.2-2.137,1.136,1.159,10.681-9.3a1.255,1.255,0,0,0,.432-.909,1.22,1.22,0,0,0-.386-.932,1.272,1.272,0,0,0-1.8,0Z" transform="translate(-4.14 -2.946)" fill="#ff6c37"/>
    <path id="Path_485" data-name="Path 485" d="M18.624,45a.23.23,0,0,0,0,.273l.454,1.977a.586.586,0,0,1-.283.6.554.554,0,0,1-.649-.066l-3.113-3L24.738,35H28.1l2.273,2.273A51.6,51.6,0,0,1,18.624,45Z" transform="translate(-2.221 -5.171)" fill="#fff"/>
    <path id="Path_486" data-name="Path 486" d="M18.349,48.266a.96.96,0,0,1-.682-.3L14.69,44.994a.364.364,0,0,1,0-.568l9.772-9.8a.384.384,0,0,1,.2-.113h3.386a.409.409,0,0,1,.273,0L30.6,36.79a.439.439,0,0,1-.023.614l-.182.159A55.678,55.678,0,0,1,18.735,45.04l.432,1.841a.98.98,0,0,1-.932,1.2ZM15.577,44.7l2.681,2.7a.121.121,0,1,0,.182-.159l-.454-1.977a.634.634,0,0,1,.341-.727A55.874,55.874,0,0,0,29.689,37.22l-1.864-1.864H24.78ZM18.849,45.107Z" transform="translate(-2.15 -5.096)" fill="#ff6c37"/>
    <path id="Path_487" data-name="Path 487" d="M12.25,48.82l2.273-2.273,3.5,3.5-5.568-.386a.455.455,0,0,1-.2-.84Z" transform="translate(-1.778 -6.877)" fill="#fff"/>
    <path id="Path_488" data-name="Path 488" d="M18.043,50.321,12.5,49.935a.878.878,0,0,1-.728-.557.869.869,0,0,1,.182-.9l2.273-2.273a.409.409,0,0,1,.568,0l3.477,3.477a.385.385,0,0,1,0,.454.432.432,0,0,1-.228.182ZM12.5,49.049l4.545.3L14.543,47Z" transform="translate(-1.731 -6.81)" fill="#ff6c37"/>
    <path id="Path_489" data-name="Path 489" d="M29.944,34.987l-4.591.7,2.659-2.636Z" transform="translate(-3.746 -4.884)" fill="#fff"/>
    <path id="Path_490" data-name="Path 490" d="M25.277,36.055a.389.389,0,0,1-.364-.228.384.384,0,0,1,0-.454l2.636-2.659a.431.431,0,0,1,.591,0l1.933,1.931a.383.383,0,0,1,0,.409.4.4,0,0,1-.318.3l-4.545.7Zm2.659-2.478-1.477,1.477L29,34.668Z" transform="translate(-3.67 -4.816)" fill="#ff6c37"/>
    <path id="Path_491" data-name="Path 491" d="M30.1,34.985l-3.2.409a.409.409,0,0,1-.386-.682l1.659-1.659Z" transform="translate(-3.9 -4.884)" fill="#fff"/>
    <path id="Path_492" data-name="Path 492" d="M26.729,33.285A.841.841,0,0,1,26,32.853a.818.818,0,0,1,.136-.978L27.8,30.216a.431.431,0,0,1,.591,0l1.932,1.932a.409.409,0,0,1-.25.7l-3.181.409Zm0-.841,2.409-.3L28.07,31.08l-1.364,1.364ZM46.5,16.012a.341.341,0,0,0-.432-.136.315.315,0,0,0-.159.187.321.321,0,0,0,.022.245.978.978,0,0,1-.113,1.023.288.288,0,0,0-.085.216.324.324,0,0,0,.085.216.247.247,0,0,0,.182,0,.3.3,0,0,0,.3-.091,1.568,1.568,0,0,0,.2-1.659Z" transform="translate(-3.826 -2.341)" fill="#ff6c37"/>
  </g>
</svg>
