<svg xmlns="http://www.w3.org/2000/svg" xmlns:xlink="http://www.w3.org/1999/xlink" width="156.664" height="45.469" viewBox="0 0 156.664 45.469">
  <defs>
    <linearGradient id="linear-gradient" x1="-24.752" y1="3.243" x2="-23.427" y2="2.114" gradientUnits="objectBoundingBox">
      <stop offset="0" stop-color="#5a9fd4"/>
      <stop offset="1" stop-color="#306998"/>
    </linearGradient>
    <linearGradient id="linear-gradient-2" x1="-23.216" y1="1.078" x2="-23.689" y2="1.736" gradientUnits="objectBoundingBox">
      <stop offset="0" stop-color="#ffd43b"/>
      <stop offset="1" stop-color="#ffe873"/>
    </linearGradient>
    <radialGradient id="radial-gradient" cx="0.5" cy="0.489" r="0.5" gradientUnits="objectBoundingBox">
      <stop offset="0" stop-color="#b8b8b8" stop-opacity="0.498"/>
      <stop offset="1" stop-color="#7f7f7f" stop-opacity="0"/>
    </radialGradient>
  </defs>
  <g id="python-3" transform="translate(-5.591 -3.262)">
    <path id="Path_310" data-name="Path 310" d="M160.416,22.62q0-7.207-4.11-7.407a7.717,7.717,0,0,0-3.19.524,4.678,4.678,0,0,0-1.676.885V28.091a8.14,8.14,0,0,0,4.667,1.531Q160.414,29.336,160.416,22.62Zm3.38.2a10.192,10.192,0,0,1-1.724,6.079,6.356,6.356,0,0,1-5.335,2.814,9.466,9.466,0,0,1-5.3-1.608V40.527l-2.94-1.049V16.342a6.578,6.578,0,0,1,1.856-1.531,12.736,12.736,0,0,1,6.378-1.569l.042.042a5.851,5.851,0,0,1,5.287,2.814A11.959,11.959,0,0,1,163.8,22.819Zm17.965,6.841q0,4.911-.984,6.8a6.938,6.938,0,0,1-3.766,3.017,14.427,14.427,0,0,1-4.869.968l-.486-1.852a23.359,23.359,0,0,0,3.744-.724,4.946,4.946,0,0,0,2.94-2.213,11.1,11.1,0,0,0,.643-4.628v-.766a15.1,15.1,0,0,1-6.319,1.367,5.809,5.809,0,0,1-3.824-1.367,4.65,4.65,0,0,1-1.852-3.782V14.248l2.94-1.007V25.556A3.742,3.742,0,0,0,171.2,28.6a4.811,4.811,0,0,0,3.3,1.026,8.243,8.243,0,0,0,4.325-1.57V13.685h2.94V29.66Zm11.475,1.891q-.483.041-.968.042a5.784,5.784,0,0,1-3.885-1.19A4.11,4.11,0,0,1,187,27.113V15.534h-2.013V13.685H187V8.774l2.936-1.045v5.956h3.3v1.849h-3.3v11.5a2.785,2.785,0,0,0,.887,2.342,4.491,4.491,0,0,0,2.415.646v1.531Zm17.8-.241H208.1V19.963a5.362,5.362,0,0,0-.807-2.978,2.937,2.937,0,0,0-2.589-1.409q-2.021,0-5.056,2.132v13.6H196.7V4.188l2.939-.926V15.615a10.241,10.241,0,0,1,6.159-2.052,4.909,4.909,0,0,1,3.782,1.57,5.527,5.527,0,0,1,1.451,3.9V31.31h0Zm15.624-9.153a9.029,9.029,0,0,0-1.049-4.577,4.389,4.389,0,0,0-3.862-2.325q-4.834.28-4.831,6.921a11.385,11.385,0,0,0,1.01,5.085,4.06,4.06,0,0,0,3.879,2.56Q226.659,29.782,226.659,22.157Zm3.219.019a10.455,10.455,0,0,1-2.013,6.561,7.24,7.24,0,0,1-6.117,2.936,7.1,7.1,0,0,1-6.04-2.936,10.594,10.594,0,0,1-1.972-6.561,9.365,9.365,0,0,1,2.133-6.239,7.347,7.347,0,0,1,5.918-2.7,7.47,7.47,0,0,1,5.959,2.7,9.365,9.365,0,0,1,2.133,6.239ZM246.73,31.31h-2.94V19.32a4.01,4.01,0,0,0-1.187-3.081,4.312,4.312,0,0,0-3.162-1.065,7.065,7.065,0,0,0-3.985,1.367V31.31h-2.94V16.178a14.485,14.485,0,0,1,4.67-2.412,14.252,14.252,0,0,1,3.544-.524,9.192,9.192,0,0,1,1.971.2,5.671,5.671,0,0,1,2.817,1.489,3.939,3.939,0,0,1,1.209,2.9Z" transform="translate(-95.755)" fill="#646464"/>
    <path id="Path_311" data-name="Path 311" d="M23.712,6.4a25.23,25.23,0,0,0-4.227.361c-3.744.662-4.423,2.046-4.423,4.6v3.372h8.847v1.124H11.741a5.524,5.524,0,0,0-5.527,4.485,16.536,16.536,0,0,0,0,8.991c.629,2.619,2.131,4.485,4.7,4.485h3.042V29.773a5.622,5.622,0,0,1,5.527-5.5h8.837a4.457,4.457,0,0,0,4.423-4.5V11.357a4.939,4.939,0,0,0-4.423-4.6A27.6,27.6,0,0,0,23.712,6.4ZM18.928,9.109a1.686,1.686,0,1,1-1.66,1.691,1.679,1.679,0,0,1,1.66-1.691Z" transform="translate(0 -2.101)" fill="url(#linear-gradient)"/>
    <path id="Path_312" data-name="Path 312" d="M53.079,35.054v3.928a5.674,5.674,0,0,1-5.527,5.609H38.715a4.513,4.513,0,0,0-4.423,4.5v8.424c0,2.4,2.085,3.808,4.423,4.5a14.8,14.8,0,0,0,8.837,0c2.227-.645,4.423-1.943,4.423-4.5V54.14H43.139V53.016H56.4c2.571,0,3.529-1.794,4.423-4.485.924-2.771.885-5.436,0-8.991-.636-2.559-1.849-4.485-4.423-4.485Zm-4.97,21.334a1.686,1.686,0,1,1-1.66,1.681A1.67,1.67,0,0,1,48.109,56.388Z" transform="translate(-19.231 -21.302)" fill="url(#linear-gradient-2)"/>
    <path id="Path_313" data-name="Path 313" d="M461.074,19.563h.515V16.33h1.221v-.385h-2.957v.385h1.221v3.232m2.194,0h.44V16.611l.956,2.952h.49l1-2.942v2.942h.48V15.945h-.635l-1.089,3.1-.928-3.1h-.71v3.617" transform="translate(-304.374 -8.498)" fill="#646464"/>
    <path id="Path_314" data-name="Path 314" d="M49.188,129.429c0,1.27-5.308,2.3-11.856,2.3s-11.856-1.029-11.856-2.3,5.308-2.3,11.856-2.3S49.188,128.16,49.188,129.429Z" transform="translate(-13.323 -82.997)" opacity="0.444" fill="url(#radial-gradient)"/>
  </g>
</svg>
