<svg id="rails-1" xmlns="http://www.w3.org/2000/svg" width="124.958" height="43.936" viewBox="0 0 124.958 43.936">
  <path id="Path_315" data-name="Path 315" d="M196.024,84.692V90.4h10.321a5.9,5.9,0,0,0,5.871-5.871V82.324a5.829,5.829,0,0,0-5.871-5.871H201.2V73.8h10.195V68.058H201.61a6.007,6.007,0,0,0-5.9,5.965v1.988a5.9,5.9,0,0,0,5.9,5.871c7.1.032-1.7,0,4.861,0V84.66M140.725,83.3s5.524-.473,5.524-7.607a7.54,7.54,0,0,0-6.691-7.8H127.5V90.4h6.06V84.976L138.8,90.4h8.964Zm-2.336-4.608H133.56V73.55h4.861a2.536,2.536,0,0,1,1.357,2.557A2.6,2.6,0,0,1,138.389,78.695Zm22.82-10.637h-6.155a5.912,5.912,0,0,0-5.871,5.871V90.4h6.155V86.459h5.776V90.4h5.965V73.929C167.08,69.131,162.724,68.058,161.209,68.058Zm-.095,12.026h-5.808v-5.46s0-1.231,1.925-1.231h2.115c1.7,0,1.736,1.231,1.736,1.231v5.46Zm8.775-12.026H176.3V90.4h-6.407Zm15.4,16.571V68.058h-6.376V90.4h14.992V84.628Z" transform="translate(-87.257 -46.469)" fill="#c00"/>
  <path id="Path_316" data-name="Path 316" d="M7,50.812H31.935S27.169,29.065,42.95,20.259c3.44-1.673,14.393-7.922,32.321,5.334.568-.473,1.1-.852,1.1-.852S59.963,8.36,41.688,10.19C32.5,11.011,21.2,19.375,14.575,30.422S7,50.812,7,50.812Z" transform="translate(-4.791 -6.876)" fill="#c00"/>
  <path id="Path_317" data-name="Path 317" d="M7,50.812H31.935S27.169,29.065,42.95,20.259c3.44-1.673,14.393-7.922,32.321,5.334.568-.473,1.1-.852,1.1-.852S59.963,8.36,41.688,10.19C32.5,11.011,21.2,19.375,14.575,30.422S7,50.812,7,50.812Z" transform="translate(-4.791 -6.876)" fill="#c00"/>
  <path id="Path_318" data-name="Path 318" d="M7,47.974H31.935S27.169,26.227,42.95,17.421c3.44-1.673,14.393-7.922,32.321,5.334.568-.473,1.1-.852,1.1-.852S59.963,5.521,41.688,7.352c-9.216.821-20.516,9.185-27.144,20.232S7,47.974,7,47.974ZM58.953,9.119,59.079,7a15.435,15.435,0,0,0-3.062-1.1l-.126,2.083C56.933,8.33,57.943,8.709,58.953,9.119Z" transform="translate(-4.791 -4.038)" fill="#c00"/>
  <path id="Path_319" data-name="Path 319" d="M51.164,11.773l-.126,1.988a17.6,17.6,0,0,1,3.125.379l.126-1.957A22.351,22.351,0,0,0,51.164,11.773ZM39.485,1.925H39.8L39.17,0a25.184,25.184,0,0,0-3.03.189l.6,1.862A26.647,26.647,0,0,1,39.485,1.925ZM41,13.541l.726,2.178a19.969,19.969,0,0,1,2.746-1.1l-.694-2.083A22.9,22.9,0,0,0,41,13.541Zm-14.33-8.3-1.42-2.178c-.789.41-1.61.852-2.462,1.357L24.24,6.628c.821-.505,1.61-.978,2.43-1.389Zm6.47,14.2,1.515,2.273a17.525,17.525,0,0,1,1.862-2.241L35.1,17.328a17.462,17.462,0,0,0-1.957,2.115ZM28.565,29.606l2.557,2.02a25.207,25.207,0,0,1,.663-3.693l-2.273-1.8a30.01,30.01,0,0,0-.947,3.472ZM14.74,14.614,12.5,12.657c-.821.789-1.61,1.578-2.336,2.367l2.43,2.083A31.966,31.966,0,0,1,14.74,14.614ZM5.208,28.722,1.578,27.4C.978,28.754.316,30.332,0,31.184L3.63,32.51C4.04,31.437,4.7,29.89,5.208,28.722Zm22.883,8.9A32.066,32.066,0,0,0,28.47,41.6l3.788,1.357a41.716,41.716,0,0,1-.758-4.1Z" transform="translate(0 0)" fill="#c00"/>
</svg>
