<svg xmlns="http://www.w3.org/2000/svg" width="49.214" height="53.677" viewBox="0 0 49.214 53.677">
  <g id="react-native-1" transform="translate(-670.088 -273.075)">
    <path id="Path_359" data-name="Path 359" d="M724.546,294.7c0-3.216-4.027-6.264-10.2-8.154,1.425-6.293.792-11.3-2-12.9a4.337,4.337,0,0,0-2.216-.554v2.207a2.291,2.291,0,0,1,1.128.257c1.346.772,1.93,3.711,1.474,7.491-.109.93-.287,1.91-.5,2.909a47.973,47.973,0,0,0-6.284-1.079,48.253,48.253,0,0,0-4.117-4.948c3.226-3,6.254-4.641,8.312-4.641v-2.207c-2.721,0-6.283,1.939-9.885,5.3-3.6-3.345-7.164-5.264-9.885-5.264v2.207c2.048,0,5.086,1.633,8.312,4.611a46.708,46.708,0,0,0-4.087,4.938,46.2,46.2,0,0,0-6.293,1.088c-.227-.99-.4-1.949-.515-2.87-.465-3.78.109-6.719,1.445-7.5a2.2,2.2,0,0,1,1.138-.257v-2.207a4.411,4.411,0,0,0-2.236.554c-2.781,1.6-3.4,6.6-1.969,12.874C680.008,288.452,676,291.49,676,294.7s4.027,6.264,10.2,8.154c-1.425,6.294-.792,11.3,2,12.9a4.35,4.35,0,0,0,2.226.554c2.721,0,6.284-1.939,9.885-5.3,3.6,3.345,7.164,5.264,9.885,5.264a4.412,4.412,0,0,0,2.236-.554c2.781-1.6,3.4-6.6,1.969-12.873C720.539,300.95,724.546,297.9,724.546,294.7Zm-12.884-6.6c-.366,1.277-.821,2.592-1.336,3.909-.406-.792-.831-1.583-1.3-2.375s-.94-1.563-1.425-2.315C709.01,287.522,710.366,287.779,711.663,288.1Zm-4.532,10.538c-.771,1.336-1.563,2.6-2.384,3.78-1.475.129-2.969.2-4.473.2s-2.988-.069-4.453-.188q-1.232-1.766-2.395-3.76c-.752-1.3-1.434-2.612-2.058-3.938.613-1.326,1.306-2.652,2.048-3.948.772-1.336,1.563-2.6,2.385-3.78,1.475-.129,2.968-.2,4.473-.2s2.988.069,4.453.188q1.232,1.766,2.395,3.76c.752,1.3,1.435,2.612,2.058,3.938C708.555,296.012,707.873,297.338,707.13,298.634Zm3.2-1.286q.779,1.934,1.366,3.938c-1.3.317-2.662.584-4.077.792.485-.762.97-1.544,1.425-2.345S709.921,298.14,710.327,297.348Zm-10.034,10.558a40.829,40.829,0,0,1-2.751-3.167c.891.04,1.8.069,2.721.069s1.851-.02,2.751-.069A38.607,38.607,0,0,1,700.293,307.906Zm-7.362-5.828c-1.405-.208-2.761-.465-4.057-.782.366-1.277.821-2.593,1.336-3.909.406.792.831,1.583,1.3,2.375S692.446,301.326,692.931,302.078Zm7.313-20.592a40.819,40.819,0,0,1,2.751,3.167c-.891-.04-1.8-.069-2.721-.069s-1.85.02-2.751.069A38.61,38.61,0,0,1,700.244,281.486Zm-7.323,5.828c-.485.762-.97,1.544-1.425,2.345s-.881,1.583-1.286,2.375q-.779-1.934-1.365-3.938C690.141,287.789,691.506,287.522,692.921,287.314ZM683.966,299.7c-3.5-1.494-5.769-3.453-5.769-5.007s2.266-3.523,5.769-5.007c.851-.366,1.781-.693,2.741-1a47.5,47.5,0,0,0,2.226,6.026,46.868,46.868,0,0,0-2.2,6C685.757,300.406,684.827,300.069,683.966,299.7Zm5.324,14.14c-1.346-.772-1.93-3.711-1.474-7.491.109-.93.287-1.91.5-2.909a47.917,47.917,0,0,0,6.283,1.079,48.274,48.274,0,0,0,4.117,4.948c-3.226,3-6.254,4.641-8.312,4.641A2.36,2.36,0,0,1,689.289,313.843Zm23.472-7.54c.465,3.78-.109,6.719-1.445,7.5a2.2,2.2,0,0,1-1.138.257c-2.048,0-5.086-1.633-8.312-4.611a46.719,46.719,0,0,0,4.087-4.938,46.21,46.21,0,0,0,6.293-1.088A27.649,27.649,0,0,1,712.761,306.3Zm3.81-6.6c-.851.366-1.781.693-2.741,1a47.565,47.565,0,0,0-2.226-6.026,46.8,46.8,0,0,0,2.2-6c.98.307,1.91.643,2.781,1.009,3.5,1.494,5.769,3.453,5.769,5.007S720.074,298.219,716.571,299.7Z" transform="translate(-5.781)" fill="#61dafb"/>
    <path id="Path_360" data-name="Path 360" d="M694.482,1054.894a4.522,4.522,0,1,0-4.522-4.522A4.522,4.522,0,0,0,694.482,1054.894Zm-22.059,24.875H670.93v2.571h-.842v-6.355h2.1a2.48,2.48,0,0,1,1.65.489,1.755,1.755,0,0,1,.581,1.423,1.7,1.7,0,0,1-.323,1.035,1.9,1.9,0,0,1-.891.659l1.493,2.7v.052h-.9Zm-1.493-.685h1.288a1.444,1.444,0,0,0,.991-.324,1.087,1.087,0,0,0,.371-.864,1.146,1.146,0,0,0-.354-.9,1.48,1.48,0,0,0-1.013-.318H670.93Zm6.5,3.344a2.068,2.068,0,0,1-1.563-.629,2.35,2.35,0,0,1-.6-1.689v-.149a2.843,2.843,0,0,1,.266-1.253,2.1,2.1,0,0,1,.751-.864,1.89,1.89,0,0,1,1.047-.315,1.769,1.769,0,0,1,1.432.607,2.627,2.627,0,0,1,.511,1.737v.336h-3.2a1.694,1.694,0,0,0,.406,1.13,1.292,1.292,0,0,0,1,.428,1.41,1.41,0,0,0,.724-.174,1.826,1.826,0,0,0,.52-.463l.493.384A1.983,1.983,0,0,1,677.434,1082.428Zm-.1-4.234a1.075,1.075,0,0,0-.821.358,1.719,1.719,0,0,0-.41,1h2.366v-.061a1.53,1.53,0,0,0-.332-.952A1.012,1.012,0,0,0,677.334,1078.194Zm5.8,4.146a1.689,1.689,0,0,1-.114-.5,1.8,1.8,0,0,1-1.344.585,1.682,1.682,0,0,1-1.148-.393,1.288,1.288,0,0,1-.445-1,1.332,1.332,0,0,1,.559-1.144,2.643,2.643,0,0,1,1.58-.41H683v-.371a.9.9,0,0,0-.253-.672,1.013,1.013,0,0,0-.747-.253,1.178,1.178,0,0,0-.724.218.643.643,0,0,0-.293.528h-.812a1.114,1.114,0,0,1,.249-.681,1.726,1.726,0,0,1,.681-.523,2.306,2.306,0,0,1,.947-.193,1.861,1.861,0,0,1,1.279.411,1.464,1.464,0,0,1,.48,1.122v2.174a2.653,2.653,0,0,0,.166,1.034v.07Zm-1.34-.615a1.42,1.42,0,0,0,.72-.2,1.19,1.19,0,0,0,.493-.51v-.969h-.633q-1.484,0-1.484.868a.736.736,0,0,0,.253.594A.975.975,0,0,0,681.79,1081.725Zm5.181.043a1.163,1.163,0,0,0,.755-.262.92.92,0,0,0,.358-.655h.764a1.467,1.467,0,0,1-.279.772,1.831,1.831,0,0,1-.69.585,2.1,2.1,0,0,1-2.444-.423,2.58,2.58,0,0,1-.567-1.764v-.135a2.841,2.841,0,0,1,.253-1.227,1.933,1.933,0,0,1,.725-.834,2.074,2.074,0,0,1,1.121-.3,1.886,1.886,0,0,1,1.318.476,1.7,1.7,0,0,1,.563,1.235h-.764a1.1,1.1,0,0,0-.349-.751,1.068,1.068,0,0,0-.768-.3,1.133,1.133,0,0,0-.956.445,2.081,2.081,0,0,0-.336,1.279v.153a2.042,2.042,0,0,0,.336,1.257A1.136,1.136,0,0,0,686.971,1081.768Zm3.88-5.294v1.144h.882v.624h-.882v2.929a.662.662,0,0,0,.118.428.5.5,0,0,0,.4.14,1.955,1.955,0,0,0,.384-.052v.655a2.334,2.334,0,0,1-.62.088,1.006,1.006,0,0,1-.816-.328,1.407,1.407,0,0,1-.275-.93v-2.929h-.86v-.624h.86v-1.144Zm9.057,5.866h-.842l-3.2-4.9v4.9h-.842v-6.355h.842l3.208,4.919v-4.919h.834Zm4.278,0a1.686,1.686,0,0,1-.114-.5,1.8,1.8,0,0,1-1.344.585,1.681,1.681,0,0,1-1.148-.393,1.287,1.287,0,0,1-.445-1,1.332,1.332,0,0,1,.559-1.144,2.643,2.643,0,0,1,1.58-.41h.786v-.371a.9.9,0,0,0-.253-.672,1.012,1.012,0,0,0-.746-.253,1.177,1.177,0,0,0-.724.218.643.643,0,0,0-.293.528h-.812a1.113,1.113,0,0,1,.249-.681,1.723,1.723,0,0,1,.681-.523,2.307,2.307,0,0,1,.947-.193,1.861,1.861,0,0,1,1.279.411,1.467,1.467,0,0,1,.48,1.122v2.174a2.655,2.655,0,0,0,.166,1.034v.07Zm-1.34-.615a1.419,1.419,0,0,0,.72-.2,1.19,1.19,0,0,0,.493-.51v-.969h-.633q-1.484,0-1.484.868a.736.736,0,0,0,.253.594A.976.976,0,0,0,702.846,1081.725Zm4.382-5.251v1.144h.882v.624h-.882v2.929a.664.664,0,0,0,.118.428.5.5,0,0,0,.4.14,1.957,1.957,0,0,0,.384-.052v.655a2.336,2.336,0,0,1-.62.088,1.006,1.006,0,0,1-.816-.328,1.407,1.407,0,0,1-.275-.93v-2.929h-.86v-.624h.86v-1.144Zm2.706,5.866h-.808v-4.723h.808Zm-.873-5.975a.488.488,0,0,1,.118-.332.541.541,0,0,1,.716,0,.477.477,0,0,1,.122.332.5.5,0,0,1-.838.327A.472.472,0,0,1,709.062,1076.365Zm3.728,4.88,1.17-3.627h.825l-1.694,4.723h-.616l-1.711-4.723h.825Zm4.67,1.183a2.067,2.067,0,0,1-1.563-.629,2.349,2.349,0,0,1-.6-1.689v-.149a2.84,2.84,0,0,1,.266-1.253,2.094,2.094,0,0,1,.751-.864,1.89,1.89,0,0,1,1.047-.315,1.769,1.769,0,0,1,1.432.607,2.627,2.627,0,0,1,.511,1.737v.336h-3.2a1.694,1.694,0,0,0,.406,1.13,1.292,1.292,0,0,0,1,.428,1.408,1.408,0,0,0,.725-.175,1.82,1.82,0,0,0,.519-.463l.493.384A1.984,1.984,0,0,1,717.46,1082.428Zm-.1-4.234a1.074,1.074,0,0,0-.82.358,1.718,1.718,0,0,0-.41,1h2.366v-.061a1.529,1.529,0,0,0-.332-.952A1.011,1.011,0,0,0,717.359,1078.194Z" transform="translate(0 -755.676)" fill="#61dafb"/>
  </g>
</svg>
