<svg xmlns="http://www.w3.org/2000/svg" width="61.495" height="54.715" viewBox="0 0 61.495 54.715">
  <g id="react-2" transform="translate(-175.7 -78)">
    <path id="Path_135" data-name="Path 135" d="M237.195,105.364c0-4.07-5.1-7.927-12.923-10.319,1.8-7.965,1-14.3-2.532-16.331a5.5,5.5,0,0,0-2.808-.7v2.793a2.9,2.9,0,0,1,1.429.326c1.7.977,2.444,4.7,1.868,9.48-.138,1.177-.363,2.417-.639,3.682a60.8,60.8,0,0,0-7.96-1.365,61.093,61.093,0,0,0-5.214-6.262c4.086-3.795,7.922-5.874,10.529-5.874V78c-3.447,0-7.96,2.455-12.522,6.713-4.563-4.233-9.075-6.663-12.522-6.663v2.793c2.595,0,6.443,2.066,10.529,5.836a59.161,59.161,0,0,0-5.177,6.249,58.584,58.584,0,0,0-7.972,1.378c-.288-1.252-.5-2.467-.652-3.632-.589-4.784.138-8.5,1.83-9.493a2.792,2.792,0,0,1,1.441-.326V78.063a5.593,5.593,0,0,0-2.833.7c-3.522,2.029-4.312,8.353-2.494,16.293-7.8,2.4-12.873,6.249-12.873,10.307s5.1,7.927,12.923,10.319c-1.8,7.965-1,14.3,2.532,16.331a5.514,5.514,0,0,0,2.82.7c3.447,0,7.96-2.455,12.522-6.713,4.563,4.233,9.075,6.663,12.522,6.663a5.593,5.593,0,0,0,2.833-.7c3.522-2.029,4.312-8.353,2.494-16.293C232.118,113.279,237.195,109.422,237.195,105.364Zm-16.32-8.353c-.464,1.616-1.04,3.281-1.692,4.947-.514-1-1.053-2-1.642-3.006s-1.191-1.979-1.8-2.931C217.516,96.284,219.233,96.61,220.875,97.011Zm-5.741,13.338c-.978,1.691-1.98,3.294-3.021,4.784-1.868.163-3.76.25-5.666.25s-3.785-.088-5.641-.238q-1.561-2.235-3.033-4.759-1.429-2.461-2.607-4.984c.777-1.678,1.655-3.356,2.595-5,.978-1.691,1.98-3.294,3.021-4.784,1.868-.163,3.76-.25,5.666-.25s3.785.088,5.641.238q1.56,2.235,3.033,4.759,1.429,2.461,2.607,4.984C216.939,107.03,216.074,108.708,215.134,110.348Zm4.049-1.628c.677,1.678,1.253,3.356,1.73,4.984-1.642.4-3.372.739-5.164,1,.614-.964,1.228-1.954,1.8-2.968s1.116-2.016,1.63-3.018Zm-12.71,13.363a51.654,51.654,0,0,1-3.485-4.008c1.128.05,2.281.088,3.447.088s2.344-.025,3.485-.088A48.894,48.894,0,0,1,206.473,122.083Zm-9.326-7.376c-1.78-.263-3.5-.589-5.139-.989.464-1.616,1.04-3.281,1.692-4.947.514,1,1.053,2,1.642,3.006S196.533,113.755,197.147,114.707Zm9.263-26.062a51.633,51.633,0,0,1,3.485,4.008c-1.128-.05-2.281-.088-3.447-.088s-2.344.025-3.485.088A48.887,48.887,0,0,1,206.41,88.645Zm-9.276,7.376c-.614.964-1.228,1.954-1.805,2.968s-1.116,2-1.63,3.006c-.677-1.678-1.253-3.356-1.73-4.984,1.642-.388,3.372-.726,5.164-.989ZM185.79,111.7c-4.437-1.891-7.308-4.371-7.308-6.337s2.87-4.458,7.308-6.337c1.078-.463,2.256-.877,3.472-1.265a60.127,60.127,0,0,0,2.82,7.627,59.262,59.262,0,0,0-2.783,7.589C188.059,112.59,186.881,112.164,185.79,111.7Zm6.744,17.9c-1.7-.977-2.444-4.7-1.868-9.48.138-1.177.364-2.417.639-3.682a60.8,60.8,0,0,0,7.959,1.365,61.1,61.1,0,0,0,5.214,6.262c-4.086,3.795-7.922,5.874-10.529,5.874A2.994,2.994,0,0,1,192.534,129.6Zm29.732-9.543c.589,4.784-.138,8.5-1.83,9.493a2.791,2.791,0,0,1-1.441.326c-2.595,0-6.443-2.066-10.529-5.836a59.173,59.173,0,0,0,5.177-6.249,58.579,58.579,0,0,0,7.972-1.378A35.014,35.014,0,0,1,222.266,120.054Zm4.826-8.353c-1.078.463-2.256.877-3.472,1.265a60.119,60.119,0,0,0-2.82-7.627,59.271,59.271,0,0,0,2.783-7.589c1.241.388,2.419.814,3.522,1.277,4.437,1.891,7.308,4.371,7.308,6.337S231.529,109.822,227.092,111.7Z" transform="translate(0)" fill="#61dafb"/>
    <circle id="Ellipse_1" data-name="Ellipse 1" cx="5.576" cy="5.576" r="5.576" transform="translate(200.859 99.788)" fill="#61dafb"/>
  </g>
</svg>
