<svg xmlns="http://www.w3.org/2000/svg" width="140.563" height="42.999" viewBox="0 0 140.563 42.999">
  <g id="remix" transform="translate(62.997 -304.263)">
    <path id="Path_543" data-name="Path 543" d="M5.6,83.2c0-3.93,2.72-5.872,8.043-5.872H25.6a2.826,2.826,0,0,1,2.817,2.817V80.3A2.827,2.827,0,0,1,25.6,83.118H15.555c-1.273.127-1.968.548-2.026,1.224V97.323a2.825,2.825,0,0,1-2.817,2.816H8.418A2.825,2.825,0,0,1,5.6,97.323ZM40.88,86.491c-1.5.4-2.722-.321-2.722-1.6a1.056,1.056,0,0,1,.172-.591,2.265,2.265,0,0,1,1.505-.762l.4-.083c.254-.023,1.731-.042,3.28-.042h2.738a1.524,1.524,0,0,1,.4.042l.927.127c.318.417.579.778.579.8v.105c0,.035-1.225.39-2.722.788ZM30.228,91.409a27.634,27.634,0,0,0,.682,5.551s.361,1.449,3.138,2.547a6.109,6.109,0,0,0,1.873.5c1.548.073,4.082.133,5.631.133H53.336a2.825,2.825,0,0,0,2.817-2.816v-.152a2.825,2.825,0,0,0-2.817-2.818H38.85a16.442,16.442,0,0,1-.579-1.8,11.859,11.859,0,0,1,2.716-.94l12.507-3.445a3.919,3.919,0,0,0,2.716-3.565V82.866a5.252,5.252,0,0,0-.058-.973c-.462-2.62-2.372-4.055-6.018-4.476l-.462-.042c-.509-.024-2.194-.043-3.744-.043H37.983c-4.34,0-6.712,1.393-7.58,4.182a3.862,3.862,0,0,0-.175,1.14v8.755Zm28.994-8.587a4.009,4.009,0,0,1,1.04-3.083c1.562-1.732,3.415-2.408,6.25-2.408h3.259a49.258,49.258,0,0,1,5.608.388,6.091,6.091,0,0,1,3.4,1.64c.985-1.311,2.9-2.028,6.193-2.028H88.23a47.351,47.351,0,0,1,5.605.4A6.358,6.358,0,0,1,97.3,79.739a4.245,4.245,0,0,1,1.042,3.083l-.05,14.5a2.835,2.835,0,0,1-2.825,2.816H93.171a2.814,2.814,0,0,1-2.808-2.816l.039-9.656a32.427,32.427,0,0,0-.165-3.831l-.4-.3a2.44,2.44,0,0,0-1.622-.422h-.654c-1.55,0-3.025.019-3.28.042l-.345.085c-.869.253-1.216.633-1.216,1.351V97.323a2.825,2.825,0,0,1-2.818,2.816H77.605a2.825,2.825,0,0,1-2.818-2.816V87.414a15.9,15.9,0,0,0-.461-4.085l-1.216-.21h-1a27.179,27.179,0,0,0-4.727.422l-.289.93c0,.127-.058.252-.058.381l.095,12.473a2.8,2.8,0,0,1-2.8,2.816H62.04a2.825,2.825,0,0,1-2.817-2.816v-14.5h0Zm45.67,17.318a2.825,2.825,0,0,1-2.816-2.816V80.148a2.825,2.825,0,0,1,2.816-2.817h2.3A2.825,2.825,0,0,1,110,80.148V97.323a2.825,2.825,0,0,1-2.816,2.816h-2.3ZM102.6,73.993a6.343,6.343,0,0,0,6.882-.042,2.973,2.973,0,0,0,.061-5.111,6.324,6.324,0,0,0-7.06,0A3.21,3.21,0,0,0,101.09,71.5a3.385,3.385,0,0,0,1.508,2.492Zm10.736,26.147c-1.549,0-1.914-.888-.809-1.975L120.7,90.12a2.782,2.782,0,0,0,.006-3.959L113.8,79.313c-1.1-1.091-.736-1.983.814-1.983h5.636a7.417,7.417,0,0,1,4.735,2.064l.916.984a2.747,2.747,0,0,0,3.937.1l1.208-1.179a8,8,0,0,1,4.836-1.966h5.638c1.549,0,1.916.891.816,1.983l-6.914,6.847a2.783,2.783,0,0,0,.006,3.959l8.177,8.045c1.1,1.087.74,1.975-.81,1.975h-5.706a7.958,7.958,0,0,1-4.83-1.971L129.9,95.86a2.8,2.8,0,0,0-3.966.058l-2.116,2.194a7.621,7.621,0,0,1-4.774,2.027h-5.71ZM15.9,108.382c-1.588,0-1.322-.636-1.045-1.666.3-1.128.432-1.675,1.947-1.675,1.473,0,1.447.481,1.125,1.675C17.666,107.672,17.475,108.382,15.9,108.382Zm3.426-3.815H18.5l-.145.539-.023.008c-.182-.514-.835-.6-1.592-.6-1.868,0-2.356.767-2.741,2.2-.4,1.472-.207,2.189,1.557,2.189.643,0,1.541-.058,1.91-.581h.021l-.268.989c-.237.842-.85.924-1.826.924-.861,0-1.346-.049-1.123-.874h-.821c-.418,1.241.537,1.4,1.8,1.4,1.318,0,2.465-.252,2.774-1.4l1.295-4.8Zm1.042,4.29h-.82l1.654-6.129h.819Zm2.664-2.14c.4-1.5.556-1.675,2.019-1.675s1.518.18,1.113,1.675-.554,1.666-2.016,1.666-1.518-.179-1.116-1.666Zm-.851,0c-.488,1.805-.2,2.189,1.826,2.189s2.521-.384,3.008-2.189.2-2.2-1.825-2.2S22.668,104.9,22.179,106.717Zm9.951,0c-.318,1.175-.5,1.666-1.954,1.666-1.2,0-1.451-.277-1.075-1.666.33-1.225.545-1.675,1.977-1.675C32.385,105.041,32.51,105.313,32.13,106.717Zm-4.448,2.14h.82l.137-.506.025-.018c.175.466.863.573,1.6.573,1.889,0,2.341-.792,2.718-2.189.362-1.341.344-2.2-1.534-2.2a2.389,2.389,0,0,0-1.917.6h-.021l.646-2.4h-.819l-1.653,6.129Zm8.107-.475c-.944,0-1.358-.04-1.138-.856.188-.7.595-.745,1.57-.745,1.038,0,1.653-.008,1.434.8-.213.785-1.047.8-1.867.8Zm2.363.475.789-2.924c.363-1.309-.612-1.422-1.985-1.415-1.211-.008-2.2.066-2.494,1.168l-.024.089h.85l.04-.146c.148-.588.936-.588,1.58-.588.923,0,1.433.073,1.221.858l-.214.792h-.051c-.008-.39-1.056-.433-1.6-.433-1.349,0-2.172.164-2.491,1.35-.3,1.119.5,1.3,1.725,1.3a2.581,2.581,0,0,0,1.932-.506l.016.016-.118.441h.821Zm2.22,0h-.819l1.654-6.129h.82Zm6.234-3.26H44.542l-.518,1.92c-.059.253-.024.359.307.359.467,0,.516-.261.617-.554l.072-.23h1.422l-.1.384c-.315,1.168-.936,1.43-2.388,1.43-1.141,0-2.054-.114-1.763-1.194l.571-2.115h-.664l.278-1.03h.664l.245-.907h1.784l-.244.907h2.065l-.279,1.029Zm2.314.58c.172-.563.4-.678,1.033-.678.6,0,.891.042.72.678Zm1.447,1.249c-.12.45-.487.5-1.037.5-.736,0-.822-.222-.619-.972H52.25l.063-.237c.472-1.749-.019-2.2-2.064-2.2-2.19,0-2.814.547-3.26,2.2-.432,1.6-.072,2.189,2.076,2.189a5.663,5.663,0,0,0,1.987-.253,1.706,1.706,0,0,0,1.068-1.227Zm7.714-.284a2.036,2.036,0,0,1-1,1.479,4.848,4.848,0,0,1-2.112.286c-2.106,0-2.47-.5-2.014-2.189.393-1.455.967-2.2,3.2-2.2,1.567,0,2.6.131,2.188,1.658H56.557c.072-.23.078-.368-.022-.458s-.3-.122-.672-.122c-.634,0-.858.14-1.122,1.12-.271,1.005-.156,1.11.519,1.11.81,0,.893-.155,1.036-.685h1.784Zm3.073-1.772h.072a1.923,1.923,0,0,1,1.858-.85c1.2,0,1.633.45,1.383,1.372l-.8,2.967H61.884l.713-2.639c.1-.416.011-.621-.57-.621a1.043,1.043,0,0,0-1.176.9l-.638,2.363H58.429l1.653-6.129h1.785l-.712,2.639Zm6.639-.8-.216.8h.073a1.921,1.921,0,0,1,1.858-.85c1.2,0,1.633.45,1.383,1.372l-.8,2.967H68.307l.712-2.639c.1-.416.012-.621-.569-.621a1.042,1.042,0,0,0-1.176.9l-.638,2.363H64.853l1.158-4.29h1.784v0Zm6.872,1.03c.83,0,.862.188.611,1.12s-.383,1.11-1.213,1.11c-.862,0-.917-.178-.666-1.11S73.8,105.6,74.666,105.6Zm.259-1.078c-2.272,0-2.837.441-3.311,2.2-.463,1.716-.1,2.189,2.128,2.189,2.262,0,2.843-.426,3.32-2.189.49-1.816.147-2.2-2.137-2.2Zm7.066,2.2c-.319,1.175-.5,1.666-1.955,1.666-1.2,0-1.45-.277-1.075-1.666.331-1.225.545-1.675,1.978-1.675,1.307,0,1.431.271,1.052,1.675Zm-4.448,2.14h.819l.137-.506.027-.018c.175.466.859.573,1.6.573,1.889,0,2.34-.792,2.718-2.189.362-1.341.344-2.2-1.534-2.2a2.4,2.4,0,0,0-1.919.6H79.37l.647-2.4h-.822l-1.652,6.129Zm7.217-2.14c.4-1.5.556-1.675,2.019-1.675s1.519.18,1.116,1.675-.554,1.666-2.018,1.666S84.359,108.2,84.76,106.717Zm-.85,0c-.487,1.805-.2,2.189,1.827,2.189s2.52-.384,3.008-2.189.2-2.2-1.825-2.2S84.4,104.9,83.909,106.717Zm6.767,0c.4-1.5.556-1.675,2.018-1.675s1.518.18,1.116,1.675-.556,1.666-2.017,1.666S90.274,108.2,90.676,106.717Zm-.852,0c-.487,1.805-.2,2.189,1.826,2.189s2.523-.384,3.008-2.189.2-2.2-1.823-2.2S90.315,104.9,89.824,106.717Zm7.282-1.488h.021a2.594,2.594,0,0,1,2.008-.711c.652,0,1.454.147,1.489.711a2.871,2.871,0,0,1,2.131-.711c1.4,0,1.766.45,1.48,1.511l-.763,2.827h-.819l.747-2.761c.2-.727.147-1.055-.91-1.055-1.161,0-1.731.262-1.981,1.186l-.709,2.63H98.98l.778-2.876c.122-.573.222-.94-.961-.94-1.08,0-1.736.359-1.974,1.235l-.7,2.581h-.819l1.158-4.29h.819Zm10.672,2.6c-.944,0-.91-.286-.683-1.119.261-.971.548-1.111,1.286-1.111.83,0,.786.394.593,1.111C108.727,107.615,108.535,107.827,107.778,107.827Zm-1.4-5.1-1.653,6.129h1.784l.159-.744h.083c.033.645.563.792,1.342.792,1.319,0,2.183-.441,2.491-1.576l.267-.981c.352-1.308-.078-1.83-1.572-1.83a1.967,1.967,0,0,0-1.694.661h-.082l.661-2.452h-1.787ZM114.5,105.6c.83,0,.863.188.612,1.12s-.383,1.11-1.214,1.11c-.861,0-.916-.178-.664-1.11S113.64,105.6,114.5,105.6Zm.261-1.078c-2.273,0-2.839.441-3.313,2.2-.463,1.716-.1,2.189,2.127,2.189,2.264,0,2.844-.426,3.321-2.189C117.387,104.9,117.045,104.519,114.762,104.519Zm5.894,1.078c.83,0,.861.188.611,1.12s-.383,1.11-1.214,1.11c-.861,0-.916-.178-.664-1.11S119.794,105.6,120.656,105.6Zm.259-1.078c-2.273,0-2.838.441-3.313,2.2-.461,1.716-.1,2.189,2.128,2.189,2.261,0,2.844-.426,3.32-2.189.49-1.816.148-2.2-2.136-2.2Zm5.4.049-.162.6h.072a2.005,2.005,0,0,1,1.671-.652c.767,0,1.528.106,1.422.842h.082a1.829,1.829,0,0,1,1.743-.842c1.255,0,1.789.408,1.519,1.4l-.791,2.934h-1.786l.672-2.486c.089-.448.188-.775-.506-.775a.965.965,0,0,0-1.053.825l-.657,2.435h-1.786l.7-2.6c.085-.392.127-.661-.5-.661a.954.954,0,0,0-1.1.825l-.657,2.435h-1.784l1.158-4.29h1.734Zm8.763,4.29H133.4l.384-1.422h1.682Zm7.979-35.878a1.381,1.381,0,1,1,1.385,1.421A1.375,1.375,0,0,1,143.061,72.979Zm1.385,1.705a1.7,1.7,0,1,0-1.728-1.705A1.7,1.7,0,0,0,144.445,74.684Zm-.361-1.57h.342l.517.85h.334l-.558-.864a.511.511,0,0,0,.509-.54c0-.387-.231-.557-.694-.557h-.747v1.961h.3v-1.71h.4c.207,0,.429.046.429.287,0,.3-.226.32-.478.32h-.356Z" transform="translate(-68.598 236.501)"/>
  </g>
</svg>
