<svg xmlns="http://www.w3.org/2000/svg" width="55.781" height="55.782" viewBox="0 0 55.781 55.782">
  <path id="rust" d="M55.4,27.206l-2.342-1.45q-.03-.341-.067-.682L55,23.2a.806.806,0,0,0-.267-1.345l-2.573-.962q-.1-.333-.2-.664L53.567,18a.806.806,0,0,0-.524-1.267l-2.713-.441c-.105-.206-.215-.408-.326-.609l1.14-2.5a.806.806,0,0,0-.761-1.14l-2.753.1q-.213-.267-.435-.528l.633-2.682a.807.807,0,0,0-.97-.97l-2.681.632q-.261-.221-.529-.435l.1-2.753a.806.806,0,0,0-1.14-.762l-2.5,1.14q-.3-.167-.609-.327l-.442-2.713a.806.806,0,0,0-1.266-.524l-2.23,1.6q-.329-.1-.663-.2L33.93,1.044A.805.805,0,0,0,32.586.776L30.709,2.79q-.341-.038-.682-.067L28.577.381a.806.806,0,0,0-1.37,0l-1.45,2.342q-.342.028-.683.067L23.2.776a.805.805,0,0,0-1.344.268l-.962,2.573c-.223.064-.443.132-.663.2L18,2.213a.806.806,0,0,0-1.267.524l-.442,2.713c-.2.106-.407.215-.609.327l-2.5-1.141a.806.806,0,0,0-1.14.762l.1,2.753q-.267.214-.529.435L8.924,7.955a.807.807,0,0,0-.97.97l.632,2.682q-.22.26-.434.528l-2.753-.1a.806.806,0,0,0-.762,1.14l1.14,2.5c-.111.2-.221.4-.327.609l-2.713.441A.806.806,0,0,0,2.214,18l1.6,2.229c-.07.22-.137.441-.2.664l-2.573.962A.807.807,0,0,0,.777,23.2L2.79,25.074c-.025.227-.047.455-.066.682L.381,27.206a.806.806,0,0,0,0,1.37l2.342,1.45q.029.342.066.682L.777,32.585a.806.806,0,0,0,.267,1.344l2.573.962c.064.223.132.444.2.664l-1.6,2.229a.805.805,0,0,0,.525,1.266l2.712.441c.106.206.215.408.327.61L4.637,42.6a.806.806,0,0,0,.762,1.14l2.752-.1c.144.179.288.354.435.529l-.632,2.682a.806.806,0,0,0,.97.968l2.681-.631c.174.148.351.292.529.434l-.1,2.754a.8.8,0,0,0,1.139.761l2.5-1.14q.3.168.609.327l.442,2.712A.807.807,0,0,0,18,53.567l2.229-1.606c.22.07.441.138.664.2l.962,2.572A.806.806,0,0,0,23.2,55l1.878-2.013c.227.026.455.048.683.068l1.45,2.342a.806.806,0,0,0,1.37,0l1.45-2.342c.228-.02.456-.042.682-.068L32.586,55a.806.806,0,0,0,1.344-.267l.962-2.572c.223-.064.444-.132.664-.2l2.229,1.606a.806.806,0,0,0,1.266-.526l.442-2.712c.2-.106.407-.216.609-.327l2.5,1.14a.8.8,0,0,0,1.14-.761l-.1-2.754q.267-.213.528-.434l2.681.631a.806.806,0,0,0,.969-.968L47.2,44.176c.147-.174.292-.35.434-.529l2.753.1a.806.806,0,0,0,.761-1.14L50,40.1c.111-.2.221-.4.326-.61l2.713-.441a.806.806,0,0,0,.524-1.266l-1.6-2.229c.069-.22.137-.441.2-.664l2.572-.962A.806.806,0,0,0,55,32.585l-2.012-1.878c.024-.227.047-.455.066-.682l2.342-1.45a.806.806,0,0,0,0-1.37ZM39.726,46.632a1.659,1.659,0,1,1,1.967-1.275A1.659,1.659,0,0,1,39.726,46.632Zm-.8-5.382a1.51,1.51,0,0,0-1.793,1.162l-.831,3.88A20.448,20.448,0,0,1,19.3,46.211l-.831-3.88a1.51,1.51,0,0,0-1.793-1.161l-3.425.736a20.323,20.323,0,0,1-1.771-2.087H28.145c.188,0,.314-.034.314-.206v-5.9c0-.171-.126-.206-.314-.206H23.271V29.774h5.272a3.313,3.313,0,0,1,3.242,2.811c.21.822.669,3.5.984,4.353.313.96,1.589,2.879,2.949,2.879h8.3a1.7,1.7,0,0,0,.3-.03A20.462,20.462,0,0,1,42.435,42l-3.5-.753Zm-23.051,5.3a1.659,1.659,0,1,1,1.271-1.97,1.656,1.656,0,0,1-1.271,1.97ZM9.557,20.914a1.655,1.655,0,1,1-.918-.875,1.659,1.659,0,0,1,.918.875ZM7.614,25.52l3.568-1.586a1.513,1.513,0,0,0,.768-2l-.735-1.662h2.89V33.3H8.274A20.417,20.417,0,0,1,7.5,27.711a20.661,20.661,0,0,1,.117-2.191Zm15.658-1.265v-3.84h6.882c.356,0,2.51.411,2.51,2.022,0,1.338-1.653,1.817-3.011,1.817H23.272Zm25.012,3.456q0,.764-.056,1.514H46.136c-.209,0-.294.138-.294.343v.961c0,2.262-1.275,2.754-2.393,2.879-1.064.12-2.244-.446-2.39-1.1-.628-3.531-1.674-4.285-3.326-5.589,2.05-1.3,4.184-3.223,4.184-5.794a6.553,6.553,0,0,0-3.2-5.382,9.08,9.08,0,0,0-4.379-1.44H12.7A20.367,20.367,0,0,1,24.108,7.667l2.551,2.676a1.508,1.508,0,0,0,2.135.049l2.854-2.73a20.412,20.412,0,0,1,13.961,9.943l-1.954,4.413a1.514,1.514,0,0,0,.769,2l3.762,1.671q.1,1,.1,2.026ZM26.66,5.391A1.657,1.657,0,1,1,26.6,7.736a1.655,1.655,0,0,1,.055-2.345Zm19.389,15.6a1.657,1.657,0,1,1,.842,2.189A1.655,1.655,0,0,1,46.048,20.994Z" transform="translate(0 0.001)"/>
</svg>
