<svg xmlns="http://www.w3.org/2000/svg" width="143.371" height="38.872" viewBox="0 0 143.371 38.872">
  <g id="saucelabs-ar21" transform="translate(-3.669 -14.548)">
    <path id="Path_493" data-name="Path 493" d="M8.426,39.63A15.5,15.5,0,0,1,7.38,33.974a15.824,15.824,0,0,1,15.9-15.746,16.985,16.985,0,0,1,2.227.155L23.726,20.2h-.484A13.846,13.846,0,0,0,9.915,37.808H22.039l-5.152,9.471,12.2-12.357H12.434L31.2,16.29a19.251,19.251,0,0,0-8.038-1.743A19.5,19.5,0,0,0,12.995,50.689l5.81-10.982ZM33.334,17.338,27.509,28.32h10.4a15.786,15.786,0,0,1-14.74,21.441,18.189,18.189,0,0,1-2.3-.155l1.761-1.781h.544A13.848,13.848,0,0,0,37.017,33.976a15.16,15.16,0,0,0-.523-3.757H24.37l5.055-9.549L16.991,33.046h16.7l-18.541,18.7A19.509,19.509,0,0,0,33.332,17.326Z" transform="translate(0 0)" fill="#e1251b"/>
    <path id="Path_494" data-name="Path 494" d="M37.8,35.367l.707-1.043a.362.362,0,0,1,.567-.074,3.362,3.362,0,0,0,2.266.953,1.592,1.592,0,0,0,1.643-1.552c0-.821-.544-1.331-1.569-2-1.2-.821-2.628-1.823-2.628-3.647a3.772,3.772,0,0,1,4.106-3.793,5.01,5.01,0,0,1,3.286,1.183.518.518,0,0,1,.049.731l-.707,1c-.148.22-.386.238-.641.041a3.016,3.016,0,0,0-2.061-.821,1.5,1.5,0,0,0-1.554,1.421c0,.731.492,1.093,1.585,1.823S45.654,31.4,45.654,33.4c0,2.136-1.644,3.926-4.354,3.926A5.1,5.1,0,0,1,37.793,35.9c-.129-.1-.207-.263,0-.533Zm8.969,1.355L53.624,24.4a.344.344,0,0,1,.311-.2H54.1a.263.263,0,0,1,.255.2l3.359,12.321a.362.362,0,0,1-.344.476H55.782c-.28,0-.427-.1-.476-.369l-.46-2.02h-4.54l-1.059,2.02a.647.647,0,0,1-.583.369H47.02A.3.3,0,0,1,46.765,36.723Zm7.5-3.884-.821-3.974-1.987,3.974Zm6.948-8.12a.417.417,0,0,1,.388-.329h1.807a.282.282,0,0,1,.215.11.291.291,0,0,1,.056.236l-1.093,7.68a2.919,2.919,0,0,0,0,.583,1.715,1.715,0,0,0,1.864,1.938A2.509,2.509,0,0,0,67,32.473l1.093-7.7a.385.385,0,0,1,.362-.344h1.807a.308.308,0,0,1,.215.111.3.3,0,0,1,.065.233l-1.117,7.812a5.173,5.173,0,0,1-5.158,4.8,3.949,3.949,0,0,1-4.165-4.106,5.794,5.794,0,0,1,.057-.731Zm18.062-.527a4.919,4.919,0,0,1,3.793,1.735.377.377,0,0,1-.074.509l-.984.945a.4.4,0,0,1-.6,0,3.288,3.288,0,0,0-2.259-.911c-2.193,0-4.106,2.266-4.106,4.87,0,1.938,1.043,3.6,2.792,3.6A3.78,3.78,0,0,0,80.3,33.863a.372.372,0,0,1,.583,0l1,1.208a.435.435,0,0,1-.091.492,5.839,5.839,0,0,1-4.106,1.774c-3.154,0-5.2-2.537-5.2-5.675-.017-4.3,3.006-7.466,6.784-7.466Zm7.229.54a.386.386,0,0,1,.344-.344H93.6a.282.282,0,0,1,.215.11.291.291,0,0,1,.056.236l-.22,1.5a.384.384,0,0,1-.362.353H88.626l-.419,2.978h3.868a.3.3,0,0,1,.212.113.3.3,0,0,1,.06.233l-.214,1.511a.4.4,0,0,1-.369.344H87.911l-.453,3.2h4.69c.181,0,.259.164.255.344L92.2,36.8a.384.384,0,0,1-.362.353H85.065a.258.258,0,0,1-.212-.129.287.287,0,0,1-.043-.238Z" transform="translate(11.289 3.203)" fill="#474c55"/>
    <path id="Path_495" data-name="Path 495" d="M83.552,24.719a.4.4,0,0,1,.361-.329h.821a.308.308,0,0,1,.215.111.3.3,0,0,1,.065.233L83.389,35.9h4.632a.285.285,0,0,1,.2.117.291.291,0,0,1,.052.229l-.074.526a.4.4,0,0,1-.361.353H82.094A.272.272,0,0,1,81.878,37a.309.309,0,0,1-.056-.238Zm6.232,11.99,6.734-12.321a.324.324,0,0,1,.3-.2h.164a.263.263,0,0,1,.255.2l3.286,12.321a.392.392,0,0,1-.062.318.378.378,0,0,1-.282.158h-.772a.242.242,0,0,1-.259-.207l-.731-3.006H92.729l-1.553,3.006a.386.386,0,0,1-.344.207h-.821a.3.3,0,0,1-.214-.476ZM98,32.842l-1.4-5.973h-.129l-3.107,5.981Zm11.328-2.106a2.77,2.77,0,0,1,1.544,2.464,3.871,3.871,0,0,1-1.165,2.883,3.819,3.819,0,0,1-2.93,1.059H103a.272.272,0,0,1-.216-.129.309.309,0,0,1-.056-.238l1.735-12.058a.414.414,0,0,1,.369-.344h3.63a2.809,2.809,0,0,1,2.932,2.9,3.651,3.651,0,0,1-2.02,3.392Zm-2.3,5.178a2.464,2.464,0,0,0,2.348-2.563,1.916,1.916,0,0,0-1.955-1.963h-2.554l-.665,4.526Zm.55-5.823c1.346,0,2.218-1.075,2.218-2.677,0-1.059-.544-1.79-1.6-1.79H105.68l-.641,4.541Zm5.545,5.159.287-.3c.22-.22.369-.3.583-.091a3.547,3.547,0,0,0,2.7,1.273,2.175,2.175,0,0,0,2.3-2.21c0-1.15-.862-1.823-2.374-2.693s-2.464-1.644-2.464-3.327a3.618,3.618,0,0,1,3.951-3.679,4.756,4.756,0,0,1,2.848.928c.091.074.255.259,0,.624l-.207.287c-.181.255-.362.329-.6.164a3.716,3.716,0,0,0-2.168-.781,2.366,2.366,0,0,0-2.462,2.293c0,1.027.7,1.7,1.847,2.33,1.748.953,3.081,1.847,3.081,3.728,0,2.02-1.463,3.573-3.991,3.573a4.673,4.673,0,0,1-3.416-1.569.392.392,0,0,1,.1-.533Z" transform="translate(25.951 3.203)" fill="#e1251b"/>
  </g>
</svg>
