<svg id="selenium-seeklogo.com" xmlns="http://www.w3.org/2000/svg" width="53.56" height="56.126" viewBox="0 0 53.56 56.126">
  <path id="Path_504" data-name="Path 504" d="M48.99,0a.36.36,0,0,1,.321.561h0L35.439,19.4a.536.536,0,0,1-.8,0h0l-4.891-5.452a.568.568,0,0,0-.882.08h0L25.9,17.8a.627.627,0,0,0,.08.641h0l8.819,9.14a.536.536,0,0,0,.8,0h0L52.918,8.1a.37.37,0,0,1,.641.241h0V55.725a.379.379,0,0,1-.4.4H.4a.379.379,0,0,1-.4-.4H0V.4A.378.378,0,0,1,.4,0H48.99ZM35.359,31.992a8.749,8.749,0,0,0-8.9,8.98c0,5.532,4.009,9.06,9.221,9.06a11.038,11.038,0,0,0,6.735-2.085.5.5,0,0,0,.08-.641h0l-1.443-2.165a.485.485,0,0,0-.641-.08,7.835,7.835,0,0,1-4.249,1.363,4.642,4.642,0,0,1-4.891-3.849.172.172,0,0,1,.16-.16H43.537a.517.517,0,0,0,.481-.481h0v-.481C44.018,35.84,40.491,31.992,35.359,31.992ZM23.413,28.945a12.836,12.836,0,0,0-8.659-2.886c-5.452,0-8.82,3.207-8.82,7.056,0,8.739,13.31,5.933,13.31,10.022,0,1.283-1.283,2.566-4.009,2.566a10.075,10.075,0,0,1-6.975-2.726.536.536,0,0,0-.8.08h0L5.373,45.943a.5.5,0,0,0,.08.641,13.365,13.365,0,0,0,9.461,3.368c6.254,0,9.3-3.207,9.461-7.376,0-8.659-13.31-6.174-13.31-9.862,0-1.363,1.2-2.325,3.287-2.325a9.952,9.952,0,0,1,6.334,2.165.507.507,0,0,0,.722-.08h0l2.085-2.806a.508.508,0,0,0-.08-.722ZM35.439,35.52a4.039,4.039,0,0,1,4.249,3.688.172.172,0,0,1-.16.16H31.35a.173.173,0,0,1-.16-.16A4.214,4.214,0,0,1,35.439,35.52Z" fill="#2cb134"/>
</svg>
