<svg xmlns="http://www.w3.org/2000/svg" width="155.243" height="30.979" viewBox="0 0 155.243 30.979">
  <path id="sharepoint-1" d="M0,3.235,18.082,0q.009,15.49,0,30.979C12.059,29.911,6.036,28.824,0,27.756Zm6.023,6.992a4.184,4.184,0,0,0-.832,3.2A3.877,3.877,0,0,0,6.576,15.9a19.565,19.565,0,0,1,2.13,1.59,1.475,1.475,0,0,1,.112,1.881,1.555,1.555,0,0,1-1.49.379,3.649,3.649,0,0,1-2.148-1.292l.006,2.676a4.774,4.774,0,0,0,2.931.851,3.552,3.552,0,0,0,2.055-.627,3.345,3.345,0,0,0,1.273-2.316,4.071,4.071,0,0,0-.671-3.024,7.459,7.459,0,0,0-2.093-1.7,3.448,3.448,0,0,1-1.111-.938,1.5,1.5,0,0,1,.168-1.813,1.877,1.877,0,0,1,1.546-.36,3.47,3.47,0,0,1,1.757.758V9.308A5.858,5.858,0,0,0,8.383,9a3.664,3.664,0,0,0-2.36,1.229Zm13.81-5.036A2.968,2.968,0,0,1,24.85,6.532a3.258,3.258,0,0,1,.056,1.385,8.133,8.133,0,0,1,4.427,4.564,2.941,2.941,0,0,1,2.5.7,3.159,3.159,0,0,1,.7,3.763,3,3,0,0,1-3.2,1.583,8.08,8.08,0,0,1-4.409,4.552,3.2,3.2,0,0,1-.857,2.794,2.935,2.935,0,0,1-2.987.714,2.888,2.888,0,0,1-1.229-.795V21.522a2.974,2.974,0,0,1,2.26-.938,3.047,3.047,0,0,1,2.086.987,6.514,6.514,0,0,0,3.676-3.806,3.29,3.29,0,0,1-.938-1.919,3.2,3.2,0,0,1,.938-2.614,6.524,6.524,0,0,0-3.695-3.825,2.969,2.969,0,0,1-1.919,1,3.014,3.014,0,0,1-2.422-.919Zm33.451-.012h2.148v8.588A5.008,5.008,0,0,1,58.4,11.4a5.6,5.6,0,0,1,3.477.2,3.68,3.68,0,0,1,1.993,2.223,8.686,8.686,0,0,1,.422,2.931v8.054H62.157V17.455a6.919,6.919,0,0,0-.478-2.863,2.53,2.53,0,0,0-1.521-1.379,3.507,3.507,0,0,0-3.136.5,4.347,4.347,0,0,0-1.608,3.372V24.8H53.277q.009-9.8.006-19.622Zm76.426.3a1.4,1.4,0,0,1,1.844,1.111,1.414,1.414,0,0,1-2.757.59A1.439,1.439,0,0,1,129.71,5.483Zm-86.318.931a8.351,8.351,0,0,1,3.682-.466,6.8,6.8,0,0,1,2.738.627V9.047a6.137,6.137,0,0,0-4.154-1.13,3.53,3.53,0,0,0-2.577,1.211,3.068,3.068,0,0,0-.292,2.9,5.639,5.639,0,0,0,2.384,2.117,17.994,17.994,0,0,1,4.185,2.881A4.363,4.363,0,0,1,50.595,20.2a4.456,4.456,0,0,1-1.379,3.372,6.447,6.447,0,0,1-4.16,1.552,9.524,9.524,0,0,1-3.558-.5,4.789,4.789,0,0,1-1.261-.559l.006-2.608a7.322,7.322,0,0,0,3.651,1.614,5.736,5.736,0,0,0,2.962-.3,2.254,2.254,0,0,0,1.3-1.422,3.092,3.092,0,0,0-.441-2.757,7.675,7.675,0,0,0-1.795-1.484c-1.124-.751-2.36-1.323-3.428-2.155A5.5,5.5,0,0,1,40.6,12.717,5.113,5.113,0,0,1,40.5,9.37a4.837,4.837,0,0,1,2.894-2.956Zm58.208-.18h3.508a14.835,14.835,0,0,1,3.986.286,5.16,5.16,0,0,1,3.13,2.223,6.3,6.3,0,0,1,.652,4.2,5.457,5.457,0,0,1-2.2,3.533,6.52,6.52,0,0,1-2.844,1.167,29.316,29.316,0,0,1-4.049.124v7.023h-2.192c.006-6.172.019-12.363.006-18.56m2.192,1.987v7.594a15.977,15.977,0,0,0,4.353-.3,3.564,3.564,0,0,0,2.043-1.565,4.585,4.585,0,0,0,.422-2.9,3.076,3.076,0,0,0-1.149-2.012,5.089,5.089,0,0,0-2.931-.82h-2.738Zm45.963.081c.714-.224,1.422-.46,2.136-.689.006,1.31,0,2.614,0,3.924h3.341v1.838H151.9v7.7a2.964,2.964,0,0,0,.373,1.528,1.582,1.582,0,0,0,1.254.652,2.5,2.5,0,0,0,1.714-.416v1.844a4.7,4.7,0,0,1-2.509.4,3.141,3.141,0,0,1-2.012-.851,3.916,3.916,0,0,1-.962-2.633V13.363h-2.3V11.537h2.3c-.006-1.08-.019-2.155-.006-3.235Zm-79.786,3.26a7.434,7.434,0,0,1,4.415-.019,3.616,3.616,0,0,1,2.192,2.192,9.245,9.245,0,0,1,.379,3.452V24.8H74.818V22.7a4.625,4.625,0,0,1-2.285,2.093,5.5,5.5,0,0,1-3.4.124A3.583,3.583,0,0,1,66.6,22.385a4.8,4.8,0,0,1,.224-2.962,3.59,3.59,0,0,1,1.552-1.714,6.79,6.79,0,0,1,2.453-.776c1.335-.186,2.658-.373,3.993-.565a3.977,3.977,0,0,0-.727-2.546,2.5,2.5,0,0,0-2.024-.789,6.618,6.618,0,0,0-4.3,1.614V12.431a8.773,8.773,0,0,1,2.2-.869m1.087,7.091a3.129,3.129,0,0,0-2.043,1.031,2.793,2.793,0,0,0-.3,1.906,2.13,2.13,0,0,0,1.54,1.565,3.643,3.643,0,0,0,2.533-.224,3.744,3.744,0,0,0,1.881-2.384,10.4,10.4,0,0,0,.143-2.447C73.564,18.306,72.309,18.455,71.055,18.653Zm18.827-6.2a5.62,5.62,0,0,1,3.577-1.229,5.315,5.315,0,0,1,3.359,1.006,5.427,5.427,0,0,1,1.875,3.005,13.524,13.524,0,0,1,.273,3.471c-3.117,0-6.247-.006-9.37,0a5.561,5.561,0,0,0,.857,2.993,3.761,3.761,0,0,0,2.651,1.54,6.5,6.5,0,0,0,4.937-1.416c-.006.671,0,1.354,0,2.024a7.473,7.473,0,0,1-4.216,1.279,6.443,6.443,0,0,1-3.62-.795,5.519,5.519,0,0,1-2.3-2.887,9.921,9.921,0,0,1-.478-4,7,7,0,0,1,2.459-4.992M91.3,13.791a4.785,4.785,0,0,0-1.67,3.111h7.129a4.412,4.412,0,0,0-.882-2.838,2.955,2.955,0,0,0-2.322-1.006,3.353,3.353,0,0,0-2.254.733Zm27.787-2.509a7.245,7.245,0,0,1,4.626.832,6.072,6.072,0,0,1,2.651,4.185,9.45,9.45,0,0,1-.342,4.812,6.044,6.044,0,0,1-3.633,3.633,7.94,7.94,0,0,1-4.471.149,5.79,5.79,0,0,1-3.639-2.906,8.3,8.3,0,0,1-.776-4.707,6.855,6.855,0,0,1,1.633-4.018,6.052,6.052,0,0,1,3.949-1.981m.2,1.819a3.936,3.936,0,0,0-2.763,1.714,6.715,6.715,0,0,0-.851,4.229,4.671,4.671,0,0,0,1.819,3.508,4.592,4.592,0,0,0,3.08.727,3.762,3.762,0,0,0,2.347-1,4.455,4.455,0,0,0,1.229-2.4,9.542,9.542,0,0,0,.062-3.03,4.409,4.409,0,0,0-1.813-3.179A4.67,4.67,0,0,0,119.3,13.1Zm18.734-.72a4.633,4.633,0,0,1,2.608-1.143,4.92,4.92,0,0,1,3.074.565,4.415,4.415,0,0,1,1.875,2.869,15.825,15.825,0,0,1,.2,3.465v6.65h-2.136V17.169a5.916,5.916,0,0,0-.621-2.844,2.466,2.466,0,0,0-1.646-1.2,3.591,3.591,0,0,0-2.409.286,4.106,4.106,0,0,0-2.068,3.577c-.006,2.608,0,5.2,0,7.812h-2.136V11.525h2.136V13.76a6.594,6.594,0,0,1,1.118-1.379ZM84.014,11.9a3.609,3.609,0,0,1,3.154-.422v2.242a2.969,2.969,0,0,0-2.235-.373,3.068,3.068,0,0,0-1.962,1.739,7.06,7.06,0,0,0-.59,3.341V24.8H80.245V11.537h2.148v2.776A4.593,4.593,0,0,1,84.014,11.9Zm45.056-.36h2.148v13.27h-2.136Z" fill="#0072c6"/>
</svg>
