<svg xmlns="http://www.w3.org/2000/svg" width="157.762" height="38.221" viewBox="0 0 157.762 38.221">
  <g id="sonarqube" transform="translate(-84.07 -15.73)">
    <g id="Group_127" data-name="Group 127" transform="translate(84.07 26.979)">
      <path id="Path_500" data-name="Path 500" d="M84.913,161.663A9.246,9.246,0,0,0,89,162.82c1.438,0,2.03-.5,2.03-1.279s-.466-1.156-2.247-1.749c-3.154-1.062-4.368-2.78-4.34-4.591,0-2.843,2.437-4.995,6.212-4.995a10.226,10.226,0,0,1,4.309.872l-.842,3.277a7.494,7.494,0,0,0-3.309-.872c-1.156,0-1.812.466-1.812,1.248,0,.718.6,1.094,2.467,1.749,2.9,1,4.122,2.462,4.151,4.714,0,2.839-2.247,4.932-6.618,4.932a10.831,10.831,0,0,1-4.931-1.062Zm27.411-3.648c0,5.587-3.964,8.15-8.055,8.15-4.465,0-7.895-2.938-7.895-7.873s3.246-8.083,8.15-8.083A7.42,7.42,0,0,1,112.325,158.014Zm-11.052.154c0,2.622,1.093,4.588,3.123,4.588,1.847,0,3.029-1.847,3.029-4.588,0-2.278-.872-4.591-3.029-4.591C102.117,153.577,101.273,155.918,101.273,158.168Zm12.745-2.748c0-1.9-.063-3.526-.126-4.868h4.122l.217,2.088h.095a5.584,5.584,0,0,1,4.711-2.432c3.123,0,5.465,2.058,5.465,6.555v9.057h-4.749v-8.465c0-1.967-.687-3.309-2.4-3.309a2.526,2.526,0,0,0-2.4,1.781,3.2,3.2,0,0,0-.19,1.184v8.805h-4.741Zm25.725,10.4-.279-1.532h-.088A5.5,5.5,0,0,1,135,166.161a4.68,4.68,0,0,1-4.932-4.683c0-3.964,3.558-5.871,8.96-5.84v-.217c0-.813-.44-1.966-2.78-1.966a8.573,8.573,0,0,0-4.213,1.153l-.879-3.056a12.572,12.572,0,0,1,5.931-1.343c5.089,0,6.712,3,6.712,6.586V162.1a23.493,23.493,0,0,0,.221,3.715Zm-.561-7.211c-2.5-.032-4.434.564-4.434,2.4a1.706,1.706,0,0,0,1.875,1.812,2.592,2.592,0,0,0,2.462-1.749,3.393,3.393,0,0,0,.094-.813Zm7.123-3.031c0-2.247-.063-3.713-.126-5.023h4.09l.158,2.807h.122a4.485,4.485,0,0,1,4.122-3.151,5.1,5.1,0,0,1,1,.06v4.465a6.722,6.722,0,0,0-1.279-.127,3.066,3.066,0,0,0-3.254,2.405,5.832,5.832,0,0,0-.088,1.062v7.743H146.3Zm40.685,6.119c0,1.56.032,2.934.126,4.122h-2.436l-.157-2.467h-.06a5.7,5.7,0,0,1-4.995,2.814c-2.374,0-5.216-1.311-5.216-6.618v-8.839H177v8.364c0,2.87.873,4.809,3.372,4.809a3.978,3.978,0,0,0,3.621-2.5,4.074,4.074,0,0,0,.249-1.407v-9.267h2.748Zm3.189,4.122c.063-1.031.123-2.562.123-3.905V143.65h2.715v9.492h.063a5.629,5.629,0,0,1,5.152-2.78c3.743,0,6.4,3.123,6.366,7.712,0,5.4-3.4,8.09-6.771,8.09a5.385,5.385,0,0,1-5.058-2.843h-.095l-.122,2.5Zm2.838-6.057a5.139,5.139,0,0,0,.126,1,4.234,4.234,0,0,0,4.119,3.214c2.875,0,4.589-2.341,4.589-5.8,0-3.029-1.56-5.618-4.494-5.618a4.379,4.379,0,0,0-4.182,3.368,5.453,5.453,0,0,0-.157,1.126Zm15.333-1c.06,3.715,2.433,5.244,5.181,5.244a9.948,9.948,0,0,0,4.181-.778l.47,1.966a12.263,12.263,0,0,1-5.026.937c-4.651,0-7.431-3.06-7.431-7.617s2.685-8.148,7.087-8.148c4.932,0,6.243,4.34,6.243,7.123a10.364,10.364,0,0,1-.088,1.279Zm8.051-1.966c.032-1.749-.715-4.466-3.807-4.466-2.78,0-4,2.562-4.221,4.466Z" transform="translate(-84.07 -143.65)" fill="#1b171b"/>
      <path id="Path_501" data-name="Path 501" d="M917.894,217.775a8.159,8.159,0,1,0-3.495,12.069l3.158,5.127,2.505-1.7-3.156-5.128a8.159,8.159,0,0,0,.988-10.367m-3.537,9.313a5.716,5.716,0,1,1,1.514-7.94,5.716,5.716,0,0,1-1.514,7.94" transform="translate(-830.975 -207.998)" fill="#1b171b"/>
    </g>
    <g id="Group_128" data-name="Group 128" transform="translate(207.238 15.73)">
      <path id="Path_502" data-name="Path 502" d="M1515.324,83.3h-1.935a28.494,28.494,0,0,0-28.659-28.257V53.11A30.43,30.43,0,0,1,1515.324,83.3Z" transform="translate(-1484.73 -49.823)" fill="#4e9bcd"/>
      <path id="Path_503" data-name="Path 503" d="M1638.614,38.819a29.124,29.124,0,0,0-20.174-20.786l.44-1.55a30.763,30.763,0,0,1,21.3,21.964Zm1.488-9.172a29.659,29.659,0,0,0-11.482-12.815l.67-1.1a30.962,30.962,0,0,1,11.985,13.379Z" transform="translate(-1606.682 -15.73)" fill="#4e9bcd"/>
    </g>
  </g>
</svg>
