<svg xmlns="http://www.w3.org/2000/svg" width="135.239" height="37.416" viewBox="0 0 135.239 37.416">
  <g id="splunk" transform="translate(-0.012 -18)">
    <path id="Path_50" data-name="Path 50" d="M38.643,18l.19,28.781H43.15V18Zm53.436,0V46.793h5.2s.043-10.39.1-10.379,7.745,10.773,7.814,10.735c.078-.02,4.608-1.649,4.608-1.7s-7.722-9.9-7.722-9.915,6.476-7.23,6.418-7.287a32.783,32.783,0,0,0-3.788-1.629c-.046.035-7.431,8.05-7.431,8.05V18ZM6.016,26.778a6.558,6.558,0,0,0-4.34,2.97A4.821,4.821,0,0,0,1.7,34.031a13.129,13.129,0,0,0,3.877,3.586c2.251,1.6,3.1,2.395,3.319,3.149a2.193,2.193,0,0,1-1.249,2.677,2.85,2.85,0,0,1-1.733.248,5.626,5.626,0,0,1-3.37-1.284c-.406-.279-.777-.484-.823-.437s-.449.653-.9,1.35L.012,44.565l.3.236c.181.124.72.452,1.215.731,3.419,1.9,8.476,1.6,11.041-.662A5.152,5.152,0,0,0,14.3,40.136c-.248-1.675-1.171-2.775-4.073-4.878C7.95,33.605,6.871,32.7,6.623,32.212A1.673,1.673,0,0,1,7.5,29.826a2.741,2.741,0,0,1,1.756-.248,4.232,4.232,0,0,1,2.136.507l.967.472.751-1.18A5.33,5.33,0,0,0,13.8,28.1a9.993,9.993,0,0,0-2.711-1.122,14.264,14.264,0,0,0-5.068-.193Zm22.832,2.544c2.274,1.065,3.485,4.4,2.993,8.206a11.621,11.621,0,0,1-1.1,3.733,5.375,5.375,0,0,1-2.026,1.946,4.575,4.575,0,0,1-4.383-.541c-1.664-1.269-2.576-4.383-2.228-7.621.328-2.967,1.4-4.847,3.261-5.713A4.72,4.72,0,0,1,28.848,29.323Zm-2.069-3.307a7.3,7.3,0,0,0-3.606,2.023l-1.059,1.013V26.634H17.246V55.416h4.867V43.679l.935.909A6.848,6.848,0,0,0,29.1,46.612a8.223,8.223,0,0,0,3.744-1.37c3.195-2.136,4.959-6.4,4.476-10.851-.461-4.225-2.631-7.149-6.13-8.26a12.216,12.216,0,0,0-4.4-.115Zm19.992.619s.158,15.211.259,15.651a6.321,6.321,0,0,0,2.777,3.957,7.047,7.047,0,0,0,3.834.82,7.612,7.612,0,0,0,5.834-2.305l.944-.855v2.878h5.014l-.066-20.147H60.419s.066,12.514,0,12.952a4.82,4.82,0,0,1-3.036,3.655,8,8,0,0,1-3.126.368,3.129,3.129,0,0,1-2.472-2.585V26.7ZM88.458,46.781S88.3,31.57,88.2,31.13a6.321,6.321,0,0,0-2.777-3.957,7.047,7.047,0,0,0-3.834-.82,7.612,7.612,0,0,0-5.834,2.305l-.944.855V26.634H69.8l.066,20.147h4.948s-.066-12.514,0-12.952a4.82,4.82,0,0,1,3.036-3.655,7.408,7.408,0,0,1,3.126-.368,2.727,2.727,0,0,1,2.472,2.585V46.715Z" transform="translate(0 0)" fill="#212121"/>
    <path id="Path_51" data-name="Path 51" d="M40,20.5v4.317l17.269,5.756L40,38.062v4.024l20.147-8.634V27.7Z" transform="translate(75.103 4.695)" fill="#77b539"/>
  </g>
</svg>
