<svg xmlns="http://www.w3.org/2000/svg" width="43.871" height="57.728" viewBox="0 0 43.871 57.728">
  <path id="sql-azure-svgrepo-com" d="M371.908,499.394c-11.863,0-21.481,3.094-21.853,6.956H350v43.214a2.646,2.646,0,0,0-.055.383c0,.077.047.142.055.219.372,3.861,9.99,6.956,21.853,6.956s21.481-3.094,21.853-6.956h.11V506.35h-.055c-.372-3.861-9.99-6.956-21.853-6.956Zm.274,3.341c9.2,0,16.65,2.02,16.65,4.491s-7.453,4.491-16.65,4.491-16.65-2.02-16.65-4.491S362.985,502.735,372.182,502.735Zm-15.007,22.839H363.2a16.321,16.321,0,0,1,3.122.219,6.253,6.253,0,0,1,2.574,1.15,6.426,6.426,0,0,1,2.081,2.684,9.76,9.76,0,0,1,.712,3.779,9.891,9.891,0,0,1-.493,3.177,7.43,7.43,0,0,1-1.2,2.3,6.016,6.016,0,0,1-1.588,1.424,6.842,6.842,0,0,1-2.081.822,13.5,13.5,0,0,1-2.848.274h-6.3Zm17.636,0h6.572a8.961,8.961,0,0,1,3.231.493,4.1,4.1,0,0,1,1.917,1.479,3.563,3.563,0,0,1,.657,2.081,3.342,3.342,0,0,1-.6,1.917,4.28,4.28,0,0,1-1.862,1.424,4.69,4.69,0,0,1,2.465,1.424,3.651,3.651,0,0,1,.876,2.41,4.328,4.328,0,0,1-.548,2.081,4.068,4.068,0,0,1-1.26,1.479,5.639,5.639,0,0,1-1.917.767,13.036,13.036,0,0,1-2.848.274h-6.682Zm-15.336,1.862v12.1H363.2a9.948,9.948,0,0,0,2.739-.329,4.078,4.078,0,0,0,1.588-.822,4.839,4.839,0,0,0,1.315-1.972,9.039,9.039,0,0,0,.438-3.067,6.631,6.631,0,0,0-.931-3.779,4.468,4.468,0,0,0-2.191-1.807,10.048,10.048,0,0,0-3.012-.329h-3.67Zm17.636,0V532.2h3.779a9.955,9.955,0,0,0,2.246-.164,2.411,2.411,0,0,0,1.314-.767,2.073,2.073,0,0,0,.438-1.369,2.452,2.452,0,0,0-.383-1.424,2.132,2.132,0,0,0-1.2-.822,11.235,11.235,0,0,0-2.684-.219h-3.505Zm0,6.627v5.477h4.382a10.007,10.007,0,0,0,1.588-.11,3.9,3.9,0,0,0,1.315-.438,2.37,2.37,0,0,0,.876-.876,2.492,2.492,0,0,0,.383-1.314,2.428,2.428,0,0,0-.493-1.534,2.756,2.756,0,0,0-1.424-.931,9.536,9.536,0,0,0-2.574-.274Z" transform="translate(-349.945 -499.394)" fill="#00bcf2"/>
</svg>
