<svg id="swift-15" xmlns="http://www.w3.org/2000/svg" xmlns:xlink="http://www.w3.org/1999/xlink" width="54.783" height="54.762" viewBox="0 0 54.783 54.762">
  <defs>
    <linearGradient id="linear-gradient" x1="-7.219" y1="4.905" x2="-7.029" y2="3.833" gradientUnits="objectBoundingBox">
      <stop offset="0" stop-color="#faae42"/>
      <stop offset="1" stop-color="#ef3e31"/>
    </linearGradient>
    <linearGradient id="linear-gradient-2" x1="0.598" y1="0.02" x2="0.436" y2="0.978" gradientUnits="objectBoundingBox">
      <stop offset="0" stop-color="#e39f3a"/>
      <stop offset="1" stop-color="#d33929"/>
    </linearGradient>
  </defs>
  <path id="Path_361" data-name="Path 361" d="M12.474,0H42.807a12.787,12.787,0,0,1,4.3.727,12.147,12.147,0,0,1,7.829,9.541,14.754,14.754,0,0,1,.15,2.374V42.226a13.857,13.857,0,0,1-.235,2.824,12.169,12.169,0,0,1-8.236,9.155,12.86,12.86,0,0,1-3.829.556c-.578,0-30.4,0-30.846-.021a12.206,12.206,0,0,1-6.161-2.032,12.363,12.363,0,0,1-4.171-4.792A12.071,12.071,0,0,1,.388,42.59V12.172A11.355,11.355,0,0,1,1.522,6.931,12.146,12.146,0,0,1,5.65,2.118,11.982,11.982,0,0,1,11.79.043,3.568,3.568,0,0,1,12.474,0Z" transform="translate(-0.303 0)" fill="url(#linear-gradient)"/>
  <path id="Path_362" data-name="Path 362" d="M46.205,44.793a8.357,8.357,0,0,0-.642-.877,9.086,9.086,0,0,0-1.84-1.669,5.632,5.632,0,0,0-2.888-.984,5.228,5.228,0,0,0-2.139.342,13.941,13.941,0,0,0-1.989.92c-.749.385-1.5.77-2.289,1.091a17.2,17.2,0,0,1-2.931.9,19.049,19.049,0,0,1-3.808.3,25.733,25.733,0,0,1-6.76-1.027,25.57,25.57,0,0,1-5.5-2.374A28.346,28.346,0,0,1,11.166,38.4a31.108,31.108,0,0,1-3.038-3.016c-.642-.749-1.262-1.54-1.84-2.353a9.978,9.978,0,0,1-.642-1.005L0,25.926v-13.8A12.115,12.115,0,0,1,12.107,0h10.8l8,8.129C48.965,20.407,43.125,33.948,43.125,33.948S48.259,39.724,46.205,44.793Z" transform="translate(0 0)" fill="url(#linear-gradient-2)"/>
  <path id="Path_363" data-name="Path 363" d="M51.706,38C69.76,50.279,63.92,63.819,63.92,63.819s5.134,5.8,3.059,10.867c0,0-2.118-3.551-5.669-3.551-3.423,0-5.433,3.551-12.321,3.551C33.652,74.686,26.4,61.873,26.4,61.873c13.819,9.091,23.252,2.653,23.252,2.653-6.225-3.615-19.466-20.9-19.466-20.9C41.716,53.445,46.7,56.033,46.7,56.033c-2.973-2.46-11.316-14.482-11.316-14.482,6.674,6.76,19.937,16.193,19.937,16.193C59.086,47.305,51.706,38,51.706,38Z" transform="translate(-20.753 -29.871)" fill="#fff"/>
</svg>
