<svg xmlns="http://www.w3.org/2000/svg" width="56" height="56" viewBox="0 0 56 56">
  <g id="terra-logo_logotyp.us" data-name="terra-logo@logotyp.us" transform="translate(-0.438 -0.438)">
    <circle id="Ellipse_18" data-name="Ellipse 18" cx="28" cy="28" r="28" transform="translate(0.438 0.438)" fill="#172852"/>
    <g id="Group_147" data-name="Group 147" transform="translate(11.906 11.744)">
      <path id="Path_553" data-name="Path 553" d="M113.222,62.908a16.532,16.532,0,0,1,10.471-.225,16.81,16.81,0,0,1,10.093,8.887,10.243,10.243,0,0,1,1.1,3.76,38.445,38.445,0,0,0-7.931-3.222c-4.362-1.573-8.93-2.665-13.059-4.826-.961-.574-2.187-1.163-2.449-2.36-.105-1.035.99-1.612,1.772-2.013" transform="translate(-102.22 -61.942)" fill="#ffd83d"/>
      <path id="Path_554" data-name="Path 554" d="M63.746,90.875a16.243,16.243,0,0,1,4.692-6.845,21.091,21.091,0,0,0,5.614,12.095,20.211,20.211,0,0,0,14.663,6.256,29.446,29.446,0,0,0,6.433-.842c-2.09,7.553-10.369,12.567-18.039,11.361A16.652,16.652,0,0,1,63.746,90.875Z" transform="translate(-62.797 -79.842)" fill="#ffd83d"/>
      <path id="Path_555" data-name="Path 555" d="M193.275,115.56a38.445,38.445,0,0,1,7.931,3.222l.168.088a17.087,17.087,0,0,1,.091,5.233,15.538,15.538,0,0,1-3.319-2.281c-2.036-1.695-4.115-3.634-4.872-6.262" transform="translate(-168.538 -105.395)" fill="#ff6f03"/>
    </g>
  </g>
</svg>
