<svg id="truffle-seeklogo.com" xmlns="http://www.w3.org/2000/svg" width="53.314" height="56.069" viewBox="0 0 53.314 56.069">
  <path id="Path_568" data-name="Path 568" d="M18.281,463.557v4.926a2.547,2.547,0,0,0,.112.9.866.866,0,0,0,.368.42,1.144,1.144,0,0,0,.619.159,1.206,1.206,0,0,0,.659-.175.933.933,0,0,0,.384-.448,3.332,3.332,0,0,0,.107-1.039v-4.743h1.454v4.54a6.581,6.581,0,0,1-.128,1.595,2.255,2.255,0,0,1-.494.86,2.3,2.3,0,0,1-.842.6,2.824,2.824,0,0,1-1.109.2,2.688,2.688,0,0,1-1.442-.382,2.222,2.222,0,0,1-.878-.952,3.792,3.792,0,0,1-.247-1.3l-.008-.17c0-.029,0-.059,0-.088l0-.182q0-.093,0-.191l0-4.53Zm-14.072,0v1.428H2.823v6.187H1.352v-6.187H0v-1.428Zm3.644,0H9.8a5.089,5.089,0,0,1,1.8.225,1.845,1.845,0,0,1,.86.749,2.268,2.268,0,0,1,.327,1.235,2.1,2.1,0,0,1-.362,1.256,2.177,2.177,0,0,1-1.083.765l1.808,3.385H11.557l-1.714-3.224H9.3v3.224H7.853Zm22.3,0v1.412h-2.34v1.384h2.34v1.392h-2.34v3.427h-1.44v-7.616Zm7.793,0v1.412h-2.34v1.384h2.34v1.392h-2.34v3.427h-1.44v-7.616Zm5.45,0v6.234h2.111v1.382H41.946v-7.616Zm9.918,0v1.418H50.6v1.378h2.718v1.392H50.6v2h2.718v1.422H49.158v-7.616Zm-43.213,1.4H9.3l.006,1.573h.862a1.777,1.777,0,0,0,.952-.181.685.685,0,0,0,.261-.6.746.746,0,0,0-.129-.442.713.713,0,0,0-.345-.267A2.68,2.68,0,0,0,10.1,464.961Z" transform="translate(0 -415.287)" fill="#5e464d"/>
  <g id="Group_150" data-name="Group 150" transform="translate(5.882 0)">
    <ellipse id="Ellipse_19" data-name="Ellipse 19" cx="20.282" cy="20.519" rx="20.282" ry="20.519" transform="translate(0.444)" fill="#5e464d"/>
    <path id="Path_569" data-name="Path 569" d="M14.347,78.033c.83.283,3.616,1.189,3.734.3.064-.486-1.406-.984-3.4-2.039A31.944,31.944,0,0,1,7,70.62,17.642,17.642,0,0,1,1.713,58.354,17.46,17.46,0,0,1,7.963,43.89,20.467,20.467,0,0,0,.008,59.59,19.137,19.137,0,0,0,3.5,71.306a13.358,13.358,0,0,0,2.545,2.507,31.865,31.865,0,0,0,8.3,4.219" transform="translate(0 -39.32)" fill="#fff"/>
    <path id="Path_570" data-name="Path 570" d="M124.491,24.921c-1.258-5.914-5.167-10.055-10.4-12.98,4.008,2.847,9.633,8.9,6.308,14.239-2.812,4.277-9.643,3.439-13.389,1.406-4.444-2.411-10-7.835-4.52-13.136,3.556-3.431,14.866.416,12.875,5.545-1.161,2.983-5.681,2.32-7.714.862-1.5-1.077-2.76-2.927-2.091-4.837.213-.613.183-1.563-.683-.864a3.436,3.436,0,0,0-1.083,2.186c-.946,6.688,10.969,11.873,14.5,5.4,1.834-3.359-1.139-8.236-4.882-10.233a16.556,16.556,0,0,0-9.327-2.308c-5.737.4-10.551,4-11.155,9.86-.6,5.826,3.293,11.069,7.879,14.2,4.821,3.295,11.3,5.466,17.232,3.5,5.315-1.762,7.511-7.863,6.442-12.843" transform="translate(-83.204 -9.105)" fill="#fff"/>
    <path id="Path_571" data-name="Path 571" d="M147.378,28.926c.571-3.833-2.895-6.465-6.1-7.66-3.773-1.406-8.757-.792-11.505,2.332-2.009,2.294-1.878,5.625-.842,8.321a14.237,14.237,0,0,0,9.223,8.287,16.318,16.318,0,0,0,9.43.344c4.325-1.392,5.733-5.9,4.84-10.034a11.874,11.874,0,0,0-.876-2.587c-.546-1.147-2.22-3.469.086-.641a10.005,10.005,0,0,1,.667.986,11.092,11.092,0,0,1,1.123,2.493c1.258,3.857.271,8.357-3.214,10.685-2.674,1.782-6.073,1.995-9.175,1.549a17.346,17.346,0,0,1-10.8-5.844c-2.487-2.947-4.185-7.18-3.162-11.049a8.585,8.585,0,0,1,5.8-5.826,12.943,12.943,0,0,1,10.446,1.227,9.333,9.333,0,0,1,3.817,3.839,5.7,5.7,0,0,1,.573,2.4,4.967,4.967,0,0,1-.078,1c-.022.12-.277.46-.241.181" transform="translate(-113.573 -17.64)" fill="#3fe0c5"/>
  </g>
</svg>
