<svg id="kisspng-vbscript-scripting-language-visual-basic-microsoft-analyst-5acc162b96f091.6643062615233244596183" xmlns="http://www.w3.org/2000/svg" xmlns:xlink="http://www.w3.org/1999/xlink" width="46.394" height="55.5" viewBox="0 0 46.394 55.5">
  <defs>
    <linearGradient id="linear-gradient" y1="0.5" x2="1" y2="0.5" gradientUnits="objectBoundingBox">
      <stop offset="0.46" stop-color="#80beea"/>
      <stop offset="1" stop-color="#40e0df"/>
    </linearGradient>
  </defs>
  <path id="Path_139" data-name="Path 139" d="M85.081,77.65H128.77a.854.854,0,0,0,.854-.858c-.062-14.258-.126-28.477-.185-42.735H119.72c-.827,0-1.061-.238-1.063-1.079V23.15H85.275A1.045,1.045,0,0,0,84.23,24.2V76.8A.854.854,0,0,0,85.081,77.65Zm35.508-53.222v7.8h7.282Z" transform="translate(-83.73 -22.65)" fill="none" stroke="#0c0c0c" stroke-width="1"/>
  <path id="Path_140" data-name="Path 140" d="M136.429,118.325a2.074,2.074,0,0,0,.3.069c3.814,0,7.629.047,11.444-.029.8-.016,1.368-.126,1.817.732.3.567.953.934,1.368,1.455a1.161,1.161,0,0,1,.165.909c-.048.174-.439.328-.69.355a7.355,7.355,0,0,1-1.569.006c-1.206-.133-2.264.008-2.882,1.231-.018.035-.06.059-.091.088a1.251,1.251,0,0,0-.1,1.383c.337.395.69.775,1.035,1.162,1.006,1.132,2.027,2.255,3.018,3.405a1.6,1.6,0,0,0,2.251.119c1.571-1.571,3.153-3.131,4.7-4.725a1.423,1.423,0,0,0,.368-.912q-.008-2.66-.126-5.321a1.481,1.481,0,0,0-.387-.9c-1.048-1.061-2.145-2.074-3.212-3.117-.943-.922-1.867-1.862-2.8-2.8-2.03-2.03-4.066-4.054-6.08-6.1a1.2,1.2,0,0,1-.314-.755c-.028-1.718-.016-3.437-.01-5.156a.934.934,0,0,1,.1-.531c.546-.754,1.12-1.478,1.685-2.213l3.438-4.483a1.266,1.266,0,0,0-.228-.053q-8.267,0-16.535.01a1.028,1.028,0,0,0-.629.3q-2.44,2.406-4.844,4.847a1.113,1.113,0,0,0-.3.7c-.024,1.822-.016,3.647-.008,5.469a.88.88,0,0,0,.126.519q1.592,1.943,3.218,3.859c.83.981,1.689,1.938,2.515,2.917,1.056,1.246,2.113,2.494,3.135,3.773a1.485,1.485,0,0,1,.285.889C136.575,116.387,136.489,117.34,136.429,118.325Zm10.754,1.5c-4.877,0-9.57,0-14.262.009a.754.754,0,0,0-.482.207,17.893,17.893,0,0,1-1.748,1.82,3.392,3.392,0,0,0-1.383,3.48,2.491,2.491,0,0,0,.009.377,2.058,2.058,0,0,0,.327.754q1.368,1.432,2.8,2.8a1.293,1.293,0,0,0,.81.319q7.325.028,14.649.013c.169,0,.337-.024.6-.043-1.159-1.291-2.24-2.495-3.322-3.7a1.794,1.794,0,0,1-.578-1.5c.06-.473-.02-.965.025-1.442a1.291,1.291,0,0,1,.292-.7C145.621,121.436,146.349,120.7,147.183,119.82Zm4-26.8c-.543.755-.986,1.422-1.471,2.054-.931,1.208-1.886,2.4-2.828,3.6a.45.45,0,0,0,0,.692c.714.778,1.383,1.593,2.09,2.382.062.069.229.059.347.063,1.795.045,3.589.05,5.38.142,1.029.052,1.929-.024,2.408-1.1.024-.054.087-.089.126-.135a1.574,1.574,0,0,0-.019-2.056C155.25,96.8,153.271,94.959,151.18,93.016Zm-5.156,7.8v3.282a.429.429,0,0,0,.106.275q.9.917,1.823,1.817c.844.82,1.7,1.635,2.544,2.445.252.239.489.483.733.727q3.556,3.556,7.116,7.105a1.587,1.587,0,0,1,.5,1.207c.019,2.192.1,4.384.094,6.576a1.713,1.713,0,0,1-.433,1.088c-1.749,1.8-3.534,3.575-5.327,5.337a1.177,1.177,0,0,1-.755.311q-9.994.026-19.987,0a1.19,1.19,0,0,1-.754-.311q-1.761-1.7-3.466-3.466a1.23,1.23,0,0,1-.3-.755c-.033-1.132-.03-2.264,0-3.4a1.327,1.327,0,0,1,.251-.791q1.659-1.792,3.388-3.521a1.344,1.344,0,0,1,.829-.313c.873-.04,1.748-.015,2.681-.015a22.188,22.188,0,0,0-.033-2.677,2.588,2.588,0,0,0-.7-1.125c-.993-1.191-2.02-2.354-3.018-3.54-1.509-1.784-2.907-3.664-4.527-5.332a3.415,3.415,0,0,1-.9-2.759c.025-1.822.02-3.647,0-5.468a1.481,1.481,0,0,1,.488-1.152c1.761-1.738,3.491-3.5,5.261-5.226a1.436,1.436,0,0,1,.91-.37c5.678-.023,11.355.02,17.033-.049A3.328,3.328,0,0,1,152.1,91.73c1.771,1.669,3.56,3.319,5.347,4.974.15.138.332.241.49.371a2.654,2.654,0,0,1,1.075,2.3,4.054,4.054,0,0,1-1.093,3.007,2.6,2.6,0,0,1-2.186.958c-2.378-.089-4.76-.093-7.14-.153a1.021,1.021,0,0,1-.641-.274C147.321,102.266,146.723,101.58,146.024,100.813Z" transform="translate(-120.15 -81.72)"/>
  <path id="Path_141" data-name="Path 141" d="M146.267,128.259c.06-.985.146-1.938.163-2.892a1.485,1.485,0,0,0-.285-.889c-1.022-1.274-2.079-2.521-3.135-3.773-.831-.98-1.69-1.937-2.515-2.917q-1.626-1.916-3.218-3.859a.881.881,0,0,1-.126-.519c-.009-1.823-.016-3.647.008-5.469a1.113,1.113,0,0,1,.3-.7q2.4-2.442,4.844-4.847a1.027,1.027,0,0,1,.629-.3q8.268-.024,16.535-.01a1.268,1.268,0,0,1,.228.053l-3.438,4.483c-.565.736-1.139,1.464-1.685,2.213a.965.965,0,0,0-.1.531c0,1.719-.018,3.438.01,5.156a1.2,1.2,0,0,0,.314.754c2.012,2.045,4.051,4.069,6.08,6.1.933.933,1.857,1.874,2.8,2.8,1.066,1.044,2.164,2.056,3.212,3.117a1.481,1.481,0,0,1,.387.9q.114,2.66.126,5.321a1.424,1.424,0,0,1-.369.912c-1.547,1.593-3.129,3.154-4.7,4.725a1.6,1.6,0,0,1-2.251-.119c-.986-1.151-2.006-2.272-3.018-3.405-.345-.387-.7-.767-1.035-1.162a1.25,1.25,0,0,1,.1-1.383c.03-.029.073-.053.091-.088.614-1.224,1.676-1.364,2.882-1.231a7.358,7.358,0,0,0,1.569-.006c.252-.026.643-.181.69-.355a1.161,1.161,0,0,0-.163-.908c-.415-.521-1.071-.888-1.368-1.455-.449-.855-1.021-.748-1.817-.732-3.813.075-7.628.033-11.444.029a2.071,2.071,0,0,1-.3-.073ZM144.8,108.467h-4.4c-.319,0-.645-.043-.651.444s.292.472.629.472h8.853c.341,0,.629-.008.62-.478-.011-.49-.343-.438-.658-.438Zm1.743-2.608h4.269c.342,0,.692.044.677-.483-.015-.493-.353-.431-.664-.431h-8.54c-.323,0-.643-.033-.645.451s.3.465.629.464c1.423,0,2.847,0,4.271,0Zm-1.866,7.168H149c.316,0,.587-.008.595-.441.006-.412-.22-.478-.56-.478q-4.3.009-8.6,0c-.338,0-.568.06-.563.474s.273.446.591.445c1.4,0,2.8,0,4.205,0Zm8.132,11.066h4.276c.332,0,.575-.045.572-.464s-.251-.456-.58-.456q-4.208.008-8.417,0c-.308,0-.591-.008-.6.431-.014.465.264.49.611.488,1.373,0,2.755,0,4.137,0Zm-6.055-8.334H142.6c-.316,0-.587.009-.594.441-.006.414.22.479.56.478q4.115-.009,8.227,0c.338,0,.567-.06.562-.474s-.274-.446-.591-.445c-1.339,0-2.679,0-4.018,0Zm2.2,4.562h4.024c.318,0,.646.044.654-.444s-.288-.474-.629-.473h-8.1c-.34,0-.629,0-.622.477s.341.44.656.44Z" transform="translate(-129.989 -91.654)" fill="url(#linear-gradient)"/>
  <path id="Path_142" data-name="Path 142" d="M170.629,322.142c-.834.88-1.562,1.615-2.256,2.389a1.292,1.292,0,0,0-.287.7c-.045.478.035.97-.025,1.442a1.793,1.793,0,0,0,.578,1.5c1.083,1.2,2.163,2.407,3.322,3.7-.264.019-.433.043-.6.043q-7.324,0-14.649-.013a1.292,1.292,0,0,1-.81-.319c-.957-.908-1.886-1.845-2.8-2.8a1.987,1.987,0,0,1-.327-.755c-.038-.112.01-.251-.009-.377a3.37,3.37,0,0,1,1.383-3.48,17.9,17.9,0,0,0,1.748-1.82.754.754,0,0,1,.482-.207C161.059,322.14,165.752,322.142,170.629,322.142Z" transform="translate(-143.596 -284.042)" fill="#43dde0"/>
  <path id="Path_143" data-name="Path 143" d="M296,109c2.089,1.948,4.068,3.786,6.036,5.636a1.574,1.574,0,0,1,.019,2.056c-.044.045-.107.08-.126.135-.479,1.08-1.383,1.156-2.408,1.1-1.791-.092-3.585-.1-5.38-.142-.118,0-.285.006-.347-.063-.7-.788-1.376-1.6-2.09-2.382a.449.449,0,0,1,0-.692c.942-1.2,1.9-2.389,2.828-3.6C295.017,110.417,295.46,109.755,296,109Z" transform="translate(-264.972 -97.704)" fill="#80beea"/>
  <path id="Path_144" data-name="Path 144" d="M162.942,152.858h4.4c.314,0,.646-.053.658.438.011.47-.279.478-.62.478h-8.853c-.336,0-.635,0-.629-.472s.332-.445.651-.444Z" transform="translate(-148.135 -136.046)"/>
  <path id="Path_145" data-name="Path 145" d="M177.733,125.748h-4.276c-.331,0-.636.014-.629-.464s.322-.451.645-.451h8.54c.311,0,.649-.062.664.431.015.527-.335.483-.677.483Q179.867,125.746,177.733,125.748Z" transform="translate(-161.187 -111.544)"/>
  <path id="Path_146" data-name="Path 146" d="M163.638,182.739H159.43c-.318,0-.585-.014-.591-.445s.225-.474.563-.474q4.3.009,8.6,0c.34,0,.566.065.56.478-.008.434-.279.441-.595.441C166.53,182.737,165.08,182.739,163.638,182.739Z" transform="translate(-148.957 -161.367)"/>
  <path id="Path_147" data-name="Path 147" d="M228.556,270.749h-4.15c-.347,0-.629-.023-.611-.488.013-.439.3-.431.6-.431h8.417c.326,0,.579.033.58.457s-.24.466-.572.464C231.4,270.745,229.982,270.749,228.556,270.749Z" transform="translate(-205.743 -238.309)"/>
  <path id="Path_148" data-name="Path 148" d="M180.6,210.87h4.024c.317,0,.585.013.591.445s-.224.474-.562.474q-4.115-.008-8.227,0c-.34,0-.566-.064-.56-.478,0-.433.278-.443.594-.441C177.84,210.872,179.22,210.87,180.6,210.87Z" transform="translate(-163.845 -186.763)"/>
  <path id="Path_149" data-name="Path 149" d="M198.459,240.765h-4.024c-.316,0-.646.049-.656-.44s.283-.478.622-.477h8.1c.337,0,.629,0,.629.473s-.336.444-.654.444Z" transform="translate(-179.502 -212.098)"/>
</svg>
