<svg xmlns="http://www.w3.org/2000/svg" xmlns:xlink="http://www.w3.org/1999/xlink" width="54.444" height="54.444" viewBox="0 0 54.444 54.444">
  <defs>
    <clipPath id="clip-path">
      <path id="Path_422" data-name="Path 422" d="M0,0H54.444V54.444H0Z"/>
    </clipPath>
  </defs>
  <g id="wordpress-blue" clip-path="url(#clip-path)">
    <path id="Path_417" data-name="Path 417" d="M209.993,41.628h-9.446v1c2.955,0,3.43.633,3.43,4.38v6.755c0,3.746-.474,4.433-3.43,4.433-2.268-.317-3.8-1.53-5.91-3.853l-2.427-2.638c3.271-.581,5.012-2.639,5.012-4.961,0-2.9-2.48-5.118-7.124-5.118h-9.287v1c2.955,0,3.43.633,3.43,4.38v6.755c0,3.746-.475,4.433-3.43,4.433v1h10.5v-1c-2.954,0-3.43-.687-3.43-4.433v-1.9h.9l5.858,7.334h15.356c7.546,0,10.818-4.01,10.818-8.813s-3.272-8.76-10.818-8.76Zm-22.11,8.6V43.211h2.163a3.236,3.236,0,0,1,3.43,3.535,3.221,3.221,0,0,1-3.43,3.482Zm22.268,7.335h-.37c-1.9,0-2.163-.474-2.163-2.9V43.211h2.533c5.488,0,6.489,4.01,6.489,7.124C216.642,53.554,215.639,57.564,210.152,57.564Zm-58.731-5.382,3.641-10.766c1.056-3.113.581-4.009-2.8-4.009V36.351h9.92v1.056c-3.324,0-4.116.791-5.435,4.643L150.735,60.1h-.686L144.667,43.58,139.179,60.1h-.687L132.635,42.05c-1.266-3.852-2.111-4.643-5.171-4.643V36.351h11.715v1.056c-3.114,0-3.958.739-2.85,4.009l3.535,10.766,5.329-15.831h1Zm17.941,7.7c-5.8,0-10.554-4.274-10.554-9.5,0-5.171,4.749-9.446,10.554-9.446s10.554,4.274,10.554,9.446C179.915,55.612,175.167,59.886,169.362,59.886Zm0-17.307c-4.854,0-6.544,4.379-6.544,7.809,0,3.483,1.689,7.81,6.544,7.81,4.908,0,6.6-4.327,6.6-7.81C175.958,46.957,174.27,42.578,169.362,42.578Z" transform="translate(-70.824 -20.198)" fill="#00749a"/>
    <path id="Path_418" data-name="Path 418" d="M351.754,58.144V59.2H339.67V58.144c3.536,0,4.169-.9,4.169-6.175V43.527c0-5.278-.633-6.121-4.169-6.121V36.35h10.923c5.435,0,8.444,2.8,8.444,6.544,0,3.641-3.009,6.49-8.444,6.49h-3.008v2.585c0,5.278.633,6.175,4.169,6.175ZM350.593,38.25h-3.008v9.182h3.008c2.955,0,4.327-2.058,4.327-4.538C354.92,40.361,353.548,38.25,350.593,38.25Zm44.695,15.99-.264.95c-.474,1.741-1.056,2.375-4.8,2.375h-.739c-2.743,0-3.219-.633-3.219-4.379V50.757c4.116,0,4.433.369,4.433,3.113h1V46.007h-1c0,2.744-.317,3.113-4.433,3.113v-5.91h2.9c3.747,0,4.327.633,4.8,2.375l.265,1h.843l-.369-4.96H379.192v1c2.955,0,3.43.633,3.43,4.38v6.755c0,3.427-.4,4.291-2.733,4.414-2.214-.339-3.734-1.546-5.814-3.834l-2.428-2.638c3.272-.581,5.013-2.639,5.013-4.961,0-2.9-2.48-5.118-7.124-5.118H360.25v1c2.955,0,3.43.633,3.43,4.38v6.755c0,3.746-.475,4.433-3.43,4.433v1h10.5v-1c-2.954,0-3.43-.687-3.43-4.433v-1.9h.9l5.857,7.334h21.687l.317-4.96h-.793Zm-27.967-4.011V43.211h2.163a3.236,3.236,0,0,1,3.43,3.535,3.221,3.221,0,0,1-3.43,3.482ZM406,59.885a7.8,7.8,0,0,1-4.749-1.794,3.787,3.787,0,0,0-.844,1.794h-1V52.6h1.055a5.856,5.856,0,0,0,5.963,5.541c1.689,0,3.061-.95,3.061-2.532,0-1.372-1.213-2.428-3.377-3.43L403.1,50.757c-2.111-1-3.694-2.745-3.694-5.066,0-2.533,2.375-4.7,5.646-4.7a6.608,6.608,0,0,1,4.116,1.372,2.98,2.98,0,0,0,.686-1.426h1v6.227h-1.108c-.37-2.48-1.741-4.538-4.538-4.538-1.477,0-2.85.844-2.85,2.164,0,1.372,1.108,2.11,3.641,3.271l2.9,1.425c2.533,1.214,3.535,3.167,3.535,4.75C412.437,57.564,409.535,59.885,406,59.885Zm16.253,0a7.8,7.8,0,0,1-4.749-1.794,3.788,3.788,0,0,0-.843,1.794h-1V52.6h1.055a5.855,5.855,0,0,0,5.963,5.541c1.689,0,3.061-.95,3.061-2.532,0-1.372-1.214-2.428-3.378-3.43l-3.008-1.425c-2.111-1-3.694-2.745-3.694-5.066,0-2.533,2.375-4.7,5.647-4.7a6.609,6.609,0,0,1,4.116,1.372,2.976,2.976,0,0,0,.685-1.426h1v6.227H426c-.37-2.48-1.741-4.538-4.538-4.538-1.478,0-2.85.844-2.85,2.164,0,1.372,1.108,2.11,3.642,3.271l2.9,1.425c2.533,1.214,3.535,3.167,3.535,4.75C428.689,57.564,425.787,59.885,422.252,59.885Z" transform="translate(-188.734 -20.198)" fill="#464342"/>
    <g id="Group_123" data-name="Group 123">
      <path id="Path_419" data-name="Path 419" d="M8.708,32.06A23.358,23.358,0,0,0,21.869,53.078L10.73,22.556A23.264,23.264,0,0,0,8.708,32.06Zm39.118-1.178A12.3,12.3,0,0,0,45.9,24.441c-1.184-1.924-2.293-3.553-2.293-5.476a4.044,4.044,0,0,1,3.921-4.145c.1,0,.2.013.3.019a23.348,23.348,0,0,0-35.282,4.4c.548.016,1.065.028,1.5.028,2.443,0,6.224-.3,6.224-.3a.965.965,0,0,1,.15,1.924s-1.266.149-2.673.223l8.5,25.3,5.111-15.327-3.639-9.968c-1.258-.074-2.449-.223-2.449-.223a.965.965,0,0,1,.148-1.924s3.857.3,6.151.3c2.442,0,6.224-.3,6.224-.3a.965.965,0,0,1,.15,1.924s-1.268.149-2.673.223l8.439,25.1,2.329-7.784c1.01-3.23,1.778-5.55,1.778-7.549Z" transform="translate(-4.839 -4.839)" fill="#00749a"/>
      <path id="Path_420" data-name="Path 420" d="M53.423,49.293l-7.007,20.36a23.359,23.359,0,0,0,14.352-.372,1.978,1.978,0,0,1-.166-.322ZM73.5,36.046a17.925,17.925,0,0,1,.157,2.4,22.029,22.029,0,0,1-1.776,8.365L64.753,67.436A23.357,23.357,0,0,0,73.5,36.046Z" transform="translate(-25.791 -20.029)" fill="#00749a"/>
      <path id="Path_421" data-name="Path 421" d="M27.222,0A27.222,27.222,0,1,0,54.446,27.222,27.253,27.253,0,0,0,27.222,0Zm0,53.2A25.974,25.974,0,1,1,53.2,27.222,26,26,0,0,1,27.222,53.2Z" fill="#00749a"/>
    </g>
  </g>
</svg>
