<svg xmlns="http://www.w3.org/2000/svg" width="60.527" height="53.855" viewBox="0 0 60.527 53.855">
  <path id="xamarin" d="M17.464,0a4.8,4.8,0,0,0-4.058,2.347L.607,24.58a4.836,4.836,0,0,0,0,4.694l12.8,22.234a4.8,4.8,0,0,0,4.058,2.347h25.6a4.8,4.8,0,0,0,4.058-2.347l12.8-22.234a4.837,4.837,0,0,0,0-4.694L47.12,2.347A4.8,4.8,0,0,0,43.063,0ZM17.7,13.007a.543.543,0,0,1,.107,0h4.415a.582.582,0,0,1,.483.287l7.49,13.347a.569.569,0,0,1,.071.215.578.578,0,0,1,.071-.215l7.472-13.347a.584.584,0,0,1,.5-.287h4.415a.6.6,0,0,1,.5.842L35.912,26.927l7.311,13.061a.6.6,0,0,1-.5.86H38.307a.584.584,0,0,1-.5-.3L30.334,27.2a.573.573,0,0,1-.071-.215.574.574,0,0,1-.071.215L22.7,40.543a.584.584,0,0,1-.482.3H17.8a.6.6,0,0,1-.5-.86l7.311-13.061L17.3,13.849a.6.6,0,0,1,.393-.842Z" transform="translate(0)" fill="#3498db"/>
</svg>
