<?xml version="1.0" encoding="utf-8"?>
<!-- Generator: Adobe Illustrator 27.1.1, SVG Export Plug-In . SVG Version: 6.00 Build 0)  -->
<svg version="1.1" id="Layer_1" xmlns="http://www.w3.org/2000/svg" xmlns:xlink="http://www.w3.org/1999/xlink" x="0px" y="0px"
	 viewBox="0 0 486 458.7" style="enable-background:new 0 0 486 458.7;" xml:space="preserve">
<style type="text/css">
	.st0{fill:#085AEC;}
	.st1{fill:#9CC1F7;}
</style>
<g>
	<path class="st0" d="M165.2,111.7c5.9,33.2,17.7,63.2,36,91.2c-5.2,4.6-10.4,9.2-15.6,13.9c-2.5,2.2-5.1,4.3-7.4,6.7
		c-3,3.1-3.1,7.8-0.4,10.8c2.9,3.2,7,3.6,10.8,1c0.8-0.6,1.6-1.2,2.3-1.9c8.5-7.5,17-15,25.4-22.6c5.5-4.9,9-10.9,9-18.3
		c-0.2-46.4,41-76.7,78.4-81.4c5.3-0.7,10.6-0.9,15.9-0.9c24.3-0.1,48.7-0.1,73,0c8.5,0,11.6,3.2,11.7,11.8c0,4.8,0,9.7,0,14.5
		c0,7.7-3.3,11.3-11.1,11.4c-9,0.2-18,0-27-0.2c-27.9-0.4-51.6,8.9-69.7,30.6c-11.2,13.4-15.5,29.2-14.4,46.6
		c0.3,4.6,3.8,7.9,8.1,7.8c4.3-0.1,7.6-3.5,7.8-8.2c0.2-4.5-0.1-9.1,0.7-13.4c4.4-23,23.8-41.6,49.2-45.7
		c11.4-1.8,23.2-1.1,34.8-1.3c1.2,0,3,1.8,3.5,3.1c8,23.6,11.4,47.8,10.5,72.7c-1.1,31.7-9.9,61.5-21.4,90.8
		c-11.9,30.2-28.7,57.1-51.3,80.2c-9.8,10-20.9,19.3-32.7,26.8c-35.2,22.5-72.1,20.7-105.9-3.8c-21.2-15.4-37.6-35.3-51.7-57.1
		c-21.9-34-37.9-70.5-47.7-109.8c-16.3-65.2,14.6-119.6,65.8-148.3C156,116.4,160.3,114.3,165.2,111.7z M276.4,404.2
		c2.9-2,5.4-3.3,7.3-5.2c17-16.6,31.7-35.1,43.4-55.8c6.4-11.3,11.7-23.1,17.2-34.8c2-4.2-0.1-8.5-4.2-10.3
		c-3.9-1.7-7.9-0.2-10.1,3.8c-0.7,1.2-1.1,2.4-1.7,3.6c-13.1,30.7-31.4,57.8-55,81.5c-1.3,1.3-3.1,2.5-3.5,4.1
		c-0.6,2.5-1.1,5.8,0,7.9C270.8,401,273.8,402.2,276.4,404.2z"/>
	<path class="st1" d="M256.1,46.9c0-10.7,0-21.2,0-31.7c0-7.5,2.7-10.1,10.3-10.1c15.2,0,30.3,0,45.5,0c7.1,0,10,2.8,10,10.1
		c0.1,16.5-0.1,33,0.2,49.5c0,2.3,1.4,5,3,6.8c6.7,7.3,13.8,14.3,20.7,21.4c-0.2,0.4-0.4,0.8-0.6,1.2c-8.1,0-16.1,0-24.2,0
		c-38.5,0-70.4,14.2-94.1,44.9c-10.3,13.4-15.8,28.8-17,46.7c-1.2-1.6-2-2.5-2.6-3.5c-13.6-23.8-21.7-49.6-26.9-76.4
		c-1.2-6.1-0.2-11.6,5.1-16.3c-6.5-6.5-12.8-12.8-19.1-19.1c-6.2-6.2-6.2-9.6-0.1-15.9c11.3-11.6,22.6-23.1,33.9-34.7
		c8.1-8.3,10.4-8.2,18.7,0.1c7.5,7.5,15.1,15.1,22.6,22.6C247.1,48.1,247.1,48.1,256.1,46.9z"/>
</g>
</svg>
