<?xml version="1.0" encoding="utf-8"?>
<!-- Generator: Adobe Illustrator 27.1.1, SVG Export Plug-In . SVG Version: 6.00 Build 0)  -->
<svg version="1.1" id="Layer_1" xmlns="http://www.w3.org/2000/svg" xmlns:xlink="http://www.w3.org/1999/xlink" x="0px" y="0px"
	 viewBox="0 0 486 458.7" style="enable-background:new 0 0 486 458.7;" xml:space="preserve">
<style type="text/css">
	.st0{fill:#085AEC;}
	.st1{fill:#9CC1F7;}
</style>
<g>
	<path class="st0" d="M474,211.1c0,8.5,0,16.9,0,25.4c-1.2,8.1-2.1,16.2-3.7,24.2c-7,34.5-21.3,66.4-43,95.3
		c-16.8,22.4-39.9,34-70.5,30.1c-22.2-2.8-38.8-12.4-47.2-32.5c-4.4-10.6-10.4-20.8-16.6-30.7c-7-11.2-16-21.1-28.3-28.1
		c-13.4-7.6-27.3-8.5-40.9-1.1c-6.7,3.7-13,8.5-18.3,13.7c-13.9,13.8-22.8,30.4-30,47.7c-5.7,13.8-16.3,22.6-31.1,27.7
		c-30.1,10.3-61.7,2.2-81.9-22.2c-24.5-29.7-39.2-63.5-46.9-99.9c-1.7-8-2.5-16.1-3.7-24.2c0-8.5,0-16.9,0-25.4
		c1.2-8.3,2.2-16.7,3.6-25c3.3-19.8,8.1-39.3,18.1-57.5c15.6-28.3,41.8-40.7,73.7-34.4c20.1,4,35,13.8,41.4,32.5
		c1.9,5.6,4.4,11,6.6,16.5c8.7,21,21.9,39,41.2,53.7c26.7,20.3,64.9,17.4,84.7,5.2c15.4-9.5,28.8-21,37.2-36.1
		c7.7-13.8,13.7-28.4,20.1-42.7c3.5-7.8,8.4-14.5,16-19.3c15.8-10.2,33.4-13.4,52.2-10.1c19.4,3.4,32.5,14.6,42.2,29.5
		c12.6,19.4,17.7,40.9,21.4,62.8C471.8,194.4,472.8,202.8,474,211.1z M319.5,225c-12.1,0.6-21.5,5.3-27.1,15.4
		c-3.5,6.1-1.3,13.1,4.8,16.4c6.4,3.5,14,1.7,18.5-4.2c3.1-4,4.4-4,7.4,0c4.4,5.8,11.8,7.6,18.1,4.4c6.4-3.3,8.8-10.4,5.3-16.7
		C340.9,230.5,331.7,225.6,319.5,225z M425.1,242.4c-0.8-3.3-1.3-6.7-2.6-9.8c-2.5-6.1-9.9-9.1-16.6-7.2c-6.5,1.9-10.4,8-9.1,14.2
		c1.1,5.3,0.5,5.9-5.6,5c-7.7-1.1-14,2.6-15.8,9.1c-1.8,6.3,2.1,12.5,9.4,14.7C404.2,274.4,424.5,261.2,425.1,242.4z M64.8,162.5
		c0.5,2.5,0.7,5.1,1.5,7.6c2.2,7.1,9.2,11.2,16.4,9.6c7.7-1.7,11.6-7.8,9.9-15.4c-0.8-3.8,0.5-5.1,4.7-4.3c8.4,1.5,15.2-2.1,17.1-9
		c1.8-6.5-2.6-12.8-10.5-14.9C84.6,130.8,65.1,144.1,64.8,162.5z M182,243.3c-0.6-2.8-1-5.6-2-8.3c-2.4-6.8-9.5-10.5-16.5-8.7
		c-7.2,1.8-11.2,8-9.6,15c1,4.4-0.1,5.4-5,4.5c-7.7-1.4-14.6,2.2-16.5,8.7c-1.9,6.4,2.1,12.7,9.5,15
		C161.4,275.4,181.7,262.1,182,243.3z M61,224.8c0.4,19,20.9,32.4,40.5,26.2c7.2-2.3,11-8.5,9.2-14.8c-1.9-6.5-8.4-10.1-15.9-8.9
		c-5.9,1-6.5,0.3-5.4-5.2c1.3-6.1-2.9-12.4-9.3-14.1c-6.6-1.8-13.9,1.1-16.4,7C62.3,218.1,61.8,221.5,61,224.8z M379.7,296.4
		c-21.4,0.3-36.5,19.9-28.6,37.3c2.8,6.2,9.5,9.3,16.4,7.5c6.7-1.7,10.8-7.9,9.4-14.3c-1.1-5.2-0.2-6,5.8-5
		c6.9,1.1,13.6-2.5,15.5-8.4c2-6.1-1.2-12.5-7.7-14.8C387,297.6,383.3,297.1,379.7,296.4z M414,161.2c-0.7-3-1.1-6.2-2.2-9.1
		c-2.4-6.5-9.4-9.7-16.5-8c-6.8,1.6-10.9,8.1-9.4,14.7c1,4.7,0,5.6-5.3,4.7c-7.7-1.3-14.4,2.4-16.3,9c-1.8,6.2,2.3,12.5,9.4,14.7
		C393.2,193.2,413.6,179.9,414,161.2z M91.7,322.9c0.3,1.4,0.7,4.1,1.5,6.7c2.3,6.8,9.3,10.5,16.4,8.9c7.2-1.7,11.2-7.8,9.8-14.9
		c-0.9-4.7,0-5.5,5.3-4.6c7.5,1.2,14.5-2.5,16.2-8.6c1.9-6.6-1.9-12.8-9.4-15.1C112.1,289.2,91.3,302.9,91.7,322.9z"/>
	<path class="st1" d="M302.5,22.1c3.2,1.4,6.7,2.4,9.6,4.2c8,5.1,9.4,13,4.1,20.4c-3.7,5.1-7.9,10-11.2,15.3
		c-2.3,3.7-4.3,7.9-4.9,12.1c-2.2,15-12.3,23.8-29,24.1c-12,0.1-24-0.5-36-0.6c-6.8,0-13.5,0.6-20.3,0.6c-7.4,0-14.1-2.4-20-6.6
		c-5.2-3.7-8.4-8.6-8.6-14.7c-0.2-6.2-2.5-11.7-6.4-16.7c-3.1-4-5.8-8.3-9.1-12.1c-9.5-11.2-1-21.7,9-24.7c1.3-0.4,2.5-0.9,3.7-1.3
		c10.8,0,21.7,0,32.5,0c8.6,1.8,14.6,6.6,18.6,13.7c0.9,1.6,2,3.1,3.2,4.5c2.9,3.5,7.7,3.5,10.7,0c1.2-1.4,2.3-2.9,3.2-4.5
		c4-7,9.9-11.8,18.6-13.7C280.9,22.1,291.7,22.1,302.5,22.1z"/>
	<path class="st1" d="M300.8,115.7c0.8,12.6-9.6,26.1-24.2,27c-22.2,1.4-44.7,1.4-67,0c-14.5-0.9-24.8-14-24.4-26.5
		c6.8,1.9,13.6,4.4,20.7,5.5c6.3,1,12.8,0.7,19.3,0.8c12.9,0.1,25.8-0.2,38.7,0.2c12.4,0.4,24.2-1.3,35.3-6.6
		C299.6,116,300.2,115.9,300.8,115.7z"/>
	<path class="st1" d="M283.8,167.5c-23.2,26.5-59.7,25.4-81.7,0C229.3,169.2,256.6,169.1,283.8,167.5z"/>
	<path class="st1" d="M298.7,406.7c1.9,21.5-11,34.3-33.9,34.4c-15.6,0-31.2,0.1-46.9-0.1c-15-0.2-27.6-9.1-30.4-21.7
		c-0.9-3.9-0.6-8-0.9-13c15.5,9,31.9,8.6,48.3,8.4c9.3-0.1,18.6-0.1,27.9,0C275.5,414.9,287.4,412.8,298.7,406.7z"/>
	<path class="st1" d="M298.7,359.6c2.4,15.4-10.3,28.4-25.9,29.8c-11.9,1.1-24,0.7-36,0.7c-7.9,0-16,0.2-23.8-0.7
		c-16.4-1.8-27.5-14.8-25.7-29.6c3.3,1.4,6.4,3.2,9.7,4.1c5.7,1.5,11.6,3.3,17.5,3.5c17.9,0.5,35.7,0.3,53.6,0.3
		C279,367.8,289,364.8,298.7,359.6z"/>
	<path class="st1" d="M211.5,342.7c6.4-10.5,12.9-19.7,22.9-26.4c5.9-4,11-4,17,0c10,6.7,16.6,15.9,23,26.4
		C253.3,342.7,232.9,342.7,211.5,342.7z"/>
</g>
</svg>
