<?xml version="1.0" encoding="utf-8"?>
<!-- Generator: Adobe Illustrator 27.1.1, SVG Export Plug-In . SVG Version: 6.00 Build 0)  -->
<svg version="1.1" id="Layer_1" xmlns="http://www.w3.org/2000/svg" xmlns:xlink="http://www.w3.org/1999/xlink" x="0px" y="0px"
	 viewBox="0 0 486 458.7" style="enable-background:new 0 0 486 458.7;" xml:space="preserve">
<style type="text/css">
	.st0{fill:#9CC1F7;}
	.st1{fill:#085AEC;}
</style>
<g>
	<path class="st0" d="M340,188.4c-17.1,1.8-31.6,8.8-43.9,21.6c-17.8,18.3-27.1,41.6-27.2,69.6c-0.1,46.3,0,92.6,0,138.9
		c0,1.3,0,2.6,0,3.9c-0.1,6.4-2.4,9.9-6.5,9.9c-4.1,0-6.4-3.4-6.4-10c0-48.3-0.7-96.7,0.3-145c0.9-43.5,19.1-74.8,51.6-94.5
		c1.2-0.7,2.4-1.5,3.5-2.1c-6.4-4.7-13.2-8.8-19.1-14.1c-23.1-21-35.3-48.9-36.2-83.6c-0.2-5.9-0.1-11.8,0-17.6
		c0.1-5.5,2.6-8.9,6.4-8.9c3.8,0,6.3,3.5,6.5,8.9c0.6,11.9-0.2,24.2,2.1,35.6c7.4,37.4,27.7,60.3,58.9,69.8c1,0.3,2.1,0.4,3.2,0.6
		c0.4,0.1,0.9-0.1,1.7-0.2c-2.1-6.5-4.4-12.6-6.2-19c-6.8-22.9-11-46.3-7-70.7c6.5-40,35-58.9,65.3-54.2
		c27.3,4.2,48.4,21.1,64.7,46.7c29.3,45.9,37,123.5,17.7,176.4c-10.5,28.9-27.6,49.3-54,56.8c-15,4.3-30.1,3.8-44.9-1.1
		c-21.7-7.1-32.2-25.5-35.5-50.9c-2.7-20.7-0.1-41,4.1-61.1C339.2,192.4,339.5,190.8,340,188.4z M341.6,188.1
		c9.1,0,18.5,0.2,27.9-0.1c3.7-0.1,5.2,0.9,6.2,5.5c4.4,19.4,14.2,33.2,31,38.5c3.5,1.1,7.4,1.3,11,0.9c3.5-0.4,5.3-3.7,5-7.9
		c-0.3-3.9-2.3-6.3-5.6-6.8c-2.3-0.3-4.6-0.4-6.9-0.9c-10.9-2.5-21.6-16.8-21.5-29.2c1.7,0,3.3,0,5,0c11.6,0,23.2,0.1,34.7-0.1
		c4.8-0.1,7.4-3,7.4-7.6c0-4.7-2.5-7.6-7.4-7.7c-8.8-0.1-17.6-0.1-26.4-0.1c-4.7,0-9.5,0-14.2,0c-0.4-14.9,11-30.6,23.1-32.6
		c6.6-1.1,9.5-4,8.9-9.1c-0.7-5.2-4.6-7.4-11.1-6.2c-0.5,0.1-0.9,0.3-1.4,0.4c-17.3,4.8-27.1,18.6-31.8,38.1c-0.7,2.9-1.1,6-1.6,9
		c-12.9,0-25.4,0-38.3,0C337.6,177.6,339.4,182.4,341.6,188.1z"/>
	<path class="st1" d="M151,171.8c20.9-4.1,37.1-15.3,49.6-34.1c10.9-16.4,16.5-35.1,16.6-56.1c0-5.9-0.1-11.8,0.1-17.6
		c0.2-4.4,2.5-7.3,6.2-7.4c3.7-0.1,6.3,2.4,6.5,6.9c1.4,28-1.8,54.6-15.8,78.2c-9.5,16-21.6,28.2-36.4,36.5
		c-1.1,0.6-2.2,1.3-3.1,1.8c6.3,4.6,12.9,8.6,18.8,13.8c23.4,21,36.1,49.1,36.4,84c0.5,48.3,0.2,96.7,0.2,145c0,6.1-2.3,9.4-6.3,9.5
		c-4.1,0-6.6-3.5-6.6-9.9c0-47.6,0.1-95.2-0.1-142.8c-0.2-43.4-24.8-79.6-60.3-89.4c-3.3-0.9-6.6-1.3-10.5-2.1
		c1.6,9.4,3.3,18,4.4,26.8c2,15.1,2.4,30.3-0.3,45.5c-4.7,26.6-19.4,43.2-41.9,47.4c-23.5,4.4-45.6,1.2-65.1-16.2
		c-16.3-14.6-26.2-34.6-31.3-57.7C0.9,182.5,5.4,132.8,27.6,86.5c14.6-30.5,36.6-50.9,66-58.3c25.6-6.5,50.3,4.5,62.7,27.9
		c8.9,16.7,10.9,35.3,9.4,54.6c-1.5,19-6.1,37-12.4,54.5C152.6,167,152,168.8,151,171.8z M98,188.1c-0.2,1.8-0.3,2.7-0.5,3.6
		c-3.7,15.4-13.7,24.9-27.1,26.5c-2.2,0.3-5,2.2-6.2,4.3c-0.9,1.7-0.6,6.2,0.6,7.4c2,2,5.2,3.4,7.8,3.2c18-1.2,33.1-16.7,37.8-39.1
		c1.1-5.1,2.8-6.2,6.8-6.1c9.4,0.3,18.8,0.1,27.5,0.1c2.2-5.9,4-10.8,5.9-15.8c-13.1,0-25.7,0-36.7,0c-3.9-10.1-6.5-19.8-11.1-28.1
		C96,132.1,86,125.3,73.6,124.6c-4.3-0.3-7.3,2.6-7.4,7c-0.1,4.8,2.3,7.4,6.1,8.2c0.9,0.2,1.8,0.2,2.8,0.3
		c12.1,2,23.4,17.6,23.1,32.6c-8.9,0-17.8,0-26.7,0c-5.2,0-10.5-0.1-15.7,0.3c-3.4,0.2-5.3,2.9-5.5,6.9c-0.2,4.3,1.6,7.1,5.1,7.9
		c1.8,0.4,3.7,0.4,5.5,0.4C73.1,188.2,85.3,188.1,98,188.1z"/>
</g>
</svg>
