<?xml version="1.0" encoding="utf-8"?>
<!-- Generator: Adobe Illustrator 27.1.1, SVG Export Plug-In . SVG Version: 6.00 Build 0)  -->
<svg version="1.1" id="Layer_1" xmlns="http://www.w3.org/2000/svg" xmlns:xlink="http://www.w3.org/1999/xlink" x="0px" y="0px"
	 viewBox="0 0 486 458.7" style="enable-background:new 0 0 486 458.7;" xml:space="preserve">
<style type="text/css">
	.st0{fill:#085AEC;}
	.st1{fill:#9CC1F7;}
</style>
<g>
	<path class="st0" d="M281,371.5c-19.4,10.3-23.9,28.1-28.1,46.2c-3,13.2-3.2,13.2-17.5,13.2c-42.9,0-85.8,0-128.7,0
		c-2.2,0-4.3,0-7,0c3.8-17,7.6-33.5,11.3-50c3.6-16.5,7.6-33,10.5-49.7c3-17.7-0.5-34.5-10.6-49.8c-5-7.6-10.7-14.9-15.7-22.6
		c-29.4-45-39.7-93.5-27.3-145.3c8.8-36.9,32.4-63.9,68.2-80c49.5-22.3,102-27.3,155-15.5c50.9,11.3,80,44.9,93.3,91.9
		c5.2,18.6,7.4,37.7,6.9,57c-0.2,7.7,1.7,14.3,5.8,20.8c12.8,19.9,25.5,39.8,38.3,59.7c7.3,11.4,2.9,19.1-11.3,19.7
		c-12,0.5-24.1,1.3-36.1,1.7c-5.6,0.2-7.7,2.7-7.7,7.8c-0.1,16.2-0.4,32.4-0.6,48.6c-0.3,23.6-15.9,39.1-40.6,39.5
		c-14.2,0.2-28.5,0.1-42.6-1.6c-18.3-2.2-32.6-11.8-43.7-25.7c-0.7-0.9-1.4-1.8-2.1-2.7c-2.4-3.2-5.5-4.6-9.1-2
		c-3.3,2.4-2.7,5.5-0.5,8.5c9,12.6,20.6,22.2,35.3,28.4C277.8,370,279,370.5,281,371.5z M140,70.2c-33.9,0-54.1,19.6-53.2,51.4
		c0,1.7-0.7,3.7-1.8,5.1c-9.8,13.5-12.4,28.3-9,44.1c5.8,26.6,31.5,51.7,62.4,47.5c1.6-0.2,3.8,1.3,5,2.5
		c6.4,6.3,12.2,13.4,19.1,19.2c10.8,9.2,23,16.6,37.6,19.4c2.1,0.4,5.3-0.5,6.7-2c1.2-1.2,0.9-4.3,0.3-6.2c-0.7-2.5-2.7-4.6-3.8-7
		c-3.3-7.4-7-14.7-9.3-22.4c-2-6.7,0.2-8.2,7.2-6.6c2.3,0.5,4.6,1.2,6.9,1.7c10.3,2,19.5,0.4,27.2-7.1c1.5-1.5,4.8-2.3,7.1-2
		c31.4,4.4,54.2-5,64.7-34.2c0.6-1.7,3.8-3.4,6-3.6c37.5-3.5,61.3-34.2,53.4-69.1c-5.9-26.2-30.6-44.6-61.3-46.2
		c-2.6-0.1-5.8-1.3-7.5-3C276,28.8,248.7,26.9,224,46.7C188.4,28.3,151.2,39.6,140,70.2z"/>
	<path class="st1" d="M312.2,158.4c-3.7-7.8-7-15.1-10.5-22.2c-0.8-1.6-2.4-3.5-4-4c-2.5-0.7-6.3-1.2-7.7,0.1
		c-1.4,1.3-1.8,6-0.5,7.2c12.8,12,9.4,24.9,3,38c-6.7,13.7-18.7,19.9-34.2,20.3c-4.5,0.1-9-0.6-13.9-0.9c2.7-9.4,1.3-17.7-4-25.5
		c10.7-8.1,16.5-18.2,16-31.3c-0.2-4.1-1.8-7.1-6.7-6.6c-5.1,0.5-5.1,4.2-5.1,8c0,13-9.4,23.3-23,24.3c-4.3,0.3-8.9-1.1-13.2-2.3
		c-3.9-1.1-7.1-1.4-8.9,2.7c-1.9,4.1,0.6,6.9,4.4,7.7c6.6,1.5,13.5,3.1,20.2,2.8c5.8-0.3,7.9,1.8,9.4,6.1
		c3.5,10.3-6.1,23.3-17.6,23.2c-5.2,0-10.5-1.5-15.7-2.4c-12.1-2.2-19.2,3.1-18,14.8c0.8,8.2,3.7,16.3,5.6,24
		c-8.2-1.9-27.4-17.6-35-29.6c6.6-6.7,10.9-14.5,10-24.1c-0.3-2.9-0.7-6.2-2.3-8.6c-1.1-1.7-4.7-3.3-6.6-2.8
		c-1.9,0.5-2.9,3.7-4.3,5.7c-0.2,0.2,0.1,0.7,0.1,1.1c2.9,18-7.1,26.8-25.8,22.5c-30.1-7-47.6-46.4-30.7-69.9
		c1.6,1.9,3.1,3.9,4.7,5.7c5.4,6.1,12,10.6,20.5,11.3c2.1,0.2,5.9-2.2,6.4-4c0.5-1.8-1.5-5.7-3.4-6.5c-17.5-6.9-26.4-20-22.6-34.6
		c4.4-17.1,21.4-28.8,39.2-26.8c10.9,1.2,19.6,6.5,26.4,15.4c-8.8,5.2-15.6,11.9-18.2,21.4c-0.6,2.1-0.4,5.1,0.8,6.7
		c2.8,3.7,8.3,2,10.2-3.2c3.5-9.6,10.2-15.4,20.8-17c8.2-1.2,15.2,1.1,21.1,6.5c3,2.7,6.3,4.7,9.7,1.3c3.6-3.7,1.2-6.9-1.9-9.7
		c-7.5-6.6-16.3-9.6-26.4-9.7c-1.9,0-4.6-0.6-5.5-1.8c-5.8-8.2-13.5-14.1-23.5-18.3c3.3-10.1,10-17.1,19.9-21
		c15.9-6.3,31-3.4,45.4,4.4c1.6,0.9,2.5,3.9,2.7,6.1c1.2,12.6,10.5,23.8,23.1,27.4c3.7,1.1,7.4,1.4,9-2.7c1.6-4.2-0.8-6.5-5-8
		c-10.3-3.5-16.1-11.5-15.2-20.4c0.6-5.9,9-13,18-14.4c15-2.4,27.4,2.8,38.1,13.2c-10,9.5-12.1,20.2-6.4,32.5
		c-8.1,4.7-13.9,11.1-17,19.6c-1.3,3.7-2.3,7.7,2.9,9.4c5.2,1.7,6.9-1.8,8.4-5.6c6.7-17.1,27.1-21.8,41.4-9.5
		c3.1,2.6,6.2,4.8,9.7,1.4c3.6-3.6,1.5-6.8-1.8-9.7c-7.6-6.7-16.6-10.3-26.9-9.6c-5.8,0.4-7.3-2.5-7.8-6.8c-1-8.4,4.3-13.8,13-13.5
		c25.6,1,45.4,14.4,51.5,35.4C363.3,133.2,338.3,158.1,312.2,158.4z"/>
</g>
</svg>
