<?xml version="1.0" encoding="utf-8"?>
<!-- Generator: Adobe Illustrator 27.1.1, SVG Export Plug-In . SVG Version: 6.00 Build 0)  -->
<svg version="1.1" id="Layer_1" xmlns="http://www.w3.org/2000/svg" xmlns:xlink="http://www.w3.org/1999/xlink" x="0px" y="0px"
	 viewBox="0 0 486 458.7" style="enable-background:new 0 0 486 458.7;" xml:space="preserve">
<style type="text/css">
	.st0{fill:#085AEC;}
	.st1{fill:#9CC1F7;}
</style>
<g>
	<path class="st0" d="M279.8,361.3c0.4,19.3,10.6,26.7,24.2,32.3c5.2,2.1,8.9,8.1,13.3,12.4c-5.2,2.8-10.4,8-15.7,8.1
		c-39.5,0.7-79.1,0.6-118.6,0c-4.8-0.1-9.5-5.1-14.3-7.8c3.8-4.1,7-10.2,11.6-12c14.1-5.5,25.3-12.5,25.9-32.9c-6.2,0-11.6,0-17.1,0
		c-37.5,0-74.9,0.1-112.4-0.1c-22.2-0.1-33-11.2-33.1-34.2c-0.2-82.8-0.2-165.6,0-248.4c0-23.1,10.8-34.3,33-34.3
		c110.8-0.1,221.7-0.1,332.5,0c22.8,0,33.2,11.2,33.2,35.7c0.1,81.7,0.1,163.4,0,245.1c0,25.3-10.4,36.1-34.5,36.2
		C365.8,361.4,323.7,361.3,279.8,361.3z M241.4,296.2c53.1,0,106.2-0.4,159.4,0.3c13.2,0.2,18.3-3.1,18.1-18.3
		c-0.7-63.5-0.6-127.1-0.1-190.6c0.1-13.2-2.9-18.4-16.4-18.3c-106.2,0.5-212.5,0.5-318.7,0c-13.5-0.1-16.6,5.1-16.4,18.3
		c0.5,63.5,0.6,127.1-0.1,190.6c-0.2,15.1,4.8,18.5,18.1,18.3C137.3,295.8,189.3,296.2,241.4,296.2z M243.3,350.1
		c6.4-9.9,13.3-15.9,12.8-21c-0.5-5.4-8.1-10.1-12.6-15.1c-4.9,5.2-12.5,9.8-13.6,15.7C229.1,334.1,236.6,340.4,243.3,350.1z"/>
	<path class="st1" d="M268.8,121.5c-1.8-5.6-4.2-9.2-3.9-12.6c0.4-4.4,1.9-10.4,4.8-12.4c3-2,10.3-1.9,12.4,0.5
		c7.8,8.6,15,18.2,20.8,28.4c1.6,2.9-0.9,11.1-4,13.8c-10.1,9-21.4,16.7-31.3,24.2c7.1,9.8,16.3,18.6,20.7,29.6
		c7.9,19.8-0.4,44.2-19.5,58c-32.5,23.5-67.8,26.7-103.7,9.5c-19.6-9.4-28.8-27.9-30.7-50.6c-5.1-0.5-9.2-0.7-13.2-1.3
		c-22.1-3.1-39.3-22-40.1-43.8c-0.7-18.8,16.1-42.9,33.2-47.6c21.5-5.9,39.9,4.6,49.9,28.6c1,2.5,1.4,5.9,3.2,7.4
		c13,11.3,12.4,24.1,2.9,38.1c1,1.4,2.1,2.8,3.1,4.2c5.8-3,12.7-4.7,17.1-9.3c6.9-7.1,6.6-16.1-0.8-23.2
		c-9.1-8.7-10.2-17.5,1.5-23.1c4-1.9,13.8,1,16.1,4.8c18.7,31.9,17.7,40.5-4.1,70.4c-1.1,1.5-1.3,3.8-2,6c12,1.4,15.5-1.9,27.7-25.1
		c4.4,1.3,8.8,2.5,11.3,3.3c-3.4-16.8-10.4-33.2-9-48.9C232.9,131.1,250.2,124.6,268.8,121.5z"/>
	<path class="st1" d="M361.6,170.4c-12-11.8-23.9-21.7-33.8-33.5c-14.9-17.7-11.9-44.8,6.7-49.4c17.1-4.2,36.6-4.3,53.8-0.3
		c18.8,4.3,21.9,30.7,8.1,49.4c-1.3,1.7-2.7,3.4-4.2,4.9C382.5,150.6,372.9,159.8,361.6,170.4z"/>
	<path class="st1" d="M308.7,238.9c35.3-2.1,20.5-38.2,40.2-55.3c4.2,19.5,7.8,36.4,12.3,57.6c5.3-12.6,9.1-21.5,13.7-32.4
		c12,10.5,9.8,32.9,32.7,28.4c-13.1,12.5-18.2,12.5-32.2,2.9c-2.2,6.3-4.2,12.4-6.5,18.3c-2.2,5.7-4.8,11.3-7.2,17
		c-1.6,0-3.2,0-4.8-0.1c-3.7-16.4-7.5-32.9-11.5-50.7C334.6,249.5,327.5,252.9,308.7,238.9z"/>
</g>
</svg>
