<?xml version="1.0" encoding="UTF-8"?>
<svg id="_x31_" xmlns="http://www.w3.org/2000/svg" version="1.1" viewBox="0 0 382.22 400">
  <!-- Generator: Adobe Illustrator 29.5.1, SVG Export Plug-In . SVG Version: 2.1.0 Build 141)  -->
  <defs>
    <style>
      .st0 {
        fill: #9cc1f7;
      }

      .st1 {
        fill: #085aec;
      }
    </style>
  </defs>
  <path class="st0" d="M189.78,58.32c20.78-19.99,44.06-22.62,68.55-10.86,26.29,12.62,39.61,34.44,40.12,63.73.3,17.28-5.71,32.37-17.5,44.85-6.31,6.68-13.15,12.99-20.46,18.56-23.39,17.82-47.1,35.22-71.3,53.24.25.12-.58-.14-1.24-.63-19.63-14.8-39.45-29.36-58.76-44.56-11-8.66-22.31-17.39-31.46-27.86-19.21-21.98-22.06-47.57-9.85-73.72,12.21-26.18,33.87-39.7,62.89-40.23,15.28-.28,27.92,6.59,39,17.5ZM160.63,120.35v20.28h19.37v19.13h19.9v-19.7h19.13v-19.67h-19.34v-19.16h-20.09v19.13h-18.97Z"/>
  <path class="st1" d="M238.26,288.5c4.1,5.48,7.75,10.37,12.28,16.43,17.5-13.66,35.65-26.11,51.68-40.86,12.89-11.86,17.92-28.34,19.78-46.14,2.29-21.97,6.38-43.78,10.35-65.54,1.03-5.64,3.9-11.23,7.03-16.15,4.66-7.33,10.85-6.53,14.02,1.66,1.87,4.85,3.18,10.1,3.7,15.28,3.13,31.17,1.31,62.29-1.75,93.36-1.11,11.32-6.13,21.28-13.49,29.51-12.72,14.21-26.3,27.65-39.55,41.37-9.91,10.26-20.18,20.18-29.72,30.76-7.59,8.41-12.7,18.36-13.84,29.81h-59.01c0-2.49,0-4.64,0-6.79,0-23.94.22-47.88-.06-71.81-.26-22.07,8.67-39,27.07-51,16.39-10.69,33.04-20.87,52.62-24.81,1.5-.3,3.03-.58,4.56-.63,11.53-.38,16.99,6.86,11.39,16.83-3.95,7.04-9.76,13.55-16.07,18.65-12.96,10.46-26.82,19.8-40.97,30.08Z"/>
  <path class="st1" d="M179.38,378h-58.49c-1.94-17.18-12.28-29.5-23.51-41.01-11.8-12.1-24.31-23.5-36.48-35.24-3.32-3.2-6.49-6.56-9.78-9.78-17.6-17.25-28.92-37.18-28.58-62.76.32-24.56-.31-49.13-.12-73.7.04-5.17,1.17-10.57,3.02-15.4,1.26-3.3,4.69-8.11,7.07-8.06,3.19.06,7.63,3.5,9.19,6.65,3.47,7,6.56,14.53,7.9,22.18,3.36,19.21,6.43,38.54,8.17,57.95,1.73,19.36,8.63,36.28,22.93,48.81,15.11,13.24,32.01,24.45,48.59,36.9,4.26-5.64,8.02-10.62,12.1-16.03-13.9-10.1-27.72-19.44-40.67-29.85-6.33-5.09-12.23-11.51-16.25-18.51-5.89-10.26-.45-17.61,11.45-17.2,1.53.05,3.07.25,4.56.6,24.76,5.76,45.9,18.45,64.54,35.19,8.7,7.82,13.91,18.67,14.16,30.37.64,29.4.21,58.81.21,88.9Z"/>
</svg>