<?xml version="1.0" encoding="utf-8"?>
<!-- Generator: Adobe Illustrator 27.1.1, SVG Export Plug-In . SVG Version: 6.00 Build 0)  -->
<svg version="1.1" id="Layer_1" xmlns="http://www.w3.org/2000/svg" xmlns:xlink="http://www.w3.org/1999/xlink" x="0px" y="0px"
	 viewBox="0 0 486 458.7" style="enable-background:new 0 0 486 458.7;" xml:space="preserve">
<style type="text/css">
	.st0{fill:#085AEC;}
	.st1{fill:#9CC1F7;}
</style>
<g>
	<path class="st0" d="M447.4,61.9c0,111.6,0,223.3,0,334.9c-0.2,0.5-0.5,1-0.6,1.5c-4.3,23.9-21.9,39.7-44.7,39.7
		c-106.1,0.1-212.1,0.1-318.2,0c-25.7,0-45.2-20.7-45.3-47.7C38.5,283,38.5,175.7,38.7,68.4c0-5.1,0.8-10.4,2.3-15.3
		C47.1,32.8,64,20.6,85.5,20.6c101.3,0,202.5,0,303.8,0c4.9,0,9.8-0.1,14.8,0.1c18,0.5,34.1,12.6,40.4,30.4
		C445.6,54.6,446.4,58.3,447.4,61.9z M243,54.3c-50,0-100.1,0-150.1,0c-15,0-22.4,7.7-22.4,23.4c0,78.7,0,157.3,0,236
		c0,15.5,7.4,23.4,22,23.4c100.3,0,200.7,0,301,0c14.4,0,22-7.9,22-23c0-78.9,0-157.9,0-236.8c0-14.9-7.5-22.9-21.6-22.9
		C343.6,54.3,293.3,54.3,243,54.3z M313.3,397.6c27.5,0,55.1,0.1,82.6,0c11.6,0,20.3-9.8,19.5-21.7c-0.7-10.7-9.1-18.7-20-18.7
		c-40.6,0-81.1,0-121.7,0c-14.4,0-28.7,0-43.1,0c-8.9,0-16.2,5.7-18.7,14.2c-3.8,13.2,5.3,26.1,18.8,26.1
		C258.2,397.7,285.8,397.6,313.3,397.6z M96.2,350.5c-14.1-0.1-25.7,12-25.7,26.8c0,14.7,11.3,26.8,25.2,27
		c14.1,0.2,25.8-11.8,25.9-26.6C121.7,362.8,110.3,350.6,96.2,350.5z M191.9,377.6c0.1-14.9-11.4-27-25.5-27.1
		c-13.9,0-25.4,11.9-25.6,26.6c-0.1,14.9,11.2,27.2,25.3,27.3C180.2,404.5,191.8,392.4,191.9,377.6z"/>
	<path class="st1" d="M204.5,287.8c0,11.7,0,23.5,0,35.6c-1.3,0.1-2.6,0.2-3.9,0.2c-36.2,0-72.4,0-108.6,0c-6.8,0-8.8-2.1-8.8-9.2
		c0-79.1,0-158.2,0-237.2c0-7.2,2-9.3,8.7-9.3c36.2,0,72.4,0,108.6,0c1.2,0,2.4,0,3.8,0c0,12.1,0,23.9,0,35.8
		c-25.1,10.8-31.3,39.8-19.4,59.7c11.4,18.9,37.3,26.6,58,8.7c10.8,9.4,23.1,12.7,36.8,8.4c10.1-3.2,17.8-10,22.7-19.9
		c10.2-20.5,2.3-47.1-21-56.9c0-11.7,0-23.4,0-35.6c1.3-0.1,2.6-0.2,3.9-0.2c36.2,0,72.4,0,108.6,0c6.8,0,8.8,2.1,8.8,9.2
		c0,79.1,0,158.2,0,237.2c0,7.2-2,9.3-8.7,9.3c-36.2,0-72.4,0-108.6,0c-1.2,0-2.4,0-3.8,0c0-12.1,0-23.9,0-35.8
		c24.4-10.4,31.5-38.9,19.6-59.4c-11.2-19.1-37.3-27.1-58.2-9c-10.7-9.2-22.8-12.6-36.4-8.5c-10.2,3.1-17.8,9.8-22.9,19.6
		C173.4,250.5,180.6,277.7,204.5,287.8z M146.8,202.4c4.3,0,8.5,0.1,12.8,0c4.1-0.1,6.8-2.9,6.8-6.7c0-3.8-2.7-6.6-6.8-6.7
		c-8.2-0.1-16.5-0.1-24.7,0c-4.1,0.1-6.8,2.9-6.7,6.7c0,3.8,2.7,6.6,6.8,6.7C138.8,202.5,142.8,202.4,146.8,202.4z M338.8,202.4
		c4.1,0,8.3,0.1,12.4,0c4.1-0.1,6.8-2.9,6.7-6.7c0-3.8-2.7-6.6-6.8-6.7c-8.2-0.1-16.5-0.1-24.7,0c-4.1,0.1-6.7,2.9-6.7,6.7
		c0,3.8,2.7,6.6,6.8,6.7C330.6,202.5,334.7,202.4,338.8,202.4z M324.8,175.8c1.9-0.4,2.8-0.4,3.4-0.8c7.2-5,14.5-9.8,21.5-15.1
		c2.6-2,2.7-5.5,0.7-8.3c-1.9-2.8-4.8-4.1-7.7-2.2c-7.1,4.6-14.1,9.4-20.8,14.7c-1.5,1.2-2.1,4.9-1.6,7
		C320.9,173,323.5,174.5,324.8,175.8z M166.3,167.5c-0.5-0.8-1.1-2.9-2.4-3.9c-6.6-4.9-13.3-9.7-20.2-14.2c-3-2-6-0.9-8,2.1
		c-2.1,3.1-1.8,6.5,0.9,8.6c6.8,5.2,13.7,10.1,20.9,14.6C161.4,177.2,166.4,173.4,166.3,167.5z M166.3,223.9c0-6.7-5.4-9.8-10-6.7
		c-6.4,4.2-12.7,8.7-18.9,13.2c-3.2,2.3-3.8,6.1-2,9.2c2,3.3,5.7,4.2,9.1,1.9c6.4-4.3,12.7-8.7,18.8-13.3
		C164.9,227,165.7,224.8,166.3,223.9z M351.6,234.9c-0.5-0.9-1.2-3.1-2.7-4.2c-6.5-4.8-13.1-9.5-19.9-14c-3-2-6.6-0.8-8.3,2.2
		c-1.8,3.2-1.5,6.5,1.3,8.6c6.7,5,13.5,9.9,20.6,14.4C346.5,244.5,351.5,241,351.6,234.9z"/>
	<path class="st0" d="M268.5,323.6c-16.5,0-32.3,0-48.1,0c-0.8,0-1.6,0-3,0c0-1.7,0-3.1,0-4.6c0-11.6,0-23.3,0-34.9
		c0-5.1-1.4-7-6.1-8.4c-11.2-3.4-18.8-12.9-19.4-24.4c-0.6-11.6,5.8-22.3,15.9-26.7c10.3-4.4,21.3-1.5,29.2,7.9
		c4.1,4.9,7.9,4.9,12-0.1c7.8-9.3,18.9-12.3,29.2-7.8c10.1,4.4,16.5,15.2,15.8,26.7c-0.7,11.4-8.3,21-19.1,24.2
		c-5.2,1.6-6.4,3.2-6.4,9c0,11.5,0,23,0,34.5C268.5,320.4,268.5,321.8,268.5,323.6z"/>
	<path class="st0" d="M217.4,68c17.1,0,33.8,0,51.1,0c0,1.9,0,3.8,0,5.7c0,10.9,0,21.9,0,32.8c0,6.3,1,7.7,6.8,9.4
		c12.3,3.8,20.4,16.7,18.5,29.6c-2.1,14-13.3,23.9-26.6,23.2c-7.1-0.4-13-3.5-17.8-9.1c-5.1-6-8-6.1-12.9-0.2
		c-7.5,8.9-18.8,11.8-29,7.3c-10-4.4-16.2-14.9-15.7-26.4c0.5-11.3,8.2-21.2,18.8-24.5c5.6-1.7,6.7-3.2,6.7-9.1
		C217.5,93.9,217.4,81.2,217.4,68z"/>
	<path class="st1" d="M312.9,384.2c-26.5,0-53,0-79.4,0c-1.3,0-2.7,0.1-4-0.1c-3.4-0.7-5.5-2.9-5.5-6.6c0-3.7,2.1-5.9,5.5-6.6
		c1.2-0.2,2.4-0.1,3.6-0.1c53.5,0,107,0,160.5,0c1.2,0,2.4-0.1,3.6,0.1c3.4,0.7,5.5,2.9,5.5,6.6c0,3.7-2.1,6-5.5,6.6
		c-1.3,0.3-2.7,0.1-4,0.1C366.4,384.2,339.6,384.2,312.9,384.2z"/>
	<path class="st1" d="M83.3,377.1c0.2-7.3,6-13.2,13-13.1c7.1,0.1,12.8,6.5,12.5,14c-0.3,7.3-6.2,13.1-13.2,12.9
		C88.7,390.7,83.1,384.4,83.3,377.1z"/>
	<path class="st1" d="M166.5,390.9c-6.9,0.1-12.8-5.9-12.9-13.2c-0.1-7.5,5.7-13.7,12.8-13.7c6.9,0,12.7,6.1,12.7,13.4
		C179.1,384.7,173.4,390.8,166.5,390.9z"/>
</g>
</svg>
