<?xml version="1.0" encoding="utf-8"?>
<!-- Generator: Adobe Illustrator 27.1.1, SVG Export Plug-In . SVG Version: 6.00 Build 0)  -->
<svg version="1.1" id="Layer_1" xmlns="http://www.w3.org/2000/svg" xmlns:xlink="http://www.w3.org/1999/xlink" x="0px" y="0px"
	 viewBox="0 0 486 458.7" style="enable-background:new 0 0 486 458.7;" xml:space="preserve">
<style type="text/css">
	.st0{fill:#9CC1F7;}
	.st1{fill:#085AEC;}
</style>
<g>
	<path class="st0" d="M352.9,192.8c3.6,17.9,1.9,34.6-6.2,50.5c-9.7,19.2-24.8,33.6-41.7,46.2c-4.9,3.7-10,7.3-15.4,10.2
		c-18.4,10.2-33.2,23.8-42.2,43.7c-0.8-1-1.4-1.5-1.7-2.2c-8.5-17.1-21.4-30-37.9-39.5c-18-10.4-34.3-22.9-47.7-39
		c-16.2-19.5-24.1-41.4-19.7-67.1c0.7-4.4,2.5-6.8,6.8-8.1c17.6-5.6,35.3-5.2,53.1-1.5c19.7,4.2,39.1,9.7,58.9,13.3
		c27.8,5.1,55.7,4.8,83.1-2.9C345.7,195.6,349,194.2,352.9,192.8z M277.8,264.3c-4.3,0-7.6,3.4-7.6,7.8c0,4.2,3.1,7.5,7.3,7.6
		c4.2,0.1,7.9-3.3,8-7.5C285.6,268,282,264.4,277.8,264.3z M316.3,233.4c4.2,0,7.6-3.5,7.6-7.9c-0.1-4.2-3.2-7.4-7.4-7.5
		c-4.3-0.1-7.8,3.3-7.9,7.6C308.5,229.8,312.1,233.5,316.3,233.4z M169.9,210.2c-4.2,0-7.7,3.7-7.7,7.9c0,4.3,3.5,7.6,7.9,7.5
		c4.2-0.1,7.3-3.3,7.4-7.5C177.6,213.8,174.1,210.2,169.9,210.2z M216.1,272c4.2,0,7.6-3.4,7.6-7.8c0-4.2-3.1-7.4-7.3-7.6
		c-4.3-0.1-7.8,3.2-7.9,7.5C208.4,268.4,211.9,272,216.1,272z M247.1,225.7c-4.2-0.1-7.7,3.4-7.7,7.7c0,4.2,3.1,7.5,7.3,7.6
		c4.3,0.2,7.8-3.1,7.9-7.4C254.7,229.3,251.3,225.8,247.1,225.7z"/>
	<path class="st1" d="M254.7,449.7c0-1.9,0-3.5,0-5.2c0-20.5,0-41,0-61.5c0-29.9,12.9-52.3,38.6-67.4c22.8-13.4,43.4-29.4,58.7-51.3
		c20-28.7,24.2-59.6,10.3-92.1c-8.8-20.3-25.1-33.5-45.2-41.3c-47.3-18.3-95.1-18.8-142,0.8c-57,23.8-60.5,83.9-40.8,120.4
		c10.9,20.2,26.7,36,45,49.3c7.9,5.7,16.3,10.8,24.5,16.1c21.8,13.9,34.2,33.8,35.1,59.7c0.8,23.4,0.3,46.8,0.3,70.1
		c0,0.7-0.2,1.4-0.3,2.1c-5,0.3-7.6-1.5-8.1-5.8c-2.4-21.5-5.3-43.1-6.9-64.7c-1.6-21.3-10.6-37.8-28.9-48.7
		c-21.9-13-42.1-28-58.5-47.7c-19.3-23.2-30-49.5-27.8-80.3c2.7-36.9,20.8-63.7,52.9-81.3c18.9-10.3,39.4-15.4,60.7-17.5
		c28.7-2.8,57.1-1.5,84.8,7c26.7,8.2,50,21.8,64.2,46.6c20.9,36.6,19.2,73.5-2.3,109.4c-14.6,24.3-35.8,42-59.3,57.2
		c-4,2.6-8.3,4.9-12.3,7.5c-16.8,10.9-25.5,26.4-27.2,46.5c-1.9,22.1-4.6,44-7,66C262.6,447.8,260.3,449.4,254.7,449.7z"/>
	<path class="st1" d="M347.4,177.9c-11.5,5.8-23.7,7.3-36,8.5c-29.2,3-57.4-2.7-85.4-10.3c-19.9-5.4-40-9.7-60.9-7.8
		c-4.6,0.4-9.2,1.2-14.4,1.8c4.8-7.6,10.7-13.2,17.5-17.9c14.6-10.1,31.1-14.9,48.4-17.2c26.3-3.5,52.5-3.1,78.3,3.5
		c20.5,5.3,38.4,14.9,49.9,33.7c0.8,1.3,1.5,2.6,2.2,3.9C347.2,176.6,347.2,177,347.4,177.9z"/>
	<path class="st1" d="M462.7,17.5c-2.8,57.7-27,102.9-75.7,134.8c-2.8-4.3-5.4-8.4-8.2-12.8c44-28.7,65.7-70,68.4-122
		C452.5,17.5,457.5,17.5,462.7,17.5z"/>
	<path class="st1" d="M107.2,152c-43-22.7-79.7-88.1-75.5-134.5c4.9,0,9.7,0,15,0c2.7,52,24.5,93.3,68.4,122
		C112.4,143.6,109.9,147.7,107.2,152z"/>
</g>
</svg>
